<svg xmlns="http://www.w3.org/2000/svg" xmlns:xlink="http://www.w3.org/1999/xlink" contentStyleType="text/css" data-diagram-type="ACTIVITY" height="1648px" preserveAspectRatio="none" style="width:375px;height:1648px;background:#FFFFFF;" version="1.1" viewBox="0 0 375 1648" width="375px" zoomAndPan="magnify"><?plantuml $version$?><defs/><g><g class="title" data-source-line="2"><text fill="#000000" font-family="DejaVu Sans" font-size="14" font-weight="700" lengthAdjust="spacing" textLength="300.3027" x="36.5845" y="33.1318">Organizer Event Creation &#8212; Activity Diagram</text></g><ellipse cx="180.0898" cy="62.0986" fill="#222222" rx="10" ry="10" style="stroke:#222222;stroke-width:1;"/><rect fill="#F1F1F1" height="33.7988" rx="5" ry="5" style="stroke:#181818;stroke-width:0.5;" width="233.3984" x="63.3906" y="92.0986"/><text fill="#000000" font-family="DejaVu Sans" font-size="12" lengthAdjust="spacing" textLength="213.3984" x="73.3906" y="113.3545">Authenticate as ORGANIZER or ADMIN</text><rect fill="#F1F1F1" height="33.7988" rx="5" ry="5" style="stroke:#181818;stroke-width:0.5;" width="145.4141" x="107.3828" y="194.7969"/><text fill="#000000" font-family="DejaVu Sans" font-size="12" lengthAdjust="spacing" textLength="125.4141" x="117.3828" y="216.0527">Create venue metadata</text><rect fill="#F1F1F1" height="33.7988" rx="5" ry="5" style="stroke:#181818;stroke-width:0.5;" width="77.3633" x="141.4082" y="292.5957"/><text fill="#000000" font-family="DejaVu Sans" font-size="12" lengthAdjust="spacing" textLength="57.3633" x="151.4082" y="313.8516">Add sector</text><rect fill="#F1F1F1" height="33.7988" rx="5" ry="5" style="stroke:#181818;stroke-width:0.5;" width="252.7637" x="53.708" y="353.8945"/><text fill="#000000" font-family="DejaVu Sans" font-size="12" lengthAdjust="spacing" textLength="232.7637" x="63.708" y="375.1504">Define rows, seats per row and accessibility</text><polygon fill="#F1F1F1" points="180.0898,248.5957,192.0898,260.5957,180.0898,272.5957,168.0898,260.5957,180.0898,248.5957" style="stroke:#181818;stroke-width:0.5;stroke-linejoin:miter;stroke-miterlimit:10;"/><polygon fill="#F1F1F1" points="142.0771,407.6934,218.1025,407.6934,230.1025,419.6934,218.1025,431.6934,142.0771,431.6934,130.0771,419.6934,142.0771,407.6934" style="stroke:#181818;stroke-width:0.5;stroke-linejoin:miter;stroke-miterlimit:10;"/><text fill="#000000" font-family="DejaVu Sans" font-size="12" lengthAdjust="spacing" textLength="76.0254" x="142.0771" y="424.0498">More sectors?</text><text fill="#000000" font-family="DejaVu Sans" font-size="12" lengthAdjust="spacing" textLength="18.6738" x="230.1025" y="417.1504">yes</text><polygon fill="#F1F1F1" points="142.3994,145.8975,217.7803,145.8975,229.7803,157.8975,217.7803,169.8975,142.3994,169.8975,130.3994,157.8975,142.3994,145.8975" style="stroke:#181818;stroke-width:0.5;stroke-linejoin:miter;stroke-miterlimit:10;"/><text fill="#000000" font-family="DejaVu Sans" font-size="12" lengthAdjust="spacing" textLength="13.3477" x="184.0898" y="181.1533">no</text><text fill="#000000" font-family="DejaVu Sans" font-size="12" lengthAdjust="spacing" textLength="75.3809" x="142.3994" y="162.2539">Venue exists?</text><polygon fill="#F1F1F1" points="180.0898,451.6934,192.0898,463.6934,180.0898,475.6934,168.0898,463.6934,180.0898,451.6934" style="stroke:#181818;stroke-width:0.5;stroke-linejoin:miter;stroke-miterlimit:10;"/><rect fill="#F1F1F1" height="33.7988" rx="5" ry="5" style="stroke:#181818;stroke-width:0.5;" width="116.0527" x="122.0635" y="495.6934"/><text fill="#000000" font-family="DejaVu Sans" font-size="12" lengthAdjust="spacing" textLength="96.0527" x="132.0635" y="516.9492">Create draft event</text><rect fill="#F1F1F1" height="33.7988" rx="5" ry="5" style="stroke:#181818;stroke-width:0.5;" width="263.457" x="48.3613" y="549.4922"/><text fill="#000000" font-family="DejaVu Sans" font-size="12" lengthAdjust="spacing" textLength="243.457" x="58.3613" y="570.748">Set title, classification, tags, city and schedule</text><rect fill="#F1F1F1" height="33.7988" rx="5" ry="5" style="stroke:#181818;stroke-width:0.5;" width="220.7656" x="69.707" y="647.291"/><text fill="#000000" font-family="DejaVu Sans" font-size="12" lengthAdjust="spacing" textLength="200.7656" x="79.707" y="668.5469">Map default or sector pricing category</text><polygon fill="#F1F1F1" points="180.0898,603.291,192.0898,615.291,180.0898,627.291,168.0898,615.291,180.0898,603.291" style="stroke:#181818;stroke-width:0.5;stroke-linejoin:miter;stroke-miterlimit:10;"/><polygon fill="#F1F1F1" points="114.3916,701.0898,245.7881,701.0898,257.7881,713.0898,245.7881,725.0898,114.3916,725.0898,102.3916,713.0898,114.3916,701.0898" style="stroke:#181818;stroke-width:0.5;stroke-linejoin:miter;stroke-miterlimit:10;"/><text fill="#000000" font-family="DejaVu Sans" font-size="12" lengthAdjust="spacing" textLength="131.3965" x="114.3916" y="717.4463">More pricing categories?</text><text fill="#000000" font-family="DejaVu Sans" font-size="12" lengthAdjust="spacing" textLength="18.6738" x="257.7881" y="710.5469">yes</text><rect fill="#F1F1F1" height="33.7988" rx="5" ry="5" style="stroke:#181818;stroke-width:0.5;" width="156.7578" x="101.7109" y="745.0898"/><text fill="#000000" font-family="DejaVu Sans" font-size="12" lengthAdjust="spacing" textLength="136.7578" x="111.7109" y="766.3457">Run publication validation</text><rect fill="#F1F1F1" height="33.7988" rx="5" ry="5" style="stroke:#181818;stroke-width:0.5;" width="141.3711" x="109.4043" y="847.7881"/><text fill="#000000" font-family="DejaVu Sans" font-size="12" lengthAdjust="spacing" textLength="121.3711" x="119.4043" y="869.0439">Correct start/end times</text><rect fill="#F1F1F1" height="33.7988" rx="5" ry="5" style="stroke:#181818;stroke-width:0.5;" width="206.7617" x="76.709" y="916.5869"/><text fill="#000000" font-family="DejaVu Sans" font-size="12" lengthAdjust="spacing" textLength="186.7617" x="86.709" y="937.8428">Return to validation after correction</text><polygon fill="#F1F1F1" points="133.7275,798.8887,226.4521,798.8887,238.4521,810.8887,226.4521,822.8887,133.7275,822.8887,121.7275,810.8887,133.7275,798.8887" style="stroke:#181818;stroke-width:0.5;stroke-linejoin:miter;stroke-miterlimit:10;"/><text fill="#000000" font-family="DejaVu Sans" font-size="12" lengthAdjust="spacing" textLength="13.3477" x="184.0898" y="834.1445">no</text><text fill="#000000" font-family="DejaVu Sans" font-size="12" lengthAdjust="spacing" textLength="92.7246" x="133.7275" y="815.2451">Future schedule?</text><polygon fill="#F1F1F1" points="180.0898,970.3857,192.0898,982.3857,180.0898,994.3857,168.0898,982.3857,180.0898,970.3857" style="stroke:#181818;stroke-width:0.5;stroke-linejoin:miter;stroke-miterlimit:10;"/><rect fill="#F1F1F1" height="33.7988" rx="5" ry="5" style="stroke:#181818;stroke-width:0.5;" width="106.7129" x="126.7334" y="1063.2852"/><text fill="#000000" font-family="DejaVu Sans" font-size="12" lengthAdjust="spacing" textLength="86.7129" x="136.7334" y="1084.541">Complete layout</text><rect fill="#F1F1F1" height="33.7988" rx="5" ry="5" style="stroke:#181818;stroke-width:0.5;" width="206.7617" x="76.709" y="1132.084"/><text fill="#000000" font-family="DejaVu Sans" font-size="12" lengthAdjust="spacing" textLength="186.7617" x="86.709" y="1153.3398">Return to validation after correction</text><polygon fill="#F1F1F1" points="132.0547,1014.3857,228.125,1014.3857,240.125,1026.3857,228.125,1038.3857,132.0547,1038.3857,120.0547,1026.3857,132.0547,1014.3857" style="stroke:#181818;stroke-width:0.5;stroke-linejoin:miter;stroke-miterlimit:10;"/><text fill="#000000" font-family="DejaVu Sans" font-size="12" lengthAdjust="spacing" textLength="13.3477" x="184.0898" y="1049.6416">no</text><text fill="#000000" font-family="DejaVu Sans" font-size="12" lengthAdjust="spacing" textLength="96.0703" x="132.0547" y="1030.7422">Venue has seats?</text><polygon fill="#F1F1F1" points="180.0898,1185.8828,192.0898,1197.8828,180.0898,1209.8828,168.0898,1197.8828,180.0898,1185.8828" style="stroke:#181818;stroke-width:0.5;stroke-linejoin:miter;stroke-miterlimit:10;"/><rect fill="#F1F1F1" height="33.7988" rx="5" ry="5" style="stroke:#181818;stroke-width:0.5;" width="204.084" x="78.0479" y="1278.7822"/><text fill="#000000" font-family="DejaVu Sans" font-size="12" lengthAdjust="spacing" textLength="184.084" x="88.0479" y="1300.0381">Add default or missing sector price</text><rect fill="#F1F1F1" height="33.7988" rx="5" ry="5" style="stroke:#181818;stroke-width:0.5;" width="206.7617" x="76.709" y="1347.5811"/><text fill="#000000" font-family="DejaVu Sans" font-size="12" lengthAdjust="spacing" textLength="186.7617" x="86.709" y="1368.8369">Return to validation after correction</text><polygon fill="#F1F1F1" points="117.3916,1229.8828,242.7881,1229.8828,254.7881,1241.8828,242.7881,1253.8828,117.3916,1253.8828,105.3916,1241.8828,117.3916,1229.8828" style="stroke:#181818;stroke-width:0.5;stroke-linejoin:miter;stroke-miterlimit:10;"/><text fill="#000000" font-family="DejaVu Sans" font-size="12" lengthAdjust="spacing" textLength="13.3477" x="184.0898" y="1265.1387">no</text><text fill="#000000" font-family="DejaVu Sans" font-size="12" lengthAdjust="spacing" textLength="125.3965" x="117.3916" y="1246.2393">Every seat has a price?</text><polygon fill="#F1F1F1" points="180.0898,1401.3799,192.0898,1413.3799,180.0898,1425.3799,168.0898,1413.3799,180.0898,1401.3799" style="stroke:#181818;stroke-width:0.5;stroke-linejoin:miter;stroke-miterlimit:10;"/><rect fill="#F1F1F1" height="33.7988" rx="5" ry="5" style="stroke:#181818;stroke-width:0.5;" width="246.8223" x="56.6787" y="1445.3799"/><text fill="#000000" font-family="DejaVu Sans" font-size="12" lengthAdjust="spacing" textLength="226.8223" x="66.6787" y="1466.6357">Publish event and invalidate catalog cache</text><rect fill="#F1F1F1" height="33.7988" rx="5" ry="5" style="stroke:#181818;stroke-width:0.5;" width="242.8203" x="58.6797" y="1499.1787"/><text fill="#000000" font-family="DejaVu Sans" font-size="12" lengthAdjust="spacing" textLength="222.8203" x="68.6797" y="1520.4346">Announce event-created integration event</text><rect fill="#F1F1F1" height="33.7988" rx="5" ry="5" style="stroke:#181818;stroke-width:0.5;" width="328.1797" x="16" y="1552.9775"/><text fill="#000000" font-family="DejaVu Sans" font-size="12" lengthAdjust="spacing" textLength="308.1797" x="26" y="1574.2334">Monitor sales, revenue and remaining capacity dashboard</text><ellipse cx="180.0898" cy="1617.7764" fill="none" rx="11" ry="11" style="stroke:#222222;stroke-width:1;"/><ellipse cx="180.0898" cy="1617.7764" fill="#222222" rx="6" ry="6" style="stroke:#222222;stroke-width:1;"/><line style="stroke:#334155;stroke-width:1.2;" x1="180.0898" x2="180.0898" y1="72.0986" y2="92.0986"/><polygon fill="#334155" points="176.0898,82.0986,180.0898,92.0986,184.0898,82.0986,180.0898,86.0986" style="stroke:#334155;stroke-width:1;stroke-linejoin:miter;stroke-miterlimit:10;"/><line style="stroke:#334155;stroke-width:1.2;" x1="180.0898" x2="180.0898" y1="326.3945" y2="353.8945"/><polygon fill="#334155" points="176.0898,343.8945,180.0898,353.8945,184.0898,343.8945,180.0898,347.8945" style="stroke:#334155;stroke-width:1;stroke-linejoin:miter;stroke-miterlimit:10;"/><line style="stroke:#334155;stroke-width:1.2;" x1="180.0898" x2="180.0898" y1="272.5957" y2="292.5957"/><polygon fill="#334155" points="176.0898,282.5957,180.0898,292.5957,184.0898,282.5957,180.0898,286.5957" style="stroke:#334155;stroke-width:1;stroke-linejoin:miter;stroke-miterlimit:10;"/><line style="stroke:#334155;stroke-width:1.2;" x1="230.1025" x2="318.4717" y1="419.6934" y2="419.6934"/><polygon fill="#334155" points="314.4717,346.3945,318.4717,336.3945,322.4717,346.3945,318.4717,342.3945" style="stroke:#334155;stroke-width:1.2;stroke-linejoin:miter;stroke-miterlimit:10;"/><line style="stroke:#334155;stroke-width:1.2;" x1="318.4717" x2="318.4717" y1="260.5957" y2="419.6934"/><line style="stroke:#334155;stroke-width:1.2;" x1="318.4717" x2="192.0898" y1="260.5957" y2="260.5957"/><polygon fill="#334155" points="202.0898,256.5957,192.0898,260.5957,202.0898,264.5957,198.0898,260.5957" style="stroke:#334155;stroke-width:1;stroke-linejoin:miter;stroke-miterlimit:10;"/><line style="stroke:#334155;stroke-width:1.2;" x1="180.0898" x2="180.0898" y1="387.6934" y2="407.6934"/><polygon fill="#334155" points="176.0898,397.6934,180.0898,407.6934,184.0898,397.6934,180.0898,401.6934" style="stroke:#334155;stroke-width:1;stroke-linejoin:miter;stroke-miterlimit:10;"/><line style="stroke:#334155;stroke-width:1.2;" x1="180.0898" x2="180.0898" y1="228.5957" y2="248.5957"/><polygon fill="#334155" points="176.0898,238.5957,180.0898,248.5957,184.0898,238.5957,180.0898,242.5957" style="stroke:#334155;stroke-width:1;stroke-linejoin:miter;stroke-miterlimit:10;"/><line style="stroke:#334155;stroke-width:1.2;" x1="180.0898" x2="180.0898" y1="169.8975" y2="194.7969"/><polygon fill="#334155" points="176.0898,184.7969,180.0898,194.7969,184.0898,184.7969,180.0898,188.7969" style="stroke:#334155;stroke-width:1;stroke-linejoin:miter;stroke-miterlimit:10;"/><line style="stroke:#334155;stroke-width:1.2;" x1="229.7803" x2="340.4717" y1="157.8975" y2="157.8975"/><polygon fill="#334155" points="336.4717,299.4951,340.4717,309.4951,344.4717,299.4951,340.4717,303.4951" style="stroke:#334155;stroke-width:1.2;stroke-linejoin:miter;stroke-miterlimit:10;"/><line style="stroke:#334155;stroke-width:1.2;" x1="340.4717" x2="340.4717" y1="157.8975" y2="463.6934"/><line style="stroke:#334155;stroke-width:1.2;" x1="340.4717" x2="192.0898" y1="463.6934" y2="463.6934"/><polygon fill="#334155" points="202.0898,459.6934,192.0898,463.6934,202.0898,467.6934,198.0898,463.6934" style="stroke:#334155;stroke-width:1;stroke-linejoin:miter;stroke-miterlimit:10;"/><line style="stroke:#334155;stroke-width:1.2;" x1="180.0898" x2="180.0898" y1="431.6934" y2="451.6934"/><polygon fill="#334155" points="176.0898,441.6934,180.0898,451.6934,184.0898,441.6934,180.0898,445.6934" style="stroke:#334155;stroke-width:1;stroke-linejoin:miter;stroke-miterlimit:10;"/><line style="stroke:#334155;stroke-width:1.2;" x1="180.0898" x2="180.0898" y1="125.8975" y2="145.8975"/><polygon fill="#334155" points="176.0898,135.8975,180.0898,145.8975,184.0898,135.8975,180.0898,139.8975" style="stroke:#334155;stroke-width:1;stroke-linejoin:miter;stroke-miterlimit:10;"/><line style="stroke:#334155;stroke-width:1.2;" x1="180.0898" x2="180.0898" y1="475.6934" y2="495.6934"/><polygon fill="#334155" points="176.0898,485.6934,180.0898,495.6934,184.0898,485.6934,180.0898,489.6934" style="stroke:#334155;stroke-width:1;stroke-linejoin:miter;stroke-miterlimit:10;"/><line style="stroke:#334155;stroke-width:1.2;" x1="180.0898" x2="180.0898" y1="529.4922" y2="549.4922"/><polygon fill="#334155" points="176.0898,539.4922,180.0898,549.4922,184.0898,539.4922,180.0898,543.4922" style="stroke:#334155;stroke-width:1;stroke-linejoin:miter;stroke-miterlimit:10;"/><line style="stroke:#334155;stroke-width:1.2;" x1="180.0898" x2="180.0898" y1="627.291" y2="647.291"/><polygon fill="#334155" points="176.0898,637.291,180.0898,647.291,184.0898,637.291,180.0898,641.291" style="stroke:#334155;stroke-width:1;stroke-linejoin:miter;stroke-miterlimit:10;"/><line style="stroke:#334155;stroke-width:1.2;" x1="257.7881" x2="302.4727" y1="713.0898" y2="713.0898"/><polygon fill="#334155" points="298.4727,674.1904,302.4727,664.1904,306.4727,674.1904,302.4727,670.1904" style="stroke:#334155;stroke-width:1.2;stroke-linejoin:miter;stroke-miterlimit:10;"/><line style="stroke:#334155;stroke-width:1.2;" x1="302.4727" x2="302.4727" y1="615.291" y2="713.0898"/><line style="stroke:#334155;stroke-width:1.2;" x1="302.4727" x2="192.0898" y1="615.291" y2="615.291"/><polygon fill="#334155" points="202.0898,611.291,192.0898,615.291,202.0898,619.291,198.0898,615.291" style="stroke:#334155;stroke-width:1;stroke-linejoin:miter;stroke-miterlimit:10;"/><line style="stroke:#334155;stroke-width:1.2;" x1="180.0898" x2="180.0898" y1="681.0898" y2="701.0898"/><polygon fill="#334155" points="176.0898,691.0898,180.0898,701.0898,184.0898,691.0898,180.0898,695.0898" style="stroke:#334155;stroke-width:1;stroke-linejoin:miter;stroke-miterlimit:10;"/><line style="stroke:#334155;stroke-width:1.2;" x1="180.0898" x2="180.0898" y1="583.291" y2="603.291"/><polygon fill="#334155" points="176.0898,593.291,180.0898,603.291,184.0898,593.291,180.0898,597.291" style="stroke:#334155;stroke-width:1;stroke-linejoin:miter;stroke-miterlimit:10;"/><line style="stroke:#334155;stroke-width:1.2;" x1="180.0898" x2="180.0898" y1="725.0898" y2="745.0898"/><polygon fill="#334155" points="176.0898,735.0898,180.0898,745.0898,184.0898,735.0898,180.0898,739.0898" style="stroke:#334155;stroke-width:1;stroke-linejoin:miter;stroke-miterlimit:10;"/><line style="stroke:#334155;stroke-width:1.2;" x1="180.0898" x2="180.0898" y1="881.5869" y2="916.5869"/><polygon fill="#334155" points="176.0898,906.5869,180.0898,916.5869,184.0898,906.5869,180.0898,910.5869" style="stroke:#334155;stroke-width:1;stroke-linejoin:miter;stroke-miterlimit:10;"/><line style="stroke:#334155;stroke-width:1.2;" x1="180.0898" x2="180.0898" y1="822.8887" y2="847.7881"/><polygon fill="#334155" points="176.0898,837.7881,180.0898,847.7881,184.0898,837.7881,180.0898,841.7881" style="stroke:#334155;stroke-width:1;stroke-linejoin:miter;stroke-miterlimit:10;"/><line style="stroke:#334155;stroke-width:1.2;" x1="238.4521" x2="293.4707" y1="810.8887" y2="810.8887"/><polygon fill="#334155" points="289.4707,889.0869,293.4707,899.0869,297.4707,889.0869,293.4707,893.0869" style="stroke:#334155;stroke-width:1.2;stroke-linejoin:miter;stroke-miterlimit:10;"/><line style="stroke:#334155;stroke-width:1.2;" x1="293.4707" x2="293.4707" y1="810.8887" y2="982.3857"/><line style="stroke:#334155;stroke-width:1.2;" x1="293.4707" x2="192.0898" y1="982.3857" y2="982.3857"/><polygon fill="#334155" points="202.0898,978.3857,192.0898,982.3857,202.0898,986.3857,198.0898,982.3857" style="stroke:#334155;stroke-width:1;stroke-linejoin:miter;stroke-miterlimit:10;"/><line style="stroke:#334155;stroke-width:1.2;" x1="180.0898" x2="180.0898" y1="950.3857" y2="970.3857"/><polygon fill="#334155" points="176.0898,960.3857,180.0898,970.3857,184.0898,960.3857,180.0898,964.3857" style="stroke:#334155;stroke-width:1;stroke-linejoin:miter;stroke-miterlimit:10;"/><line style="stroke:#334155;stroke-width:1.2;" x1="180.0898" x2="180.0898" y1="778.8887" y2="798.8887"/><polygon fill="#334155" points="176.0898,788.8887,180.0898,798.8887,184.0898,788.8887,180.0898,792.8887" style="stroke:#334155;stroke-width:1;stroke-linejoin:miter;stroke-miterlimit:10;"/><line style="stroke:#334155;stroke-width:1.2;" x1="180.0898" x2="180.0898" y1="1097.084" y2="1132.084"/><polygon fill="#334155" points="176.0898,1122.084,180.0898,1132.084,184.0898,1122.084,180.0898,1126.084" style="stroke:#334155;stroke-width:1;stroke-linejoin:miter;stroke-miterlimit:10;"/><line style="stroke:#334155;stroke-width:1.2;" x1="180.0898" x2="180.0898" y1="1038.3857" y2="1063.2852"/><polygon fill="#334155" points="176.0898,1053.2852,180.0898,1063.2852,184.0898,1053.2852,180.0898,1057.2852" style="stroke:#334155;stroke-width:1;stroke-linejoin:miter;stroke-miterlimit:10;"/><line style="stroke:#334155;stroke-width:1.2;" x1="240.125" x2="293.4707" y1="1026.3857" y2="1026.3857"/><polygon fill="#334155" points="289.4707,1104.584,293.4707,1114.584,297.4707,1104.584,293.4707,1108.584" style="stroke:#334155;stroke-width:1.2;stroke-linejoin:miter;stroke-miterlimit:10;"/><line style="stroke:#334155;stroke-width:1.2;" x1="293.4707" x2="293.4707" y1="1026.3857" y2="1197.8828"/><line style="stroke:#334155;stroke-width:1.2;" x1="293.4707" x2="192.0898" y1="1197.8828" y2="1197.8828"/><polygon fill="#334155" points="202.0898,1193.8828,192.0898,1197.8828,202.0898,1201.8828,198.0898,1197.8828" style="stroke:#334155;stroke-width:1;stroke-linejoin:miter;stroke-miterlimit:10;"/><line style="stroke:#334155;stroke-width:1.2;" x1="180.0898" x2="180.0898" y1="1165.8828" y2="1185.8828"/><polygon fill="#334155" points="176.0898,1175.8828,180.0898,1185.8828,184.0898,1175.8828,180.0898,1179.8828" style="stroke:#334155;stroke-width:1;stroke-linejoin:miter;stroke-miterlimit:10;"/><line style="stroke:#334155;stroke-width:1.2;" x1="180.0898" x2="180.0898" y1="994.3857" y2="1014.3857"/><polygon fill="#334155" points="176.0898,1004.3857,180.0898,1014.3857,184.0898,1004.3857,180.0898,1008.3857" style="stroke:#334155;stroke-width:1;stroke-linejoin:miter;stroke-miterlimit:10;"/><line style="stroke:#334155;stroke-width:1.2;" x1="180.0898" x2="180.0898" y1="1312.5811" y2="1347.5811"/><polygon fill="#334155" points="176.0898,1337.5811,180.0898,1347.5811,184.0898,1337.5811,180.0898,1341.5811" style="stroke:#334155;stroke-width:1;stroke-linejoin:miter;stroke-miterlimit:10;"/><line style="stroke:#334155;stroke-width:1.2;" x1="180.0898" x2="180.0898" y1="1253.8828" y2="1278.7822"/><polygon fill="#334155" points="176.0898,1268.7822,180.0898,1278.7822,184.0898,1268.7822,180.0898,1272.7822" style="stroke:#334155;stroke-width:1;stroke-linejoin:miter;stroke-miterlimit:10;"/><line style="stroke:#334155;stroke-width:1.2;" x1="254.7881" x2="293.4707" y1="1241.8828" y2="1241.8828"/><polygon fill="#334155" points="289.4707,1320.0811,293.4707,1330.0811,297.4707,1320.0811,293.4707,1324.0811" style="stroke:#334155;stroke-width:1.2;stroke-linejoin:miter;stroke-miterlimit:10;"/><line style="stroke:#334155;stroke-width:1.2;" x1="293.4707" x2="293.4707" y1="1241.8828" y2="1413.3799"/><line style="stroke:#334155;stroke-width:1.2;" x1="293.4707" x2="192.0898" y1="1413.3799" y2="1413.3799"/><polygon fill="#334155" points="202.0898,1409.3799,192.0898,1413.3799,202.0898,1417.3799,198.0898,1413.3799" style="stroke:#334155;stroke-width:1;stroke-linejoin:miter;stroke-miterlimit:10;"/><line style="stroke:#334155;stroke-width:1.2;" x1="180.0898" x2="180.0898" y1="1381.3799" y2="1401.3799"/><polygon fill="#334155" points="176.0898,1391.3799,180.0898,1401.3799,184.0898,1391.3799,180.0898,1395.3799" style="stroke:#334155;stroke-width:1;stroke-linejoin:miter;stroke-miterlimit:10;"/><line style="stroke:#334155;stroke-width:1.2;" x1="180.0898" x2="180.0898" y1="1209.8828" y2="1229.8828"/><polygon fill="#334155" points="176.0898,1219.8828,180.0898,1229.8828,184.0898,1219.8828,180.0898,1223.8828" style="stroke:#334155;stroke-width:1;stroke-linejoin:miter;stroke-miterlimit:10;"/><line style="stroke:#334155;stroke-width:1.2;" x1="180.0898" x2="180.0898" y1="1425.3799" y2="1445.3799"/><polygon fill="#334155" points="176.0898,1435.3799,180.0898,1445.3799,184.0898,1435.3799,180.0898,1439.3799" style="stroke:#334155;stroke-width:1;stroke-linejoin:miter;stroke-miterlimit:10;"/><line style="stroke:#334155;stroke-width:1.2;" x1="180.0898" x2="180.0898" y1="1479.1787" y2="1499.1787"/><polygon fill="#334155" points="176.0898,1489.1787,180.0898,1499.1787,184.0898,1489.1787,180.0898,1493.1787" style="stroke:#334155;stroke-width:1;stroke-linejoin:miter;stroke-miterlimit:10;"/><line style="stroke:#334155;stroke-width:1.2;" x1="180.0898" x2="180.0898" y1="1532.9775" y2="1552.9775"/><polygon fill="#334155" points="176.0898,1542.9775,180.0898,1552.9775,184.0898,1542.9775,180.0898,1546.9775" style="stroke:#334155;stroke-width:1;stroke-linejoin:miter;stroke-miterlimit:10;"/><line style="stroke:#334155;stroke-width:1.2;" x1="180.0898" x2="180.0898" y1="1586.7764" y2="1606.7764"/><polygon fill="#334155" points="176.0898,1596.7764,180.0898,1606.7764,184.0898,1596.7764,180.0898,1600.7764" style="stroke:#334155;stroke-width:1;stroke-linejoin:miter;stroke-miterlimit:10;"/><?plantuml-src dPF1ZjCm48RlUOhXrae5xia1LNH1U-WkAX87RbDxqepas94zxb9EF0HFo9CmTbgsIqzmIsBF_Fzy_-GLU-Eo9P21Hdh3UNIDi3Y2ntX0pzyfmjsHlC3xI2WSFFpwyHFMHlZ8Se8Duo7Ys2J1A4sxpjh72niK0apmkFkuVhZ_UhU3466zsTu_T0ttiFX2FXFGDqwItYsBk8U53yi6eAr21CTwPIH1YuATdaIQz4GVzDBQMaXa9CHk_h2XdZr134zffISe2IRrhk-0tW8QGodndfswVcu6JmFhh8jjY7JkL_nmWiM9qh8XRxblBfPin5w02ewkQJ-JG4Mr0kDGc_TbR2Mq0i63kZ05K15FPY2R7NNDdn7QBKvWgSVifB2PjM6ARDWVeF0xX7YwLBpm-TSbfXUMsrtsCEMzExk18pgszN5c_o5BBjEUJTtW3p6g6QY9lbK0EkH8gJ1hTwIb7YHSDGLbeg3DN5PLPchFEG-w2JMIMwrnSgHa7Pv2bl_JqFMCfzg_2c7bSpDMMPWhtYDhOChmYZlzktpxgN1EmxmJDMlsvpeg-Q0B9IT5hGkpzZvaRsY-_ThKfIeL6cESXIwxjGsUYw-4ZdIJ8ir_Gn68D2BxEVy9wuvPJCC-OBIT_eTX-Wq0?></g></svg>