<svg xmlns="http://www.w3.org/2000/svg" xmlns:xlink="http://www.w3.org/1999/xlink" contentStyleType="text/css" data-diagram-type="ACTIVITY" height="376px" preserveAspectRatio="none" style="width:311px;height:376px;background:#FFFFFF;" version="1.1" viewBox="0 0 311 376" width="311px" zoomAndPan="magnify"><?plantuml $version$?><defs/><g><ellipse cx="149.0615" cy="25" fill="#222222" rx="10" ry="10" style="stroke:#222222;stroke-width:1;"/><rect fill="#F1F1F1" height="33.7988" rx="12.5" ry="12.5" style="stroke:#181818;stroke-width:0.5;" width="176.0938" x="61.0146" y="55"/><text fill="#000000" font-family="sans-serif" font-size="12" lengthAdjust="spacing" textLength="156.0938" x="71.0146" y="76.2559">Authenticate organizer/admin</text><rect fill="#F1F1F1" height="33.7988" rx="12.5" ry="12.5" style="stroke:#181818;stroke-width:0.5;" width="266.123" x="16" y="108.7988"/><text fill="#000000" font-family="sans-serif" font-size="12" lengthAdjust="spacing" textLength="246.123" x="26" y="130.0547">Create venue; :Define sectors, rows and seats</text><rect fill="#F1F1F1" height="33.7988" rx="12.5" ry="12.5" style="stroke:#181818;stroke-width:0.5;" width="232.1094" x="33.0068" y="162.5977"/><text fill="#000000" font-family="sans-serif" font-size="12" lengthAdjust="spacing" textLength="212.1094" x="43.0068" y="183.8535">Create pricing categories; :Create event</text><polygon fill="#F1F1F1" points="103.8101,216.3965,194.313,216.3965,206.313,228.3965,194.313,240.3965,103.8101,240.3965,91.8101,228.3965,103.8101,216.3965" style="stroke:#181818;stroke-width:0.5;stroke-linejoin:miter;stroke-miterlimit:10;"/><text fill="#000000" font-family="sans-serif" font-size="11" lengthAdjust="spacing" textLength="90.5029" x="103.8101" y="232.3899">validation passes?</text><text fill="#000000" font-family="sans-serif" font-size="11" lengthAdjust="spacing" textLength="17.1177" x="74.6924" y="226.0654">yes</text><text fill="#000000" font-family="sans-serif" font-size="11" lengthAdjust="spacing" textLength="12.2354" x="206.313" y="226.0654">no</text><rect fill="#F1F1F1" height="33.7988" rx="12.5" ry="12.5" style="stroke:#181818;stroke-width:0.5;" width="92.0469" x="33.5103" y="250.3965"/><text fill="#000000" font-family="sans-serif" font-size="12" lengthAdjust="spacing" textLength="72.0469" x="43.5103" y="271.6523">Publish event</text><rect fill="#F1F1F1" height="33.7988" rx="12.5" ry="12.5" style="stroke:#181818;stroke-width:0.5;" width="146.0645" x="145.5571" y="250.3965"/><text fill="#000000" font-family="sans-serif" font-size="12" lengthAdjust="spacing" textLength="126.0645" x="155.5571" y="271.6523">Correct schedule/layout</text><polygon fill="#F1F1F1" points="149.0615,290.1953,161.0615,302.1953,149.0615,314.1953,137.0615,302.1953,149.0615,290.1953" style="stroke:#181818;stroke-width:0.5;stroke-linejoin:miter;stroke-miterlimit:10;"/><ellipse cx="149.0615" cy="345.1953" fill="none" rx="11" ry="11" style="stroke:#222222;stroke-width:1;"/><ellipse cx="149.0615" cy="345.1953" fill="#222222" rx="6" ry="6" style="stroke:#222222;stroke-width:1;"/><line style="stroke:#181818;stroke-width:1;" x1="149.0615" x2="149.0615" y1="35" y2="55"/><polygon fill="#181818" points="145.0615,45,149.0615,55,153.0615,45,149.0615,49" style="stroke:#181818;stroke-width:1;stroke-linejoin:miter;stroke-miterlimit:10;"/><line style="stroke:#181818;stroke-width:1;" x1="149.0615" x2="149.0615" y1="88.7988" y2="108.7988"/><polygon fill="#181818" points="145.0615,98.7988,149.0615,108.7988,153.0615,98.7988,149.0615,102.7988" style="stroke:#181818;stroke-width:1;stroke-linejoin:miter;stroke-miterlimit:10;"/><line style="stroke:#181818;stroke-width:1;" x1="149.0615" x2="149.0615" y1="142.5977" y2="162.5977"/><polygon fill="#181818" points="145.0615,152.5977,149.0615,162.5977,153.0615,152.5977,149.0615,156.5977" style="stroke:#181818;stroke-width:1;stroke-linejoin:miter;stroke-miterlimit:10;"/><line style="stroke:#181818;stroke-width:1;" x1="91.8101" x2="79.5337" y1="228.3965" y2="228.3965"/><line style="stroke:#181818;stroke-width:1;" x1="79.5337" x2="79.5337" y1="228.3965" y2="250.3965"/><polygon fill="#181818" points="75.5337,240.3965,79.5337,250.3965,83.5337,240.3965,79.5337,244.3965" style="stroke:#181818;stroke-width:1;stroke-linejoin:miter;stroke-miterlimit:10;"/><line style="stroke:#181818;stroke-width:1;" x1="206.313" x2="218.5894" y1="228.3965" y2="228.3965"/><line style="stroke:#181818;stroke-width:1;" x1="218.5894" x2="218.5894" y1="228.3965" y2="250.3965"/><polygon fill="#181818" points="214.5894,240.3965,218.5894,250.3965,222.5894,240.3965,218.5894,244.3965" style="stroke:#181818;stroke-width:1;stroke-linejoin:miter;stroke-miterlimit:10;"/><line style="stroke:#181818;stroke-width:1;" x1="79.5337" x2="79.5337" y1="284.1953" y2="302.1953"/><line style="stroke:#181818;stroke-width:1;" x1="79.5337" x2="137.0615" y1="302.1953" y2="302.1953"/><polygon fill="#181818" points="127.0615,298.1953,137.0615,302.1953,127.0615,306.1953,131.0615,302.1953" style="stroke:#181818;stroke-width:1;stroke-linejoin:miter;stroke-miterlimit:10;"/><line style="stroke:#181818;stroke-width:1;" x1="218.5894" x2="218.5894" y1="284.1953" y2="302.1953"/><line style="stroke:#181818;stroke-width:1;" x1="218.5894" x2="161.0615" y1="302.1953" y2="302.1953"/><polygon fill="#181818" points="171.0615,298.1953,161.0615,302.1953,171.0615,306.1953,167.0615,302.1953" style="stroke:#181818;stroke-width:1;stroke-linejoin:miter;stroke-miterlimit:10;"/><line style="stroke:#181818;stroke-width:1;" x1="149.0615" x2="149.0615" y1="196.3965" y2="216.3965"/><polygon fill="#181818" points="145.0615,206.3965,149.0615,216.3965,153.0615,206.3965,149.0615,210.3965" style="stroke:#181818;stroke-width:1;stroke-linejoin:miter;stroke-miterlimit:10;"/><line style="stroke:#181818;stroke-width:1;" x1="149.0615" x2="149.0615" y1="314.1953" y2="334.1953"/><polygon fill="#181818" points="145.0615,324.1953,149.0615,334.1953,153.0615,324.1953,149.0615,328.1953" style="stroke:#181818;stroke-width:1;stroke-linejoin:miter;stroke-miterlimit:10;"/><?plantuml-src HOv12i9034NtSueiAmZksuM87i0hn4xQ1iQa91b5Jsy75BV__VVv7cYH-bEDXIHun21Gcr7uJNR0V6SPKdysQk11Kcc0_a8J2u7J66g-1zEd0qhU4Wp_zrVZaMM6jZghCVacVnbjOp4adg1xOE6CmIgmeZlvSGVj3dGlybs2_bflXNtvELISe1DjwAncsmtmSQ5S2nqAlhIsacIUaeUk7m00?></g></svg>