<svg xmlns="http://www.w3.org/2000/svg" xmlns:xlink="http://www.w3.org/1999/xlink" contentStyleType="text/css" data-diagram-type="SEQUENCE" height="691px" preserveAspectRatio="none" style="width:878px;height:691px;background:#FFFFFF;" version="1.1" viewBox="0 0 878 691" width="878px" zoomAndPan="magnify"><?plantuml $version$?><defs/><g><rect fill="none" height="263.1875" style="stroke:#000000;stroke-width:1.5;" width="599.4272" x="262.8823" y="329.6885"/><g class="participant-lifeline" data-entity-uid="part1" data-qualified-name="Customer" data-source-line="1" id="part1-lifeline"><g><title>Customer</title><rect fill="#000000" fill-opacity="0.00000" height="528.7773" width="8" x="34.3413" y="81.0986"/><line style="stroke:#181818;stroke-width:0.5;stroke-dasharray:5,5;" x1="38" x2="38" y1="81.0986" y2="609.876"/></g></g><g class="participant-lifeline" data-entity-uid="part2" data-qualified-name="W" data-source-line="2" id="part2-lifeline"><g><title>Waiting Room</title><rect fill="#000000" fill-opacity="0.00000" height="528.7773" width="8" x="207.9238" y="81.0986"/><line style="stroke:#181818;stroke-width:0.5;stroke-dasharray:5,5;" x1="210.9653" x2="210.9653" y1="81.0986" y2="609.876"/></g></g><g class="participant-lifeline" data-entity-uid="part3" data-qualified-name="API" data-source-line="3" id="part3-lifeline"><g><title>API</title><rect fill="#000000" fill-opacity="0.00000" height="528.7773" width="8" x="287.165" y="81.0986"/><line style="stroke:#181818;stroke-width:0.5;stroke-dasharray:5,5;" x1="290.8823" x2="290.8823" y1="81.0986" y2="609.876"/></g></g><g class="participant-lifeline" data-entity-uid="part4" data-qualified-name="DB" data-source-line="4" id="part4-lifeline"><g><title>PostgreSQL</title><rect fill="#000000" fill-opacity="0.00000" height="528.7773" width="8" x="511.9795" y="81.0986"/><line style="stroke:#181818;stroke-width:0.5;stroke-dasharray:5,5;" x1="515.8486" x2="515.8486" y1="81.0986" y2="609.876"/></g></g><g class="participant-lifeline" data-entity-uid="part5" data-qualified-name="Redis" data-source-line="5" id="part5-lifeline"><g><title>Redis</title><rect fill="#000000" fill-opacity="0.00000" height="528.7773" width="8" x="590.0068" y="81.0986"/><line style="stroke:#181818;stroke-width:0.5;stroke-dasharray:5,5;" x1="593.1104" x2="593.1104" y1="81.0986" y2="609.876"/></g></g><g class="participant-lifeline" data-entity-uid="part6" data-qualified-name="PG" data-source-line="6" id="part6-lifeline"><g><title>Payment Gateway</title><rect fill="#000000" fill-opacity="0.00000" height="528.7773" width="8" x="691.0962" y="81.0986"/><line style="stroke:#181818;stroke-width:0.5;stroke-dasharray:5,5;" x1="694.9033" x2="694.9033" y1="81.0986" y2="609.876"/></g></g><g class="participant-lifeline" data-entity-uid="part7" data-qualified-name="RabbitMQ" data-source-line="7" id="part7-lifeline"><g><title>RabbitMQ</title><rect fill="#000000" fill-opacity="0.00000" height="528.7773" width="8" x="806.7993" y="81.0986"/><line style="stroke:#181818;stroke-width:0.5;stroke-dasharray:5,5;" x1="810.2891" x2="810.2891" y1="81.0986" y2="609.876"/></g></g><g class="participant participant-head" data-entity-uid="part1" data-qualified-name="Customer" data-source-line="1" id="part1-head"><text fill="#000000" font-family="sans-serif" font-size="14" lengthAdjust="spacing" textLength="60.6826" x="5" y="78.1318">Customer</text><ellipse cx="38.3413" cy="13.5" fill="#E2E2F0" rx="8" ry="8" style="stroke:#181818;stroke-width:0.5;"/><path d="M38.3413,21.5 L38.3413,48.5 M25.3413,29.5 L51.3413,29.5 M38.3413,48.5 L25.3413,63.5 M38.3413,48.5 L51.3413,63.5" fill="none" style="stroke:#181818;stroke-width:0.5;"/></g><g class="participant participant-tail" data-entity-uid="part1" data-qualified-name="Customer" data-source-line="1" id="part1-tail"><text fill="#000000" font-family="sans-serif" font-size="14" lengthAdjust="spacing" textLength="60.6826" x="5" y="622.0078">Customer</text><ellipse cx="38.3413" cy="633.4746" fill="#E2E2F0" rx="8" ry="8" style="stroke:#181818;stroke-width:0.5;"/><path d="M38.3413,641.4746 L38.3413,668.4746 M25.3413,649.4746 L51.3413,649.4746 M38.3413,668.4746 L25.3413,683.4746 M38.3413,668.4746 L51.3413,683.4746" fill="none" style="stroke:#181818;stroke-width:0.5;"/></g><g class="participant participant-head" data-entity-uid="part2" data-qualified-name="W" data-source-line="2" id="part2-head"><rect fill="#E2E2F0" height="30.0986" rx="2.5" ry="2.5" style="stroke:#181818;stroke-width:0.5;" width="101.917" x="160.9653" y="50"/><text fill="#000000" font-family="sans-serif" font-size="14" lengthAdjust="spacing" textLength="87.917" x="167.9653" y="70.1318">Waiting Room</text></g><g class="participant participant-tail" data-entity-uid="part2" data-qualified-name="W" data-source-line="2" id="part2-tail"><rect fill="#E2E2F0" height="30.0986" rx="2.5" ry="2.5" style="stroke:#181818;stroke-width:0.5;" width="101.917" x="160.9653" y="608.876"/><text fill="#000000" font-family="sans-serif" font-size="14" lengthAdjust="spacing" textLength="87.917" x="167.9653" y="629.0078">Waiting Room</text></g><g class="participant participant-head" data-entity-uid="part3" data-qualified-name="API" data-source-line="3" id="part3-head"><rect fill="#E2E2F0" height="30.0986" rx="2.5" ry="2.5" style="stroke:#181818;stroke-width:0.5;" width="36.5654" x="272.8823" y="50"/><text fill="#000000" font-family="sans-serif" font-size="14" lengthAdjust="spacing" textLength="22.5654" x="279.8823" y="70.1318">API</text></g><g class="participant participant-tail" data-entity-uid="part3" data-qualified-name="API" data-source-line="3" id="part3-tail"><rect fill="#E2E2F0" height="30.0986" rx="2.5" ry="2.5" style="stroke:#181818;stroke-width:0.5;" width="36.5654" x="272.8823" y="608.876"/><text fill="#000000" font-family="sans-serif" font-size="14" lengthAdjust="spacing" textLength="22.5654" x="279.8823" y="629.0078">API</text></g><g class="participant participant-head" data-entity-uid="part4" data-qualified-name="DB" data-source-line="4" id="part4-head"><text fill="#000000" font-family="sans-serif" font-size="14" lengthAdjust="spacing" textLength="76.2617" x="474.8486" y="78.1318">PostgreSQL</text><path d="M497.9795,29 C497.9795,19 515.9795,19 515.9795,19 C515.9795,19 533.9795,19 533.9795,29 L533.9795,55 C533.9795,65 515.9795,65 515.9795,65 C515.9795,65 497.9795,65 497.9795,55 L497.9795,29" fill="#E2E2F0" style="stroke:#181818;stroke-width:0.5;"/><path d="M497.9795,29 C497.9795,39 515.9795,39 515.9795,39 C515.9795,39 533.9795,39 533.9795,29" fill="none" style="stroke:#181818;stroke-width:0.5;"/></g><g class="participant participant-tail" data-entity-uid="part4" data-qualified-name="DB" data-source-line="4" id="part4-tail"><text fill="#000000" font-family="sans-serif" font-size="14" lengthAdjust="spacing" textLength="76.2617" x="474.8486" y="622.0078">PostgreSQL</text><path d="M497.9795,634.9746 C497.9795,624.9746 515.9795,624.9746 515.9795,624.9746 C515.9795,624.9746 533.9795,624.9746 533.9795,634.9746 L533.9795,660.9746 C533.9795,670.9746 515.9795,670.9746 515.9795,670.9746 C515.9795,670.9746 497.9795,670.9746 497.9795,660.9746 L497.9795,634.9746" fill="#E2E2F0" style="stroke:#181818;stroke-width:0.5;"/><path d="M497.9795,634.9746 C497.9795,644.9746 515.9795,644.9746 515.9795,644.9746 C515.9795,644.9746 533.9795,644.9746 533.9795,634.9746" fill="none" style="stroke:#181818;stroke-width:0.5;"/></g><g class="participant participant-head" data-entity-uid="part5" data-qualified-name="Redis" data-source-line="5" id="part5-head"><rect fill="#E2E2F0" height="30.0986" style="stroke:#181818;stroke-width:0.5;" width="49.793" x="571.1104" y="46"/><rect fill="#E2E2F0" height="30.0986" style="stroke:#181818;stroke-width:0.5;" width="49.793" x="567.1104" y="50"/><text fill="#000000" font-family="sans-serif" font-size="14" lengthAdjust="spacing" textLength="35.793" x="574.1104" y="70.1318">Redis</text></g><g class="participant participant-tail" data-entity-uid="part5" data-qualified-name="Redis" data-source-line="5" id="part5-tail"><rect fill="#E2E2F0" height="30.0986" style="stroke:#181818;stroke-width:0.5;" width="49.793" x="571.1104" y="608.876"/><rect fill="#E2E2F0" height="30.0986" style="stroke:#181818;stroke-width:0.5;" width="49.793" x="567.1104" y="612.876"/><text fill="#000000" font-family="sans-serif" font-size="14" lengthAdjust="spacing" textLength="35.793" x="574.1104" y="633.0078">Redis</text></g><g class="participant participant-head" data-entity-uid="part6" data-qualified-name="PG" data-source-line="6" id="part6-head"><rect fill="#E2E2F0" height="30.0986" rx="2.5" ry="2.5" style="stroke:#181818;stroke-width:0.5;" width="128.3857" x="630.9033" y="50"/><text fill="#000000" font-family="sans-serif" font-size="14" lengthAdjust="spacing" textLength="114.3857" x="637.9033" y="70.1318">Payment Gateway</text></g><g class="participant participant-tail" data-entity-uid="part6" data-qualified-name="PG" data-source-line="6" id="part6-tail"><rect fill="#E2E2F0" height="30.0986" rx="2.5" ry="2.5" style="stroke:#181818;stroke-width:0.5;" width="128.3857" x="630.9033" y="608.876"/><text fill="#000000" font-family="sans-serif" font-size="14" lengthAdjust="spacing" textLength="114.3857" x="637.9033" y="629.0078">Payment Gateway</text></g><g class="participant participant-head" data-entity-uid="part7" data-qualified-name="RabbitMQ" data-source-line="7" id="part7-head"><path d="M774.2891,55 L847.3096,55 C852.3096,55 852.3096,68.0493 852.3096,68.0493 C852.3096,68.0493 852.3096,81.0986 847.3096,81.0986 L774.2891,81.0986 C769.2891,81.0986 769.2891,68.0493 769.2891,68.0493 C769.2891,68.0493 769.2891,55 774.2891,55" fill="#E2E2F0" style="stroke:#181818;stroke-width:0.5;"/><path d="M847.3096,55 C842.3096,55 842.3096,68.0493 842.3096,68.0493 C842.3096,81.0986 847.3096,81.0986 847.3096,81.0986" fill="none" style="stroke:#181818;stroke-width:0.5;"/><text fill="#000000" font-family="sans-serif" font-size="14" lengthAdjust="spacing" textLength="63.0205" x="774.2891" y="73.1318">RabbitMQ</text></g><g class="participant participant-tail" data-entity-uid="part7" data-qualified-name="RabbitMQ" data-source-line="7" id="part7-tail"><path d="M774.2891,608.876 L847.3096,608.876 C852.3096,608.876 852.3096,621.9253 852.3096,621.9253 C852.3096,621.9253 852.3096,634.9746 847.3096,634.9746 L774.2891,634.9746 C769.2891,634.9746 769.2891,621.9253 769.2891,621.9253 C769.2891,621.9253 769.2891,608.876 774.2891,608.876" fill="#E2E2F0" style="stroke:#181818;stroke-width:0.5;"/><path d="M847.3096,608.876 C842.3096,608.876 842.3096,621.9253 842.3096,621.9253 C842.3096,634.9746 847.3096,634.9746 847.3096,634.9746" fill="none" style="stroke:#181818;stroke-width:0.5;"/><text fill="#000000" font-family="sans-serif" font-size="14" lengthAdjust="spacing" textLength="63.0205" x="774.2891" y="627.0078">RabbitMQ</text></g><g class="message" data-entity-1="part1" data-entity-2="part2" data-source-line="8" id="msg1"><polygon fill="#181818" points="199.9238,108.0474,209.9238,112.0474,199.9238,116.0474,203.9238,112.0474" style="stroke:#181818;stroke-width:1;stroke-linejoin:miter;stroke-miterlimit:10;"/><line style="stroke:#181818;stroke-width:1;" x1="38.3413" x2="205.9238" y1="112.0474" y2="112.0474"/><text fill="#000000" font-family="sans-serif" font-size="13" lengthAdjust="spacing" textLength="60.6963" x="45.3413" y="107.2925">join(event)</text></g><g class="message" data-entity-1="part2" data-entity-2="part1" data-source-line="9" id="msg2"><polygon fill="#181818" points="49.3413,136.9961,39.3413,140.9961,49.3413,144.9961,45.3413,140.9961" style="stroke:#181818;stroke-width:1;stroke-linejoin:miter;stroke-miterlimit:10;"/><line style="stroke:#181818;stroke-width:1;stroke-dasharray:2,2;" x1="43.3413" x2="210.9238" y1="140.9961" y2="140.9961"/><text fill="#000000" font-family="sans-serif" font-size="13" lengthAdjust="spacing" textLength="149.5825" x="55.3413" y="136.2412">admission token / position</text></g><g class="message" data-entity-1="part1" data-entity-2="part3" data-source-line="10" id="msg3"><polygon fill="#181818" points="279.165,165.9448,289.165,169.9448,279.165,173.9448,283.165,169.9448" style="stroke:#181818;stroke-width:1;stroke-linejoin:miter;stroke-miterlimit:10;"/><line style="stroke:#181818;stroke-width:1;" x1="38.3413" x2="285.165" y1="169.9448" y2="169.9448"/><text fill="#000000" font-family="sans-serif" font-size="13" lengthAdjust="spacing" textLength="108.3862" x="45.3413" y="165.1899">search, select seat</text></g><g class="message" data-entity-1="part3" data-entity-2="part5" data-source-line="11" id="msg4"><polygon fill="#181818" points="582.0068,194.8936,592.0068,198.8936,582.0068,202.8936,586.0068,198.8936" style="stroke:#181818;stroke-width:1;stroke-linejoin:miter;stroke-miterlimit:10;"/><line style="stroke:#181818;stroke-width:1;" x1="291.165" x2="588.0068" y1="198.8936" y2="198.8936"/><text fill="#000000" font-family="sans-serif" font-size="13" lengthAdjust="spacing" textLength="143.7808" x="298.165" y="194.1387">SET lock key NX EX 600</text></g><g class="message" data-entity-1="part5" data-entity-2="part3" data-source-line="12" id="msg5"><polygon fill="#181818" points="302.165,223.8423,292.165,227.8423,302.165,231.8423,298.165,227.8423" style="stroke:#181818;stroke-width:1;stroke-linejoin:miter;stroke-miterlimit:10;"/><line style="stroke:#181818;stroke-width:1;stroke-dasharray:2,2;" x1="296.165" x2="593.0068" y1="227.8423" y2="227.8423"/><text fill="#000000" font-family="sans-serif" font-size="13" lengthAdjust="spacing" textLength="49.8672" x="308.165" y="223.0874">acquired</text></g><g class="message" data-entity-1="part3" data-entity-2="part4" data-source-line="13" id="msg6"><polygon fill="#181818" points="503.9795,252.791,513.9795,256.791,503.9795,260.791,507.9795,256.791" style="stroke:#181818;stroke-width:1;stroke-linejoin:miter;stroke-miterlimit:10;"/><line style="stroke:#181818;stroke-width:1;" x1="291.165" x2="509.9795" y1="256.791" y2="256.791"/><text fill="#000000" font-family="sans-serif" font-size="13" lengthAdjust="spacing" textLength="166.8926" x="298.165" y="252.0361">create PENDING reservation</text></g><g class="message" data-entity-1="part1" data-entity-2="part3" data-source-line="14" id="msg7"><polygon fill="#181818" points="279.165,281.7397,289.165,285.7397,279.165,289.7397,283.165,285.7397" style="stroke:#181818;stroke-width:1;stroke-linejoin:miter;stroke-miterlimit:10;"/><line style="stroke:#181818;stroke-width:1;" x1="38.3413" x2="285.165" y1="285.7397" y2="285.7397"/><text fill="#000000" font-family="sans-serif" font-size="13" lengthAdjust="spacing" textLength="52.0317" x="45.3413" y="280.9849">checkout</text></g><g class="message" data-entity-1="part3" data-entity-2="part6" data-source-line="15" id="msg8"><polygon fill="#181818" points="683.0962,310.6885,693.0962,314.6885,683.0962,318.6885,687.0962,314.6885" style="stroke:#181818;stroke-width:1;stroke-linejoin:miter;stroke-miterlimit:10;"/><line style="stroke:#181818;stroke-width:1;" x1="291.165" x2="689.0962" y1="314.6885" y2="314.6885"/><text fill="#000000" font-family="sans-serif" font-size="13" lengthAdjust="spacing" textLength="53.479" x="298.165" y="309.9336">authorize</text></g><path d="M262.8823,329.6885 L323.0532,329.6885 L323.0532,336.6372 L313.0532,346.6372 L262.8823,346.6372 L262.8823,329.6885" fill="#EEEEEE" style="stroke:#000000;stroke-width:1.5;"/><rect fill="none" height="263.1875" style="stroke:#000000;stroke-width:1.5;" width="599.4272" x="262.8823" y="329.6885"/><text fill="#000000" font-family="sans-serif" font-size="13" font-weight="700" lengthAdjust="spacing" textLength="15.1709" x="277.8823" y="342.8823">alt</text><text fill="#000000" font-family="sans-serif" font-size="11" font-weight="700" lengthAdjust="spacing" textLength="50.7515" x="338.0532" y="342.0063">[success]</text><g class="message" data-entity-1="part6" data-entity-2="part3" data-source-line="17" id="msg9"><polygon fill="#181818" points="302.165,363.5859,292.165,367.5859,302.165,371.5859,298.165,367.5859" style="stroke:#181818;stroke-width:1;stroke-linejoin:miter;stroke-miterlimit:10;"/><line style="stroke:#181818;stroke-width:1;stroke-dasharray:2,2;" x1="296.165" x2="694.0962" y1="367.5859" y2="367.5859"/><text fill="#000000" font-family="sans-serif" font-size="13" lengthAdjust="spacing" textLength="46.96" x="308.165" y="362.8311">success</text></g><g class="message" data-entity-1="part3" data-entity-2="part4" data-source-line="18" id="msg10"><polygon fill="#181818" points="503.9795,392.5347,513.9795,396.5347,503.9795,400.5347,507.9795,396.5347" style="stroke:#181818;stroke-width:1;stroke-linejoin:miter;stroke-miterlimit:10;"/><line style="stroke:#181818;stroke-width:1;" x1="291.165" x2="509.9795" y1="396.5347" y2="396.5347"/><text fill="#000000" font-family="sans-serif" font-size="13" lengthAdjust="spacing" textLength="200.8145" x="298.165" y="391.7798">CONFIRMED + BOOKED + tickets</text></g><g class="message" data-entity-1="part3" data-entity-2="part5" data-source-line="19" id="msg11"><polygon fill="#181818" points="582.0068,421.4834,592.0068,425.4834,582.0068,429.4834,586.0068,425.4834" style="stroke:#181818;stroke-width:1;stroke-linejoin:miter;stroke-miterlimit:10;"/><line style="stroke:#181818;stroke-width:1;" x1="291.165" x2="588.0068" y1="425.4834" y2="425.4834"/><text fill="#000000" font-family="sans-serif" font-size="13" lengthAdjust="spacing" textLength="75.8672" x="298.165" y="420.7285">release locks</text></g><g class="message" data-entity-1="part3" data-entity-2="part7" data-source-line="20" id="msg12"><polygon fill="#181818" points="798.7993,450.4321,808.7993,454.4321,798.7993,458.4321,802.7993,454.4321" style="stroke:#181818;stroke-width:1;stroke-linejoin:miter;stroke-miterlimit:10;"/><line style="stroke:#181818;stroke-width:1;" x1="291.165" x2="804.7993" y1="454.4321" y2="454.4321"/><text fill="#000000" font-family="sans-serif" font-size="13" lengthAdjust="spacing" textLength="196.5488" x="298.165" y="449.6772">PaymentSucceeded, TicketIssued</text></g><line style="stroke:#000000;stroke-width:1;stroke-dasharray:2,2;" x1="262.8823" x2="862.3096" y1="463.4321" y2="463.4321"/><text fill="#000000" font-family="sans-serif" font-size="11" font-weight="700" lengthAdjust="spacing" textLength="97.1685" x="267.8823" y="473.75">[failure or timeout]</text><g class="message" data-entity-1="part6" data-entity-2="part3" data-source-line="22" id="msg13"><polygon fill="#181818" points="302.165,494.0298,292.165,498.0298,302.165,502.0298,298.165,498.0298" style="stroke:#181818;stroke-width:1;stroke-linejoin:miter;stroke-miterlimit:10;"/><line style="stroke:#181818;stroke-width:1;stroke-dasharray:2,2;" x1="296.165" x2="694.0962" y1="498.0298" y2="498.0298"/><text fill="#000000" font-family="sans-serif" font-size="13" lengthAdjust="spacing" textLength="77.3208" x="308.165" y="493.2749">failed/timeout</text></g><g class="message" data-entity-1="part3" data-entity-2="part4" data-source-line="23" id="msg14"><polygon fill="#181818" points="503.9795,522.9785,513.9795,526.9785,503.9795,530.9785,507.9795,526.9785" style="stroke:#181818;stroke-width:1;stroke-linejoin:miter;stroke-miterlimit:10;"/><line style="stroke:#181818;stroke-width:1;" x1="291.165" x2="509.9795" y1="526.9785" y2="526.9785"/><text fill="#000000" font-family="sans-serif" font-size="13" lengthAdjust="spacing" textLength="138.709" x="298.165" y="522.2236">CANCELLED/EXPIRED</text></g><g class="message" data-entity-1="part3" data-entity-2="part5" data-source-line="24" id="msg15"><polygon fill="#181818" points="582.0068,551.9272,592.0068,555.9272,582.0068,559.9272,586.0068,555.9272" style="stroke:#181818;stroke-width:1;stroke-linejoin:miter;stroke-miterlimit:10;"/><line style="stroke:#181818;stroke-width:1;" x1="291.165" x2="588.0068" y1="555.9272" y2="555.9272"/><text fill="#000000" font-family="sans-serif" font-size="13" lengthAdjust="spacing" textLength="92.4854" x="298.165" y="551.1724">release all locks</text></g><g class="message" data-entity-1="part3" data-entity-2="part7" data-source-line="25" id="msg16"><polygon fill="#181818" points="798.7993,580.876,808.7993,584.876,798.7993,588.876,802.7993,584.876" style="stroke:#181818;stroke-width:1;stroke-linejoin:miter;stroke-miterlimit:10;"/><line style="stroke:#181818;stroke-width:1;" x1="291.165" x2="804.7993" y1="584.876" y2="584.876"/><text fill="#000000" font-family="sans-serif" font-size="13" lengthAdjust="spacing" textLength="86.709" x="298.165" y="580.1211">PaymentFailed</text></g><?plantuml-src XLB9JiCm4BtxAqOzWQ0g9muv8BLDMaMKDAH8xNNg3DHaSV42Ab_FEEegWJXvUJDl6HkbqmR6tZhTa15RD4v9jSNMGM-9ogds3GgjcnwWXUK5FinJKQB3DLg2N5ltPcZnF0k5yKX8NTSadTAjXO9API-vSzmrn9ifElh2NKUVJyM79qzGu7gjtDEpEFY2_WCi8tZNghsYJ-wx5aley-MX808i6sKjou7J5RKmWAssAkXViB3f22oXaPjRNeF5S7I2WO1tLYDO92zGQrb1HJl8Lf2iuFxkJdHe9zpneFpmob1vQ8v74KZ3R3oF98lJR0g6B9bF_Ds7t92ij3-AvrFcz6wZZVecWJLRyrAIjOAXa-pnyansFCycQV6Kn703e_dyiTlmk2jofy9zECEnmvk5W6VWVkWHxDzc4MIefF8MNZgYr5hFOQdctbTKjJS4_7cSQYY4kF0OS2e7H-pSwZ0R9xDP4W-ILPuMIVoNFwph_pnEEXb1RVa3?></g></svg>