<svg xmlns="http://www.w3.org/2000/svg" xmlns:xlink="http://www.w3.org/1999/xlink" contentStyleType="text/css" data-diagram-type="ACTIVITY" height="1399px" preserveAspectRatio="none" style="width:765px;height:1399px;background:#FFFFFF;" version="1.1" viewBox="0 0 765 1399" width="765px" zoomAndPan="magnify"><?plantuml $version$?><defs/><g><g class="title" data-source-line="2"><text fill="#000000" font-family="DejaVu Sans" font-size="14" font-weight="700" lengthAdjust="spacing" textLength="303.3994" x="230.0549" y="33.1318">GitLab CI/CD Quality Gates and Delivery Flow</text></g><ellipse cx="374.5068" cy="62.0986" fill="#222222" rx="10" ry="10" style="stroke:#222222;stroke-width:1;"/><rect fill="#F1F1F1" height="33.7988" rx="5" ry="5" style="stroke:#181818;stroke-width:0.5;" width="199.4199" x="274.7969" y="92.0986"/><text fill="#000000" font-family="DejaVu Sans" font-size="12" lengthAdjust="spacing" textLength="179.4199" x="284.7969" y="113.3545">Developer pushes feature commit</text><rect fill="#555555" height="6" rx="2.5" ry="2.5" style="stroke:#555555;stroke-width:1;" width="729.5093" x="16" y="145.8975"/><rect fill="#F1F1F1" height="33.7988" rx="5" ry="5" style="stroke:#181818;stroke-width:0.5;" width="153.0781" x="28" y="171.8975"/><text fill="#000000" font-family="DejaVu Sans" font-size="12" lengthAdjust="spacing" textLength="133.0781" x="38" y="193.1533">Backend lint + typecheck</text><rect fill="#F1F1F1" height="33.7988" rx="5" ry="5" style="stroke:#181818;stroke-width:0.5;" width="164.4219" x="191.0781" y="171.8975"/><text fill="#000000" font-family="DejaVu Sans" font-size="12" lengthAdjust="spacing" textLength="144.4219" x="201.0781" y="193.1533">Frontend typecheck + build</text><rect fill="#F1F1F1" height="33.7988" rx="5" ry="5" style="stroke:#181818;stroke-width:0.5;" width="152.082" x="383.5" y="171.8975"/><text fill="#000000" font-family="DejaVu Sans" font-size="12" lengthAdjust="spacing" textLength="132.082" x="393.5" y="193.1533">Unit and contention tests</text><rect fill="#F1F1F1" height="33.7988" rx="5" ry="5" style="stroke:#181818;stroke-width:0.5;" width="175.4316" x="558.0776" y="171.8975"/><text fill="#000000" font-family="DejaVu Sans" font-size="12" lengthAdjust="spacing" textLength="155.4316" x="568.0776" y="193.1533">Dependency and secret scan</text><rect fill="#555555" height="6" rx="2.5" ry="2.5" style="stroke:#555555;stroke-width:1;" width="729.5093" x="16" y="225.6963"/><rect fill="#F1F1F1" height="33.7988" rx="5" ry="5" style="stroke:#181818;stroke-width:0.5;" width="134.7207" x="307.1465" y="300.5957"/><text fill="#000000" font-family="DejaVu Sans" font-size="12" lengthAdjust="spacing" textLength="114.7207" x="317.1465" y="321.8516">Block Merge Request</text><rect fill="#F1F1F1" height="33.7988" rx="5" ry="5" style="stroke:#181818;stroke-width:0.5;" width="133.3965" x="307.8086" y="354.3945"/><text fill="#000000" font-family="DejaVu Sans" font-size="12" lengthAdjust="spacing" textLength="113.3965" x="317.8086" y="375.6504">Fix on feature branch</text><ellipse cx="374.5068" cy="419.1934" fill="none" rx="11" ry="11" style="stroke:#222222;stroke-width:1;"/><ellipse cx="374.5068" cy="419.1934" fill="#222222" rx="6" ry="6" style="stroke:#222222;stroke-width:1;"/><polygon fill="#F1F1F1" points="305.1348,251.6963,443.8789,251.6963,455.8789,263.6963,443.8789,275.6963,305.1348,275.6963,293.1348,263.6963,305.1348,251.6963" style="stroke:#181818;stroke-width:0.5;stroke-linejoin:miter;stroke-miterlimit:10;"/><text fill="#000000" font-family="DejaVu Sans" font-size="12" lengthAdjust="spacing" textLength="18.6738" x="378.5068" y="286.9521">yes</text><text fill="#000000" font-family="DejaVu Sans" font-size="12" lengthAdjust="spacing" textLength="138.7441" x="305.1348" y="268.0527">Any mandatory gate fails?</text><rect fill="#F1F1F1" height="33.7988" rx="5" ry="5" style="stroke:#181818;stroke-width:0.5;" width="212.1055" x="268.4541" y="472.1934"/><text fill="#000000" font-family="DejaVu Sans" font-size="12" lengthAdjust="spacing" textLength="192.1055" x="278.4541" y="493.4492">Coverage report and mutation score</text><rect fill="#F1F1F1" height="33.7988" rx="5" ry="5" style="stroke:#181818;stroke-width:0.5;" width="235.0684" x="256.9727" y="525.9922"/><text fill="#000000" font-family="DejaVu Sans" font-size="12" lengthAdjust="spacing" textLength="215.0684" x="266.9727" y="547.248">Peer review + CODEOWNERS approval</text><rect fill="#F1F1F1" height="33.7988" rx="5" ry="5" style="stroke:#181818;stroke-width:0.5;" width="113.3984" x="317.8076" y="628.6904"/><text fill="#000000" font-family="DejaVu Sans" font-size="12" lengthAdjust="spacing" textLength="93.3984" x="327.8076" y="649.9463">Request changes</text><ellipse cx="374.5068" cy="702.0898" fill="none" rx="11" ry="11" style="stroke:#222222;stroke-width:1;"/><ellipse cx="374.5068" cy="702.0898" fill="#222222" rx="6" ry="6" style="stroke:#222222;stroke-width:1;"/><polygon fill="#F1F1F1" points="345.4854,579.791,403.5283,579.791,415.5283,591.791,403.5283,603.791,345.4854,603.791,333.4854,591.791,345.4854,579.791" style="stroke:#181818;stroke-width:0.5;stroke-linejoin:miter;stroke-miterlimit:10;"/><text fill="#000000" font-family="DejaVu Sans" font-size="12" lengthAdjust="spacing" textLength="13.3477" x="378.5068" y="615.0469">no</text><text fill="#000000" font-family="DejaVu Sans" font-size="12" lengthAdjust="spacing" textLength="58.043" x="345.4854" y="596.1475">Approved?</text><rect fill="#F1F1F1" height="33.7988" rx="5" ry="5" style="stroke:#181818;stroke-width:0.5;" width="112.7246" x="318.1445" y="755.0898"/><text fill="#000000" font-family="DejaVu Sans" font-size="12" lengthAdjust="spacing" textLength="92.7246" x="328.1445" y="776.3457">Merge to develop</text><rect fill="#F1F1F1" height="33.7988" rx="5" ry="5" style="stroke:#181818;stroke-width:0.5;" width="172.0566" x="288.4785" y="808.8887"/><text fill="#000000" font-family="DejaVu Sans" font-size="12" lengthAdjust="spacing" textLength="152.0566" x="298.4785" y="830.1445">Build immutable OCI images</text><rect fill="#F1F1F1" height="33.7988" rx="5" ry="5" style="stroke:#181818;stroke-width:0.5;" width="196.7598" x="276.127" y="862.6875"/><text fill="#000000" font-family="DejaVu Sans" font-size="12" lengthAdjust="spacing" textLength="176.7598" x="286.127" y="883.9434">Generate SBOM and scan image</text><rect fill="#F1F1F1" height="33.7988" rx="5" ry="5" style="stroke:#181818;stroke-width:0.5;" width="162.0723" x="293.4707" y="916.4863"/><text fill="#000000" font-family="DejaVu Sans" font-size="12" lengthAdjust="spacing" textLength="142.0723" x="303.4707" y="937.7422">Deploy ephemeral preview</text><rect fill="#F1F1F1" height="33.7988" rx="5" ry="5" style="stroke:#181818;stroke-width:0.5;" width="162.0547" x="293.4795" y="970.2852"/><text fill="#000000" font-family="DejaVu Sans" font-size="12" lengthAdjust="spacing" textLength="142.0547" x="303.4795" y="991.541">Run smoke / contract tests</text><rect fill="#F1F1F1" height="33.7988" rx="5" ry="5" style="stroke:#181818;stroke-width:0.5;" width="245.4512" x="251.7813" y="1072.9834"/><text fill="#000000" font-family="DejaVu Sans" font-size="12" lengthAdjust="spacing" textLength="225.4512" x="261.7813" y="1094.2393">Promote same digest to production canary</text><rect fill="#F1F1F1" height="33.7988" rx="5" ry="5" style="stroke:#181818;stroke-width:0.5;" width="178.0684" x="285.4727" y="1126.7822"/><text fill="#000000" font-family="DejaVu Sans" font-size="12" lengthAdjust="spacing" textLength="158.0684" x="295.4727" y="1148.0381">Observe SLOs for 15 minutes</text><polygon fill="#F1F1F1" points="324.1426,1195.5811,424.8711,1195.5811,436.8711,1207.5811,424.8711,1219.5811,324.1426,1219.5811,312.1426,1207.5811,324.1426,1195.5811" style="stroke:#181818;stroke-width:0.5;stroke-linejoin:miter;stroke-miterlimit:10;"/><text fill="#000000" font-family="DejaVu Sans" font-size="12" lengthAdjust="spacing" textLength="100.7285" x="324.1426" y="1211.9375">Error budget burn?</text><text fill="#000000" font-family="DejaVu Sans" font-size="12" lengthAdjust="spacing" textLength="18.6738" x="293.4688" y="1205.0381">yes</text><text fill="#000000" font-family="DejaVu Sans" font-size="12" lengthAdjust="spacing" textLength="13.3477" x="436.8711" y="1205.0381">no</text><rect fill="#F1F1F1" height="33.7988" rx="5" ry="5" style="stroke:#181818;stroke-width:0.5;" width="118.0391" x="231.2905" y="1229.5811"/><text fill="#000000" font-family="DejaVu Sans" font-size="12" lengthAdjust="spacing" textLength="98.0391" x="241.2905" y="1250.8369">Automatic rollback</text><rect fill="#F1F1F1" height="33.7988" rx="5" ry="5" style="stroke:#181818;stroke-width:0.5;" width="178.748" x="369.3296" y="1229.5811"/><text fill="#000000" font-family="DejaVu Sans" font-size="12" lengthAdjust="spacing" textLength="158.748" x="379.3296" y="1250.8369">Progress 5% -&gt; 25% -&gt; 100%</text><polygon fill="#F1F1F1" points="374.5068,1269.3799,386.5068,1281.3799,374.5068,1293.3799,362.5068,1281.3799,374.5068,1269.3799" style="stroke:#181818;stroke-width:0.5;stroke-linejoin:miter;stroke-miterlimit:10;"/><polygon fill="#F1F1F1" points="339.1484,1024.084,409.8652,1024.084,421.8652,1036.084,409.8652,1048.084,339.1484,1048.084,327.1484,1036.084,339.1484,1024.084" style="stroke:#181818;stroke-width:0.5;stroke-linejoin:miter;stroke-miterlimit:10;"/><text fill="#000000" font-family="DejaVu Sans" font-size="12" lengthAdjust="spacing" textLength="18.6738" x="378.5068" y="1059.3398">yes</text><text fill="#000000" font-family="DejaVu Sans" font-size="12" lengthAdjust="spacing" textLength="70.7168" x="339.1484" y="1040.4404">Release tag?</text><polygon fill="#F1F1F1" points="374.5068,1313.3799,386.5068,1325.3799,374.5068,1337.3799,362.5068,1325.3799,374.5068,1313.3799" style="stroke:#181818;stroke-width:0.5;stroke-linejoin:miter;stroke-miterlimit:10;"/><ellipse cx="374.5068" cy="1368.3799" fill="none" rx="11" ry="11" style="stroke:#222222;stroke-width:1;"/><ellipse cx="374.5068" cy="1368.3799" fill="#222222" rx="6" ry="6" style="stroke:#222222;stroke-width:1;"/><line style="stroke:#334155;stroke-width:1.2;" x1="374.5068" x2="374.5068" y1="72.0986" y2="92.0986"/><polygon fill="#334155" points="370.5068,82.0986,374.5068,92.0986,378.5068,82.0986,374.5068,86.0986" style="stroke:#334155;stroke-width:1;stroke-linejoin:miter;stroke-miterlimit:10;"/><line style="stroke:#334155;stroke-width:1.2;" x1="104.5391" x2="104.5391" y1="151.8975" y2="171.8975"/><polygon fill="#334155" points="100.5391,161.8975,104.5391,171.8975,108.5391,161.8975,104.5391,165.8975" style="stroke:#334155;stroke-width:1;stroke-linejoin:miter;stroke-miterlimit:10;"/><line style="stroke:#334155;stroke-width:1.2;" x1="273.2891" x2="273.2891" y1="151.8975" y2="171.8975"/><polygon fill="#334155" points="269.2891,161.8975,273.2891,171.8975,277.2891,161.8975,273.2891,165.8975" style="stroke:#334155;stroke-width:1;stroke-linejoin:miter;stroke-miterlimit:10;"/><line style="stroke:#334155;stroke-width:1.2;" x1="459.541" x2="459.541" y1="151.8975" y2="171.8975"/><polygon fill="#334155" points="455.541,161.8975,459.541,171.8975,463.541,161.8975,459.541,165.8975" style="stroke:#334155;stroke-width:1;stroke-linejoin:miter;stroke-miterlimit:10;"/><line style="stroke:#334155;stroke-width:1.2;" x1="645.7935" x2="645.7935" y1="151.8975" y2="171.8975"/><polygon fill="#334155" points="641.7935,161.8975,645.7935,171.8975,649.7935,161.8975,645.7935,165.8975" style="stroke:#334155;stroke-width:1;stroke-linejoin:miter;stroke-miterlimit:10;"/><line style="stroke:#334155;stroke-width:1.2;" x1="104.5391" x2="104.5391" y1="205.6963" y2="225.6963"/><polygon fill="#334155" points="100.5391,215.6963,104.5391,225.6963,108.5391,215.6963,104.5391,219.6963" style="stroke:#334155;stroke-width:1;stroke-linejoin:miter;stroke-miterlimit:10;"/><line style="stroke:#334155;stroke-width:1.2;" x1="273.2891" x2="273.2891" y1="205.6963" y2="225.6963"/><polygon fill="#334155" points="269.2891,215.6963,273.2891,225.6963,277.2891,215.6963,273.2891,219.6963" style="stroke:#334155;stroke-width:1;stroke-linejoin:miter;stroke-miterlimit:10;"/><line style="stroke:#334155;stroke-width:1.2;" x1="459.541" x2="459.541" y1="205.6963" y2="225.6963"/><polygon fill="#334155" points="455.541,215.6963,459.541,225.6963,463.541,215.6963,459.541,219.6963" style="stroke:#334155;stroke-width:1;stroke-linejoin:miter;stroke-miterlimit:10;"/><line style="stroke:#334155;stroke-width:1.2;" x1="645.7935" x2="645.7935" y1="205.6963" y2="225.6963"/><polygon fill="#334155" points="641.7935,215.6963,645.7935,225.6963,649.7935,215.6963,645.7935,219.6963" style="stroke:#334155;stroke-width:1;stroke-linejoin:miter;stroke-miterlimit:10;"/><line style="stroke:#334155;stroke-width:1.2;" x1="374.5068" x2="374.5068" y1="125.8975" y2="145.8975"/><polygon fill="#334155" points="370.5068,135.8975,374.5068,145.8975,378.5068,135.8975,374.5068,139.8975" style="stroke:#334155;stroke-width:1;stroke-linejoin:miter;stroke-miterlimit:10;"/><line style="stroke:#334155;stroke-width:1.2;" x1="374.5068" x2="374.5068" y1="334.3945" y2="354.3945"/><polygon fill="#334155" points="370.5068,344.3945,374.5068,354.3945,378.5068,344.3945,374.5068,348.3945" style="stroke:#334155;stroke-width:1;stroke-linejoin:miter;stroke-miterlimit:10;"/><line style="stroke:#334155;stroke-width:1.2;" x1="374.5068" x2="374.5068" y1="388.1934" y2="408.1934"/><polygon fill="#334155" points="370.5068,398.1934,374.5068,408.1934,378.5068,398.1934,374.5068,402.1934" style="stroke:#334155;stroke-width:1;stroke-linejoin:miter;stroke-miterlimit:10;"/><line style="stroke:#334155;stroke-width:1.2;" x1="374.5068" x2="374.5068" y1="275.6963" y2="300.5957"/><polygon fill="#334155" points="370.5068,290.5957,374.5068,300.5957,378.5068,290.5957,374.5068,294.5957" style="stroke:#334155;stroke-width:1;stroke-linejoin:miter;stroke-miterlimit:10;"/><line style="stroke:#334155;stroke-width:1.2;" x1="455.8789" x2="467.8789" y1="263.6963" y2="263.6963"/><polygon fill="#334155" points="463.8789,352.3945,467.8789,362.3945,471.8789,352.3945,467.8789,356.3945" style="stroke:#334155;stroke-width:1.2;stroke-linejoin:miter;stroke-miterlimit:10;"/><line style="stroke:#334155;stroke-width:1.2;" x1="467.8789" x2="467.8789" y1="263.6963" y2="452.1934"/><line style="stroke:#334155;stroke-width:1.2;" x1="467.8789" x2="374.5068" y1="452.1934" y2="452.1934"/><line style="stroke:#334155;stroke-width:1.2;" x1="374.5068" x2="374.5068" y1="452.1934" y2="472.1934"/><polygon fill="#334155" points="370.5068,462.1934,374.5068,472.1934,378.5068,462.1934,374.5068,466.1934" style="stroke:#334155;stroke-width:1;stroke-linejoin:miter;stroke-miterlimit:10;"/><line style="stroke:#334155;stroke-width:1.2;" x1="374.5068" x2="374.5068" y1="231.6963" y2="251.6963"/><polygon fill="#334155" points="370.5068,241.6963,374.5068,251.6963,378.5068,241.6963,374.5068,245.6963" style="stroke:#334155;stroke-width:1;stroke-linejoin:miter;stroke-miterlimit:10;"/><line style="stroke:#334155;stroke-width:1.2;" x1="374.5068" x2="374.5068" y1="505.9922" y2="525.9922"/><polygon fill="#334155" points="370.5068,515.9922,374.5068,525.9922,378.5068,515.9922,374.5068,519.9922" style="stroke:#334155;stroke-width:1;stroke-linejoin:miter;stroke-miterlimit:10;"/><line style="stroke:#334155;stroke-width:1.2;" x1="374.5068" x2="374.5068" y1="662.4893" y2="691.0898"/><polygon fill="#334155" points="370.5068,681.0898,374.5068,691.0898,378.5068,681.0898,374.5068,685.0898" style="stroke:#334155;stroke-width:1;stroke-linejoin:miter;stroke-miterlimit:10;"/><line style="stroke:#334155;stroke-width:1.2;" x1="374.5068" x2="374.5068" y1="603.791" y2="628.6904"/><polygon fill="#334155" points="370.5068,618.6904,374.5068,628.6904,378.5068,618.6904,374.5068,622.6904" style="stroke:#334155;stroke-width:1;stroke-linejoin:miter;stroke-miterlimit:10;"/><line style="stroke:#334155;stroke-width:1.2;" x1="415.5283" x2="441.2061" y1="591.791" y2="591.791"/><polygon fill="#334155" points="437.2061,661.0898,441.2061,671.0898,445.2061,661.0898,441.2061,665.0898" style="stroke:#334155;stroke-width:1.2;stroke-linejoin:miter;stroke-miterlimit:10;"/><line style="stroke:#334155;stroke-width:1.2;" x1="441.2061" x2="441.2061" y1="591.791" y2="735.0898"/><line style="stroke:#334155;stroke-width:1.2;" x1="441.2061" x2="374.5068" y1="735.0898" y2="735.0898"/><line style="stroke:#334155;stroke-width:1.2;" x1="374.5068" x2="374.5068" y1="735.0898" y2="755.0898"/><polygon fill="#334155" points="370.5068,745.0898,374.5068,755.0898,378.5068,745.0898,374.5068,749.0898" style="stroke:#334155;stroke-width:1;stroke-linejoin:miter;stroke-miterlimit:10;"/><line style="stroke:#334155;stroke-width:1.2;" x1="374.5068" x2="374.5068" y1="559.791" y2="579.791"/><polygon fill="#334155" points="370.5068,569.791,374.5068,579.791,378.5068,569.791,374.5068,573.791" style="stroke:#334155;stroke-width:1;stroke-linejoin:miter;stroke-miterlimit:10;"/><line style="stroke:#334155;stroke-width:1.2;" x1="374.5068" x2="374.5068" y1="788.8887" y2="808.8887"/><polygon fill="#334155" points="370.5068,798.8887,374.5068,808.8887,378.5068,798.8887,374.5068,802.8887" style="stroke:#334155;stroke-width:1;stroke-linejoin:miter;stroke-miterlimit:10;"/><line style="stroke:#334155;stroke-width:1.2;" x1="374.5068" x2="374.5068" y1="842.6875" y2="862.6875"/><polygon fill="#334155" points="370.5068,852.6875,374.5068,862.6875,378.5068,852.6875,374.5068,856.6875" style="stroke:#334155;stroke-width:1;stroke-linejoin:miter;stroke-miterlimit:10;"/><line style="stroke:#334155;stroke-width:1.2;" x1="374.5068" x2="374.5068" y1="896.4863" y2="916.4863"/><polygon fill="#334155" points="370.5068,906.4863,374.5068,916.4863,378.5068,906.4863,374.5068,910.4863" style="stroke:#334155;stroke-width:1;stroke-linejoin:miter;stroke-miterlimit:10;"/><line style="stroke:#334155;stroke-width:1.2;" x1="374.5068" x2="374.5068" y1="950.2852" y2="970.2852"/><polygon fill="#334155" points="370.5068,960.2852,374.5068,970.2852,378.5068,960.2852,374.5068,964.2852" style="stroke:#334155;stroke-width:1;stroke-linejoin:miter;stroke-miterlimit:10;"/><line style="stroke:#334155;stroke-width:1.2;" x1="374.5068" x2="374.5068" y1="1106.7822" y2="1126.7822"/><polygon fill="#334155" points="370.5068,1116.7822,374.5068,1126.7822,378.5068,1116.7822,374.5068,1120.7822" style="stroke:#334155;stroke-width:1;stroke-linejoin:miter;stroke-miterlimit:10;"/><line style="stroke:#334155;stroke-width:1.2;" x1="312.1426" x2="290.3101" y1="1207.5811" y2="1207.5811"/><line style="stroke:#334155;stroke-width:1.2;" x1="290.3101" x2="290.3101" y1="1207.5811" y2="1229.5811"/><polygon fill="#334155" points="286.3101,1219.5811,290.3101,1229.5811,294.3101,1219.5811,290.3101,1223.5811" style="stroke:#334155;stroke-width:1;stroke-linejoin:miter;stroke-miterlimit:10;"/><line style="stroke:#334155;stroke-width:1.2;" x1="436.8711" x2="458.7036" y1="1207.5811" y2="1207.5811"/><line style="stroke:#334155;stroke-width:1.2;" x1="458.7036" x2="458.7036" y1="1207.5811" y2="1229.5811"/><polygon fill="#334155" points="454.7036,1219.5811,458.7036,1229.5811,462.7036,1219.5811,458.7036,1223.5811" style="stroke:#334155;stroke-width:1;stroke-linejoin:miter;stroke-miterlimit:10;"/><line style="stroke:#334155;stroke-width:1.2;" x1="290.3101" x2="290.3101" y1="1263.3799" y2="1281.3799"/><line style="stroke:#334155;stroke-width:1.2;" x1="290.3101" x2="362.5068" y1="1281.3799" y2="1281.3799"/><polygon fill="#334155" points="352.5068,1277.3799,362.5068,1281.3799,352.5068,1285.3799,356.5068,1281.3799" style="stroke:#334155;stroke-width:1;stroke-linejoin:miter;stroke-miterlimit:10;"/><line style="stroke:#334155;stroke-width:1.2;" x1="458.7036" x2="458.7036" y1="1263.3799" y2="1281.3799"/><line style="stroke:#334155;stroke-width:1.2;" x1="458.7036" x2="386.5068" y1="1281.3799" y2="1281.3799"/><polygon fill="#334155" points="396.5068,1277.3799,386.5068,1281.3799,396.5068,1285.3799,392.5068,1281.3799" style="stroke:#334155;stroke-width:1;stroke-linejoin:miter;stroke-miterlimit:10;"/><line style="stroke:#334155;stroke-width:1.2;" x1="374.5068" x2="374.5068" y1="1160.5811" y2="1195.5811"/><polygon fill="#334155" points="370.5068,1185.5811,374.5068,1195.5811,378.5068,1185.5811,374.5068,1189.5811" style="stroke:#334155;stroke-width:1;stroke-linejoin:miter;stroke-miterlimit:10;"/><line style="stroke:#334155;stroke-width:1.2;" x1="374.5068" x2="374.5068" y1="1048.084" y2="1072.9834"/><polygon fill="#334155" points="370.5068,1062.9834,374.5068,1072.9834,378.5068,1062.9834,374.5068,1066.9834" style="stroke:#334155;stroke-width:1;stroke-linejoin:miter;stroke-miterlimit:10;"/><line style="stroke:#334155;stroke-width:1.2;" x1="421.8652" x2="562.5732" y1="1036.084" y2="1036.084"/><polygon fill="#334155" points="558.5732,1165.6816,562.5732,1175.6816,566.5732,1165.6816,562.5732,1169.6816" style="stroke:#334155;stroke-width:1.2;stroke-linejoin:miter;stroke-miterlimit:10;"/><line style="stroke:#334155;stroke-width:1.2;" x1="562.5732" x2="562.5732" y1="1036.084" y2="1325.3799"/><line style="stroke:#334155;stroke-width:1.2;" x1="562.5732" x2="386.5068" y1="1325.3799" y2="1325.3799"/><polygon fill="#334155" points="396.5068,1321.3799,386.5068,1325.3799,396.5068,1329.3799,392.5068,1325.3799" style="stroke:#334155;stroke-width:1;stroke-linejoin:miter;stroke-miterlimit:10;"/><line style="stroke:#334155;stroke-width:1.2;" x1="374.5068" x2="374.5068" y1="1293.3799" y2="1313.3799"/><polygon fill="#334155" points="370.5068,1303.3799,374.5068,1313.3799,378.5068,1303.3799,374.5068,1307.3799" style="stroke:#334155;stroke-width:1;stroke-linejoin:miter;stroke-miterlimit:10;"/><line style="stroke:#334155;stroke-width:1.2;" x1="374.5068" x2="374.5068" y1="1004.084" y2="1024.084"/><polygon fill="#334155" points="370.5068,1014.084,374.5068,1024.084,378.5068,1014.084,374.5068,1018.084" style="stroke:#334155;stroke-width:1;stroke-linejoin:miter;stroke-miterlimit:10;"/><line style="stroke:#334155;stroke-width:1.2;" x1="374.5068" x2="374.5068" y1="1337.3799" y2="1357.3799"/><polygon fill="#334155" points="370.5068,1347.3799,374.5068,1357.3799,378.5068,1347.3799,374.5068,1351.3799" style="stroke:#334155;stroke-width:1;stroke-linejoin:miter;stroke-miterlimit:10;"/><?plantuml-src PP9DJnin48Rl-okc1oHGrGALk6IbLkI320aQ2AfwdlLEDbRyiHtReVllExQ1GthPbUtNdkTzPpvffqpg2UAUB7tLoPecwcW8rZe-O0UB-yl54fuJ6XqdM6Ea0EXwM9BHH-89xen_RK94ZiriIKSoVYI6COMzA7U4CJ61yjRgs3OxpuS6O3P7TI1vnMWNuJF4QIIr9tMe2i01jSkwE_OkPk67GjHTqgO_LVvoEXOmLMv4xHq8QmodmYMDyY0vDHLv8CKK8IXqRPCh5KIzW_DRDu4L2KOlDWTn3ZlK9louo64vE9yeN1GpnWlN8_50iAK_IQgs1Lx_1Q5upw1ZT6gVJqBqOwwbTyriuIL5b9jCe-TgmQQ8nK1GdgbjPayaaJ8TDRsA_yLckThy_hdQlW2E8_iZchOIbnNr7uJE5y0tA51xT0E5KuHA7ZtqjNrIS9uZ1cqpIIV3i5dSomhBvTcQd21B72_ppMCDKTAhvsqUWj7u2MZC4yLeOApaShHDuidw0y5bwHEZYkzToWQsP0Y3iE3mNyfFxAsNeW4jGQ-7R4YOnN6VL4bB892d4lsc2yH78NpOXDnHkBu1grsArNskjMAM_IxrWxI_I-nEAyepjobwAwrGmDwO3lE00f0HnBTiAzZ050BSdC6Nx_2j_gwlhiwAk6HSlpdqVm00?></g></svg>