<svg xmlns="http://www.w3.org/2000/svg" xmlns:xlink="http://www.w3.org/1999/xlink" contentStyleType="text/css" data-diagram-type="CLASS" height="556px" preserveAspectRatio="none" style="width:511px;height:556px;background:#FFFFFF;" version="1.1" viewBox="0 0 511 556" width="511px" zoomAndPan="magnify"><?plantuml $version$?><defs/><g><!--class User--><g class="entity" data-qualified-name="User" data-source-line="1" id="ent0001"><rect fill="#F1F1F1" height="96.2959" rx="2.5" ry="2.5" style="stroke:#181818;stroke-width:0.5;" width="87.4688" x="117.89" y="7"/><ellipse cx="144.5496" cy="23" fill="#ADD1B2" rx="11" ry="11" style="stroke:#181818;stroke-width:1;"/><path d="M144.7839,29.6719 Q143.5808,29.6719 142.6902,29.2188 Q141.8152,28.7656 141.3308,27.9531 Q140.8464,27.125 140.8464,26 L140.8464,20.5938 Q140.8464,19.4688 141.3308,18.6563 Q141.8152,17.8281 142.6902,17.375 Q143.5808,16.9219 144.7839,16.9219 Q145.9714,16.9219 146.8464,17.375 Q147.7371,17.8281 148.2371,18.6563 Q148.7371,19.4688 148.7371,20.5938 L146.5808,20.5938 Q146.5808,19.7188 146.1121,19.2656 Q145.6589,18.7969 144.7839,18.7969 Q143.9246,18.7969 143.4402,19.2656 Q142.9714,19.7188 142.9714,20.5938 L142.9714,26 Q142.9714,26.8594 143.4402,27.3281 Q143.9246,27.7969 144.7839,27.7969 Q145.6589,27.7969 146.1121,27.3281 Q146.5808,26.8594 146.5808,26 L148.7371,26 Q148.7371,27.125 148.2371,27.9531 Q147.7371,28.7656 146.8464,29.2188 Q145.9714,29.6719 144.7839,29.6719 Z " fill="#000000"/><text fill="#000000" font-family="sans-serif" font-size="14" lengthAdjust="spacing" textLength="29.5586" x="161.1406" y="28.0825">User</text><line style="stroke:#181818;stroke-width:0.5;" x1="118.89" x2="204.3588" y1="39" y2="39"/><text fill="#000000" font-family="sans-serif" font-size="14" lengthAdjust="spacing" textLength="52.8965" x="123.89" y="56.1318">id: UUID</text><text fill="#000000" font-family="sans-serif" font-size="14" lengthAdjust="spacing" textLength="75.4688" x="123.89" y="72.2305">email: string</text><text fill="#000000" font-family="sans-serif" font-size="14" lengthAdjust="spacing" textLength="59.917" x="123.89" y="88.3291">role: Role</text><line style="stroke:#181818;stroke-width:0.5;" x1="118.89" x2="204.3588" y1="95.2959" y2="95.2959"/></g><!--class Venue--><g class="entity" data-qualified-name="Venue" data-source-line="6" id="ent0002"><rect fill="#F1F1F1" height="96.2959" rx="2.5" ry="2.5" style="stroke:#181818;stroke-width:0.5;" width="89.0342" x="308.11" y="7"/><ellipse cx="330.5583" cy="23" fill="#ADD1B2" rx="11" ry="11" style="stroke:#181818;stroke-width:1;"/><path d="M330.7927,29.6719 Q329.5895,29.6719 328.6989,29.2188 Q327.8239,28.7656 327.3395,27.9531 Q326.8552,27.125 326.8552,26 L326.8552,20.5938 Q326.8552,19.4688 327.3395,18.6563 Q327.8239,17.8281 328.6989,17.375 Q329.5895,16.9219 330.7927,16.9219 Q331.9802,16.9219 332.8552,17.375 Q333.7458,17.8281 334.2458,18.6563 Q334.7458,19.4688 334.7458,20.5938 L332.5895,20.5938 Q332.5895,19.7188 332.1208,19.2656 Q331.6677,18.7969 330.7927,18.7969 Q329.9333,18.7969 329.4489,19.2656 Q328.9802,19.7188 328.9802,20.5938 L328.9802,26 Q328.9802,26.8594 329.4489,27.3281 Q329.9333,27.7969 330.7927,27.7969 Q331.6677,27.7969 332.1208,27.3281 Q332.5895,26.8594 332.5895,26 L334.7458,26 Q334.7458,27.125 334.2458,27.9531 Q333.7458,28.7656 332.8552,29.2188 Q331.9802,29.6719 330.7927,29.6719 Z " fill="#000000"/><text fill="#000000" font-family="sans-serif" font-size="14" lengthAdjust="spacing" textLength="40.4824" x="346.2135" y="28.0825">Venue</text><line style="stroke:#181818;stroke-width:0.5;" x1="309.11" x2="396.1442" y1="39" y2="39"/><text fill="#000000" font-family="sans-serif" font-size="14" lengthAdjust="spacing" textLength="52.8965" x="314.11" y="56.1318">id: UUID</text><text fill="#000000" font-family="sans-serif" font-size="14" lengthAdjust="spacing" textLength="77.0342" x="314.11" y="72.2305">name: string</text><text fill="#000000" font-family="sans-serif" font-size="14" lengthAdjust="spacing" textLength="63.0137" x="314.11" y="88.3291">city: string</text><line style="stroke:#181818;stroke-width:0.5;" x1="309.11" x2="396.1442" y1="95.2959" y2="95.2959"/></g><!--class Sector--><g class="entity" data-qualified-name="Sector" data-source-line="11" id="ent0003"><rect fill="#F1F1F1" height="48" rx="2.5" ry="2.5" style="stroke:#181818;stroke-width:0.5;" width="72.4619" x="388.4" y="195.4"/><ellipse cx="403.4" cy="211.4" fill="#ADD1B2" rx="11" ry="11" style="stroke:#181818;stroke-width:1;"/><path d="M403.6344,218.0719 Q402.4313,218.0719 401.5406,217.6187 Q400.6656,217.1656 400.1813,216.3531 Q399.6969,215.525 399.6969,214.4 L399.6969,208.9937 Q399.6969,207.8687 400.1813,207.0562 Q400.6656,206.2281 401.5406,205.775 Q402.4313,205.3219 403.6344,205.3219 Q404.8219,205.3219 405.6969,205.775 Q406.5875,206.2281 407.0875,207.0562 Q407.5875,207.8687 407.5875,208.9937 L405.4313,208.9937 Q405.4313,208.1187 404.9625,207.6656 Q404.5094,207.1969 403.6344,207.1969 Q402.775,207.1969 402.2906,207.6656 Q401.8219,208.1187 401.8219,208.9937 L401.8219,214.4 Q401.8219,215.2594 402.2906,215.7281 Q402.775,216.1969 403.6344,216.1969 Q404.5094,216.1969 404.9625,215.7281 Q405.4313,215.2594 405.4313,214.4 L407.5875,214.4 Q407.5875,215.525 407.0875,216.3531 Q406.5875,217.1656 405.6969,217.6187 Q404.8219,218.0719 403.6344,218.0719 Z " fill="#000000"/><text fill="#000000" font-family="sans-serif" font-size="14" lengthAdjust="spacing" textLength="40.4619" x="417.4" y="216.4825">Sector</text><line style="stroke:#181818;stroke-width:0.5;" x1="389.4" x2="459.8619" y1="227.4" y2="227.4"/><line style="stroke:#181818;stroke-width:0.5;" x1="389.4" x2="459.8619" y1="235.4" y2="235.4"/></g><!--class Seat--><g class="entity" data-qualified-name="Seat" data-source-line="12" id="ent0004"><rect fill="#F1F1F1" height="80.1973" rx="2.5" ry="2.5" style="stroke:#181818;stroke-width:0.5;" width="82.0342" x="414.61" y="320.5"/><ellipse cx="439.1655" cy="336.5" fill="#ADD1B2" rx="11" ry="11" style="stroke:#181818;stroke-width:1;"/><path d="M439.3998,343.1719 Q438.1967,343.1719 437.3061,342.7188 Q436.4311,342.2656 435.9467,341.4531 Q435.4623,340.625 435.4623,339.5 L435.4623,334.0938 Q435.4623,332.9688 435.9467,332.1563 Q436.4311,331.3281 437.3061,330.875 Q438.1967,330.4219 439.3998,330.4219 Q440.5873,330.4219 441.4623,330.875 Q442.353,331.3281 442.853,332.1563 Q443.353,332.9688 443.353,334.0938 L441.1967,334.0938 Q441.1967,333.2188 440.728,332.7656 Q440.2748,332.2969 439.3998,332.2969 Q438.5405,332.2969 438.0561,332.7656 Q437.5873,333.2188 437.5873,334.0938 L437.5873,339.5 Q437.5873,340.3594 438.0561,340.8281 Q438.5405,341.2969 439.3998,341.2969 Q440.2748,341.2969 440.728,340.8281 Q441.1967,340.3594 441.1967,339.5 L443.353,339.5 Q443.353,340.625 442.853,341.4531 Q442.353,342.2656 441.4623,342.7188 Q440.5873,343.1719 439.3998,343.1719 Z " fill="#000000"/><text fill="#000000" font-family="sans-serif" font-size="14" lengthAdjust="spacing" textLength="28.7998" x="455.2889" y="341.5825">Seat</text><line style="stroke:#181818;stroke-width:0.5;" x1="415.61" x2="495.6442" y1="352.5" y2="352.5"/><text fill="#000000" font-family="sans-serif" font-size="14" lengthAdjust="spacing" textLength="64.5723" x="420.61" y="369.6318">row: string</text><text fill="#000000" font-family="sans-serif" font-size="14" lengthAdjust="spacing" textLength="70.0342" x="420.61" y="385.7305">number: int</text><line style="stroke:#181818;stroke-width:0.5;" x1="415.61" x2="495.6442" y1="392.6973" y2="392.6973"/></g><!--class Event--><g class="entity" data-qualified-name="Event" data-source-line="16" id="ent0005"><rect fill="#F1F1F1" height="80.1973" rx="2.5" ry="2.5" style="stroke:#181818;stroke-width:0.5;" width="106.1855" x="236.53" y="179.3"/><ellipse cx="268.8036" cy="195.3" fill="#ADD1B2" rx="11" ry="11" style="stroke:#181818;stroke-width:1;"/><path d="M269.038,201.9719 Q267.8348,201.9719 266.9442,201.5188 Q266.0692,201.0656 265.5848,200.2531 Q265.1005,199.425 265.1005,198.3 L265.1005,192.8938 Q265.1005,191.7688 265.5848,190.9563 Q266.0692,190.1281 266.9442,189.675 Q267.8348,189.2219 269.038,189.2219 Q270.2255,189.2219 271.1005,189.675 Q271.9911,190.1281 272.4911,190.9563 Q272.9911,191.7688 272.9911,192.8938 L270.8348,192.8938 Q270.8348,192.0188 270.3661,191.5656 Q269.913,191.0969 269.038,191.0969 Q268.1786,191.0969 267.6942,191.5656 Q267.2255,192.0188 267.2255,192.8938 L267.2255,198.3 Q267.2255,199.1594 267.6942,199.6281 Q268.1786,200.0969 269.038,200.0969 Q269.913,200.0969 270.3661,199.6281 Q270.8348,199.1594 270.8348,198.3 L272.9911,198.3 Q272.9911,199.425 272.4911,200.2531 Q271.9911,201.0656 271.1005,201.5188 Q270.2255,201.9719 269.038,201.9719 Z " fill="#000000"/><text fill="#000000" font-family="sans-serif" font-size="14" lengthAdjust="spacing" textLength="35.7998" x="286.6422" y="200.3825">Event</text><line style="stroke:#181818;stroke-width:0.5;" x1="237.53" x2="341.7155" y1="211.3" y2="211.3"/><text fill="#000000" font-family="sans-serif" font-size="14" lengthAdjust="spacing" textLength="84.8066" x="242.53" y="228.4318">startsAt: Date</text><text fill="#000000" font-family="sans-serif" font-size="14" lengthAdjust="spacing" textLength="94.1855" x="242.53" y="244.5305">published: bool</text><line style="stroke:#181818;stroke-width:0.5;" x1="237.53" x2="341.7155" y1="251.4973" y2="251.4973"/></g><!--class PricingCategory--><g class="entity" data-qualified-name="PricingCategory" data-source-line="20" id="ent0006"><rect fill="#F1F1F1" height="64.0986" rx="2.5" ry="2.5" style="stroke:#181818;stroke-width:0.5;" width="131.5996" x="247.83" y="328.54"/><ellipse cx="262.83" cy="344.54" fill="#ADD1B2" rx="11" ry="11" style="stroke:#181818;stroke-width:1;"/><path d="M263.0644,351.2119 Q261.8613,351.2119 260.9706,350.7587 Q260.0956,350.3056 259.6113,349.4931 Q259.1269,348.665 259.1269,347.54 L259.1269,342.1337 Q259.1269,341.0087 259.6113,340.1962 Q260.0956,339.3681 260.9706,338.915 Q261.8613,338.4619 263.0644,338.4619 Q264.2519,338.4619 265.1269,338.915 Q266.0175,339.3681 266.5175,340.1962 Q267.0175,341.0087 267.0175,342.1337 L264.8613,342.1337 Q264.8613,341.2587 264.3925,340.8056 Q263.9394,340.3369 263.0644,340.3369 Q262.205,340.3369 261.7206,340.8056 Q261.2519,341.2587 261.2519,342.1337 L261.2519,347.54 Q261.2519,348.3994 261.7206,348.8681 Q262.205,349.3369 263.0644,349.3369 Q263.9394,349.3369 264.3925,348.8681 Q264.8613,348.3994 264.8613,347.54 L267.0175,347.54 Q267.0175,348.665 266.5175,349.4931 Q266.0175,350.3056 265.1269,350.7587 Q264.2519,351.2119 263.0644,351.2119 Z " fill="#000000"/><text fill="#000000" font-family="sans-serif" font-size="14" lengthAdjust="spacing" textLength="99.5996" x="276.83" y="349.6225">PricingCategory</text><line style="stroke:#181818;stroke-width:0.5;" x1="248.83" x2="378.4296" y1="360.54" y2="360.54"/><text fill="#000000" font-family="sans-serif" font-size="14" lengthAdjust="spacing" textLength="86.3652" x="253.83" y="377.6718">price: decimal</text><line style="stroke:#181818;stroke-width:0.5;" x1="248.83" x2="378.4296" y1="384.6386" y2="384.6386"/></g><!--class Reservation--><g class="entity" data-qualified-name="Reservation" data-source-line="23" id="ent0007"><rect fill="#F1F1F1" height="80.1973" rx="2.5" ry="2.5" style="stroke:#181818;stroke-width:0.5;" width="106.7031" x="106.28" y="320.5"/><ellipse cx="121.28" cy="336.5" fill="#ADD1B2" rx="11" ry="11" style="stroke:#181818;stroke-width:1;"/><path d="M121.5144,343.1719 Q120.3113,343.1719 119.4206,342.7188 Q118.5456,342.2656 118.0613,341.4531 Q117.5769,340.625 117.5769,339.5 L117.5769,334.0938 Q117.5769,332.9688 118.0613,332.1563 Q118.5456,331.3281 119.4206,330.875 Q120.3113,330.4219 121.5144,330.4219 Q122.7019,330.4219 123.5769,330.875 Q124.4675,331.3281 124.9675,332.1563 Q125.4675,332.9688 125.4675,334.0938 L123.3113,334.0938 Q123.3113,333.2188 122.8425,332.7656 Q122.3894,332.2969 121.5144,332.2969 Q120.655,332.2969 120.1706,332.7656 Q119.7019,333.2188 119.7019,334.0938 L119.7019,339.5 Q119.7019,340.3594 120.1706,340.8281 Q120.655,341.2969 121.5144,341.2969 Q122.3894,341.2969 122.8425,340.8281 Q123.3113,340.3594 123.3113,339.5 L125.4675,339.5 Q125.4675,340.625 124.9675,341.4531 Q124.4675,342.2656 123.5769,342.7188 Q122.7019,343.1719 121.5144,343.1719 Z " fill="#000000"/><text fill="#000000" font-family="sans-serif" font-size="14" lengthAdjust="spacing" textLength="74.7031" x="135.28" y="341.5825">Reservation</text><line style="stroke:#181818;stroke-width:0.5;" x1="107.28" x2="211.9831" y1="352.5" y2="352.5"/><text fill="#000000" font-family="sans-serif" font-size="14" lengthAdjust="spacing" textLength="30.3516" x="112.28" y="369.6318">state</text><text fill="#000000" font-family="sans-serif" font-size="14" lengthAdjust="spacing" textLength="58.3584" x="112.28" y="385.7305">expiresAt</text><line style="stroke:#181818;stroke-width:0.5;" x1="107.28" x2="211.9831" y1="392.6973" y2="392.6973"/></g><!--class ReservationSeat--><g class="entity" data-qualified-name="ReservationSeat" data-source-line="27" id="ent0008"><rect fill="#F1F1F1" height="64.0986" rx="2.5" ry="2.5" style="stroke:#181818;stroke-width:0.5;" width="135.5029" x="336.88" y="469.74"/><ellipse cx="351.88" cy="485.74" fill="#ADD1B2" rx="11" ry="11" style="stroke:#181818;stroke-width:1;"/><path d="M352.1144,492.4119 Q350.9113,492.4119 350.0206,491.9588 Q349.1456,491.5056 348.6613,490.6931 Q348.1769,489.865 348.1769,488.74 L348.1769,483.3338 Q348.1769,482.2088 348.6613,481.3963 Q349.1456,480.5681 350.0206,480.115 Q350.9113,479.6619 352.1144,479.6619 Q353.3019,479.6619 354.1769,480.115 Q355.0675,480.5681 355.5675,481.3963 Q356.0675,482.2088 356.0675,483.3338 L353.9113,483.3338 Q353.9113,482.4588 353.4425,482.0056 Q352.9894,481.5369 352.1144,481.5369 Q351.255,481.5369 350.7706,482.0056 Q350.3019,482.4588 350.3019,483.3338 L350.3019,488.74 Q350.3019,489.5994 350.7706,490.0681 Q351.255,490.5369 352.1144,490.5369 Q352.9894,490.5369 353.4425,490.0681 Q353.9113,489.5994 353.9113,488.74 L356.0675,488.74 Q356.0675,489.865 355.5675,490.6931 Q355.0675,491.5056 354.1769,491.9588 Q353.3019,492.4119 352.1144,492.4119 Z " fill="#000000"/><text fill="#000000" font-family="sans-serif" font-size="14" lengthAdjust="spacing" textLength="103.5029" x="365.88" y="490.8225">ReservationSeat</text><line style="stroke:#181818;stroke-width:0.5;" x1="337.88" x2="471.3829" y1="501.74" y2="501.74"/><text fill="#000000" font-family="sans-serif" font-size="14" lengthAdjust="spacing" textLength="30.3516" x="342.88" y="518.8718">state</text><line style="stroke:#181818;stroke-width:0.5;" x1="337.88" x2="471.3829" y1="525.8386" y2="525.8386"/></g><!--class Payment--><g class="entity" data-qualified-name="Payment" data-source-line="30" id="ent0009"><rect fill="#F1F1F1" height="80.1973" rx="2.5" ry="2.5" style="stroke:#181818;stroke-width:0.5;" width="87.248" x="60" y="461.69"/><ellipse cx="75" cy="477.69" fill="#ADD1B2" rx="11" ry="11" style="stroke:#181818;stroke-width:1;"/><path d="M75.2344,484.3619 Q74.0313,484.3619 73.1406,483.9088 Q72.2656,483.4556 71.7813,482.6431 Q71.2969,481.815 71.2969,480.69 L71.2969,475.2838 Q71.2969,474.1588 71.7813,473.3463 Q72.2656,472.5181 73.1406,472.065 Q74.0313,471.6119 75.2344,471.6119 Q76.4219,471.6119 77.2969,472.065 Q78.1875,472.5181 78.6875,473.3463 Q79.1875,474.1588 79.1875,475.2838 L77.0313,475.2838 Q77.0313,474.4088 76.5625,473.9556 Q76.1094,473.4869 75.2344,473.4869 Q74.375,473.4869 73.8906,473.9556 Q73.4219,474.4088 73.4219,475.2838 L73.4219,480.69 Q73.4219,481.5494 73.8906,482.0181 Q74.375,482.4869 75.2344,482.4869 Q76.1094,482.4869 76.5625,482.0181 Q77.0313,481.5494 77.0313,480.69 L79.1875,480.69 Q79.1875,481.815 78.6875,482.6431 Q78.1875,483.4556 77.2969,483.9088 Q76.4219,484.3619 75.2344,484.3619 Z " fill="#000000"/><text fill="#000000" font-family="sans-serif" font-size="14" lengthAdjust="spacing" textLength="55.248" x="89" y="482.7725">Payment</text><line style="stroke:#181818;stroke-width:0.5;" x1="61" x2="146.248" y1="493.69" y2="493.69"/><text fill="#000000" font-family="sans-serif" font-size="14" lengthAdjust="spacing" textLength="30.3516" x="66" y="510.8218">state</text><text fill="#000000" font-family="sans-serif" font-size="14" lengthAdjust="spacing" textLength="59.1445" x="66" y="526.9205">reference</text><line style="stroke:#181818;stroke-width:0.5;" x1="61" x2="146.248" y1="533.8873" y2="533.8873"/></g><!--class Ticket--><g class="entity" data-qualified-name="Ticket" data-source-line="34" id="ent0010"><rect fill="#F1F1F1" height="80.1973" rx="2.5" ry="2.5" style="stroke:#181818;stroke-width:0.5;" width="69.3379" x="181.96" y="461.69"/><ellipse cx="196.96" cy="477.69" fill="#ADD1B2" rx="11" ry="11" style="stroke:#181818;stroke-width:1;"/><path d="M197.1944,484.3619 Q195.9913,484.3619 195.1006,483.9088 Q194.2256,483.4556 193.7413,482.6431 Q193.2569,481.815 193.2569,480.69 L193.2569,475.2838 Q193.2569,474.1588 193.7413,473.3463 Q194.2256,472.5181 195.1006,472.065 Q195.9913,471.6119 197.1944,471.6119 Q198.3819,471.6119 199.2569,472.065 Q200.1475,472.5181 200.6475,473.3463 Q201.1475,474.1588 201.1475,475.2838 L198.9913,475.2838 Q198.9913,474.4088 198.5225,473.9556 Q198.0694,473.4869 197.1944,473.4869 Q196.335,473.4869 195.8506,473.9556 Q195.3819,474.4088 195.3819,475.2838 L195.3819,480.69 Q195.3819,481.5494 195.8506,482.0181 Q196.335,482.4869 197.1944,482.4869 Q198.0694,482.4869 198.5225,482.0181 Q198.9913,481.5494 198.9913,480.69 L201.1475,480.69 Q201.1475,481.815 200.6475,482.6431 Q200.1475,483.4556 199.2569,483.9088 Q198.3819,484.3619 197.1944,484.3619 Z " fill="#000000"/><text fill="#000000" font-family="sans-serif" font-size="14" lengthAdjust="spacing" textLength="37.3379" x="210.96" y="482.7725">Ticket</text><line style="stroke:#181818;stroke-width:0.5;" x1="182.96" x2="250.2979" y1="493.69" y2="493.69"/><text fill="#000000" font-family="sans-serif" font-size="14" lengthAdjust="spacing" textLength="34.248" x="187.96" y="510.8218">token</text><text fill="#000000" font-family="sans-serif" font-size="14" lengthAdjust="spacing" textLength="45.1309" x="187.96" y="526.9205">qrHash</text><line style="stroke:#181818;stroke-width:0.5;" x1="182.96" x2="250.2979" y1="533.8873" y2="533.8873"/></g><!--class Notification--><g class="entity" data-qualified-name="Notification" data-source-line="38" id="ent0011"><rect fill="#F1F1F1" height="48" rx="2.5" ry="2.5" style="stroke:#181818;stroke-width:0.5;" width="101.2549" x="7" y="195.4"/><ellipse cx="22" cy="211.4" fill="#ADD1B2" rx="11" ry="11" style="stroke:#181818;stroke-width:1;"/><path d="M22.2344,218.0719 Q21.0313,218.0719 20.1406,217.6187 Q19.2656,217.1656 18.7813,216.3531 Q18.2969,215.525 18.2969,214.4 L18.2969,208.9937 Q18.2969,207.8687 18.7813,207.0562 Q19.2656,206.2281 20.1406,205.775 Q21.0313,205.3219 22.2344,205.3219 Q23.4219,205.3219 24.2969,205.775 Q25.1875,206.2281 25.6875,207.0562 Q26.1875,207.8687 26.1875,208.9937 L24.0313,208.9937 Q24.0313,208.1187 23.5625,207.6656 Q23.1094,207.1969 22.2344,207.1969 Q21.375,207.1969 20.8906,207.6656 Q20.4219,208.1187 20.4219,208.9937 L20.4219,214.4 Q20.4219,215.2594 20.8906,215.7281 Q21.375,216.1969 22.2344,216.1969 Q23.1094,216.1969 23.5625,215.7281 Q24.0313,215.2594 24.0313,214.4 L26.1875,214.4 Q26.1875,215.525 25.6875,216.3531 Q25.1875,217.1656 24.2969,217.6187 Q23.4219,218.0719 22.2344,218.0719 Z " fill="#000000"/><text fill="#000000" font-family="sans-serif" font-size="14" lengthAdjust="spacing" textLength="69.2549" x="36" y="216.4825">Notification</text><line style="stroke:#181818;stroke-width:0.5;" x1="8" x2="107.2549" y1="227.4" y2="227.4"/><line style="stroke:#181818;stroke-width:0.5;" x1="8" x2="107.2549" y1="235.4" y2="235.4"/></g><!--reverse link Venue to Sector--><g class="link" data-entity-1="ent0002" data-entity-2="ent0003" data-link-type="composition" data-source-line="39" id="lnk12"><path codeLine="39" d="M378.5156,114.4793 C391.8756,144.5993 403.73,171.31 414.3,195.12" fill="none" id="Venue-backto-Sector" style="stroke:#181818;stroke-width:1;"/><polygon fill="#181818" points="373.65,103.51,372.4263,110.6165,378.5156,114.4793,379.7392,107.3728,373.65,103.51" style="stroke:#181818;stroke-width:1;stroke-linejoin:miter;stroke-miterlimit:10;"/><text fill="#000000" font-family="sans-serif" font-size="13" lengthAdjust="spacing" textLength="7.23" x="369.1303" y="123.5558">1</text><text fill="#000000" font-family="sans-serif" font-size="13" lengthAdjust="spacing" textLength="5.0591" x="405.6996" y="184.6498">*</text></g><!--reverse link Sector to Seat--><g class="link" data-entity-1="ent0003" data-entity-2="ent0004" data-link-type="composition" data-source-line="40" id="lnk13"><path codeLine="40" d="M432.4261,255.4136 C437.0561,276.2236 441.34,295.45 446.84,320.12" fill="none" id="Sector-backto-Seat" style="stroke:#181818;stroke-width:1;"/><polygon fill="#181818" points="429.82,243.7,427.2185,250.4255,432.4261,255.4136,435.0276,248.6881,429.82,243.7" style="stroke:#181818;stroke-width:1;stroke-linejoin:miter;stroke-miterlimit:10;"/><text fill="#000000" font-family="sans-serif" font-size="13" lengthAdjust="spacing" textLength="7.23" x="423.2597" y="263.6388">1</text><text fill="#000000" font-family="sans-serif" font-size="13" lengthAdjust="spacing" textLength="5.0591" x="439.7644" y="309.6474">*</text></g><!--link Venue to Event--><g class="link" data-entity-1="ent0002" data-entity-2="ent0005" data-link-type="association" data-source-line="41" id="lnk14"><path codeLine="41" d="M334.24,103.51 C324.94,127.46 313.79,156.18 304.96,178.91" fill="none" id="Venue-Event" style="stroke:#181818;stroke-width:1;"/><text fill="#000000" font-family="sans-serif" font-size="13" lengthAdjust="spacing" textLength="7.23" x="324.1783" y="123.5558">1</text><text fill="#000000" font-family="sans-serif" font-size="13" lengthAdjust="spacing" textLength="5.0591" x="302.3323" y="168.4356">*</text></g><!--link User to Event--><g class="link" data-entity-1="ent0001" data-entity-2="ent0005" data-link-type="association" data-source-line="42" id="lnk15"><path codeLine="42" d="M198.99,103.51 C217.88,127.46 240.54,156.18 258.48,178.91" fill="none" id="User-Event" style="stroke:#181818;stroke-width:1;"/><text fill="#000000" font-family="sans-serif" font-size="13" lengthAdjust="spacing" textLength="56.3672" x="234.29" y="146.4938">organizes</text><text fill="#000000" font-family="sans-serif" font-size="13" lengthAdjust="spacing" textLength="7.23" x="196.7685" y="123.5558">1</text><text fill="#000000" font-family="sans-serif" font-size="13" lengthAdjust="spacing" textLength="5.0591" x="247.2826" y="168.4356">*</text></g><!--reverse link Event to PricingCategory--><g class="link" data-entity-1="ent0005" data-entity-2="ent0006" data-link-type="composition" data-source-line="43" id="lnk16"><path codeLine="43" d="M298.4782,271.7356 C302.2182,293.4356 304.76,308.15 308.25,328.38" fill="none" id="Event-backto-PricingCategory" style="stroke:#181818;stroke-width:1;"/><polygon fill="#181818" points="296.44,259.91,293.5172,266.5022,298.4782,271.7356,301.401,265.1434,296.44,259.91" style="stroke:#181818;stroke-width:1;stroke-linejoin:miter;stroke-miterlimit:10;"/><text fill="#000000" font-family="sans-serif" font-size="13" lengthAdjust="spacing" textLength="7.23" x="289.987" y="279.7516">1</text><text fill="#000000" font-family="sans-serif" font-size="13" lengthAdjust="spacing" textLength="5.0591" x="301.4346" y="317.6164">*</text></g><!--link User to Reservation--><g class="link" data-entity-1="ent0001" data-entity-2="ent0007" data-link-type="association" data-source-line="44" id="lnk17"><path codeLine="44" d="M161.31,103.56 C160.92,163.24 160.25,264.64 159.89,320.24" fill="none" id="User-Reservation" style="stroke:#181818;stroke-width:1;"/><text fill="#000000" font-family="sans-serif" font-size="13" lengthAdjust="spacing" textLength="7.23" x="153.7898" y="123.6129">1</text><text fill="#000000" font-family="sans-serif" font-size="13" lengthAdjust="spacing" textLength="5.0591" x="154.4822" y="309.7896">*</text></g><!--link Event to Reservation--><g class="link" data-entity-1="ent0005" data-entity-2="ent0007" data-link-type="association" data-source-line="45" id="lnk18"><path codeLine="45" d="M252.72,259.91 C235.01,278.88 213.84,301.54 196.17,320.46" fill="none" id="Event-Reservation" style="stroke:#181818;stroke-width:1;"/><text fill="#000000" font-family="sans-serif" font-size="13" lengthAdjust="spacing" textLength="7.23" x="239.2991" y="279.7516">1</text><text fill="#000000" font-family="sans-serif" font-size="13" lengthAdjust="spacing" textLength="5.0591" x="197.6642" y="309.7585">*</text></g><!--reverse link Reservation to ReservationSeat--><g class="link" data-entity-1="ent0007" data-entity-2="ent0008" data-link-type="composition" data-source-line="46" id="lnk19"><path codeLine="46" d="M223.8237,398.0677 C264.1137,420.9577 308.63,446.25 349.29,469.35" fill="none" id="Reservation-backto-ReservationSeat" style="stroke:#181818;stroke-width:1;"/><polygon fill="#181818" points="213.39,392.14,216.6309,398.5818,223.8237,398.0677,220.5828,391.626,213.39,392.14" style="stroke:#181818;stroke-width:1;stroke-linejoin:miter;stroke-miterlimit:10;"/><text fill="#000000" font-family="sans-serif" font-size="13" lengthAdjust="spacing" textLength="7.23" x="221.0996" y="393.6953">1</text><text fill="#000000" font-family="sans-serif" font-size="13" lengthAdjust="spacing" textLength="5.0591" x="331.6436" y="459.0203">*</text></g><!--link Seat to ReservationSeat--><g class="link" data-entity-1="ent0004" data-entity-2="ent0008" data-link-type="association" data-source-line="47" id="lnk20"><path codeLine="47" d="M441.15,401.11 C433.2,422.81 423.48,449.35 416.06,469.58" fill="none" id="Seat-ReservationSeat" style="stroke:#181818;stroke-width:1;"/><text fill="#000000" font-family="sans-serif" font-size="13" lengthAdjust="spacing" textLength="7.23" x="431.3032" y="420.9516">1</text><text fill="#000000" font-family="sans-serif" font-size="13" lengthAdjust="spacing" textLength="5.0591" x="413.1316" y="458.8164">*</text></g><!--link Reservation to Payment--><g class="link" data-entity-1="ent0007" data-entity-2="ent0009" data-link-type="association" data-source-line="48" id="lnk21"><path codeLine="48" d="M143.73,401.11 C136.1,420.08 126.98,442.74 119.37,461.66" fill="none" id="Reservation-Payment" style="stroke:#181818;stroke-width:1;"/><text fill="#000000" font-family="sans-serif" font-size="13" lengthAdjust="spacing" textLength="7.23" x="133.6562" y="420.9516">1</text><text fill="#000000" font-family="sans-serif" font-size="13" lengthAdjust="spacing" textLength="21.6836" x="99.4352" y="450.9604">0..1</text></g><!--link Reservation to Ticket--><g class="link" data-entity-1="ent0007" data-entity-2="ent0010" data-link-type="association" data-source-line="49" id="lnk22"><path codeLine="49" d="M175.81,401.11 C183.58,420.08 192.86,442.74 200.6,461.66" fill="none" id="Reservation-Ticket" style="stroke:#181818;stroke-width:1;"/><text fill="#000000" font-family="sans-serif" font-size="13" lengthAdjust="spacing" textLength="7.23" x="170.849" y="420.9516">1</text><text fill="#000000" font-family="sans-serif" font-size="13" lengthAdjust="spacing" textLength="5.0591" x="192.0736" y="450.9604">*</text></g><!--link User to Notification--><g class="link" data-entity-1="ent0001" data-entity-2="ent0011" data-link-type="association" data-source-line="50" id="lnk23"><path codeLine="50" d="M131.27,103.51 C111.96,133.63 87.81,171.31 72.55,195.12" fill="none" id="User-Notification" style="stroke:#181818;stroke-width:1;"/><text fill="#000000" font-family="sans-serif" font-size="13" lengthAdjust="spacing" textLength="7.23" x="119.5254" y="123.5558">1</text><text fill="#000000" font-family="sans-serif" font-size="13" lengthAdjust="spacing" textLength="5.0591" x="71.0522" y="184.6498">*</text></g><?plantuml-src RP51JyCm38Nl-HLHZvCsmRKtn93WWj1WtDFCsworoN2ymK3yTqooPb7NIvCuxpqxNsrhGj3B0AH_bDQuglLo-JINBNG6sre79dGREPDleTOB-QfVPQFj7Tm1XZvdEYXi5lcKZxtn5InxoWV3COJyPs5qXwu1gZKwphw78xYa3Mo8mntNUcuOfB0_D2s6BSWWZVTjjhmGMWcy5zN6qocQzrAJ6LTWiJCNwG84mz4mUjVtYD7mjKS2QJQcpDCdTMvhJbqnQymXM0E1inVL6zeT917x7JXPF-ZHX6rMF7l6DThOIYNUrMsb9zEfhYPL3p8jWnl3XU5SZG1L_Dt3ggwrfurn-0r1fKgPD-1ubL4WATmZboNbii60gOfWnpFY_J3dNtOpcydkp7vK8K49-jK3Ij9_?></g></svg>