<svg xmlns="http://www.w3.org/2000/svg" xmlns:xlink="http://www.w3.org/1999/xlink" contentStyleType="text/css" data-diagram-type="DESCRIPTION" height="607px" preserveAspectRatio="none" style="width:1976px;height:607px;background:#FFFFFF;" version="1.1" viewBox="0 0 1976 607" width="1976px" zoomAndPan="magnify"><?plantuml $version$?><defs/><g><g class="title" data-source-line="2"><text fill="#000000" font-family="DejaVu Sans" font-size="14" font-weight="700" lengthAdjust="spacing" textLength="412.248" x="778.7295" y="23.1318">Logical Component Diagram &#8212; Decoupled Bounded Contexts</text></g><!--cluster Clients--><g class="cluster" data-qualified-name="Clients" data-source-line="4" id="ent0001"><path d="M11,158.9986 L47.0078,158.9986 A7.5,7.5 0 0 1 52.0078,163.9986 L59.0078,178.7975 L180.38,178.7975 A5,5 0 0 1 185.38,183.7975 L185.38,403.9986 A5,5 0 0 1 180.38,408.9986 L11,408.9986 A5,5 0 0 1 6,403.9986 L6,163.9986 A5,5 0 0 1 11,158.9986" fill="#F8FAFC" style="stroke:#64748B;stroke-width:1.5;"/><line style="stroke:#64748B;stroke-width:1.5;" x1="6" x2="59.0078" y1="178.7975" y2="178.7975"/><text fill="#000000" font-family="DejaVu Sans" font-size="12" font-weight="700" lengthAdjust="spacing" textLength="40.0078" x="10" y="172.2545">Clients</text></g><!--entity Web--><g class="entity" data-qualified-name="Clients.Web" data-source-line="5" id="ent0002"><rect fill="#EFF6FF" height="43.7988" rx="5" ry="5" style="stroke:#2563EB;stroke-width:0.5;" width="99.3555" x="46.01" y="191.0986"/><rect fill="#EFF6FF" height="10" style="stroke:#2563EB;stroke-width:0.5;" width="15" x="125.3655" y="196.0986"/><rect fill="#EFF6FF" height="2" style="stroke:#2563EB;stroke-width:0.5;" width="4" x="123.3655" y="198.0986"/><rect fill="#EFF6FF" height="2" style="stroke:#2563EB;stroke-width:0.5;" width="4" x="123.3655" y="202.0986"/><text fill="#000000" font-family="DejaVu Sans" font-size="12" lengthAdjust="spacing" textLength="59.3555" x="61.01" y="222.3545">React Web</text></g><!--entity Mobile--><g class="entity" data-qualified-name="Clients.Mobile" data-source-line="6" id="ent0003"><rect fill="#EFF6FF" height="43.7988" rx="5" ry="5" style="stroke:#2563EB;stroke-width:0.5;" width="147.3789" x="22" y="270.0986"/><rect fill="#EFF6FF" height="10" style="stroke:#2563EB;stroke-width:0.5;" width="15" x="149.3789" y="275.0986"/><rect fill="#EFF6FF" height="2" style="stroke:#2563EB;stroke-width:0.5;" width="4" x="147.3789" y="277.0986"/><rect fill="#EFF6FF" height="2" style="stroke:#2563EB;stroke-width:0.5;" width="4" x="147.3789" y="281.0986"/><text fill="#000000" font-family="DejaVu Sans" font-size="12" lengthAdjust="spacing" textLength="107.3789" x="37" y="301.3545">Future Mobile Client</text></g><!--entity Console--><g class="entity" data-qualified-name="Clients.Console" data-source-line="7" id="ent0004"><rect fill="#EFF6FF" height="43.7988" rx="5" ry="5" style="stroke:#2563EB;stroke-width:0.5;" width="140.0488" x="25.67" y="349.0986"/><rect fill="#EFF6FF" height="10" style="stroke:#2563EB;stroke-width:0.5;" width="15" x="145.7188" y="354.0986"/><rect fill="#EFF6FF" height="2" style="stroke:#2563EB;stroke-width:0.5;" width="4" x="143.7188" y="356.0986"/><rect fill="#EFF6FF" height="2" style="stroke:#2563EB;stroke-width:0.5;" width="4" x="143.7188" y="360.0986"/><text fill="#000000" font-family="DejaVu Sans" font-size="12" lengthAdjust="spacing" textLength="100.0488" x="40.67" y="380.3545">Organizer Console</text></g><!--entity Gateway--><g class="entity" data-qualified-name="Gateway" data-source-line="9" id="ent0005"><rect fill="#EFF6FF" height="43.7988" rx="5" ry="5" style="stroke:#2563EB;stroke-width:0.5;" width="110.0313" x="422.59" y="270.0986"/><rect fill="#EFF6FF" height="10" style="stroke:#2563EB;stroke-width:0.5;" width="15" x="512.6212" y="275.0986"/><rect fill="#EFF6FF" height="2" style="stroke:#2563EB;stroke-width:0.5;" width="4" x="510.6213" y="277.0986"/><rect fill="#EFF6FF" height="2" style="stroke:#2563EB;stroke-width:0.5;" width="4" x="510.6213" y="281.0986"/><text fill="#000000" font-family="DejaVu Sans" font-size="12" lengthAdjust="spacing" textLength="70.0313" x="437.59" y="301.3545">API Gateway</text></g><!--entity Identity--><g class="entity" data-qualified-name="Identity" data-source-line="10" id="ent0006"><rect fill="#EFF6FF" height="43.7988" rx="5" ry="5" style="stroke:#2563EB;stroke-width:0.5;" width="132.0391" x="831.84" y="44.0986"/><rect fill="#EFF6FF" height="10" style="stroke:#2563EB;stroke-width:0.5;" width="15" x="943.8791" y="49.0986"/><rect fill="#EFF6FF" height="2" style="stroke:#2563EB;stroke-width:0.5;" width="4" x="941.8791" y="51.0986"/><rect fill="#EFF6FF" height="2" style="stroke:#2563EB;stroke-width:0.5;" width="4" x="941.8791" y="55.0986"/><text fill="#000000" font-family="DejaVu Sans" font-size="12" lengthAdjust="spacing" textLength="92.0391" x="846.84" y="75.3545">Identity &amp; Access</text></g><!--entity Catalog--><g class="entity" data-qualified-name="Catalog" data-source-line="11" id="ent0007"><rect fill="#EFF6FF" height="43.7988" rx="5" ry="5" style="stroke:#2563EB;stroke-width:0.5;" width="148.709" x="823.5" y="129.0986"/><rect fill="#EFF6FF" height="10" style="stroke:#2563EB;stroke-width:0.5;" width="15" x="952.209" y="134.0986"/><rect fill="#EFF6FF" height="2" style="stroke:#2563EB;stroke-width:0.5;" width="4" x="950.209" y="136.0986"/><rect fill="#EFF6FF" height="2" style="stroke:#2563EB;stroke-width:0.5;" width="4" x="950.209" y="140.0986"/><text fill="#000000" font-family="DejaVu Sans" font-size="12" lengthAdjust="spacing" textLength="108.709" x="838.5" y="160.3545">Catalog &amp; Discovery</text></g><!--entity Reservation--><g class="entity" data-qualified-name="Reservation" data-source-line="12" id="ent0008"><rect fill="#EFF6FF" height="43.7988" rx="5" ry="5" style="stroke:#2563EB;stroke-width:0.5;" width="168.0625" x="813.83" y="319.0986"/><rect fill="#EFF6FF" height="10" style="stroke:#2563EB;stroke-width:0.5;" width="15" x="961.8925" y="324.0986"/><rect fill="#EFF6FF" height="2" style="stroke:#2563EB;stroke-width:0.5;" width="4" x="959.8925" y="326.0986"/><rect fill="#EFF6FF" height="2" style="stroke:#2563EB;stroke-width:0.5;" width="4" x="959.8925" y="330.0986"/><text fill="#000000" font-family="DejaVu Sans" font-size="12" lengthAdjust="spacing" textLength="128.0625" x="828.83" y="350.3545">Reservation &amp; Inventory</text></g><!--entity Waiting--><g class="entity" data-qualified-name="Waiting" data-source-line="13" id="ent0009"><rect fill="#EFF6FF" height="43.7988" rx="5" ry="5" style="stroke:#2563EB;stroke-width:0.5;" width="152.7051" x="821.5" y="220.0986"/><rect fill="#EFF6FF" height="10" style="stroke:#2563EB;stroke-width:0.5;" width="15" x="954.2051" y="225.0986"/><rect fill="#EFF6FF" height="2" style="stroke:#2563EB;stroke-width:0.5;" width="4" x="952.2051" y="227.0986"/><rect fill="#EFF6FF" height="2" style="stroke:#2563EB;stroke-width:0.5;" width="4" x="952.2051" y="231.0986"/><text fill="#000000" font-family="DejaVu Sans" font-size="12" lengthAdjust="spacing" textLength="112.7051" x="836.5" y="251.3545">Virtual Waiting Room</text></g><!--entity Billing--><g class="entity" data-qualified-name="Billing" data-source-line="14" id="ent0010"><rect fill="#EFF6FF" height="43.7988" rx="5" ry="5" style="stroke:#2563EB;stroke-width:0.5;" width="137.3828" x="829.17" y="426.0986"/><rect fill="#EFF6FF" height="10" style="stroke:#2563EB;stroke-width:0.5;" width="15" x="946.5528" y="431.0986"/><rect fill="#EFF6FF" height="2" style="stroke:#2563EB;stroke-width:0.5;" width="4" x="944.5528" y="433.0986"/><rect fill="#EFF6FF" height="2" style="stroke:#2563EB;stroke-width:0.5;" width="4" x="944.5528" y="437.0986"/><text fill="#000000" font-family="DejaVu Sans" font-size="12" lengthAdjust="spacing" textLength="97.3828" x="844.17" y="457.3545">Billing &amp; Checkout</text></g><!--entity Tickets--><g class="entity" data-qualified-name="Tickets" data-source-line="15" id="ent0011"><rect fill="#EFF6FF" height="43.7988" rx="5" ry="5" style="stroke:#2563EB;stroke-width:0.5;" width="134.6992" x="830.51" y="505.0986"/><rect fill="#EFF6FF" height="10" style="stroke:#2563EB;stroke-width:0.5;" width="15" x="945.2092" y="510.0986"/><rect fill="#EFF6FF" height="2" style="stroke:#2563EB;stroke-width:0.5;" width="4" x="943.2092" y="512.0986"/><rect fill="#EFF6FF" height="2" style="stroke:#2563EB;stroke-width:0.5;" width="4" x="943.2092" y="516.0986"/><text fill="#000000" font-family="DejaVu Sans" font-size="12" lengthAdjust="spacing" textLength="94.6992" x="845.51" y="536.3545">Ticket Verification</text></g><!--entity Notification--><g class="entity" data-qualified-name="Notification" data-source-line="16" id="ent0012"><rect fill="#EFF6FF" height="43.7988" rx="5" ry="5" style="stroke:#2563EB;stroke-width:0.5;" width="141.3613" x="1505.99" y="484.0986"/><rect fill="#EFF6FF" height="10" style="stroke:#2563EB;stroke-width:0.5;" width="15" x="1627.3513" y="489.0986"/><rect fill="#EFF6FF" height="2" style="stroke:#2563EB;stroke-width:0.5;" width="4" x="1625.3513" y="491.0986"/><rect fill="#EFF6FF" height="2" style="stroke:#2563EB;stroke-width:0.5;" width="4" x="1625.3513" y="495.0986"/><text fill="#000000" font-family="DejaVu Sans" font-size="12" lengthAdjust="spacing" textLength="101.3613" x="1520.99" y="515.3545">Notification Worker</text></g><!--entity Analytics--><g class="entity" data-qualified-name="Analytics" data-source-line="17" id="ent0013"><rect fill="#EFF6FF" height="43.7988" rx="5" ry="5" style="stroke:#2563EB;stroke-width:0.5;" width="144.7129" x="1504.31" y="405.0986"/><rect fill="#EFF6FF" height="10" style="stroke:#2563EB;stroke-width:0.5;" width="15" x="1629.0229" y="410.0986"/><rect fill="#EFF6FF" height="2" style="stroke:#2563EB;stroke-width:0.5;" width="4" x="1627.0229" y="412.0986"/><rect fill="#EFF6FF" height="2" style="stroke:#2563EB;stroke-width:0.5;" width="4" x="1627.0229" y="416.0986"/><text fill="#000000" font-family="DejaVu Sans" font-size="12" lengthAdjust="spacing" textLength="104.7129" x="1519.31" y="436.3545">Analytics Projection</text></g><!--entity PostgreSQL--><g class="entity" data-qualified-name="PostgreSQL" data-source-line="18" id="ent0014"><path d="M1826.7,333.6986 C1826.7,323.6986 1885.0428,323.6986 1885.0428,323.6986 C1885.0428,323.6986 1943.3855,323.6986 1943.3855,333.6986 L1943.3855,370.2963 C1943.3855,380.2963 1885.0428,380.2963 1885.0428,380.2963 C1885.0428,380.2963 1826.7,380.2963 1826.7,370.2963 L1826.7,333.6986" fill="#F5F3FF" style="stroke:#7C3AED;stroke-width:0.5;"/><path d="M1826.7,333.6986 C1826.7,343.6986 1885.0428,343.6986 1885.0428,343.6986 C1885.0428,343.6986 1943.3855,343.6986 1943.3855,333.6986" fill="none" style="stroke:#7C3AED;stroke-width:0.5;"/><text fill="#000000" font-family="DejaVu Sans" font-size="12" lengthAdjust="spacing" textLength="65.3672" x="1836.7" y="358.9545">PostgreSQL</text><text fill="#000000" font-family="DejaVu Sans" font-size="12" lengthAdjust="spacing" textLength="96.6855" x="1836.7" y="372.7533">(system of record)</text></g><!--entity Redis--><g class="entity" data-qualified-name="Redis" data-source-line="19" id="ent0015"><rect fill="#F1F1F1" height="43.5977" rx="5" ry="5" style="stroke:#181818;stroke-width:0.5;" width="171.4258" x="1147.89" y="258.1986"/><rect fill="#F1F1F1" height="43.5977" rx="5" ry="5" style="stroke:#181818;stroke-width:0.5;" width="171.4258" x="1143.89" y="254.1986"/><text fill="#000000" font-family="DejaVu Sans" font-size="12" lengthAdjust="spacing" textLength="30.6797" x="1151.89" y="273.4545">Redis</text><text fill="#000000" font-family="DejaVu Sans" font-size="12" lengthAdjust="spacing" textLength="155.4258" x="1151.89" y="287.2533">locks, queue counters, cache</text></g><!--entity RabbitMQ--><g class="entity" data-qualified-name="RabbitMQ" data-source-line="20" id="ent0016"><path d="M1179.24,409.1986 L1283.9685,409.1986 C1288.9685,409.1986 1288.9685,427.9975 1288.9685,427.9975 C1288.9685,427.9975 1288.9685,446.7963 1283.9685,446.7963 L1179.24,446.7963 C1174.24,446.7963 1174.24,427.9975 1174.24,427.9975 C1174.24,427.9975 1174.24,409.1986 1179.24,409.1986" fill="#FFF7ED" style="stroke:#C2410C;stroke-width:0.5;"/><path d="M1283.9685,409.1986 C1278.9685,409.1986 1278.9685,427.9975 1278.9685,427.9975 C1278.9685,446.7963 1283.9685,446.7963 1283.9685,446.7963" fill="none" style="stroke:#C2410C;stroke-width:0.5;"/><text fill="#000000" font-family="DejaVu Sans" font-size="12" lengthAdjust="spacing" textLength="54.0176" x="1179.24" y="425.4545">RabbitMQ</text><text fill="#000000" font-family="DejaVu Sans" font-size="12" lengthAdjust="spacing" textLength="94.7285" x="1179.24" y="439.2533">integration events</text></g><!--entity PaymentGateway--><g class="entity" data-qualified-name="PaymentGateway" data-source-line="21" id="ent0017"><path d="M1152.7809,492.6723 C1156.6036,486.7789 1160.3167,486.8621 1164.072,492.737 C1166.1133,487.2551 1170.6687,485.6917 1175.1005,490.0607 C1178.5751,484.9426 1184.5017,484.4473 1187.1204,490.9462 C1190.5398,485.4748 1194.4931,484.8969 1199.1663,489.4376 C1201.4068,484.1988 1206.1154,483.0506 1210.0051,487.614 C1213.0964,483.225 1217.4538,482.7903 1220.2623,487.9189 C1223.5444,481.9928 1228.2953,480.4818 1233.0654,486.2964 C1237.0867,481.5829 1241.0628,481.1565 1244.6413,486.7917 C1248.5979,482.0304 1252.9552,482.6379 1254.7881,488.77 C1259.4458,482.1748 1263.574,482.8275 1267.9319,489.0769 C1271.3857,484.6553 1277.1496,484.3771 1279.1987,490.5682 C1281.9191,485.0653 1287.2974,484.7688 1290.4676,490.1005 C1294.7981,485.5379 1298.2241,487.0064 1300.8181,491.9845 C1305.1808,486.999 1310.6403,487.794 1313.3557,493.8543 C1319.625,496.3086 1320.7675,501.8344 1315.24,506.1034 C1320.4887,512.8249 1319.8124,517.9763 1311.8236,521.8203 C1307.4706,526.8845 1303.4396,526.11 1300.362,520.4564 C1298.3024,526.5976 1293.3628,527.8241 1289.3525,522.2969 C1286.0792,526.9411 1280.985,526.5767 1278.672,521.2666 C1275.1357,526.5416 1270.7857,526.4036 1267.0897,521.4474 C1264.4191,527.2577 1260.3377,527.9868 1256.4078,522.6546 C1252.2176,528.211 1247.2104,528.9883 1243.0756,522.5927 C1239.989,527.0249 1236.4926,526.6368 1233.6831,522.2961 C1230.1305,528.5496 1226.4534,527.8313 1221.8334,523.49 C1217.6879,529.0262 1211.5195,527.7716 1209.4197,521.3639 C1207.1278,527.5405 1201.9336,527.8026 1198.2756,522.7155 C1194.6441,526.9854 1191.4471,528.1171 1187.7665,522.7691 C1183.4272,527.5845 1177.4876,527.1042 1175.1736,520.5298 C1173.2828,526.4364 1168.4972,525.8074 1165.1128,522.0914 C1160.5948,527.749 1156.2909,526.696 1152.4031,521.3626 C1143.6134,520.5681 1140.1454,514.5055 1144.9667,506.7733 C1141.2939,499.8525 1144.9439,493.2148 1152.7809,492.6723" fill="#F1F1F1" style="stroke:#181818;stroke-width:0.5;"/><text fill="#000000" font-family="DejaVu Sans" font-size="12" lengthAdjust="spacing" textLength="145.4004" x="1158.9" y="510.3545">External Payment Gateway</text></g><!--entity Providers--><g class="entity" data-qualified-name="Providers" data-source-line="22" id="ent0018"><path d="M1819.094,493.6874 C1821.1387,486.657 1825.7625,485.8748 1830.6759,490.9407 C1833.2967,484.661 1838.5379,485.822 1841.8663,490.1975 C1845.1547,484.3496 1850.262,484.8538 1853.27,490.4762 C1854.669,483.8564 1860.2431,482.301 1864.6957,487.5323 C1867.2108,482.1681 1870.3875,481.9404 1874.3039,486.1218 C1877.8781,481.3775 1881.1223,480.1864 1885.0614,485.7407 C1889.6776,481.4504 1893.4619,482.0022 1896.853,487.2544 C1900.7002,481.4077 1905.0317,483.0428 1908.1221,488.0409 C1911.6555,483.3724 1917.6511,483.4461 1919.9802,489.387 C1923.692,484.7266 1927.9704,483.9894 1931.4074,489.69 C1936.2945,485.5707 1939.3159,486.6967 1940.9448,492.746 C1944.9765,487.4783 1949.5908,488.055 1952.8076,493.637 C1960.557,496.8765 1961.1339,501.9967 1955.1055,507.5171 C1961.7071,512.3634 1961.0128,519.2071 1952.9171,521.8016 C1949.4653,526.4137 1944.8847,527.0728 1942.0585,521.1564 C1939.2508,526.3576 1935.2748,527.2233 1931.2531,522.4748 C1927.6223,527.9463 1922.7158,528.8732 1918.9704,522.5947 C1916.4277,527.3131 1912.5917,527.9199 1909.5504,523.0864 C1905.307,529.5282 1900.477,528.64 1896.3018,523.0116 C1893.9372,527.7318 1889.6716,527.9707 1886.5511,523.8447 C1882.7287,529.0081 1879.0128,528.5611 1875.4279,523.5842 C1871.6814,529.8384 1866.1101,528.8061 1863.1364,522.8088 C1859.8309,527.3228 1856.132,527.0993 1852.8998,522.7245 C1849.6581,527.8245 1843.4369,528.1049 1840.3868,522.5005 C1837.3803,526.6618 1833.9895,527.4369 1831.0214,522.4611 C1825.7356,527.8161 1822.0967,526.6489 1818.817,520.3588 C1811.712,517.3147 1812.0025,512.4378 1817.4566,508.0102 C1810.6603,502.633 1811.3348,497.4006 1819.094,493.6874" fill="#F1F1F1" style="stroke:#181818;stroke-width:0.5;"/><text fill="#000000" font-family="DejaVu Sans" font-size="12" lengthAdjust="spacing" textLength="120.0293" x="1825.03" y="510.3545">Email / SMS Providers</text></g><g class="entity" data-qualified-name="GMN43" data-source-line="48" id="ent0044"><path d="M343.38,354.1986 L343.38,381.7963 A5,5 0 0 0 348.38,386.7963 L606.8273,386.7963 A5,5 0 0 0 611.8273,381.7963 L611.8273,359.1986 L601.8273,349.1986 L481.6,349.1986 L477.6,314.1486 L473.6,349.1986 L348.38,349.1986 A5,5 0 0 0 343.38,354.1986" fill="#FEFCE8" style="stroke:#CA8A04;stroke-width:0.5;"/><path d="M601.8273,349.1986 L601.8273,356.6986 A2.5,2.5 0 0 0 604.3273,359.1986 L611.8273,359.1986 L601.8273,349.1986" fill="#FEFCE8" style="stroke:#CA8A04;stroke-width:0.5;"/><text fill="#000000" font-family="DejaVu Sans" font-size="12" lengthAdjust="spacing" textLength="247.4473" x="349.38" y="365.4545">Unified edge: TLS termination, JWT validation,</text><text fill="#000000" font-family="DejaVu Sans" font-size="12" lengthAdjust="spacing" textLength="221.4434" x="349.38" y="379.2533">correlation IDs, throttling and route policy.</text></g><!--link Web to Gateway--><g class="link" data-entity-1="ent0002" data-entity-2="ent0005" data-link-type="dependency" data-source-line="23" id="lnk19"><path d="M145.58,223.1686 C216.72,237.9586 343.4547,264.3109 417.4847,279.7009" fill="none" id="Web-to-Gateway" style="stroke:#334155;stroke-width:1.2;"/><polygon fill="#334155" points="422.38,280.7186,414.3825,274.9705,417.4847,279.7009,412.7542,282.8031,422.38,280.7186" style="stroke:#334155;stroke-width:1.2;stroke-linejoin:miter;stroke-miterlimit:10;"/><text fill="#000000" font-family="DejaVu Sans" font-size="12" lengthAdjust="spacing" textLength="110.6953" x="202.38" y="233.5945">HTTPS / WebSocket</text></g><!--link Mobile to Gateway--><g class="link" data-entity-1="ent0003" data-entity-2="ent0005" data-link-type="dependency" data-source-line="24" id="lnk20"><path d="M169.49,291.9986 C243.29,291.9986 350.78,291.9986 417.18,291.9986" fill="none" id="Mobile-to-Gateway" style="stroke:#334155;stroke-width:1.2;stroke-dasharray:7,7;"/><polygon fill="#334155" points="422.18,291.9986,413.18,287.9986,417.18,291.9986,413.18,295.9986,422.18,291.9986" style="stroke:#334155;stroke-width:1.2;stroke-linejoin:miter;stroke-miterlimit:10;"/><text fill="#000000" font-family="DejaVu Sans" font-size="12" lengthAdjust="spacing" textLength="73.3535" x="220.88" y="289.2545">future HTTPS</text></g><!--link Console to Gateway--><g class="link" data-entity-1="ent0004" data-entity-2="ent0005" data-link-type="dependency" data-source-line="25" id="lnk21"><path d="M165.93,356.5986 C239.66,341.2686 349.9246,318.336 417.3846,304.316" fill="none" id="Console-to-Gateway" style="stroke:#334155;stroke-width:1.2;"/><polygon fill="#334155" points="422.28,303.2986,412.6544,301.2136,417.3846,304.316,414.2822,309.0463,422.28,303.2986" style="stroke:#334155;stroke-width:1.2;stroke-linejoin:miter;stroke-miterlimit:10;"/><text fill="#000000" font-family="DejaVu Sans" font-size="12" lengthAdjust="spacing" textLength="39.334" x="237.88" y="324.0245">HTTPS</text></g><!--link Gateway to Identity--><g class="link" data-entity-1="ent0005" data-entity-2="ent0006" data-link-type="dependency" data-source-line="26" id="lnk22"><path d="M502.44,269.7886 C532.89,242.3186 588.1,195.4586 641.83,164.9986 C702.87,130.3886 773.6439,104.2912 826.6139,87.1112" fill="none" id="Gateway-to-Identity" style="stroke:#334155;stroke-width:1.2;"/><polygon fill="#334155" points="831.37,85.5686,821.575,84.5404,826.6139,87.1112,824.0431,92.1501,831.37,85.5686" style="stroke:#334155;stroke-width:1.2;stroke-linejoin:miter;stroke-miterlimit:10;"/><text fill="#000000" font-family="DejaVu Sans" font-size="12" lengthAdjust="spacing" textLength="124.752" x="650.83" y="101.5045">authenticate / authorize</text></g><!--link Gateway to Catalog--><g class="link" data-entity-1="ent0005" data-entity-2="ent0007" data-link-type="dependency" data-source-line="27" id="lnk23"><path d="M532.88,272.2986 C564.58,260.8986 605.38,246.3986 641.83,233.9986 C703.98,212.8486 770.2683,191.3437 821.5683,174.9137" fill="none" id="Gateway-to-Catalog" style="stroke:#334155;stroke-width:1.2;"/><polygon fill="#334155" points="826.33,173.3886,816.5388,172.3243,821.5683,174.9137,818.9789,179.9431,826.33,173.3886" style="stroke:#334155;stroke-width:1.2;stroke-linejoin:miter;stroke-miterlimit:10;"/><text fill="#000000" font-family="DejaVu Sans" font-size="12" lengthAdjust="spacing" textLength="140.748" x="642.83" y="185.4445">queries and administration</text></g><!--link Gateway to Waiting--><g class="link" data-entity-1="ent0005" data-entity-2="ent0009" data-link-type="dependency" data-source-line="28" id="lnk24"><path d="M532.85,285.5086 C606.35,276.7286 732.9354,261.5923 816.1454,251.6423" fill="none" id="Gateway-to-Waiting" style="stroke:#334155;stroke-width:1.2;"/><polygon fill="#334155" points="821.11,251.0486,811.6987,248.1455,816.1454,251.6423,812.6486,256.0889,821.11,251.0486" style="stroke:#334155;stroke-width:1.2;stroke-linejoin:miter;stroke-miterlimit:10;"/><text fill="#000000" font-family="DejaVu Sans" font-size="12" lengthAdjust="spacing" textLength="54.0234" x="685.83" y="254.0245">admission</text></g><!--link Gateway to Reservation--><g class="link" data-entity-1="ent0005" data-entity-2="ent0008" data-link-type="dependency" data-source-line="29" id="lnk25"><path d="M532.85,298.3586 C604.14,306.7086 725.0739,320.8771 808.5039,330.6471" fill="none" id="Gateway-to-Reservation" style="stroke:#334155;stroke-width:1.2;"/><polygon fill="#334155" points="813.47,331.2286,804.9963,326.209,808.5039,330.6471,804.0658,334.1547,813.47,331.2286" style="stroke:#334155;stroke-width:1.2;stroke-linejoin:miter;stroke-miterlimit:10;"/><text fill="#000000" font-family="DejaVu Sans" font-size="12" lengthAdjust="spacing" textLength="117.3809" x="654.33" y="309.3645">commands / inventory</text></g><!--link Gateway to Billing--><g class="link" data-entity-1="ent0005" data-entity-2="ent0010" data-link-type="dependency" data-source-line="30" id="lnk26"><path d="M532.86,304.9986 C557.47,311.7186 586.64,320.8686 611.83,331.9986 C626.05,338.2786 627.85,343.1886 641.83,349.9986 C703.54,380.0886 772.2769,405.8379 824.4669,423.9679" fill="none" id="Gateway-to-Billing" style="stroke:#334155;stroke-width:1.2;"/><polygon fill="#334155" points="829.19,425.6086,822.001,418.8768,824.4669,423.9679,819.3758,426.4338,829.19,425.6086" style="stroke:#334155;stroke-width:1.2;stroke-linejoin:miter;stroke-miterlimit:10;"/><text fill="#000000" font-family="DejaVu Sans" font-size="12" lengthAdjust="spacing" textLength="48.0293" x="688.83" y="347.2545">checkout</text></g><!--link Gateway to Tickets--><g class="link" data-entity-1="ent0005" data-entity-2="ent0011" data-link-type="dependency" data-source-line="31" id="lnk27"><path d="M533.06,296.3886 C559.96,301.2486 591.02,311.3086 611.83,331.9986 C644.12,364.1186 610.7,396.7386 641.83,429.9986 C691.35,482.9186 767.8591,506.2891 825.3591,517.2891" fill="none" id="Gateway-to-Tickets" style="stroke:#334155;stroke-width:1.2;"/><polygon fill="#334155" points="830.27,518.2286,822.1819,512.6088,825.3591,517.2891,820.6787,520.4663,830.27,518.2286" style="stroke:#334155;stroke-width:1.2;stroke-linejoin:miter;stroke-miterlimit:10;"/><text fill="#000000" font-family="DejaVu Sans" font-size="12" lengthAdjust="spacing" textLength="78.6914" x="673.83" y="427.2545">QR verification</text></g><!--link Identity to PostgreSQL--><g class="link" data-entity-1="ent0006" data-entity-2="ent0014" data-link-type="dependency" data-source-line="32" id="lnk28"><path d="M964.36,77.3386 C1095.08,100.2886 1397.36,154.9086 1649.03,211.9986 C1707.69,225.3086 1727.96,215.8786 1780.03,245.9986 C1813.95,265.6186 1841.1646,295.382 1860.1946,319.522" fill="none" id="Identity-to-PostgreSQL" style="stroke:#334155;stroke-width:1.2;"/><polygon fill="#334155" points="1863.29,323.4486,1860.8595,313.9044,1860.1946,319.522,1854.5769,318.8571,1863.29,323.4486" style="stroke:#334155;stroke-width:1.2;stroke-linejoin:miter;stroke-miterlimit:10;"/></g><!--link Catalog to PostgreSQL--><g class="link" data-entity-1="ent0007" data-entity-2="ent0014" data-link-type="dependency" data-source-line="33" id="lnk29"><path d="M972.57,156.5286 C1107.92,167.6586 1404.57,196.5386 1649.03,251.9986 C1707.69,265.3086 1724.85,262.0386 1780.03,285.9986 C1802.78,295.8786 1822.1389,307.5419 1841.0289,320.4219" fill="none" id="Catalog-to-PostgreSQL" style="stroke:#334155;stroke-width:1.2;"/><polygon fill="#334155" points="1845.16,323.2386,1839.9774,314.8636,1841.0289,320.4219,1835.4706,321.4734,1845.16,323.2386" style="stroke:#334155;stroke-width:1.2;stroke-linejoin:miter;stroke-miterlimit:10;"/></g><!--link Reservation to PostgreSQL--><g class="link" data-entity-1="ent0008" data-entity-2="ent0014" data-link-type="dependency" data-source-line="34" id="lnk30"><path d="M982,341.9286 C1176.96,344.0986 1654.5903,349.4329 1821.3003,351.2929" fill="none" id="Reservation-to-PostgreSQL" style="stroke:#334155;stroke-width:1.2;"/><polygon fill="#334155" points="1826.3,351.3486,1817.3452,347.2485,1821.3003,351.2929,1817.2559,355.248,1826.3,351.3486" style="stroke:#334155;stroke-width:1.2;stroke-linejoin:miter;stroke-miterlimit:10;"/><text fill="#000000" font-family="DejaVu Sans" font-size="12" lengthAdjust="spacing" textLength="102.7266" x="1360.81" y="343.3745">durable reservation</text></g><!--link Reservation to Redis--><g class="link" data-entity-1="ent0008" data-entity-2="ent0015" data-link-type="dependency" data-source-line="35" id="lnk31"><path d="M982.14,325.1786 C1031.37,315.8286 1088.7177,304.9413 1138.5977,295.4713" fill="none" id="Reservation-to-Redis" style="stroke:#334155;stroke-width:1.2;"/><polygon fill="#334155" points="1143.51,294.5386,1133.9219,292.2875,1138.5977,295.4713,1135.414,300.1471,1143.51,294.5386" style="stroke:#334155;stroke-width:1.2;stroke-linejoin:miter;stroke-miterlimit:10;"/><text fill="#000000" font-family="DejaVu Sans" font-size="12" lengthAdjust="spacing" textLength="90.6855" x="1017.89" y="297.4345">atomic TTL locks</text></g><!--link Waiting to Redis--><g class="link" data-entity-1="ent0009" data-entity-2="ent0015" data-link-type="dependency" data-source-line="36" id="lnk32"><path d="M974.55,250.2086 C1024.84,255.6686 1086.0592,262.3087 1138.5392,268.0087" fill="none" id="Waiting-to-Redis" style="stroke:#334155;stroke-width:1.2;"/><polygon fill="#334155" points="1143.51,268.5486,1134.9945,263.6002,1138.5392,268.0087,1134.1307,271.5534,1143.51,268.5486" style="stroke:#334155;stroke-width:1.2;stroke-linejoin:miter;stroke-miterlimit:10;"/><text fill="#000000" font-family="DejaVu Sans" font-size="12" lengthAdjust="spacing" textLength="98.7188" x="1013.89" y="251.9245">ordered admission</text></g><!--link Waiting to PostgreSQL--><g class="link" data-entity-1="ent0009" data-entity-2="ent0014" data-link-type="dependency" data-source-line="37" id="lnk33"><path d="M974.49,234.3786 C986.97,233.3886 999.78,232.5286 1011.89,231.9986 C1057.18,229.9986 1068.56,231.4486 1113.89,231.9986 C1205.21,233.1086 1228.49,227.3786 1319.31,236.9986 C1526.54,258.9386 1576.89,277.5486 1780.03,323.9986 C1795.16,327.4586 1806.5807,330.3231 1821.6407,334.3631" fill="none" id="Waiting-to-PostgreSQL" style="stroke:#334155;stroke-width:1.2;"/><polygon fill="#334155" points="1826.47,335.6586,1818.8137,329.4633,1821.6407,334.3631,1816.7409,337.1901,1826.47,335.6586" style="stroke:#334155;stroke-width:1.2;stroke-linejoin:miter;stroke-miterlimit:10;"/><text fill="#000000" font-family="DejaVu Sans" font-size="12" lengthAdjust="spacing" textLength="88.0605" x="1367.81" y="237.7745">auditable entries</text></g><!--link Billing to PostgreSQL--><g class="link" data-entity-1="ent0010" data-entity-2="ent0014" data-link-type="dependency" data-source-line="38" id="lnk34"><path d="M948.72,470.3786 C1008.46,496.7186 1105.32,537.8086 1143.89,544.9986 C1364.59,586.1486 1429.53,592.1486 1649.03,544.9986 C1711.46,531.5886 1729.86,525.4986 1780.03,485.9986 C1817.63,456.3986 1846.785,414.6403 1864.985,384.9803" fill="none" id="Billing-to-PostgreSQL" style="stroke:#334155;stroke-width:1.2;"/><polygon fill="#334155" points="1867.6,380.7186,1859.4836,386.2976,1864.985,384.9803,1866.3023,390.4816,1867.6,380.7186" style="stroke:#334155;stroke-width:1.2;stroke-linejoin:miter;stroke-miterlimit:10;"/><text fill="#000000" font-family="DejaVu Sans" font-size="12" lengthAdjust="spacing" textLength="123.0645" x="1350.31" y="571.9145">payment saga + tickets</text></g><!--link Billing to PaymentGateway--><g class="link" data-entity-1="ent0010" data-entity-2="ent0017" data-link-type="dependency" data-source-line="39" id="lnk35"><path d="M966.79,459.8786 C1017.88,468.8086 1083.3546,480.2579 1138.5746,489.9079" fill="none" id="Billing-to-PaymentGateway" style="stroke:#334155;stroke-width:1.2;"/><polygon fill="#334155" points="1143.5,490.7686,1135.3229,485.279,1138.5746,489.9079,1133.9458,493.1596,1143.5,490.7686" style="stroke:#334155;stroke-width:1.2;stroke-linejoin:miter;stroke-miterlimit:10;"/></g><!--link Billing to RabbitMQ--><g class="link" data-entity-1="ent0010" data-entity-2="ent0016" data-link-type="dependency" data-source-line="40" id="lnk36"><path d="M966.81,452.7986 C1009.2,454.8386 1064.84,455.7886 1113.89,450.9986 C1133.62,449.0686 1150.0719,446.363 1169.0419,442.473" fill="none" id="Billing-to-RabbitMQ" style="stroke:#334155;stroke-width:1.2;"/><polygon fill="#334155" points="1173.94,441.4686,1164.3199,439.3581,1169.0419,442.473,1165.927,447.195,1173.94,441.4686" style="stroke:#334155;stroke-width:1.2;stroke-linejoin:miter;stroke-miterlimit:10;"/><text fill="#000000" font-family="DejaVu Sans" font-size="12" lengthAdjust="spacing" textLength="100.043" x="1012.89" y="448.2545">payment.* / ticket.*</text></g><!--link Reservation to RabbitMQ--><g class="link" data-entity-1="ent0008" data-entity-2="ent0016" data-link-type="dependency" data-source-line="41" id="lnk37"><path d="M937.14,363.2886 C958.48,374.7686 985.92,387.9886 1011.89,395.9986 C1065.43,412.5086 1124.059,420.1537 1168.839,424.0637" fill="none" id="Reservation-to-RabbitMQ" style="stroke:#334155;stroke-width:1.2;"/><polygon fill="#334155" points="1173.82,424.4986,1165.2021,419.7309,1168.839,424.0637,1164.5062,427.7006,1173.82,424.4986" style="stroke:#334155;stroke-width:1.2;stroke-linejoin:miter;stroke-miterlimit:10;"/><text fill="#000000" font-family="DejaVu Sans" font-size="12" lengthAdjust="spacing" textLength="67.3652" x="1029.39" y="393.2545">reservation.*</text></g><!--link RabbitMQ to Notification--><g class="link" data-entity-1="ent0016" data-entity-2="ent0012" data-link-type="dependency" data-source-line="42" id="lnk38"><path d="M1289.25,440.8786 C1348.54,454.3586 1436.8244,474.4304 1500.7044,488.9504" fill="none" id="RabbitMQ-to-Notification" style="stroke:#334155;stroke-width:1.2;"/><polygon fill="#334155" points="1505.58,490.0586,1497.6904,484.1633,1500.7044,488.9504,1495.9173,491.9643,1505.58,490.0586" style="stroke:#334155;stroke-width:1.2;stroke-linejoin:miter;stroke-miterlimit:10;"/></g><!--link RabbitMQ to Analytics--><g class="link" data-entity-1="ent0016" data-entity-2="ent0013" data-link-type="dependency" data-source-line="43" id="lnk39"><path d="M1289.25,427.8286 C1348.06,427.6586 1435.21,427.4027 1499.03,427.2227" fill="none" id="RabbitMQ-to-Analytics" style="stroke:#334155;stroke-width:1.2;"/><polygon fill="#334155" points="1504.03,427.2086,1495.0188,423.234,1499.03,427.2227,1495.0413,431.234,1504.03,427.2086" style="stroke:#334155;stroke-width:1.2;stroke-linejoin:miter;stroke-miterlimit:10;"/></g><!--link Notification to PostgreSQL--><g class="link" data-entity-1="ent0012" data-entity-2="ent0014" data-link-type="dependency" data-source-line="44" id="lnk40"><path d="M1647.7,488.7986 C1687.9,477.3086 1738.49,460.0586 1780.03,436.9986 C1807.55,421.7186 1831.2859,402.289 1851.0559,384.149" fill="none" id="Notification-to-PostgreSQL" style="stroke:#334155;stroke-width:1.2;"/><polygon fill="#334155" points="1854.74,380.7686,1845.4042,383.906,1851.0559,384.149,1850.8129,389.8007,1854.74,380.7686" style="stroke:#334155;stroke-width:1.2;stroke-linejoin:miter;stroke-miterlimit:10;"/><text fill="#000000" font-family="DejaVu Sans" font-size="12" lengthAdjust="spacing" textLength="99.3867" x="1680.03" y="434.2545">delivery log / inbox</text></g><!--link Notification to Providers--><g class="link" data-entity-1="ent0012" data-entity-2="ent0018" data-link-type="dependency" data-source-line="45" id="lnk41"><path d="M1647.57,505.9986 C1695.96,505.9986 1755.28,505.9986 1804.63,505.9986" fill="none" id="Notification-to-Providers" style="stroke:#334155;stroke-width:1.2;"/><polygon fill="#334155" points="1809.63,505.9986,1800.63,501.9986,1804.63,505.9986,1800.63,509.9986,1809.63,505.9986" style="stroke:#334155;stroke-width:1.2;stroke-linejoin:miter;stroke-miterlimit:10;"/></g><!--link Analytics to PostgreSQL--><g class="link" data-entity-1="ent0013" data-entity-2="ent0014" data-link-type="dependency" data-source-line="46" id="lnk42"><path d="M1649.17,418.6986 C1688.27,413.2386 1737.29,404.8686 1780.03,392.9986 C1795.36,388.7386 1806.8933,384.8195 1821.8033,378.9895" fill="none" id="Analytics-to-PostgreSQL" style="stroke:#334155;stroke-width:1.2;"/><polygon fill="#334155" points="1826.46,377.1686,1816.6213,376.7208,1821.8033,378.9895,1819.5346,384.1714,1826.46,377.1686" style="stroke:#334155;stroke-width:1.2;stroke-linejoin:miter;stroke-miterlimit:10;"/><text fill="#000000" font-family="DejaVu Sans" font-size="12" lengthAdjust="spacing" textLength="60.0352" x="1699.53" y="390.2545">read model</text></g><?plantuml-src RLHDSzis4BtZLsnroBHfejvrw4mYzyCTkvKb9Jx8FK30cjeAnAe0g5hfTAO_ehymlwGBWfH8EoSI-zu-O7SVy1LvungBa7POuvIQsgb4oI7SS4L6EvXpVM2FFi4LwIhe6Zx_-nzSeU7cuD32UswybU-SVSAd59N3nmI98L2rIs0fe4d4NXsqsUiAOJ9t979n0dyhWCqIjKbmZzlVGSVypS4VczG4X5lUaXob9BHuYMJARw7IdZvXo3j7TjZYtR_wHstUBQxX9vtmBtrgeUvVRQwjg54wmIjuPmp6sC9zL6tcEcd7bS1N50qVCHI1Bgxao173KUUgX7JjZvB97Mc0gSr72gcH7jvhIkGhM3BNfSmIK9ltv5n6Ni5yXsRFJIcp2wlDcimU4tp4G8yoZYpR4aeygisldCu8t7FOOsW9mxZqmcjtIcGYB0B_KGRIqiw0ibBTLaUPpu9ZgWAkxcuU_DVn51FMm8yWS-HWlvdaj0j56NQk24QOBD5IVF2EpJw-WJyRR134AEAC86kZpGudfKl2KmMVBFLsI-dsxi6J4CLYRIruB2R9x8wWZEF6mkI79z6JWyD2d-hip6wqvMWbra-xJwarEVWELhUht88ZMJbHuVSh9Tw3js-_xzLW1Z-lrukLP0coujnmrJboEXtI7ejRMxRg7FWb9TMlCtPsuGnq8xTF5Z8jbDtoaeDOUyJlNJdBRGs44RIte6rDdc8gJHibzAQRjQGOd-D35yzaIdKjWb7sfzxG8thlLA5sJXt1dI45lbl2SM1NTIuqqmR6wGjw5XuUQmo9jcs2tafpm-2MFKzelPMhJboJWVNw1be_ghuXGv8u6WFQGOk6hD7Ukh6KsjsbdZm0rRVa1VNG-JBgIiEtaBhBEkAFRJg4UhjVXAQlPIn5PVhwPS4N_g0lcTW3cJLw44R8vGqOFIOlcu-EycC8UMhP9bj--aBA-JvT7fqNKW6rXPf5KNaMqsyvoRJoAzCt1E235s4P3TeAPx2-MO7SUd5xkzKR-EL-3KVjo9Qr9CZp5D2LarnVoNkJTa5qsxxcknB4imW7TcHEKuKIoNl_3m00?></g></svg>