<svg xmlns="http://www.w3.org/2000/svg" xmlns:xlink="http://www.w3.org/1999/xlink" contentStyleType="text/css" data-diagram-type="DESCRIPTION" height="491px" preserveAspectRatio="none" style="width:876px;height:491px;background:#FFFFFF;" version="1.1" viewBox="0 0 876 491" width="876px" zoomAndPan="magnify"><?plantuml $version$?><defs/><g><!--entity Web/Mobile--><g class="entity" data-qualified-name="Web.Mobile" data-source-line="1" id="ent0001"><rect fill="#F1F1F1" height="46.0986" rx="2.5" ry="2.5" style="stroke:#181818;stroke-width:0.5;" width="113.917" x="376.9" y="7"/><rect fill="#F1F1F1" height="10" style="stroke:#181818;stroke-width:0.5;" width="15" x="470.817" y="12"/><rect fill="#F1F1F1" height="2" style="stroke:#181818;stroke-width:0.5;" width="4" x="468.817" y="14"/><rect fill="#F1F1F1" height="2" style="stroke:#181818;stroke-width:0.5;" width="4" x="468.817" y="18"/><text fill="#000000" font-family="sans-serif" font-size="14" lengthAdjust="spacing" textLength="73.917" x="391.9" y="40.1318">Web/Mobile</text></g><!--entity API Gateway--><g class="entity" data-qualified-name="API Gateway" data-source-line="1" id="ent0002"><rect fill="#F1F1F1" height="46.0986" rx="2.5" ry="2.5" style="stroke:#181818;stroke-width:0.5;" width="121.7031" x="373" y="113.1"/><rect fill="#F1F1F1" height="10" style="stroke:#181818;stroke-width:0.5;" width="15" x="474.7031" y="118.1"/><rect fill="#F1F1F1" height="2" style="stroke:#181818;stroke-width:0.5;" width="4" x="472.7031" y="120.1"/><rect fill="#F1F1F1" height="2" style="stroke:#181818;stroke-width:0.5;" width="4" x="472.7031" y="124.1"/><text fill="#000000" font-family="sans-serif" font-size="14" lengthAdjust="spacing" textLength="81.7031" x="388" y="146.2318">API Gateway</text></g><!--entity Identity Service--><g class="entity" data-qualified-name="Identity Service" data-source-line="2" id="ent0004"><rect fill="#F1F1F1" height="46.0986" rx="2.5" ry="2.5" style="stroke:#181818;stroke-width:0.5;" width="135.71" x="7" y="219.19"/><rect fill="#F1F1F1" height="10" style="stroke:#181818;stroke-width:0.5;" width="15" x="122.71" y="224.19"/><rect fill="#F1F1F1" height="2" style="stroke:#181818;stroke-width:0.5;" width="4" x="120.71" y="226.19"/><rect fill="#F1F1F1" height="2" style="stroke:#181818;stroke-width:0.5;" width="4" x="120.71" y="230.19"/><text fill="#000000" font-family="sans-serif" font-size="14" lengthAdjust="spacing" textLength="95.71" x="22" y="252.3218">Identity Service</text></g><!--entity Catalog Service--><g class="entity" data-qualified-name="Catalog Service" data-source-line="3" id="ent0006"><rect fill="#F1F1F1" height="46.0986" rx="2.5" ry="2.5" style="stroke:#181818;stroke-width:0.5;" width="138.8271" x="177.44" y="219.19"/><rect fill="#F1F1F1" height="10" style="stroke:#181818;stroke-width:0.5;" width="15" x="296.2671" y="224.19"/><rect fill="#F1F1F1" height="2" style="stroke:#181818;stroke-width:0.5;" width="4" x="294.2671" y="226.19"/><rect fill="#F1F1F1" height="2" style="stroke:#181818;stroke-width:0.5;" width="4" x="294.2671" y="230.19"/><text fill="#000000" font-family="sans-serif" font-size="14" lengthAdjust="spacing" textLength="98.8271" x="192.44" y="252.3218">Catalog Service</text></g><!--entity Reservation Service--><g class="entity" data-qualified-name="Reservation Service" data-source-line="4" id="ent0008"><rect fill="#F1F1F1" height="46.0986" rx="2.5" ry="2.5" style="stroke:#181818;stroke-width:0.5;" width="165.2754" x="351.22" y="219.19"/><rect fill="#F1F1F1" height="10" style="stroke:#181818;stroke-width:0.5;" width="15" x="496.4954" y="224.19"/><rect fill="#F1F1F1" height="2" style="stroke:#181818;stroke-width:0.5;" width="4" x="494.4954" y="226.19"/><rect fill="#F1F1F1" height="2" style="stroke:#181818;stroke-width:0.5;" width="4" x="494.4954" y="230.19"/><text fill="#000000" font-family="sans-serif" font-size="14" lengthAdjust="spacing" textLength="125.2754" x="366.22" y="252.3218">Reservation Service</text></g><!--entity Billing Service--><g class="entity" data-qualified-name="Billing Service" data-source-line="5" id="ent0010"><rect fill="#F1F1F1" height="46.0986" rx="2.5" ry="2.5" style="stroke:#181818;stroke-width:0.5;" width="127.9238" x="551.89" y="219.19"/><rect fill="#F1F1F1" height="10" style="stroke:#181818;stroke-width:0.5;" width="15" x="659.8138" y="224.19"/><rect fill="#F1F1F1" height="2" style="stroke:#181818;stroke-width:0.5;" width="4" x="657.8138" y="226.19"/><rect fill="#F1F1F1" height="2" style="stroke:#181818;stroke-width:0.5;" width="4" x="657.8138" y="230.19"/><text fill="#000000" font-family="sans-serif" font-size="14" lengthAdjust="spacing" textLength="87.9238" x="566.89" y="252.3218">Billing Service</text></g><!--entity Waiting Room--><g class="entity" data-qualified-name="Waiting Room" data-source-line="6" id="ent0012"><rect fill="#F1F1F1" height="46.0986" rx="2.5" ry="2.5" style="stroke:#181818;stroke-width:0.5;" width="127.917" x="714.9" y="219.19"/><rect fill="#F1F1F1" height="10" style="stroke:#181818;stroke-width:0.5;" width="15" x="822.817" y="224.19"/><rect fill="#F1F1F1" height="2" style="stroke:#181818;stroke-width:0.5;" width="4" x="820.817" y="226.19"/><rect fill="#F1F1F1" height="2" style="stroke:#181818;stroke-width:0.5;" width="4" x="820.817" y="230.19"/><text fill="#000000" font-family="sans-serif" font-size="14" lengthAdjust="spacing" textLength="87.917" x="729.9" y="252.3218">Waiting Room</text></g><!--entity PG--><g class="entity" data-qualified-name="PG" data-source-line="7" id="ent0014"><path d="M236.72,335.79 C236.72,325.79 284.8509,325.79 284.8509,325.79 C284.8509,325.79 332.9817,325.79 332.9817,335.79 L332.9817,360.8886 C332.9817,370.8886 284.8509,370.8886 284.8509,370.8886 C284.8509,370.8886 236.72,370.8886 236.72,360.8886 L236.72,335.79" fill="#F1F1F1" style="stroke:#181818;stroke-width:0.5;"/><path d="M236.72,335.79 C236.72,345.79 284.8509,345.79 284.8509,345.79 C284.8509,345.79 332.9817,345.79 332.9817,335.79" fill="none" style="stroke:#181818;stroke-width:0.5;"/><text fill="#000000" font-family="sans-serif" font-size="14" lengthAdjust="spacing" textLength="76.2617" x="246.72" y="362.9218">PostgreSQL</text></g><!--entity RD--><g class="entity" data-qualified-name="RD" data-source-line="8" id="ent0015"><path d="M405.96,335.79 C405.96,325.79 433.8565,325.79 433.8565,325.79 C433.8565,325.79 461.753,325.79 461.753,335.79 L461.753,360.8886 C461.753,370.8886 433.8565,370.8886 433.8565,370.8886 C433.8565,370.8886 405.96,370.8886 405.96,360.8886 L405.96,335.79" fill="#F1F1F1" style="stroke:#181818;stroke-width:0.5;"/><path d="M405.96,335.79 C405.96,345.79 433.8565,345.79 433.8565,345.79 C433.8565,345.79 461.753,345.79 461.753,335.79" fill="none" style="stroke:#181818;stroke-width:0.5;"/><text fill="#000000" font-family="sans-serif" font-size="14" lengthAdjust="spacing" textLength="35.793" x="415.96" y="362.9218">Redis</text></g><!--entity MQ--><g class="entity" data-qualified-name="MQ" data-source-line="9" id="ent0016"><path d="M540.34,335.29 L613.3605,335.29 C618.3605,335.29 618.3605,348.3393 618.3605,348.3393 C618.3605,348.3393 618.3605,361.3886 613.3605,361.3886 L540.34,361.3886 C535.34,361.3886 535.34,348.3393 535.34,348.3393 C535.34,348.3393 535.34,335.29 540.34,335.29" fill="#F1F1F1" style="stroke:#181818;stroke-width:0.5;"/><path d="M613.3605,335.29 C608.3605,335.29 608.3605,348.3393 608.3605,348.3393 C608.3605,361.3886 613.3605,361.3886 613.3605,361.3886" fill="none" style="stroke:#181818;stroke-width:0.5;"/><text fill="#000000" font-family="sans-serif" font-size="14" lengthAdjust="spacing" textLength="63.0205" x="540.34" y="353.4218">RabbitMQ</text></g><!--entity External Payment Gateway--><g class="entity" data-qualified-name="External Payment Gateway" data-source-line="12" id="ent0019"><rect fill="#F1F1F1" height="46.0986" rx="2.5" ry="2.5" style="stroke:#181818;stroke-width:0.5;" width="209.6338" x="653.04" y="325.29"/><rect fill="#F1F1F1" height="10" style="stroke:#181818;stroke-width:0.5;" width="15" x="842.6738" y="330.29"/><rect fill="#F1F1F1" height="2" style="stroke:#181818;stroke-width:0.5;" width="4" x="840.6738" y="332.29"/><rect fill="#F1F1F1" height="2" style="stroke:#181818;stroke-width:0.5;" width="4" x="840.6738" y="336.29"/><text fill="#000000" font-family="sans-serif" font-size="14" lengthAdjust="spacing" textLength="169.6338" x="668.04" y="358.4218">External Payment Gateway</text></g><!--entity Notification Service--><g class="entity" data-qualified-name="Notification Service" data-source-line="14" id="ent0022"><rect fill="#F1F1F1" height="46.0986" rx="2.5" ry="2.5" style="stroke:#181818;stroke-width:0.5;" width="159.8271" x="496.94" y="431.39"/><rect fill="#F1F1F1" height="10" style="stroke:#181818;stroke-width:0.5;" width="15" x="636.7671" y="436.39"/><rect fill="#F1F1F1" height="2" style="stroke:#181818;stroke-width:0.5;" width="4" x="634.7671" y="438.39"/><rect fill="#F1F1F1" height="2" style="stroke:#181818;stroke-width:0.5;" width="4" x="634.7671" y="442.39"/><text fill="#000000" font-family="sans-serif" font-size="14" lengthAdjust="spacing" textLength="119.8271" x="511.94" y="464.5218">Notification Service</text></g><!--link Web/Mobile to API Gateway--><g class="link" data-entity-1="ent0001" data-entity-2="ent0002" data-link-type="dependency" data-source-line="1" id="lnk3"><path d="M433.85,53.38 C433.85,70.94 433.85,90.3 433.85,107.85" fill="none" id="Web/Mobile-to-API Gateway" style="stroke:#181818;stroke-width:1;"/><polygon fill="#181818" points="433.85,112.85,437.85,103.85,433.85,107.85,429.85,103.85,433.85,112.85" style="stroke:#181818;stroke-width:1;stroke-linejoin:miter;stroke-miterlimit:10;"/></g><!--link API Gateway to Identity Service--><g class="link" data-entity-1="ent0002" data-entity-2="ent0004" data-link-type="dependency" data-source-line="2" id="lnk5"><path d="M372.55,154.92 C308.76,173.42 213.9423,200.9179 147.7423,220.1079" fill="none" id="API Gateway-to-Identity Service" style="stroke:#181818;stroke-width:1;"/><polygon fill="#181818" points="142.94,221.5,152.6978,222.8361,147.7423,220.1079,150.4705,215.1524,142.94,221.5" style="stroke:#181818;stroke-width:1;stroke-linejoin:miter;stroke-miterlimit:10;"/></g><!--link API Gateway to Catalog Service--><g class="link" data-entity-1="ent0002" data-entity-2="ent0006" data-link-type="dependency" data-source-line="3" id="lnk7"><path d="M393.74,159.48 C362.29,176.98 323.1088,198.7981 291.5988,216.3381" fill="none" id="API Gateway-to-Catalog Service" style="stroke:#181818;stroke-width:1;"/><polygon fill="#181818" points="287.23,218.77,297.0393,217.8877,291.5988,216.3381,293.1483,210.8976,287.23,218.77" style="stroke:#181818;stroke-width:1;stroke-linejoin:miter;stroke-miterlimit:10;"/></g><!--link API Gateway to Reservation Service--><g class="link" data-entity-1="ent0002" data-entity-2="ent0008" data-link-type="dependency" data-source-line="4" id="lnk9"><path d="M433.85,159.48 C433.85,177.04 433.85,196.39 433.85,213.95" fill="none" id="API Gateway-to-Reservation Service" style="stroke:#181818;stroke-width:1;"/><polygon fill="#181818" points="433.85,218.95,437.85,209.95,433.85,213.95,429.85,209.95,433.85,218.95" style="stroke:#181818;stroke-width:1;stroke-linejoin:miter;stroke-miterlimit:10;"/></g><!--link API Gateway to Billing Service--><g class="link" data-entity-1="ent0002" data-entity-2="ent0010" data-link-type="dependency" data-source-line="5" id="lnk11"><path d="M472.9,159.48 C503.5,176.98 541.56,198.7472 572.22,216.2872" fill="none" id="API Gateway-to-Billing Service" style="stroke:#181818;stroke-width:1;"/><polygon fill="#181818" points="576.56,218.77,570.7343,210.8289,572.22,216.2872,566.7617,217.7729,576.56,218.77" style="stroke:#181818;stroke-width:1;stroke-linejoin:miter;stroke-miterlimit:10;"/></g><!--link API Gateway to Waiting Room--><g class="link" data-entity-1="ent0002" data-entity-2="ent0012" data-link-type="dependency" data-source-line="6" id="lnk13"><path d="M495.14,155.64 C556.9,174.27 647.0532,201.4756 709.8532,220.4256" fill="none" id="API Gateway-to-Waiting Room" style="stroke:#181818;stroke-width:1;"/><polygon fill="#181818" points="714.64,221.87,707.1793,215.4406,709.8532,220.4256,704.8682,223.0995,714.64,221.87" style="stroke:#181818;stroke-width:1;stroke-linejoin:miter;stroke-miterlimit:10;"/></g><!--link Reservation Service to PG--><g class="link" data-entity-1="ent0008" data-entity-2="ent0014" data-link-type="dependency" data-source-line="10" id="lnk17"><path d="M401.89,265.58 C376.58,283.26 345.5191,304.957 320.3491,322.537" fill="none" id="Reservation Service-to-PG" style="stroke:#181818;stroke-width:1;"/><polygon fill="#181818" points="316.25,325.4,325.9189,323.5258,320.3491,322.537,321.338,316.9672,316.25,325.4" style="stroke:#181818;stroke-width:1;stroke-linejoin:miter;stroke-miterlimit:10;"/></g><!--link Reservation Service to RD--><g class="link" data-entity-1="ent0008" data-entity-2="ent0015" data-link-type="dependency" data-source-line="11" id="lnk18"><path d="M433.85,265.58 C433.85,283.26 433.85,302.82 433.85,320.4" fill="none" id="Reservation Service-to-RD" style="stroke:#181818;stroke-width:1;"/><polygon fill="#181818" points="433.85,325.4,437.85,316.4,433.85,320.4,429.85,316.4,433.85,325.4" style="stroke:#181818;stroke-width:1;stroke-linejoin:miter;stroke-miterlimit:10;"/></g><!--link Billing Service to External Payment Gateway--><g class="link" data-entity-1="ent0010" data-entity-2="ent0019" data-link-type="dependency" data-source-line="12" id="lnk20"><path d="M646.32,265.58 C670.28,283.14 699.4683,304.5327 723.4083,322.0927" fill="none" id="Billing Service-to-External Payment Gateway" style="stroke:#181818;stroke-width:1;"/><polygon fill="#181818" points="727.44,325.05,722.5487,316.5016,723.4083,322.0927,717.8171,322.9523,727.44,325.05" style="stroke:#181818;stroke-width:1;stroke-linejoin:miter;stroke-miterlimit:10;"/></g><!--link Billing Service to MQ--><g class="link" data-entity-1="ent0010" data-entity-2="ent0016" data-link-type="dependency" data-source-line="13" id="lnk21"><path d="M607.49,265.58 C599.57,286.72 589.7041,313.0378 583.2941,330.1478" fill="none" id="Billing Service-to-MQ" style="stroke:#181818;stroke-width:1;"/><polygon fill="#181818" points="581.54,334.83,588.4432,327.8053,583.2941,330.1478,580.9516,324.9987,581.54,334.83" style="stroke:#181818;stroke-width:1;stroke-linejoin:miter;stroke-miterlimit:10;"/></g><!--link MQ to Notification Service--><g class="link" data-entity-1="ent0016" data-entity-2="ent0022" data-link-type="dependency" data-source-line="14" id="lnk23"><path d="M576.85,361.69 C576.85,378.82 576.85,405.06 576.85,426.28" fill="none" id="MQ-to-Notification Service" style="stroke:#181818;stroke-width:1;"/><polygon fill="#181818" points="576.85,431.28,580.85,422.28,576.85,426.28,572.85,422.28,576.85,431.28" style="stroke:#181818;stroke-width:1;stroke-linejoin:miter;stroke-miterlimit:10;"/></g><!--link Catalog Service to PG--><g class="link" data-entity-1="ent0006" data-entity-2="ent0014" data-link-type="dependency" data-source-line="15" id="lnk24"><path d="M255.01,265.58 C261.46,283.26 268.7149,303.1234 275.1349,320.7034" fill="none" id="Catalog Service-to-PG" style="stroke:#181818;stroke-width:1;"/><polygon fill="#181818" points="276.85,325.4,277.52,315.574,275.1349,320.7034,270.0054,318.3182,276.85,325.4" style="stroke:#181818;stroke-width:1;stroke-linejoin:miter;stroke-miterlimit:10;"/></g><?plantuml-src VP1D3e9038Ntd68kOBo1YNyX96BuMR0WB3fGIPE1YKnHkRq3cAY8BFlUQ_lbfGdAjQybASp4QhKHwJRmX0kCT-WovsiQVQ_0ceax4MDpenndGtjWKBfSp4Heh0jCkbxCxKWfgfTl9K3SPoAjgymfx7S91aMW3PSDnk59W161-tOYBCZqOdHmhYssLW4fYVsm5_tGcSKRdjap_qrxxWTuH3m-69iQb0YWgso57oNFBbW62pEidZNJXV9fLTEINtHF?></g></svg>