<svg xmlns="http://www.w3.org/2000/svg" xmlns:xlink="http://www.w3.org/1999/xlink" contentStyleType="text/css" data-diagram-type="DESCRIPTION" height="1294px" preserveAspectRatio="none" style="width:2418px;height:1294px;background:#FFFFFF;" version="1.1" viewBox="0 0 2418 1294" width="2418px" zoomAndPan="magnify"><?plantuml $version$?><defs/><g><g class="title" data-source-line="2"><text fill="#000000" font-family="DejaVu Sans" font-size="14" font-weight="700" lengthAdjust="spacing" textLength="513.4404" x="948.957" y="23.1318">Production Deployment &#8212; Kubernetes, Stateful Dependencies and Telemetry</text></g><!--cluster Cluster--><g class="cluster" data-qualified-name="Cluster" data-source-line="7" id="ent0004"><polygon fill="#F8FAFC" points="663.9982,128.7986,673.9982,118.7986,2115.1082,118.7986,2115.1082,969.7986,2105.1082,979.7986,663.9982,979.7986,663.9982,128.7986" style="stroke:#64748B;stroke-width:1;stroke-linejoin:miter;stroke-miterlimit:10;"/><line style="stroke:#64748B;stroke-width:1;" x1="2105.1082" x2="2115.1082" y1="128.7986" y2="118.7986"/><line style="stroke:#64748B;stroke-width:1;" x1="663.9982" x2="2105.1082" y1="128.7986" y2="128.7986"/><line style="stroke:#64748B;stroke-width:1;" x1="2105.1082" x2="2105.1082" y1="128.7986" y2="979.7986"/><text fill="#000000" font-family="DejaVu Sans" font-size="12" font-weight="700" lengthAdjust="spacing" textLength="170.6777" x="1300.2143" y="143.0545">Kubernetes Cluster (multi-AZ)</text></g><!--cluster ticketing namespace--><g class="cluster" data-qualified-name="Cluster.ticketing namespace" data-source-line="9" id="ent0006"><rect fill="#F8FAFC" height="528" rx="5" ry="5" style="stroke:#64748B;stroke-width:1;" width="481.1" x="990.9282" y="419.7986"/><path d="M1118.977,419.7986 L1118.977,426.5975 L1108.977,436.5975 L990.9282,436.5975" fill="none" style="stroke:#64748B;stroke-width:1;"/><text fill="#000000" font-family="DejaVu Sans" font-size="12" font-weight="700" lengthAdjust="spacing" textLength="118.0488" x="993.9282" y="432.0545">ticketing namespace</text></g><!--cluster observability namespace--><g class="cluster" data-qualified-name="Cluster.observability namespace" data-source-line="18" id="ent0014"><rect fill="#F8FAFC" height="171" rx="5" ry="5" style="stroke:#64748B;stroke-width:1;" width="777.13" x="1305.9782" y="224.7986"/><path d="M1458.7126,224.7986 L1458.7126,231.5975 L1448.7126,241.5975 L1305.9782,241.5975" fill="none" style="stroke:#64748B;stroke-width:1;"/><text fill="#000000" font-family="DejaVu Sans" font-size="12" font-weight="700" lengthAdjust="spacing" textLength="142.7344" x="1308.9782" y="237.0545">observability namespace</text></g><!--entity Ingress--><g class="entity" data-qualified-name="Cluster.Ingress" data-source-line="8" id="ent0005"><polygon fill="#F1F1F1" points="687.9982,611.8986,697.9982,601.8986,799.3654,601.8986,799.3654,635.6975,789.3654,645.6975,687.9982,645.6975,687.9982,611.8986" style="stroke:#181818;stroke-width:0.5;stroke-linejoin:miter;stroke-miterlimit:10;"/><line style="stroke:#181818;stroke-width:0.5;" x1="789.3654" x2="799.3654" y1="611.8986" y2="601.8986"/><line style="stroke:#181818;stroke-width:0.5;" x1="687.9982" x2="789.3654" y1="611.8986" y2="611.8986"/><line style="stroke:#181818;stroke-width:0.5;" x1="789.3654" x2="789.3654" y1="611.8986" y2="645.6975"/><text fill="#000000" font-family="DejaVu Sans" font-size="12" lengthAdjust="spacing" textLength="71.3672" x="702.9982" y="633.1545">ingress-nginx</text></g><!--entity Frontend--><g class="entity" data-qualified-name="Cluster.ticketing namespace.Frontend" data-source-line="10" id="ent0007"><polygon fill="#F1F1F1" points="1013.2582,883.9986,1023.2582,873.9986,1168.6527,873.9986,1168.6527,921.5963,1158.6527,931.5963,1013.2582,931.5963,1013.2582,883.9986" style="stroke:#181818;stroke-width:0.5;stroke-linejoin:miter;stroke-miterlimit:10;"/><line style="stroke:#181818;stroke-width:0.5;" x1="1158.6527" x2="1168.6527" y1="883.9986" y2="873.9986"/><line style="stroke:#181818;stroke-width:0.5;" x1="1013.2582" x2="1158.6527" y1="883.9986" y2="883.9986"/><line style="stroke:#181818;stroke-width:0.5;" x1="1158.6527" x2="1158.6527" y1="883.9986" y2="931.5963"/><text fill="#000000" font-family="DejaVu Sans" font-size="12" lengthAdjust="spacing" textLength="115.3945" x="1028.2582" y="905.2545">Frontend Deployment</text><text fill="#000000" font-family="DejaVu Sans" font-size="12" lengthAdjust="spacing" textLength="93.7266" x="1028.2582" y="919.0533">2+ stateless pods</text></g><!--entity API--><g class="entity" data-qualified-name="Cluster.ticketing namespace.API" data-source-line="11" id="ent0008"><polygon fill="#F1F1F1" points="1323.9782,461.9986,1333.9782,451.9986,1456.0231,451.9986,1456.0231,499.5963,1446.0231,509.5963,1323.9782,509.5963,1323.9782,461.9986" style="stroke:#181818;stroke-width:0.5;stroke-linejoin:miter;stroke-miterlimit:10;"/><line style="stroke:#181818;stroke-width:0.5;" x1="1446.0231" x2="1456.0231" y1="461.9986" y2="451.9986"/><line style="stroke:#181818;stroke-width:0.5;" x1="1323.9782" x2="1446.0231" y1="461.9986" y2="461.9986"/><line style="stroke:#181818;stroke-width:0.5;" x1="1446.0231" x2="1446.0231" y1="461.9986" y2="509.5963"/><text fill="#000000" font-family="DejaVu Sans" font-size="12" lengthAdjust="spacing" textLength="86.707" x="1338.9782" y="483.2545">API Deployment</text><text fill="#000000" font-family="DejaVu Sans" font-size="12" lengthAdjust="spacing" textLength="92.0449" x="1338.9782" y="497.0533">3..20 pods (HPA)</text></g><!--entity Worker--><g class="entity" data-qualified-name="Cluster.ticketing namespace.Worker" data-source-line="12" id="ent0009"><polygon fill="#F1F1F1" points="1006.9282,697.9986,1016.9282,687.9986,1174.9848,687.9986,1174.9848,735.5963,1164.9848,745.5963,1006.9282,745.5963,1006.9282,697.9986" style="stroke:#181818;stroke-width:0.5;stroke-linejoin:miter;stroke-miterlimit:10;"/><line style="stroke:#181818;stroke-width:0.5;" x1="1164.9848" x2="1174.9848" y1="697.9986" y2="687.9986"/><line style="stroke:#181818;stroke-width:0.5;" x1="1006.9282" x2="1164.9848" y1="697.9986" y2="697.9986"/><line style="stroke:#181818;stroke-width:0.5;" x1="1164.9848" x2="1164.9848" y1="697.9986" y2="745.5963"/><text fill="#000000" font-family="DejaVu Sans" font-size="12" lengthAdjust="spacing" textLength="101.3613" x="1021.9282" y="719.2545">Notification Worker</text><text fill="#000000" font-family="DejaVu Sans" font-size="12" lengthAdjust="spacing" textLength="128.0566" x="1021.9282" y="733.0533">2..10 pods (KEDA/HPA)</text></g><!--entity Relay--><g class="entity" data-qualified-name="Cluster.ticketing namespace.Relay" data-source-line="13" id="ent0010"><polygon fill="#F1F1F1" points="1032.9382,790.9986,1042.9382,780.9986,1148.987,780.9986,1148.987,828.5963,1138.987,838.5963,1032.9382,838.5963,1032.9382,790.9986" style="stroke:#181818;stroke-width:0.5;stroke-linejoin:miter;stroke-miterlimit:10;"/><line style="stroke:#181818;stroke-width:0.5;" x1="1138.987" x2="1148.987" y1="790.9986" y2="780.9986"/><line style="stroke:#181818;stroke-width:0.5;" x1="1032.9382" x2="1138.987" y1="790.9986" y2="790.9986"/><line style="stroke:#181818;stroke-width:0.5;" x1="1138.987" x2="1138.987" y1="790.9986" y2="838.5963"/><text fill="#000000" font-family="DejaVu Sans" font-size="12" lengthAdjust="spacing" textLength="72.7031" x="1047.9382" y="812.2545">Outbox Relay</text><text fill="#000000" font-family="DejaVu Sans" font-size="12" lengthAdjust="spacing" textLength="76.0488" x="1047.9382" y="826.0533">leader-elected</text></g><!--entity Canary--><g class="entity" data-qualified-name="Cluster.ticketing namespace.Canary" data-source-line="14" id="ent0011"><polygon fill="#F1F1F1" points="1040.2782,604.9986,1050.2782,594.9986,1141.6376,594.9986,1141.6376,642.5963,1131.6376,652.5963,1040.2782,652.5963,1040.2782,604.9986" style="stroke:#181818;stroke-width:0.5;stroke-linejoin:miter;stroke-miterlimit:10;"/><line style="stroke:#181818;stroke-width:0.5;" x1="1131.6376" x2="1141.6376" y1="604.9986" y2="594.9986"/><line style="stroke:#181818;stroke-width:0.5;" x1="1040.2782" x2="1131.6376" y1="604.9986" y2="604.9986"/><line style="stroke:#181818;stroke-width:0.5;" x1="1131.6376" x2="1131.6376" y1="604.9986" y2="652.5963"/><text fill="#000000" font-family="DejaVu Sans" font-size="12" lengthAdjust="spacing" textLength="61.3594" x="1055.2782" y="626.2545">Canary API</text><text fill="#000000" font-family="DejaVu Sans" font-size="12" lengthAdjust="spacing" textLength="50.0156" x="1055.2782" y="640.0533">5% traffic</text></g><!--entity Config--><g class="entity" data-qualified-name="Cluster.ticketing namespace.Config" data-source-line="15" id="ent0012"><rect fill="#F1F1F1" height="36.7988" rx="5" ry="5" style="stroke:#181818;stroke-width:0.5;" width="88.0313" x="1046.9482" y="523.3986"/><polygon fill="#F1F1F1" points="1117.9794,528.3986,1117.9794,542.3986,1129.9794,542.3986,1129.9794,534.3986,1123.9794,528.3986,1117.9794,528.3986" style="stroke:#181818;stroke-width:0.5;stroke-linejoin:miter;stroke-miterlimit:10;"/><line style="stroke:#181818;stroke-width:0.5;" x1="1123.9794" x2="1123.9794" y1="528.3986" y2="534.3986"/><line style="stroke:#181818;stroke-width:0.5;" x1="1129.9794" x2="1123.9794" y1="534.3986" y2="534.3986"/><text fill="#000000" font-family="DejaVu Sans" font-size="12" lengthAdjust="spacing" textLength="58.0313" x="1056.9482" y="547.6545">ConfigMap</text></g><!--entity Secret--><g class="entity" data-qualified-name="Cluster.ticketing namespace.Secret" data-source-line="16" id="ent0013"><rect fill="#F1F1F1" height="36.7988" rx="5" ry="5" style="stroke:#181818;stroke-width:0.5;" width="162.7207" x="1009.5982" y="451.3986"/><polygon fill="#F1F1F1" points="1155.3189,456.3986,1155.3189,470.3986,1167.3189,470.3986,1167.3189,462.3986,1161.3189,456.3986,1155.3189,456.3986" style="stroke:#181818;stroke-width:0.5;stroke-linejoin:miter;stroke-miterlimit:10;"/><line style="stroke:#181818;stroke-width:0.5;" x1="1161.3189" x2="1161.3189" y1="456.3986" y2="462.3986"/><line style="stroke:#181818;stroke-width:0.5;" x1="1167.3189" x2="1161.3189" y1="462.3986" y2="462.3986"/><text fill="#000000" font-family="DejaVu Sans" font-size="12" lengthAdjust="spacing" textLength="132.7207" x="1019.5982" y="475.6545">Secret / External Secrets</text></g><!--entity Prometheus--><g class="entity" data-qualified-name="Cluster.observability namespace.Prometheus" data-source-line="19" id="ent0015"><polygon fill="#F1F1F1" points="1696.0282,345.8986,1706.0282,335.8986,1800.7274,335.8986,1800.7274,369.6975,1790.7274,379.6975,1696.0282,379.6975,1696.0282,345.8986" style="stroke:#181818;stroke-width:0.5;stroke-linejoin:miter;stroke-miterlimit:10;"/><line style="stroke:#181818;stroke-width:0.5;" x1="1790.7274" x2="1800.7274" y1="345.8986" y2="335.8986"/><line style="stroke:#181818;stroke-width:0.5;" x1="1696.0282" x2="1790.7274" y1="345.8986" y2="345.8986"/><line style="stroke:#181818;stroke-width:0.5;" x1="1790.7274" x2="1790.7274" y1="345.8986" y2="379.6975"/><text fill="#000000" font-family="DejaVu Sans" font-size="12" lengthAdjust="spacing" textLength="64.6992" x="1711.0282" y="367.1545">Prometheus</text></g><!--entity Grafana--><g class="entity" data-qualified-name="Cluster.observability namespace.Grafana" data-source-line="20" id="ent0016"><polygon fill="#F1F1F1" points="1348.3282,345.8986,1358.3282,335.8986,1431.6876,335.8986,1431.6876,369.6975,1421.6876,379.6975,1348.3282,379.6975,1348.3282,345.8986" style="stroke:#181818;stroke-width:0.5;stroke-linejoin:miter;stroke-miterlimit:10;"/><line style="stroke:#181818;stroke-width:0.5;" x1="1421.6876" x2="1431.6876" y1="345.8986" y2="335.8986"/><line style="stroke:#181818;stroke-width:0.5;" x1="1348.3282" x2="1421.6876" y1="345.8986" y2="345.8986"/><line style="stroke:#181818;stroke-width:0.5;" x1="1421.6876" x2="1421.6876" y1="345.8986" y2="379.6975"/><text fill="#000000" font-family="DejaVu Sans" font-size="12" lengthAdjust="spacing" textLength="43.3594" x="1363.3282" y="367.1545">Grafana</text></g><!--entity Alertmanager--><g class="entity" data-qualified-name="Cluster.observability namespace.Alertmanager" data-source-line="21" id="ent0017"><polygon fill="#F1F1F1" points="1955.0782,345.8986,1965.0782,335.8986,2067.1133,335.8986,2067.1133,369.6975,2057.1133,379.6975,1955.0782,379.6975,1955.0782,345.8986" style="stroke:#181818;stroke-width:0.5;stroke-linejoin:miter;stroke-miterlimit:10;"/><line style="stroke:#181818;stroke-width:0.5;" x1="2057.1133" x2="2067.1133" y1="345.8986" y2="335.8986"/><line style="stroke:#181818;stroke-width:0.5;" x1="1955.0782" x2="2057.1133" y1="345.8986" y2="345.8986"/><line style="stroke:#181818;stroke-width:0.5;" x1="2057.1133" x2="2057.1133" y1="345.8986" y2="379.6975"/><text fill="#000000" font-family="DejaVu Sans" font-size="12" lengthAdjust="spacing" textLength="72.0352" x="1970.0782" y="367.1545">Alertmanager</text></g><!--entity Loki--><g class="entity" data-qualified-name="Cluster.observability namespace.Loki" data-source-line="22" id="ent0018"><polygon fill="#F1F1F1" points="1321.9782,266.8986,1331.9782,256.8986,1458.0251,256.8986,1458.0251,290.6975,1448.0251,300.6975,1321.9782,300.6975,1321.9782,266.8986" style="stroke:#181818;stroke-width:0.5;stroke-linejoin:miter;stroke-miterlimit:10;"/><line style="stroke:#181818;stroke-width:0.5;" x1="1448.0251" x2="1458.0251" y1="266.8986" y2="256.8986"/><line style="stroke:#181818;stroke-width:0.5;" x1="1321.9782" x2="1448.0251" y1="266.8986" y2="266.8986"/><line style="stroke:#181818;stroke-width:0.5;" x1="1448.0251" x2="1448.0251" y1="266.8986" y2="300.6975"/><text fill="#000000" font-family="DejaVu Sans" font-size="12" lengthAdjust="spacing" textLength="96.0469" x="1336.9782" y="288.1545">Loki / log collector</text></g><!--entity Internet--><g class="entity" data-qualified-name="Internet" data-source-line="4" id="ent0001"><path d="M14.6457,610.6555 C17.0996,604.0559 21.4142,601.9528 27.5197,606.3999 C30.7984,599.2055 36.3718,598.5478 41.7615,604.0279 C46.2111,599.0485 52.6877,599.7877 54.9698,606.4807 C61.5727,602.2391 66.6805,603.1461 68.9156,611.3679 C75.7574,614.3738 77.4672,620.2436 70.5978,624.9479 C76.228,629.106 75.6746,634.4548 69.7788,637.8832 C68.5607,646.8049 62.6869,648.5306 56.0178,643.115 C54.0066,651.868 47.5423,653.7422 40.888,647.9421 C35.503,651.6561 30.0902,651.2906 28.6724,643.6675 C21.4558,649.9106 15.5217,647.0148 14.3133,638.0097 C7.0821,635.6072 6.1866,631.3373 11.1644,625.789 C6,620.0911 7.4464,613.5093 14.6457,610.6555" fill="#F1F1F1" style="stroke:#181818;stroke-width:0.5;"/><text fill="#000000" font-family="DejaVu Sans" font-size="12" lengthAdjust="spacing" textLength="40.6934" x="19.9982" y="628.1545">Internet</text></g><!--entity Edge--><g class="entity" data-qualified-name="Edge" data-source-line="5" id="ent0002"><polygon fill="#F1F1F1" points="176.6882,611.8986,186.6882,601.8986,318.3601,601.8986,318.3601,635.6975,308.3601,645.6975,176.6882,645.6975,176.6882,611.8986" style="stroke:#181818;stroke-width:0.5;stroke-linejoin:miter;stroke-miterlimit:10;"/><line style="stroke:#181818;stroke-width:0.5;" x1="308.3601" x2="318.3601" y1="611.8986" y2="601.8986"/><line style="stroke:#181818;stroke-width:0.5;" x1="176.6882" x2="308.3601" y1="611.8986" y2="611.8986"/><line style="stroke:#181818;stroke-width:0.5;" x1="308.3601" x2="308.3601" y1="611.8986" y2="645.6975"/><text fill="#000000" font-family="DejaVu Sans" font-size="12" lengthAdjust="spacing" textLength="101.6719" x="191.6882" y="633.1545">DNS + CDN / WAF</text></g><!--entity LB--><g class="entity" data-qualified-name="LB" data-source-line="6" id="ent0003"><polygon fill="#F1F1F1" points="379.3682,611.8986,389.3682,601.8986,531.4463,601.8986,531.4463,635.6975,521.4463,645.6975,379.3682,645.6975,379.3682,611.8986" style="stroke:#181818;stroke-width:0.5;stroke-linejoin:miter;stroke-miterlimit:10;"/><line style="stroke:#181818;stroke-width:0.5;" x1="521.4463" x2="531.4463" y1="611.8986" y2="601.8986"/><line style="stroke:#181818;stroke-width:0.5;" x1="379.3682" x2="521.4463" y1="611.8986" y2="611.8986"/><line style="stroke:#181818;stroke-width:0.5;" x1="521.4463" x2="521.4463" y1="611.8986" y2="645.6975"/><text fill="#000000" font-family="DejaVu Sans" font-size="12" lengthAdjust="spacing" textLength="112.0781" x="394.3682" y="633.1545">Cloud Load Balancer</text></g><!--entity PostgreSQL--><g class="entity" data-qualified-name="PostgreSQL" data-source-line="25" id="ent0019"><path d="M1932.7382,1084.4986 C1932.7382,1074.4986 2011.0966,1074.4986 2011.0966,1074.4986 C2011.0966,1074.4986 2089.455,1074.4986 2089.455,1084.4986 L2089.455,1121.0963 C2089.455,1131.0963 2011.0966,1131.0963 2011.0966,1131.0963 C2011.0966,1131.0963 1932.7382,1131.0963 1932.7382,1121.0963 L1932.7382,1084.4986" fill="#F5F3FF" style="stroke:#7C3AED;stroke-width:0.5;"/><path d="M1932.7382,1084.4986 C1932.7382,1094.4986 2011.0966,1094.4986 2011.0966,1094.4986 C2011.0966,1094.4986 2089.455,1094.4986 2089.455,1084.4986" fill="none" style="stroke:#7C3AED;stroke-width:0.5;"/><text fill="#000000" font-family="DejaVu Sans" font-size="12" lengthAdjust="spacing" textLength="118.7402" x="1942.7382" y="1109.7545">Managed PostgreSQL</text><text fill="#000000" font-family="DejaVu Sans" font-size="12" lengthAdjust="spacing" textLength="136.7168" x="1942.7382" y="1123.5533">primary + standby + PITR</text></g><!--entity Redis--><g class="entity" data-qualified-name="Redis" data-source-line="26" id="ent0020"><rect fill="#F1F1F1" height="43.5977" rx="5" ry="5" style="stroke:#181818;stroke-width:0.5;" width="111.0273" x="1957.5782" y="50.9986"/><rect fill="#F1F1F1" height="43.5977" rx="5" ry="5" style="stroke:#181818;stroke-width:0.5;" width="111.0273" x="1953.5782" y="46.9986"/><text fill="#000000" font-family="DejaVu Sans" font-size="12" lengthAdjust="spacing" textLength="50.6836" x="1961.5782" y="66.2545">Redis HA</text><text fill="#000000" font-family="DejaVu Sans" font-size="12" lengthAdjust="spacing" textLength="95.0273" x="1961.5782" y="80.0533">primary + replicas</text></g><!--entity RabbitMQ--><g class="entity" data-qualified-name="RabbitMQ" data-source-line="27" id="ent0021"><path d="M1675.0182,1082.9986 L1821.735,1082.9986 C1826.735,1082.9986 1826.735,1101.7975 1826.735,1101.7975 C1826.735,1101.7975 1826.735,1120.5963 1821.735,1120.5963 L1675.0182,1120.5963 C1670.0182,1120.5963 1670.0182,1101.7975 1670.0182,1101.7975 C1670.0182,1101.7975 1670.0182,1082.9986 1675.0182,1082.9986" fill="#FFF7ED" style="stroke:#C2410C;stroke-width:0.5;"/><path d="M1821.735,1082.9986 C1816.735,1082.9986 1816.735,1101.7975 1816.735,1101.7975 C1816.735,1120.5963 1821.735,1120.5963 1821.735,1120.5963" fill="none" style="stroke:#C2410C;stroke-width:0.5;"/><text fill="#000000" font-family="DejaVu Sans" font-size="12" lengthAdjust="spacing" textLength="136.7168" x="1675.0182" y="1099.2545">RabbitMQ quorum cluster</text><text fill="#000000" font-family="DejaVu Sans" font-size="12" lengthAdjust="spacing" textLength="79.7227" x="1675.0182" y="1113.0533">3 nodes + DLX</text></g><!--entity Payment--><g class="entity" data-qualified-name="Payment" data-source-line="28" id="ent0022"><path d="M1695.1631,1013.4699 C1697.7872,1008.8763 1700.7867,1007.3775 1704.9494,1011.7999 C1707.6885,1005.7481 1711.5289,1004.3145 1716.4236,1009.6226 C1719.4594,1004.4764 1723.4411,1003.8959 1727.5402,1008.3976 C1731.1658,1003.2001 1735.6068,1003.2761 1739.3625,1008.2464 C1740.966,1001.2896 1745.0778,1001.6691 1749.9699,1004.7825 C1753.8188,1000.8097 1758.1914,1002.2236 1760.1707,1006.9699 C1764.0176,1002.2094 1769.9018,1001.8965 1772.3017,1008.5128 C1775.5942,1004.9201 1778.7667,1004.1773 1781.3125,1009.2861 C1785.3426,1003.6728 1790.5668,1004.9444 1792.5493,1011.2212 C1796.7072,1005.1276 1802.5802,1007.0791 1804.8691,1013.1189 C1814.1719,1012.6908 1817.9629,1017.6443 1813.5291,1026.2651 C1817.0318,1034.0524 1812.5518,1041.7771 1803.536,1041.173 C1799.9201,1047.668 1794.6335,1046.8801 1790.5852,1041.6507 C1786.7979,1047.3136 1781.5502,1049.2785 1777.0959,1042.3662 C1772.8587,1049.2989 1766.7992,1047.1615 1763.4891,1041.3744 C1758.8267,1048.5606 1753.6316,1047.4409 1749.3598,1040.9703 C1746.2468,1047.6448 1740.4077,1048.7218 1735.7354,1042.6352 C1730.6047,1049.6327 1726.5529,1048.5725 1722.116,1041.9419 C1716.9781,1048.7677 1712.3583,1046.7733 1708.706,1040.4292 C1703.5629,1046.6566 1698.837,1047.2885 1693.7367,1040.3804 C1686.0369,1040.31 1683.7925,1033.6808 1687.1515,1027.8148 C1682.1592,1019.9832 1686.8267,1013.8575 1695.1631,1013.4699" fill="#F1F1F1" style="stroke:#181818;stroke-width:0.5;"/><text fill="#000000" font-family="DejaVu Sans" font-size="12" lengthAdjust="spacing" textLength="95.373" x="1700.6882" y="1030.1545">Payment Provider</text></g><!--entity Notify--><g class="entity" data-qualified-name="Notify" data-source-line="29" id="ent0023"><path d="M1324.0521,1014.4874 C1326.0969,1007.457 1330.7207,1006.6748 1335.6341,1011.7407 C1338.2549,1005.461 1343.4961,1006.622 1346.8245,1010.9975 C1350.1129,1005.1496 1355.2202,1005.6538 1358.2282,1011.2762 C1359.6272,1004.6564 1365.2013,1003.101 1369.6538,1008.3323 C1372.169,1002.9681 1375.3457,1002.7404 1379.2621,1006.9218 C1382.8363,1002.1775 1386.0805,1000.9864 1390.0196,1006.5407 C1394.6358,1002.2504 1398.4201,1002.8022 1401.8112,1008.0544 C1405.6584,1002.2077 1409.9899,1003.8428 1413.0803,1008.8409 C1416.6137,1004.1724 1422.6093,1004.2461 1424.9384,1010.187 C1428.6502,1005.5266 1432.9286,1004.7894 1436.3656,1010.49 C1441.2527,1006.3707 1444.2741,1007.4967 1445.903,1013.546 C1449.9347,1008.2783 1454.549,1008.855 1457.7658,1014.437 C1465.5152,1017.6765 1466.0921,1022.7967 1460.0637,1028.3171 C1466.6653,1033.1634 1465.971,1040.0071 1457.8753,1042.6016 C1454.4235,1047.2137 1449.8428,1047.8728 1447.0167,1041.9564 C1444.209,1047.1576 1440.233,1048.0233 1436.2113,1043.2748 C1432.5805,1048.7463 1427.674,1049.6732 1423.9285,1043.3947 C1421.3859,1048.1131 1417.5499,1048.7199 1414.5086,1043.8864 C1410.2652,1050.3282 1405.4352,1049.44 1401.26,1043.8116 C1398.8954,1048.5318 1394.6298,1048.7707 1391.5093,1044.6447 C1387.6869,1049.8081 1383.971,1049.3611 1380.3861,1044.3842 C1376.6396,1050.6384 1371.0682,1049.6061 1368.0946,1043.6088 C1364.7891,1048.1228 1361.0902,1047.8993 1357.858,1043.5245 C1354.6163,1048.6245 1348.395,1048.9049 1345.345,1043.3005 C1342.3385,1047.4618 1338.9476,1048.2369 1335.9796,1043.2611 C1330.6938,1048.6161 1327.0549,1047.4489 1323.7752,1041.1588 C1316.6702,1038.1147 1316.9607,1033.2378 1322.4148,1028.8102 C1315.6184,1023.433 1316.293,1018.2006 1324.0521,1014.4874" fill="#F1F1F1" style="stroke:#181818;stroke-width:0.5;"/><text fill="#000000" font-family="DejaVu Sans" font-size="12" lengthAdjust="spacing" textLength="120.0293" x="1329.9882" y="1031.1545">Email / SMS Providers</text></g><!--entity Storage--><g class="entity" data-qualified-name="Storage" data-source-line="30" id="ent0024"><path d="M2279.9434,1083.6942 C2282.3685,1077.4736 2285.7735,1077.454 2290.5881,1081.1221 C2293.4148,1075.5521 2297.6329,1073.9951 2302.3341,1079.0497 C2304.8106,1073.7611 2309.2756,1073.3001 2312.4491,1078.369 C2314.9924,1072.2829 2319.7902,1071.274 2323.7962,1076.9589 C2326.108,1070.7666 2330.2323,1070.0548 2335.2921,1073.7705 C2340.0528,1069.9469 2344.3123,1071.6786 2345.9948,1077.2697 C2349.9577,1072.6477 2354.6348,1072.2167 2357.9233,1078.0398 C2362.2752,1073.5563 2366.4274,1072.758 2369.6025,1079.2878 C2373.8431,1075.169 2377.5304,1075.7813 2380.5074,1080.7964 C2385.5326,1076.5702 2388.8705,1077.5051 2390.497,1083.9716 C2401.749,1088.3555 2402.3421,1097.3481 2393.9742,1104.9795 C2403.3544,1111.8283 2400.9541,1120.5409 2391.5147,1125.0879 C2389.3952,1130.761 2384.194,1131.5052 2380.8273,1126.3148 C2377.5104,1132.3809 2373.5261,1132.248 2369.3188,1127.2401 C2366.8768,1133.0352 2362.5229,1133.4584 2358.6384,1128.7 C2354.7324,1135.2927 2349.3544,1133.7469 2345.8659,1128.2585 C2343.8144,1133.5298 2338.5956,1134.9053 2335.2297,1129.5774 C2331.7276,1134.7009 2327.8277,1134.4668 2324.3515,1129.5493 C2321.2052,1135.2025 2316.1315,1134.0416 2313.4546,1129.068 C2308.9522,1133.8989 2303.6781,1132.3123 2302.1715,1126.0272 C2298.0907,1131.7833 2294.4729,1130.9831 2290.8248,1125.5869 C2286.9185,1130.0789 2283.6537,1129.9161 2281.2452,1124.1835 C2275.3547,1123.7709 2272.895,1119.3783 2276.2587,1114.2977 C2270.3248,1113.1322 2269.2066,1109.5413 2272.5459,1104.7644 C2268.3437,1099.4548 2270.5889,1094.7818 2276.9889,1093.7482 C2272.2987,1089.3417 2274.578,1085.1457 2279.9434,1083.6942" fill="#F1F1F1" style="stroke:#181818;stroke-width:0.5;"/><text fill="#000000" font-family="DejaVu Sans" font-size="12" lengthAdjust="spacing" textLength="80.0449" x="2286.1082" y="1100.2545">Object Storage</text><text fill="#000000" font-family="DejaVu Sans" font-size="12" lengthAdjust="spacing" textLength="96.709" x="2286.1082" y="1114.0533">backups / artifacts</text></g><g class="entity" data-qualified-name="GMN52" data-source-line="59" id="ent0053"><path d="M592.4382,48.0986 L592.4382,89.4951 A5,5 0 0 0 597.4382,94.4951 L889.9284,94.4951 A5,5 0 0 0 894.9284,89.4951 L894.9284,53.0986 L884.9284,43.0986 L597.4382,43.0986 A5,5 0 0 0 592.4382,48.0986" fill="#FEFCE8" style="stroke:#CA8A04;stroke-width:0.5;"/><path d="M884.9284,43.0986 L884.9284,50.5986 A2.5,2.5 0 0 0 887.4284,53.0986 L894.9284,53.0986 L884.9284,43.0986" fill="#FEFCE8" style="stroke:#CA8A04;stroke-width:1;"/><text fill="#000000" font-family="DejaVu Sans" font-size="12" lengthAdjust="spacing" textLength="276.1641" x="598.4382" y="59.3545">PodDisruptionBudgets, topology spread constraints,</text><text fill="#000000" font-family="DejaVu Sans" font-size="12" lengthAdjust="spacing" textLength="281.4902" x="598.4382" y="73.1533">rolling updates, readiness gates and NetworkPolicies</text><text fill="#000000" font-family="DejaVu Sans" font-size="12" lengthAdjust="spacing" textLength="268.1602" x="598.4382" y="86.9521">preserve availability during deploys and node loss.</text></g><!--link Internet to Edge--><g class="link" data-entity-1="ent0001" data-entity-2="ent0002" data-link-type="dependency" data-source-line="31" id="lnk25"><path d="M76.1482,623.7986 C103.5882,623.7986 137.7382,623.7986 171.5982,623.7986" fill="none" id="Internet-to-Edge" style="stroke:#334155;stroke-width:1.2;"/><polygon fill="#334155" points="176.5982,623.7986,167.5982,619.7986,171.5982,623.7986,167.5982,627.7986,176.5982,623.7986" style="stroke:#334155;stroke-width:1.2;stroke-linejoin:miter;stroke-miterlimit:10;"/><text fill="#000000" font-family="DejaVu Sans" font-size="12" lengthAdjust="spacing" textLength="39.334" x="106.6882" y="621.0545">HTTPS</text></g><!--link Edge to LB--><g class="link" data-entity-1="ent0002" data-entity-2="ent0003" data-link-type="dependency" data-source-line="32" id="lnk26"><path d="M318.7982,623.7986 C338.2582,623.7986 354.4482,623.7986 374.1682,623.7986" fill="none" id="Edge-to-LB" style="stroke:#334155;stroke-width:1.2;"/><polygon fill="#334155" points="379.1682,623.7986,370.1682,619.7986,374.1682,623.7986,370.1682,627.7986,379.1682,623.7986" style="stroke:#334155;stroke-width:1.2;stroke-linejoin:miter;stroke-miterlimit:10;"/></g><!--link LB to Ingress--><g class="link" data-entity-1="ent0003" data-entity-2="ent0005" data-link-type="dependency" data-source-line="33" id="lnk27"><path d="M531.6182,623.7986 C580.6582,623.7986 638.5382,623.7986 682.8682,623.7986" fill="none" id="LB-to-Ingress" style="stroke:#334155;stroke-width:1.2;"/><polygon fill="#334155" points="687.8682,623.7986,678.8682,619.7986,682.8682,623.7986,678.8682,627.7986,687.8682,623.7986" style="stroke:#334155;stroke-width:1.2;stroke-linejoin:miter;stroke-miterlimit:10;"/></g><!--link Ingress to Frontend--><g class="link" data-entity-1="ent0005" data-entity-2="ent0007" data-link-type="dependency" data-source-line="34" id="lnk28"><path d="M762.6282,645.9786 C799.7482,690.6886 889.3282,792.7286 982.9282,855.7986 C992.6082,862.3186 998.8529,866.0691 1009.6729,871.3991" fill="none" id="Ingress-to-Frontend" style="stroke:#334155;stroke-width:1.2;"/><polygon fill="#334155" points="1014.1582,873.6086,1007.8522,866.0433,1009.6729,871.3991,1004.317,873.2198,1014.1582,873.6086" style="stroke:#334155;stroke-width:1.2;stroke-linejoin:miter;stroke-miterlimit:10;"/><text fill="#000000" font-family="DejaVu Sans" font-size="12" lengthAdjust="spacing" textLength="3.334" x="948.4282" y="809.1645">/</text></g><!--link Ingress to API--><g class="link" data-entity-1="ent0005" data-entity-2="ent0008" data-link-type="dependency" data-source-line="35" id="lnk29"><path d="M799.5582,625.6486 C830.1782,624.0686 867.5582,617.5386 894.9282,597.7986 C962.0182,549.4086 919.1282,486.4386 982.9282,433.7986 C1062.6482,368.0286 1102.8082,380.3086 1204.9882,364.7986 C1240.1382,359.4586 1255.3882,345.1086 1284.9882,364.7986 C1297.4282,373.0686 1289.4482,383.5386 1297.9782,395.7986 C1312.5582,416.7386 1329.227,433.1921 1347.067,448.3421" fill="none" id="Ingress-to-API" style="stroke:#334155;stroke-width:1.2;"/><polygon fill="#334155" points="1350.8782,451.5786,1346.6073,442.704,1347.067,448.3421,1341.4289,448.8019,1350.8782,451.5786" style="stroke:#334155;stroke-width:1.2;stroke-linejoin:miter;stroke-miterlimit:10;"/><text fill="#000000" font-family="DejaVu Sans" font-size="12" lengthAdjust="spacing" textLength="112.0488" x="1034.9582" y="366.3445">/api, /socket.io (95%)</text></g><!--link Ingress to Canary--><g class="link" data-entity-1="ent0005" data-entity-2="ent0011" data-link-type="dependency" data-source-line="36" id="lnk30"><path d="M799.7782,623.7986 C865.9382,623.7986 970.9682,623.7986 1034.8382,623.7986" fill="none" id="Ingress-to-Canary" style="stroke:#334155;stroke-width:1.2;"/><polygon fill="#334155" points="1039.8382,623.7986,1030.8382,619.7986,1034.8382,623.7986,1030.8382,627.7986,1039.8382,623.7986" style="stroke:#334155;stroke-width:1.2;stroke-linejoin:miter;stroke-miterlimit:10;"/><text fill="#000000" font-family="DejaVu Sans" font-size="12" lengthAdjust="spacing" textLength="48.0176" x="925.9282" y="621.0545">/api (5%)</text></g><!--link API to PostgreSQL--><g class="link" data-entity-1="ent0008" data-entity-2="ent0019" data-link-type="dependency" data-source-line="37" id="lnk31"><path d="M1431.0882,510.0286 C1481.7682,547.6986 1570.7482,616.2986 1640.0182,682.7986 C1782.5082,819.5986 1928.9141,999.9989 1984.4741,1070.1589" fill="none" id="API-to-PostgreSQL" style="stroke:#334155;stroke-width:1.2;"/><polygon fill="#334155" points="1987.5782,1074.0786,1985.1267,1064.5398,1984.4741,1070.1589,1978.855,1069.5063,1987.5782,1074.0786" style="stroke:#334155;stroke-width:1.2;stroke-linejoin:miter;stroke-miterlimit:10;"/><text fill="#000000" font-family="DejaVu Sans" font-size="12" lengthAdjust="spacing" textLength="116.0742" x="1690.3782" y="715.4245">TLS / connection pool</text></g><!--link API to Redis--><g class="link" data-entity-1="ent0008" data-entity-2="ent0020" data-link-type="dependency" data-source-line="38" id="lnk32"><path d="M1424.6082,451.5086 C1441.9282,435.7286 1462.9482,415.4986 1480.0282,395.7986 C1487.5382,387.1386 1487.0482,383.0386 1495.0182,374.7986 C1632.5282,232.6086 1845.9701,135.5663 1948.5601,94.2563" fill="none" id="API-to-Redis" style="stroke:#334155;stroke-width:1.2;"/><polygon fill="#334155" points="1953.1982,92.3886,1943.3555,92.0399,1948.5601,94.2563,1946.3437,99.4608,1953.1982,92.3886" style="stroke:#334155;stroke-width:1.2;stroke-linejoin:miter;stroke-miterlimit:10;"/><text fill="#000000" font-family="DejaVu Sans" font-size="12" lengthAdjust="spacing" textLength="22.0078" x="1737.3782" y="148.3945">TLS</text></g><!--link API to RabbitMQ--><g class="link" data-entity-1="ent0008" data-entity-2="ent0021" data-link-type="dependency" data-source-line="39" id="lnk33"><path d="M1394.3082,509.8686 C1404.6082,595.3586 1438.8482,843.3886 1495.0182,898.7986 C1542.1382,945.2886 1593.3682,885.8386 1640.0182,932.7986 C1682.4182,975.4886 1632.4682,1017.7986 1670.0182,1064.7986 C1675.7782,1072.0086 1678.9862,1075.3505 1687.0562,1080.1305" fill="none" id="API-to-RabbitMQ" style="stroke:#334155;stroke-width:1.2;"/><polygon fill="#334155" points="1691.3582,1082.6786,1685.6531,1074.6504,1687.0562,1080.1305,1681.5761,1081.5336,1691.3582,1082.6786" style="stroke:#334155;stroke-width:1.2;stroke-linejoin:miter;stroke-miterlimit:10;"/><text fill="#000000" font-family="DejaVu Sans" font-size="12" lengthAdjust="spacing" textLength="43.3418" x="1546.0182" y="896.0545">AMQPS</text></g><!--link API to Payment--><g class="link" data-entity-1="ent0008" data-entity-2="ent0022" data-link-type="dependency" data-source-line="40" id="lnk34"><path d="M1399.3382,510.0386 C1413.9082,558.2686 1447.0982,656.3686 1495.0182,728.7986 C1545.9982,805.8686 1580.5082,807.1086 1640.0182,877.7986 C1675.7882,920.2986 1710.046,969.6942 1729.896,999.3342" fill="none" id="API-to-Payment" style="stroke:#334155;stroke-width:1.2;"/><polygon fill="#334155" points="1732.6782,1003.4886,1730.9937,993.7849,1729.896,999.3342,1724.3466,998.2365,1732.6782,1003.4886" style="stroke:#334155;stroke-width:1.2;stroke-linejoin:miter;stroke-miterlimit:10;"/><text fill="#000000" font-family="DejaVu Sans" font-size="12" lengthAdjust="spacing" textLength="143.0566" x="1496.0182" y="726.0545">HTTPS + idempotency key</text></g><!--link Relay to PostgreSQL--><g class="link" data-entity-1="ent0010" data-entity-2="ent0019" data-link-type="dependency" data-source-line="41" id="lnk35"><path d="M1149.3682,832.4886 C1159.3682,838.9086 1168.5982,846.9286 1174.9882,856.7986 C1214.2482,917.5186 1157.2782,1126.4586 1204.9882,1180.7986 C1291.4682,1279.2986 1829.3082,1228.2586 1902.7382,1199.7986 C1938.0982,1186.0886 1965.896,1158.6487 1985.376,1135.2887" fill="none" id="Relay-to-PostgreSQL" style="stroke:#334155;stroke-width:1.2;"/><polygon fill="#334155" points="1988.5782,1131.4486,1979.7422,1135.7989,1985.376,1135.2887,1985.8862,1140.9225,1988.5782,1131.4486" style="stroke:#334155;stroke-width:1.2;stroke-linejoin:miter;stroke-miterlimit:10;"/></g><!--link Relay to RabbitMQ--><g class="link" data-entity-1="ent0010" data-entity-2="ent0021" data-link-type="dependency" data-source-line="42" id="lnk36"><path d="M1149.2282,832.5786 C1159.2482,838.9886 1168.5182,846.9786 1174.9882,856.7986 C1208.4582,907.5686 1159.6882,1088.2286 1204.9882,1128.7986 C1347.7182,1256.6586 1601.1201,1166.4558 1701.3701,1123.0358" fill="none" id="Relay-to-RabbitMQ" style="stroke:#334155;stroke-width:1.2;"/><polygon fill="#334155" points="1705.9582,1121.0486,1696.1098,1120.9551,1701.3701,1123.0358,1699.2893,1128.2961,1705.9582,1121.0486" style="stroke:#334155;stroke-width:1.2;stroke-linejoin:miter;stroke-miterlimit:10;"/></g><!--link RabbitMQ to Worker--><g class="link" data-entity-1="ent0021" data-entity-2="ent0009" data-link-type="dependency" data-source-line="43" id="lnk37"><path d="M1705.2382,1082.5886 C1693.6982,1077.0686 1681.2782,1070.8986 1670.0182,1064.7986 C1443.5782,942.2086 1397.0582,894.1286 1174.9882,763.7986 C1164.9882,757.9286 1158.5954,754.2289 1148.2654,748.3589" fill="none" id="RabbitMQ-to-Worker" style="stroke:#334155;stroke-width:1.2;"/><polygon fill="#334155" points="1143.9182,745.8886,1149.7669,753.8128,1148.2654,748.3589,1153.7193,746.8574,1143.9182,745.8886" style="stroke:#334155;stroke-width:1.2;stroke-linejoin:miter;stroke-miterlimit:10;"/></g><!--link Worker to PostgreSQL--><g class="link" data-entity-1="ent0009" data-entity-2="ent0019" data-link-type="dependency" data-source-line="44" id="lnk38"><path d="M1158.2682,745.9986 C1164.7282,751.1186 1170.5282,757.0186 1174.9882,763.7986 C1242.3682,866.1086 1126.6582,943.6086 1204.9882,1037.7986 C1382.6282,1251.4186 1762.7237,1174.668 1927.6737,1128.438" fill="none" id="Worker-to-PostgreSQL" style="stroke:#334155;stroke-width:1.2;"/><polygon fill="#334155" points="1932.4882,1127.0886,1922.7426,1125.6659,1927.6737,1128.438,1924.9016,1133.369,1932.4882,1127.0886" style="stroke:#334155;stroke-width:1.2;stroke-linejoin:miter;stroke-miterlimit:10;"/></g><!--link Worker to Notify--><g class="link" data-entity-1="ent0009" data-entity-2="ent0023" data-link-type="dependency" data-source-line="45" id="lnk39"><path d="M1158.1282,746.0886 C1164.6082,751.1886 1170.4482,757.0686 1174.9882,763.7986 C1232.3482,848.9186 1134.3382,918.3386 1204.9882,992.7986 C1232.7182,1022.0186 1271.7616,1030.7247 1309.8016,1032.1247" fill="none" id="Worker-to-Notify" style="stroke:#334155;stroke-width:1.2;"/><polygon fill="#334155" points="1314.7982,1032.3086,1305.9514,1027.9803,1309.8016,1032.1247,1305.6572,1035.9749,1314.7982,1032.3086" style="stroke:#334155;stroke-width:1.2;stroke-linejoin:miter;stroke-miterlimit:10;"/><text fill="#000000" font-family="DejaVu Sans" font-size="12" lengthAdjust="spacing" textLength="39.334" x="1225.4882" y="990.0545">HTTPS</text></g><!--link PostgreSQL to Storage--><g class="link" data-entity-1="ent0019" data-entity-2="ent0024" data-link-type="dependency" data-source-line="46" id="lnk40"><path d="M2089.8882,1102.7986 C2145.3382,1102.7986 2213.9282,1102.7986 2265.6482,1102.7986" fill="none" id="PostgreSQL-to-Storage" style="stroke:#334155;stroke-width:1.2;"/><polygon fill="#334155" points="2270.6482,1102.7986,2261.6482,1098.7986,2265.6482,1102.7986,2261.6482,1106.7986,2270.6482,1102.7986" style="stroke:#334155;stroke-width:1.2;stroke-linejoin:miter;stroke-miterlimit:10;"/><text fill="#000000" font-family="DejaVu Sans" font-size="12" lengthAdjust="spacing" textLength="100.7285" x="2140.1082" y="1100.0545">encrypted backups</text></g><!--link Config to API--><g class="link" data-entity-1="ent0012" data-entity-2="ent0008" data-link-type="dependency" data-source-line="47" id="lnk41"><path d="M1135.4682,532.8686 C1185.0182,522.6886 1261.6105,506.9651 1318.7905,495.2151" fill="none" id="Config-to-API" style="stroke:#334155;stroke-width:1.2;stroke-dasharray:7,7;"/><polygon fill="#334155" points="1323.6882,494.2086,1314.0673,492.1021,1318.7905,495.2151,1315.6775,499.9383,1323.6882,494.2086" style="stroke:#334155;stroke-width:1.2;stroke-linejoin:miter;stroke-miterlimit:10;"/></g><!--link Secret to API--><g class="link" data-entity-1="ent0013" data-entity-2="ent0008" data-link-type="dependency" data-source-line="48" id="lnk42"><path d="M1172.7382,472.7886 C1220.1482,474.5486 1274.2916,476.5543 1318.7416,478.1943" fill="none" id="Secret-to-API" style="stroke:#334155;stroke-width:1.2;stroke-dasharray:7,7;"/><polygon fill="#334155" points="1323.7382,478.3786,1314.8918,474.0495,1318.7416,478.1943,1314.5968,482.0441,1323.7382,478.3786" style="stroke:#334155;stroke-width:1.2;stroke-linejoin:miter;stroke-miterlimit:10;"/></g><!--link Prometheus to API--><g class="link" data-entity-1="ent0015" data-entity-2="ent0008" data-link-type="dependency" data-source-line="49" id="lnk43"><path d="M1695.7182,375.6286 C1632.4682,397.4586 1530.0145,432.8172 1461.0945,456.6072" fill="none" id="Prometheus-to-API" style="stroke:#334155;stroke-width:1.2;"/><polygon fill="#334155" points="1456.3682,458.2386,1466.1808,459.0831,1461.0945,456.6072,1463.5705,451.5209,1456.3682,458.2386" style="stroke:#334155;stroke-width:1.2;stroke-linejoin:miter;stroke-miterlimit:10;"/><text fill="#000000" font-family="DejaVu Sans" font-size="12" lengthAdjust="spacing" textLength="61.3477" x="1537.0182" y="394.8445">/api/metrics</text></g><!--link Prometheus to Worker--><g class="link" data-entity-1="ent0015" data-entity-2="ent0009" data-link-type="dependency" data-source-line="50" id="lnk44"><path d="M1719.6382,335.5286 C1642.5682,276.4286 1423.2482,127.5686 1297.9782,239.7986 C1278.3282,257.3986 1303.3882,338.8986 1284.9882,357.7986 C1259.9582,383.5186 1229.8882,342.9486 1204.9882,368.7986 C1158.3482,417.2086 1211.6882,613.4786 1174.9882,669.7986 C1170.5582,676.5986 1168.689,679.4033 1162.249,684.5333" fill="none" id="Prometheus-to-Worker" style="stroke:#334155;stroke-width:1.2;"/><polygon fill="#334155" points="1158.3382,687.6486,1167.87,685.1697,1162.249,684.5333,1162.8855,678.9124,1158.3382,687.6486" style="stroke:#334155;stroke-width:1.2;stroke-linejoin:miter;stroke-miterlimit:10;"/><text fill="#000000" font-family="DejaVu Sans" font-size="12" lengthAdjust="spacing" textLength="42" x="1368.9982" y="196.2945">/metrics</text></g><!--link Prometheus to PostgreSQL--><g class="link" data-entity-1="ent0015" data-entity-2="ent0019" data-link-type="dependency" data-source-line="51" id="lnk45"><path d="M1778.6282,380.0986 C1814.0282,408.7986 1872.6182,462.1186 1902.7382,521.7986 C2000.5782,715.7186 2009.9888,981.3387 2010.3288,1069.1087" fill="none" id="Prometheus-to-PostgreSQL" style="stroke:#334155;stroke-width:1.2;"/><polygon fill="#334155" points="2010.3482,1074.1086,2014.3133,1065.0932,2010.3288,1069.1087,2006.3134,1065.1242,2010.3482,1074.1086" style="stroke:#334155;stroke-width:1.2;stroke-linejoin:miter;stroke-miterlimit:10;"/><text fill="#000000" font-family="DejaVu Sans" font-size="12" lengthAdjust="spacing" textLength="44.0215" x="1857.7382" y="453.5045">exporter</text></g><!--link Prometheus to Redis--><g class="link" data-entity-1="ent0015" data-entity-2="ent0020" data-link-type="dependency" data-source-line="52" id="lnk46"><path d="M1769.3982,335.7586 C1817.3382,282.9886 1935.0162,153.4496 1984.8162,98.6296" fill="none" id="Prometheus-to-Redis" style="stroke:#334155;stroke-width:1.2;"/><polygon fill="#334155" points="1988.1782,94.9286,1979.1658,98.9007,1984.8162,98.6296,1985.0873,104.2799,1988.1782,94.9286" style="stroke:#334155;stroke-width:1.2;stroke-linejoin:miter;stroke-miterlimit:10;"/><text fill="#000000" font-family="DejaVu Sans" font-size="12" lengthAdjust="spacing" textLength="44.0215" x="1857.7382" y="194.3745">exporter</text></g><!--link Prometheus to RabbitMQ--><g class="link" data-entity-1="ent0015" data-entity-2="ent0021" data-link-type="dependency" data-source-line="53" id="lnk47"><path d="M1731.8082,380.0986 C1694.7182,431.5986 1605.7882,564.1586 1574.6582,691.2986 C1533.9182,857.7086 1560.3282,933.1886 1670.0182,1064.7986 C1675.9882,1071.9686 1679.3462,1075.3145 1687.5462,1080.0845" fill="none" id="Prometheus-to-RabbitMQ" style="stroke:#334155;stroke-width:1.2;"/><polygon fill="#334155" points="1691.8682,1082.5986,1686.1,1074.6157,1687.5462,1080.0845,1682.0774,1081.5308,1691.8682,1082.5986" style="stroke:#334155;stroke-width:1.2;stroke-linejoin:miter;stroke-miterlimit:10;"/><text fill="#000000" font-family="DejaVu Sans" font-size="12" lengthAdjust="spacing" textLength="44.0215" x="1545.5182" y="703.5545">exporter</text></g><!--link Grafana to Prometheus--><g class="link" data-entity-1="ent0016" data-entity-2="ent0015" data-link-type="dependency" data-source-line="54" id="lnk48"><path d="M1431.8882,357.7986 C1497.0582,357.7986 1619.4282,357.7986 1690.7882,357.7986" fill="none" id="Grafana-to-Prometheus" style="stroke:#334155;stroke-width:1.2;"/><polygon fill="#334155" points="1695.7882,357.7986,1686.7882,353.7986,1690.7882,357.7986,1686.7882,361.7986,1695.7882,357.7986" style="stroke:#334155;stroke-width:1.2;stroke-linejoin:miter;stroke-miterlimit:10;"/></g><!--link Prometheus to Alertmanager--><g class="link" data-entity-1="ent0015" data-entity-2="ent0017" data-link-type="dependency" data-source-line="55" id="lnk49"><path d="M1801.1982,357.7986 C1845.5982,357.7986 1904.3782,357.7986 1949.7682,357.7986" fill="none" id="Prometheus-to-Alertmanager" style="stroke:#334155;stroke-width:1.2;"/><polygon fill="#334155" points="1954.7682,357.7986,1945.7682,353.7986,1949.7682,357.7986,1945.7682,361.7986,1954.7682,357.7986" style="stroke:#334155;stroke-width:1.2;stroke-linejoin:miter;stroke-miterlimit:10;"/></g><!--link API to Loki--><g class="link" data-entity-1="ent0008" data-entity-2="ent0018" data-link-type="dependency" data-source-line="56" id="lnk50"><path d="M1323.7182,455.1086 C1265.4382,428.5486 1194.8782,384.1786 1229.4882,335.2986 C1250.4082,305.7686 1283.1571,292.5482 1316.7371,285.7682" fill="none" id="API-to-Loki" style="stroke:#334155;stroke-width:1.2;"/><polygon fill="#334155" points="1321.6382,284.7786,1312.0246,282.639,1316.7371,285.7682,1313.6079,290.4807,1321.6382,284.7786" style="stroke:#334155;stroke-width:1.2;stroke-linejoin:miter;stroke-miterlimit:10;"/><text fill="#000000" font-family="DejaVu Sans" font-size="12" lengthAdjust="spacing" textLength="78.7031" x="1205.9882" y="347.5545">structured logs</text></g><!--link Worker to Loki--><g class="link" data-entity-1="ent0009" data-entity-2="ent0018" data-link-type="dependency" data-source-line="57" id="lnk51"><path d="M1154.9482,687.5286 C1162.3182,682.3386 1169.2382,676.4386 1174.9882,669.7986 C1263.0682,568.1086 1247.9382,517.1286 1284.9882,387.7986 C1293.5782,357.7986 1278.5682,343.2286 1297.9782,318.7986 C1304.3182,310.8286 1308.2377,306.8981 1317.1777,301.7381" fill="none" id="Worker-to-Loki" style="stroke:#334155;stroke-width:1.2;"/><polygon fill="#334155" points="1321.5082,299.2386,1311.7138,300.2733,1317.1777,301.7381,1315.713,307.202,1321.5082,299.2386" style="stroke:#334155;stroke-width:1.2;stroke-linejoin:miter;stroke-miterlimit:10;"/><text fill="#000000" font-family="DejaVu Sans" font-size="12" lengthAdjust="spacing" textLength="78.7031" x="1205.9882" y="385.0545">structured logs</text></g><!--link Cluster to GMN52--><g class="link" data-entity-1="ent0004" data-entity-2="ent0053" data-link-type="association" data-source-line="59" id="lnk54"><path d="M743.6882,118.7542 C743.6882,118.6861 743.6882,118.6179 743.6882,118.5497 C743.6882,118.2771 743.6882,118.0044 743.6882,117.7318 C743.6882,116.6411 743.6882,115.5505 743.6882,114.4599 C743.6882,112.2786 743.6882,110.0974 743.6882,107.9161 C743.6882,103.5536 743.6882,99.1911 743.6882,94.8286" fill="none" id="Cluster-GMN52" style="stroke:#334155;stroke-width:1.2;stroke-dasharray:7,7;"/></g><?plantuml-src TLNRRXit47tVhvWA2E0WaTIco4FzK42sdDg8vAmj0IaAlN2N8varbzpmudfH1EX7z0lx9HrULhiMu2U9C-VC3kVC37yGgfQU8xW7R70cV2CB9vn4A8tcldP2ArXYAtNNe7Bmtp__mcTVeL7eqBw7ZMCEzru632gEgXPeWIaEMvGKqPckaBXtu3GOSNXmm8N16BQefVOS9ZVAnN0JO1RwGw4q9JLPtcxW7LmkRs4ENnUV8kIA7p2xBsE4bMOSBfXagaOJ8QkB31XIXKlfBSM6iyPB9wQBFzv6Q6_-km187A4E1gsTgeDGppcfQ274th2684xKZ-W828hEjcKrJcA4FiOde-aYL8MXT3lruHtOK2v9iQ3LtCRWFNJ4NfGtBuW_psOVVemCEBik5obn0eqejzg9lQXPrEkhDezew8EpsKyzx_FLSZ4_aXDYnF_YNQMVuHubwtPA8kDeffHfxP17HlIC29TCCTE5B7RgunjmXktf-wcaqHMnp51Qh7Q4rsel3clM9aWydK0sM1jqfFJLSsW29Y5PKftIVw9y7tJGbKNpn2eXXUjUqu8QcVhm0NsACnn7cDyeVSew0lB_iHuIZMl8TiZzDJQCS2lzA2XzgGzGQncAftC_aYDc_htWpB6AMKAl8vz3gQsZ_jhShNQgDQ89POsTedWL_fKts_kK-H5OvF0ajeN9FN9XuNenfXjg7se7cxKZGF7DewVFthEg4cvz1z-yDhw1EWq0TLcyXINoSlLxucLeFwabIqk0IlWaUAv5DlQOguO9IKNOh3T7NCeYjcZNuxvKVz85Q7zeGrNOgOhLZxwrnEmR8ikU04M_660w_JMk03Y7w-sst1Jn4AmqzQkB-AyVsFmRRSUHF8Vv2qUODhAnLho7kTLXicT2mzal7z-yVG7CBP-mS1RSWHjSWpJatgusT8rQAvKaeWdKyWXDQaNKOEirEOV5-guS77t5yrr96wfdqsgwIDt18tP5dCkJ74R6euJ7JmHh7l_qSqeUMPDanqgFRXcyMHfoKpQcQsbLG9QnI0CEirciRv57kpyECtYYm3oy6AAsfuYS4u5U0RmG09zRRQXTJa5zwL_r3p8S8NaRf8yCg-Fq1kE5q8iNry4vJRAXTzGRgWvj1Zkkxoi8HVf2fPtJ3UXz_qJH0YarNmfhV1lQwi9JupjwWvrkDV4wiAsXnHqwZo8oeSX994Ex8ZnLlgNT4zxi018gTFKX6E9hVOlkByghrBGrw0Kd6iKAonM1FT54zpkMUnDYyVWw9MhSVL9REoim7Xt-3m00?></g></svg>