<svg xmlns="http://www.w3.org/2000/svg" xmlns:xlink="http://www.w3.org/1999/xlink" contentStyleType="text/css" data-diagram-type="DESCRIPTION" height="394px" preserveAspectRatio="none" style="width:629px;height:394px;background:#FFFFFF;" version="1.1" viewBox="0 0 629 394" width="629px" zoomAndPan="magnify"><?plantuml $version$?><defs/><g><!--cluster Kubernetes cluster--><g class="cluster" data-qualified-name="Kubernetes cluster" data-source-line="2" id="ent0002"><polygon fill="none" points="16,188.19,26,178.19,604,178.19,604,270.29,594,280.29,16,280.29,16,188.19" style="stroke:#181818;stroke-width:1;stroke-linejoin:miter;stroke-miterlimit:10;"/><line style="stroke:#181818;stroke-width:1;" x1="594" x2="604" y1="188.19" y2="178.19"/><line style="stroke:#181818;stroke-width:1;" x1="16" x2="594" y1="188.19" y2="188.19"/><line style="stroke:#181818;stroke-width:1;" x1="594" x2="594" y1="188.19" y2="280.29"/><text fill="#000000" font-family="sans-serif" font-size="14" font-weight="700" lengthAdjust="spacing" textLength="126.8203" x="242.5898" y="204.3218">Kubernetes cluster</text></g><!--entity F--><g class="entity" data-qualified-name="Kubernetes cluster.F" data-source-line="3" id="ent0003"><polygon fill="#F1F1F1" points="32.27,228.19,42.27,218.19,191.728,218.19,191.728,254.2886,181.728,264.2886,32.27,264.2886,32.27,228.19" style="stroke:#181818;stroke-width:0.5;stroke-linejoin:miter;stroke-miterlimit:10;"/><line style="stroke:#181818;stroke-width:0.5;" x1="181.728" x2="191.728" y1="228.19" y2="218.19"/><line style="stroke:#181818;stroke-width:0.5;" x1="32.27" x2="181.728" y1="228.19" y2="228.19"/><line style="stroke:#181818;stroke-width:0.5;" x1="181.728" x2="181.728" y1="228.19" y2="264.2886"/><text fill="#000000" font-family="sans-serif" font-size="14" lengthAdjust="spacing" textLength="119.458" x="47.27" y="251.3218">Frontend pods (2+)</text></g><!--entity B--><g class="entity" data-qualified-name="Kubernetes cluster.B" data-source-line="4" id="ent0004"><polygon fill="#F1F1F1" points="227.12,228.19,237.12,218.19,432.8778,218.19,432.8778,254.2886,422.8778,264.2886,227.12,264.2886,227.12,228.19" style="stroke:#181818;stroke-width:0.5;stroke-linejoin:miter;stroke-miterlimit:10;"/><line style="stroke:#181818;stroke-width:0.5;" x1="422.8778" x2="432.8778" y1="228.19" y2="218.19"/><line style="stroke:#181818;stroke-width:0.5;" x1="227.12" x2="422.8778" y1="228.19" y2="228.19"/><line style="stroke:#181818;stroke-width:0.5;" x1="422.8778" x2="422.8778" y1="228.19" y2="264.2886"/><text fill="#000000" font-family="sans-serif" font-size="14" lengthAdjust="spacing" textLength="165.7578" x="242.12" y="251.3218">Backend pods (3..20 HPA)</text></g><!--entity W--><g class="entity" data-qualified-name="Kubernetes cluster.W" data-source-line="5" id="ent0005"><polygon fill="#F1F1F1" points="468.32,228.19,478.32,218.19,587.6784,218.19,587.6784,254.2886,577.6784,264.2886,468.32,264.2886,468.32,228.19" style="stroke:#181818;stroke-width:0.5;stroke-linejoin:miter;stroke-miterlimit:10;"/><line style="stroke:#181818;stroke-width:0.5;" x1="577.6784" x2="587.6784" y1="228.19" y2="218.19"/><line style="stroke:#181818;stroke-width:0.5;" x1="468.32" x2="577.6784" y1="228.19" y2="228.19"/><line style="stroke:#181818;stroke-width:0.5;" x1="577.6784" x2="577.6784" y1="228.19" y2="264.2886"/><text fill="#000000" font-family="sans-serif" font-size="14" lengthAdjust="spacing" textLength="79.3584" x="483.32" y="251.3218">Worker pods</text></g><!--entity LB--><g class="entity" data-qualified-name="LB" data-source-line="1" id="ent0001"><polygon fill="#F1F1F1" points="34.07,122.09,44.07,112.09,221.9382,112.09,221.9382,148.1886,211.9382,158.1886,34.07,158.1886,34.07,122.09" style="stroke:#181818;stroke-width:0.5;stroke-linejoin:miter;stroke-miterlimit:10;"/><line style="stroke:#181818;stroke-width:0.5;" x1="211.9382" x2="221.9382" y1="122.09" y2="112.09"/><line style="stroke:#181818;stroke-width:0.5;" x1="34.07" x2="211.9382" y1="122.09" y2="122.09"/><line style="stroke:#181818;stroke-width:0.5;" x1="211.9382" x2="211.9382" y1="122.09" y2="158.1886"/><text fill="#000000" font-family="sans-serif" font-size="14" lengthAdjust="spacing" textLength="147.8682" x="49.07" y="145.2218">Load Balancer / Ingress</text></g><!--entity P--><g class="entity" data-qualified-name="P" data-source-line="7" id="ent0006"><path d="M225.87,334.29 C225.87,324.29 274.0009,324.29 274.0009,324.29 C274.0009,324.29 322.1317,324.29 322.1317,334.29 L322.1317,359.3886 C322.1317,369.3886 274.0009,369.3886 274.0009,369.3886 C274.0009,369.3886 225.87,369.3886 225.87,359.3886 L225.87,334.29" fill="#F1F1F1" style="stroke:#181818;stroke-width:0.5;"/><path d="M225.87,334.29 C225.87,344.29 274.0009,344.29 274.0009,344.29 C274.0009,344.29 322.1317,344.29 322.1317,334.29" fill="none" style="stroke:#181818;stroke-width:0.5;"/><text fill="#000000" font-family="sans-serif" font-size="14" lengthAdjust="spacing" textLength="76.2617" x="235.87" y="361.4218">PostgreSQL</text></g><!--entity R--><g class="entity" data-qualified-name="R" data-source-line="8" id="ent0007"><path d="M357.1,334.29 C357.1,324.29 384.9965,324.29 384.9965,324.29 C384.9965,324.29 412.893,324.29 412.893,334.29 L412.893,359.3886 C412.893,369.3886 384.9965,369.3886 384.9965,369.3886 C384.9965,369.3886 357.1,369.3886 357.1,359.3886 L357.1,334.29" fill="#F1F1F1" style="stroke:#181818;stroke-width:0.5;"/><path d="M357.1,334.29 C357.1,344.29 384.9965,344.29 384.9965,344.29 C384.9965,344.29 412.893,344.29 412.893,334.29" fill="none" style="stroke:#181818;stroke-width:0.5;"/><text fill="#000000" font-family="sans-serif" font-size="14" lengthAdjust="spacing" textLength="35.793" x="367.1" y="361.4218">Redis</text></g><!--entity Q--><g class="entity" data-qualified-name="Q" data-source-line="9" id="ent0008"><path d="M459.49,122.09 L532.5105,122.09 C537.5105,122.09 537.5105,135.1393 537.5105,135.1393 C537.5105,135.1393 537.5105,148.1886 532.5105,148.1886 L459.49,148.1886 C454.49,148.1886 454.49,135.1393 454.49,135.1393 C454.49,135.1393 454.49,122.09 459.49,122.09" fill="#F1F1F1" style="stroke:#181818;stroke-width:0.5;"/><path d="M532.5105,122.09 C527.5105,122.09 527.5105,135.1393 527.5105,135.1393 C527.5105,148.1886 532.5105,148.1886 532.5105,148.1886" fill="none" style="stroke:#181818;stroke-width:0.5;"/><text fill="#000000" font-family="sans-serif" font-size="14" lengthAdjust="spacing" textLength="63.0205" x="459.49" y="140.2218">RabbitMQ</text></g><!--entity Prometheus--><g class="entity" data-qualified-name="Prometheus" data-source-line="10" id="ent0009"><polygon fill="#F1F1F1" points="272.26,122.09,282.26,112.09,387.7424,112.09,387.7424,148.1886,377.7424,158.1886,272.26,158.1886,272.26,122.09" style="stroke:#181818;stroke-width:0.5;stroke-linejoin:miter;stroke-miterlimit:10;"/><line style="stroke:#181818;stroke-width:0.5;" x1="377.7424" x2="387.7424" y1="122.09" y2="112.09"/><line style="stroke:#181818;stroke-width:0.5;" x1="272.26" x2="377.7424" y1="122.09" y2="122.09"/><line style="stroke:#181818;stroke-width:0.5;" x1="377.7424" x2="377.7424" y1="122.09" y2="158.1886"/><text fill="#000000" font-family="sans-serif" font-size="14" lengthAdjust="spacing" textLength="75.4824" x="287.26" y="145.2218">Prometheus</text></g><!--entity Grafana--><g class="entity" data-qualified-name="Grafana" data-source-line="11" id="ent0010"><polygon fill="#F1F1F1" points="284.71,16,294.71,6,375.2959,6,375.2959,42.0986,365.2959,52.0986,284.71,52.0986,284.71,16" style="stroke:#181818;stroke-width:0.5;stroke-linejoin:miter;stroke-miterlimit:10;"/><line style="stroke:#181818;stroke-width:0.5;" x1="365.2959" x2="375.2959" y1="16" y2="6"/><line style="stroke:#181818;stroke-width:0.5;" x1="284.71" x2="365.2959" y1="16" y2="16"/><line style="stroke:#181818;stroke-width:0.5;" x1="365.2959" x2="365.2959" y1="16" y2="52.0986"/><text fill="#000000" font-family="sans-serif" font-size="14" lengthAdjust="spacing" textLength="50.5859" x="299.71" y="39.1318">Grafana</text></g><!--link LB to F--><g class="link" data-entity-1="ent0001" data-entity-2="ent0003" data-link-type="dependency" data-source-line="12" id="lnk11"><path d="M124.57,158.48 C121.87,176.04 118.8771,195.4477 116.1871,213.0077" fill="none" id="LB-to-F" style="stroke:#181818;stroke-width:1;"/><polygon fill="#181818" points="115.43,217.95,120.7467,209.6595,116.1871,213.0077,112.8389,208.4481,115.43,217.95" style="stroke:#181818;stroke-width:1;stroke-linejoin:miter;stroke-miterlimit:10;"/></g><!--link LB to B--><g class="link" data-entity-1="ent0001" data-entity-2="ent0004" data-link-type="dependency" data-source-line="13" id="lnk12"><path d="M184.19,158.67 C192.59,162.35 201.08,166.25 209,170.19 C238.23,184.73 265.8748,200.7271 289.5848,215.1071" fill="none" id="LB-to-B" style="stroke:#181818;stroke-width:1;"/><polygon fill="#181818" points="293.86,217.7,288.239,209.6127,289.5848,215.1071,284.0904,216.453,293.86,217.7" style="stroke:#181818;stroke-width:1;stroke-linejoin:miter;stroke-miterlimit:10;"/></g><!--link B to P--><g class="link" data-entity-1="ent0004" data-entity-2="ent0006" data-link-type="dependency" data-source-line="14" id="lnk13"><path d="M317.85,264.72 C308.33,282.34 297.5383,302.3019 288.1183,319.7219" fill="none" id="B-to-P" style="stroke:#181818;stroke-width:1;"/><polygon fill="#181818" points="285.74,324.12,293.5395,318.106,288.1183,319.7219,286.5025,314.3007,285.74,324.12" style="stroke:#181818;stroke-width:1;stroke-linejoin:miter;stroke-miterlimit:10;"/></g><!--link B to R--><g class="link" data-entity-1="ent0004" data-entity-2="ent0007" data-link-type="dependency" data-source-line="15" id="lnk14"><path d="M341.93,264.72 C351.29,282.34 361.8751,302.284 371.1251,319.704" fill="none" id="B-to-R" style="stroke:#181818;stroke-width:1;"/><polygon fill="#181818" points="373.47,324.12,372.782,314.2952,371.1251,319.704,365.7163,318.0471,373.47,324.12" style="stroke:#181818;stroke-width:1;stroke-linejoin:miter;stroke-miterlimit:10;"/></g><!--link B to Q--><g class="link" data-entity-1="ent0004" data-entity-2="ent0008" data-link-type="dependency" data-source-line="16" id="lnk15"><path d="M365.65,217.88 C399.48,196.67 444.8443,168.2268 472.0743,151.1468" fill="none" id="B-to-Q" style="stroke:#181818;stroke-width:1;"/><polygon fill="#181818" points="476.31,148.49,466.5603,149.8838,472.0743,151.1468,470.8112,156.6609,476.31,148.49" style="stroke:#181818;stroke-width:1;stroke-linejoin:miter;stroke-miterlimit:10;"/></g><!--link Q to W--><g class="link" data-entity-1="ent0008" data-entity-2="ent0005" data-link-type="dependency" data-source-line="17" id="lnk16"><path d="M499.8,148.49 C505.06,165.62 513.2015,192.0805 519.7215,213.3005" fill="none" id="Q-to-W" style="stroke:#181818;stroke-width:1;"/><polygon fill="#181818" points="521.19,218.08,522.3702,208.3021,519.7215,213.3005,514.7231,210.6518,521.19,218.08" style="stroke:#181818;stroke-width:1;stroke-linejoin:miter;stroke-miterlimit:10;"/></g><!--link Prometheus to B--><g class="link" data-entity-1="ent0009" data-entity-2="ent0004" data-link-type="dependency" data-source-line="18" id="lnk17"><path d="M330,158.48 C330,176.04 330,195.39 330,212.95" fill="none" id="Prometheus-to-B" style="stroke:#181818;stroke-width:1;"/><polygon fill="#181818" points="330,217.95,334,208.95,330,212.95,326,208.95,330,217.95" style="stroke:#181818;stroke-width:1;stroke-linejoin:miter;stroke-miterlimit:10;"/></g><!--link Grafana to Prometheus--><g class="link" data-entity-1="ent0010" data-entity-2="ent0009" data-link-type="dependency" data-source-line="19" id="lnk18"><path d="M330,52.38 C330,69.94 330,89.29 330,106.85" fill="none" id="Grafana-to-Prometheus" style="stroke:#181818;stroke-width:1;"/><polygon fill="#181818" points="330,111.85,334,102.85,330,106.85,326,102.85,330,111.85" style="stroke:#181818;stroke-width:1;stroke-linejoin:miter;stroke-miterlimit:10;"/></g><?plantuml-src JOz1Jm8n48NlyoicUu8OmE3Tn1vGufAqws7Fizj12T1gfpqP_xjBMyJJQ-TxR_B6USlOj9uiAZgH6pdW2hVkFR18WoJOAd3Pz9e63euZ2uwd9953Wz-01Mw2Tv6TnKzl1MVhktaERwvSqNYyuOVbSdsFB_gfkDJLrVjmd0fSJ1dqy0EM8Wqa4zLUujJhpRGPwd-eOtieaGw-4gVBY8RX47ScJqsvGGT_vlZ1ISh_ET2U746hSB5udDhMXuAYkcfNrO39siDjKmtKLINs1ty1?></g></svg>