<svg xmlns="http://www.w3.org/2000/svg" xmlns:xlink="http://www.w3.org/1999/xlink" contentStyleType="text/css" data-diagram-type="DESCRIPTION" height="326px" preserveAspectRatio="none" style="width:1743px;height:326px;background:#FFFFFF;" version="1.1" viewBox="0 0 1743 326" width="1743px" zoomAndPan="magnify"><?plantuml $version$?><defs/><g><g class="title" data-source-line="2"><text fill="#000000" font-family="DejaVu Sans" font-size="14" font-weight="700" lengthAdjust="spacing" textLength="292.4551" x="722.0681" y="23.1318">DDD Context Map and Integration Contracts</text></g><!--entity I--><g class="entity" data-qualified-name="I" data-source-line="4" id="ent0001"><rect fill="#EFF6FF" height="43.7988" rx="5" ry="5" style="stroke:#2563EB;stroke-width:0.5;" width="78.6895" x="7" y="138.5016"/><rect fill="#EFF6FF" height="10" style="stroke:#2563EB;stroke-width:0.5;" width="15" x="65.6895" y="143.5016"/><rect fill="#EFF6FF" height="2" style="stroke:#2563EB;stroke-width:0.5;" width="4" x="63.6895" y="145.5016"/><rect fill="#EFF6FF" height="2" style="stroke:#2563EB;stroke-width:0.5;" width="4" x="63.6895" y="149.5016"/><text fill="#000000" font-family="DejaVu Sans" font-size="12" lengthAdjust="spacing" textLength="38.6895" x="22" y="169.7575">Identity</text></g><!--entity C--><g class="entity" data-qualified-name="C" data-source-line="5" id="ent0002"><rect fill="#EFF6FF" height="43.7988" rx="5" ry="5" style="stroke:#2563EB;stroke-width:0.5;" width="81.3613" x="263.69" y="138.5016"/><rect fill="#EFF6FF" height="10" style="stroke:#2563EB;stroke-width:0.5;" width="15" x="325.0513" y="143.5016"/><rect fill="#EFF6FF" height="2" style="stroke:#2563EB;stroke-width:0.5;" width="4" x="323.0513" y="145.5016"/><rect fill="#EFF6FF" height="2" style="stroke:#2563EB;stroke-width:0.5;" width="4" x="323.0513" y="149.5016"/><text fill="#000000" font-family="DejaVu Sans" font-size="12" lengthAdjust="spacing" textLength="41.3613" x="278.69" y="169.7575">Catalog</text></g><!--entity W--><g class="entity" data-qualified-name="W" data-source-line="6" id="ent0003"><rect fill="#EFF6FF" height="43.7988" rx="5" ry="5" style="stroke:#2563EB;stroke-width:0.5;" width="115.3574" x="246.69" y="217.5016"/><rect fill="#EFF6FF" height="10" style="stroke:#2563EB;stroke-width:0.5;" width="15" x="342.0474" y="222.5016"/><rect fill="#EFF6FF" height="2" style="stroke:#2563EB;stroke-width:0.5;" width="4" x="340.0474" y="224.5016"/><rect fill="#EFF6FF" height="2" style="stroke:#2563EB;stroke-width:0.5;" width="4" x="340.0474" y="228.5016"/><text fill="#000000" font-family="DejaVu Sans" font-size="12" lengthAdjust="spacing" textLength="75.3574" x="261.69" y="248.7575">Waiting Room</text></g><!--entity R--><g class="entity" data-qualified-name="R" data-source-line="7" id="ent0004"><rect fill="#EFF6FF" height="43.7988" rx="5" ry="5" style="stroke:#2563EB;stroke-width:0.5;" width="104.0313" x="723.61" y="180.5016"/><rect fill="#EFF6FF" height="10" style="stroke:#2563EB;stroke-width:0.5;" width="15" x="807.6413" y="185.5016"/><rect fill="#EFF6FF" height="2" style="stroke:#2563EB;stroke-width:0.5;" width="4" x="805.6413" y="187.5016"/><rect fill="#EFF6FF" height="2" style="stroke:#2563EB;stroke-width:0.5;" width="4" x="805.6413" y="191.5016"/><text fill="#000000" font-family="DejaVu Sans" font-size="12" lengthAdjust="spacing" textLength="64.0313" x="738.61" y="211.7575">Reservation</text></g><!--entity B--><g class="entity" data-qualified-name="B" data-source-line="8" id="ent0005"><rect fill="#EFF6FF" height="43.7988" rx="5" ry="5" style="stroke:#2563EB;stroke-width:0.5;" width="72.0156" x="1163.21" y="88.5016"/><rect fill="#EFF6FF" height="10" style="stroke:#2563EB;stroke-width:0.5;" width="15" x="1215.2256" y="93.5016"/><rect fill="#EFF6FF" height="2" style="stroke:#2563EB;stroke-width:0.5;" width="4" x="1213.2256" y="95.5016"/><rect fill="#EFF6FF" height="2" style="stroke:#2563EB;stroke-width:0.5;" width="4" x="1213.2256" y="99.5016"/><text fill="#000000" font-family="DejaVu Sans" font-size="12" lengthAdjust="spacing" textLength="32.0156" x="1178.21" y="119.7575">Billing</text></g><!--entity T--><g class="entity" data-qualified-name="T" data-source-line="9" id="ent0006"><rect fill="#EFF6FF" height="43.7988" rx="5" ry="5" style="stroke:#2563EB;stroke-width:0.5;" width="88.0176" x="1406.21" y="101.5016"/><rect fill="#EFF6FF" height="10" style="stroke:#2563EB;stroke-width:0.5;" width="15" x="1474.2276" y="106.5016"/><rect fill="#EFF6FF" height="2" style="stroke:#2563EB;stroke-width:0.5;" width="4" x="1472.2276" y="108.5016"/><rect fill="#EFF6FF" height="2" style="stroke:#2563EB;stroke-width:0.5;" width="4" x="1472.2276" y="112.5016"/><text fill="#000000" font-family="DejaVu Sans" font-size="12" lengthAdjust="spacing" textLength="48.0176" x="1421.21" y="132.7575">Ticketing</text></g><!--entity N--><g class="entity" data-qualified-name="N" data-source-line="10" id="ent0007"><rect fill="#EFF6FF" height="43.7988" rx="5" ry="5" style="stroke:#2563EB;stroke-width:0.5;" width="99.3613" x="1630.23" y="101.5016"/><rect fill="#EFF6FF" height="10" style="stroke:#2563EB;stroke-width:0.5;" width="15" x="1709.5913" y="106.5016"/><rect fill="#EFF6FF" height="2" style="stroke:#2563EB;stroke-width:0.5;" width="4" x="1707.5913" y="108.5016"/><rect fill="#EFF6FF" height="2" style="stroke:#2563EB;stroke-width:0.5;" width="4" x="1707.5913" y="112.5016"/><text fill="#000000" font-family="DejaVu Sans" font-size="12" lengthAdjust="spacing" textLength="59.3613" x="1645.23" y="132.7575">Notification</text></g><!--entity A--><g class="entity" data-qualified-name="A" data-source-line="11" id="ent0008"><rect fill="#EFF6FF" height="43.7988" rx="5" ry="5" style="stroke:#2563EB;stroke-width:0.5;" width="88.0176" x="1406.21" y="180.5016"/><rect fill="#EFF6FF" height="10" style="stroke:#2563EB;stroke-width:0.5;" width="15" x="1474.2276" y="185.5016"/><rect fill="#EFF6FF" height="2" style="stroke:#2563EB;stroke-width:0.5;" width="4" x="1472.2276" y="187.5016"/><rect fill="#EFF6FF" height="2" style="stroke:#2563EB;stroke-width:0.5;" width="4" x="1472.2276" y="191.5016"/><text fill="#000000" font-family="DejaVu Sans" font-size="12" lengthAdjust="spacing" textLength="48.0176" x="1421.21" y="211.7575">Analytics</text></g><g class="entity" data-qualified-name="GMN19" data-source-line="23" id="ent0020"><path d="M616.05,264.7016 L616.05,306.0981 A5,5 0 0 0 621.05,311.0981 L930.216,311.0981 A5,5 0 0 0 935.216,306.0981 L935.216,269.7016 L925.216,259.7016 L779.63,259.7016 L775.63,224.6916 L771.63,259.7016 L621.05,259.7016 A5,5 0 0 0 616.05,264.7016" fill="#FEFCE8" style="stroke:#CA8A04;stroke-width:0.5;"/><path d="M925.216,259.7016 L925.216,267.2016 A2.5,2.5 0 0 0 927.716,269.7016 L935.216,269.7016 L925.216,259.7016" fill="#FEFCE8" style="stroke:#CA8A04;stroke-width:0.5;"/><text fill="#000000" font-family="DejaVu Sans" font-size="12" lengthAdjust="spacing" textLength="254.1445" x="622.05" y="275.9575">Availability belongs to Reservation, not Catalog.</text><text fill="#000000" font-family="DejaVu Sans" font-size="12" lengthAdjust="spacing" textLength="298.166" x="622.05" y="289.7563">Catalog may display an eventually consistent projection;</text><text fill="#000000" font-family="DejaVu Sans" font-size="12" lengthAdjust="spacing" textLength="253.459" x="622.05" y="303.5551">Reservation remains authoritative for allocation.</text></g><!--link I to C--><g class="link" data-entity-1="ent0001" data-entity-2="ent0002" data-link-type="dependency" data-source-line="12" id="lnk9"><path d="M85.95,160.4016 C133.87,160.4016 210.16,160.4016 258.6,160.4016" fill="none" id="I-to-C" style="stroke:#334155;stroke-width:1.2;"/><polygon fill="#334155" points="263.6,160.4016,254.6,156.4016,258.6,160.4016,254.6,164.4016,263.6,160.4016" style="stroke:#334155;stroke-width:1.2;stroke-linejoin:miter;stroke-miterlimit:10;"/><text fill="#000000" font-family="DejaVu Sans" font-size="12" lengthAdjust="spacing" textLength="99.375" x="116.69" y="143.6575">Customer/Supplier</text><text fill="#000000" font-family="DejaVu Sans" font-size="12" lengthAdjust="spacing" textLength="75.0293" x="128.8629" y="157.4563">UserId + roles</text></g><!--link C to R--><g class="link" data-entity-1="ent0002" data-entity-2="ent0004" data-link-type="dependency" data-source-line="13" id="lnk10"><path d="M345.38,163.9816 C430.38,171.5916 623.8899,188.9163 718.1699,197.3463" fill="none" id="C-to-R" style="stroke:#334155;stroke-width:1.2;"/><polygon fill="#334155" points="723.15,197.7916,714.542,193.006,718.1699,197.3463,713.8295,200.9742,723.15,197.7916" style="stroke:#334155;stroke-width:1.2;stroke-linejoin:miter;stroke-miterlimit:10;"/><text fill="#000000" font-family="DejaVu Sans" font-size="12" lengthAdjust="spacing" textLength="109.4297" x="434.7336" y="151.6975">Published Language</text><text fill="#000000" font-family="DejaVu Sans" font-size="12" lengthAdjust="spacing" textLength="192.7969" x="393.05" y="165.4963">EventSnapshot, VenueLayout, Price</text></g><!--link W to R--><g class="link" data-entity-1="ent0003" data-entity-2="ent0004" data-link-type="dependency" data-source-line="14" id="lnk11"><path d="M362.5,241.9316 C419.32,243.7616 508.92,244.7816 586.05,237.4016 C632.95,232.9216 680.7354,223.7697 718.4654,215.5197" fill="none" id="W-to-R" style="stroke:#334155;stroke-width:1.2;"/><polygon fill="#334155" points="723.35,214.4516,713.7033,212.4664,718.4654,215.5197,715.4122,220.2818,723.35,214.4516" style="stroke:#334155;stroke-width:1.2;stroke-linejoin:miter;stroke-miterlimit:10;"/><text fill="#000000" font-family="DejaVu Sans" font-size="12" lengthAdjust="spacing" textLength="58.0137" x="460.4055" y="220.6575">Conformist</text><text fill="#000000" font-family="DejaVu Sans" font-size="12" lengthAdjust="spacing" textLength="134.7246" x="422.05" y="234.4563">AdmissionToken contract</text></g><!--link R to B--><g class="link" data-entity-1="ent0004" data-entity-2="ent0005" data-link-type="dependency" data-source-line="15" id="lnk12"><path d="M827.9,191.2116 C914.69,172.2716 1083.4749,135.4372 1158.0149,119.1772" fill="none" id="R-to-B" style="stroke:#334155;stroke-width:1.2;"/><polygon fill="#334155" points="1162.9,118.1116,1153.2543,116.1216,1158.0149,119.1772,1154.9593,123.9378,1162.9,118.1116" style="stroke:#334155;stroke-width:1.2;stroke-linejoin:miter;stroke-miterlimit:10;"/><text fill="#000000" font-family="DejaVu Sans" font-size="12" lengthAdjust="spacing" textLength="99.375" x="998.5596" y="109.0875">Customer/Supplier</text><text fill="#000000" font-family="DejaVu Sans" font-size="12" lengthAdjust="spacing" textLength="164.0742" x="966.21" y="122.8863">ReservationReadyForPayment</text></g><!--link B to T--><g class="link" data-entity-1="ent0005" data-entity-2="ent0006" data-link-type="dependency" data-source-line="16" id="lnk13"><path d="M1235.63,112.2516 C1280.47,114.5916 1352.7068,118.361 1400.9868,120.881" fill="none" id="B-to-T" style="stroke:#334155;stroke-width:1.2;"/><polygon fill="#334155" points="1405.98,121.1416,1397.2007,116.6779,1400.9868,120.881,1396.7837,124.667,1405.98,121.1416" style="stroke:#334155;stroke-width:1.2;stroke-linejoin:miter;stroke-miterlimit:10;"/><text fill="#000000" font-family="DejaVu Sans" font-size="12" lengthAdjust="spacing" textLength="61.3652" x="1291.2286" y="97.4975">Partnership</text><text fill="#000000" font-family="DejaVu Sans" font-size="12" lengthAdjust="spacing" textLength="107.4023" x="1268.21" y="111.2963">PaymentSucceeded</text></g><!--link R to N--><g class="link" data-entity-1="ent0004" data-entity-2="ent0007" data-link-type="dependency" data-source-line="17" id="lnk14"><path d="M827.99,216.6516 C947.66,247.4216 1253.21,311.8316 1494.23,241.4016 C1558.14,222.7316 1617.1885,177.7012 1650.5485,149.0212" fill="none" id="R-to-N" style="stroke:#334155;stroke-width:1.2;stroke-dasharray:7,7;"/><polygon fill="#334155" points="1654.34,145.7616,1644.9077,148.5957,1650.5485,149.0212,1650.123,154.662,1654.34,145.7616" style="stroke:#334155;stroke-width:1.2;stroke-linejoin:miter;stroke-miterlimit:10;"/><text fill="#000000" font-family="DejaVu Sans" font-size="12" lengthAdjust="spacing" textLength="74.0391" x="1284.71" y="249.3875">Domain event</text><text fill="#000000" font-family="DejaVu Sans" font-size="12" lengthAdjust="spacing" textLength="67.3652" x="1288.0469" y="263.1863">reservation.*</text></g><!--link B to N--><g class="link" data-entity-1="ent0005" data-entity-2="ent0007" data-link-type="dependency" data-source-line="18" id="lnk15"><path d="M1235.59,89.2516 C1245.49,84.3816 1256.48,79.9016 1267.21,77.4016 C1320.46,65.0016 1552.96,74.8416 1600.23,86.4016 C1613.57,89.6716 1622.8638,93.115 1635.1138,99.005" fill="none" id="B-to-N" style="stroke:#334155;stroke-width:1.2;stroke-dasharray:7,7;"/><polygon fill="#334155" points="1639.62,101.1716,1633.2422,93.6667,1635.1138,99.005,1629.7756,100.8766,1639.62,101.1716" style="stroke:#334155;stroke-width:1.2;stroke-linejoin:miter;stroke-miterlimit:10;"/><text fill="#000000" font-family="DejaVu Sans" font-size="12" lengthAdjust="spacing" textLength="74.0391" x="1413.22" y="55.3975">Domain event</text><text fill="#000000" font-family="DejaVu Sans" font-size="12" lengthAdjust="spacing" textLength="54.0293" x="1423.2249" y="69.1963">payment.*</text></g><!--link T to N--><g class="link" data-entity-1="ent0006" data-entity-2="ent0007" data-link-type="dependency" data-source-line="19" id="lnk16"><path d="M1494.58,123.4016 C1533.16,123.4016 1584.55,123.4016 1624.78,123.4016" fill="none" id="T-to-N" style="stroke:#334155;stroke-width:1.2;stroke-dasharray:7,7;"/><polygon fill="#334155" points="1629.78,123.4016,1620.78,119.4016,1624.78,123.4016,1620.78,127.4016,1629.78,123.4016" style="stroke:#334155;stroke-width:1.2;stroke-linejoin:miter;stroke-miterlimit:10;"/><text fill="#000000" font-family="DejaVu Sans" font-size="12" lengthAdjust="spacing" textLength="74.0391" x="1525.23" y="106.6575">Domain event</text><text fill="#000000" font-family="DejaVu Sans" font-size="12" lengthAdjust="spacing" textLength="36.0117" x="1544.2437" y="120.4563">ticket.*</text></g><!--link R to A--><g class="link" data-entity-1="ent0004" data-entity-2="ent0008" data-link-type="dependency" data-source-line="20" id="lnk17"><path d="M828.01,202.4016 C955.91,202.4016 1281.81,202.4016 1400.8,202.4016" fill="none" id="R-to-A" style="stroke:#334155;stroke-width:1.2;stroke-dasharray:7,7;"/><polygon fill="#334155" points="1405.8,202.4016,1396.8,198.4016,1400.8,202.4016,1396.8,206.4016,1405.8,202.4016" style="stroke:#334155;stroke-width:1.2;stroke-linejoin:miter;stroke-miterlimit:10;"/><text fill="#000000" font-family="DejaVu Sans" font-size="12" lengthAdjust="spacing" textLength="74.0391" x="1162.21" y="199.6575">Domain event</text></g><!--link B to A--><g class="link" data-entity-1="ent0005" data-entity-2="ent0008" data-link-type="dependency" data-source-line="21" id="lnk18"><path d="M1235.65,128.3616 C1245.74,133.1916 1256.81,138.2216 1267.21,142.4016 C1313.83,161.1316 1363.9923,177.2 1401.2223,188.41" fill="none" id="B-to-A" style="stroke:#334155;stroke-width:1.2;stroke-dasharray:7,7;"/><polygon fill="#334155" points="1406.01,189.8516,1398.5454,183.4266,1401.2223,188.41,1396.2389,191.0869,1406.01,189.8516" style="stroke:#334155;stroke-width:1.2;stroke-linejoin:miter;stroke-miterlimit:10;"/><text fill="#000000" font-family="DejaVu Sans" font-size="12" lengthAdjust="spacing" textLength="74.0391" x="1284.71" y="139.6575">Domain event</text></g><?plantuml-src TLF1Rjim3BthAxXhrxht3IYGE1iGe0i29riEpWwCpTXQPT6Gg63--z6EjmPRTv99lVVuHDBlhAzSgWcafOuocpfdn8eZMArMaBCN-Ydm1Nj0NyDQmoQWMFRJNS1Aed5q5X26O9jMeBQ1gX5XodLDNiM6xu0HrgRCKT1nCuMvAGzenVe62kPkoXrCML2aS9agJAd2b4lhdCAcS6dAlQrUI7udzgRSiDYphLuv6rCkFBf1R1MdnCAiuU7X2NBu07cAmXs5nrtgUsSf7FrNBRckuJq4TXHDFc4BnMxJoTdOKWtFw9k43Htzfuk-QUUnZotBFNmZd-WP1quQR8Ejo1p-yBL5PmwTZNBqYrhFg1Rt_48UghbxffZGoxUTtNIZ8Ao7pnosE7Jgm2mdtdvqYK4yXTZQ_kZdwrsgAgAQQjNFiYVOA6x57LeFD3xWwCEhT7QdQc-Z-gkS8lR_GSWq3WLS2ot-0ipA_wGz2y69HLyCVDOn0omkQ1sUhDEDWHCvzaqSr-gc2VUWF9ZNA5FE_0aT3hfuiNTwubmZeNF3sEYe0z0O-i0_hglvKQatiX1ej1O1axGSh6ZsGg2p0zNWwsfbXlGF67t_0W00?></g></svg>