<svg xmlns="http://www.w3.org/2000/svg" xmlns:xlink="http://www.w3.org/1999/xlink" contentStyleType="text/css" data-diagram-type="SEQUENCE" height="795px" preserveAspectRatio="none" style="width:1793px;height:795px;background:#FFFFFF;" version="1.1" viewBox="0 0 1793 795" width="1793px" zoomAndPan="magnify"><?plantuml $version$?><defs/><g><g class="title" data-source-line="2"><text fill="#000000" font-family="DejaVu Sans" font-size="14" font-weight="700" lengthAdjust="spacing" textLength="485.4131" x="650.5479" y="28.1318">Asynchronous Notification &#8212; At-Least-Once Delivery and Dead Lettering</text></g><rect fill="#F8FAFC" height="426.5801" rx="5" ry="5" style="stroke:#64748B;stroke-width:1.5;" width="1456.0234" x="321.4854" y="285.6904"/><path d="M321.4854,329.2881 L1777.5088,329.2881 L1777.5088,707.2705 A5,5 0 0 1 1772.5088,712.2705 L326.4854,712.2705 A5,5 0 0 1 321.4854,707.2705 L321.4854,329.2881" fill="#F8FAFC" style="stroke:none;stroke-width:1;"/><rect fill="#F8FAFC" height="297.5859" rx="5" ry="5" style="stroke:#64748B;stroke-width:1.5;" width="1436.0234" x="331.4854" y="407.6846"/><path d="M331.4854,506.8799 L1767.5088,506.8799 L1767.5088,573.2764 A5,5 0 0 1 1762.5088,578.2764 L336.4854,578.2764 A5,5 0 0 1 331.4854,573.2764 L331.4854,506.8799" fill="#F8FAFC" style="stroke:none;stroke-width:1;"/><path d="M331.4854,578.2764 L1767.5088,578.2764 L1767.5088,700.2705 A5,5 0 0 1 1762.5088,705.2705 L336.4854,705.2705 A5,5 0 0 1 331.4854,700.2705 L331.4854,578.2764" fill="#F8FAFC" style="stroke:none;stroke-width:1;"/><g class="participant-lifeline" data-entity-uid="part1" data-qualified-name="Domain" data-source-line="4" id="part1-lifeline"><g><title>Domain Service</title><rect fill="#000000" fill-opacity="0.00000" height="627.373" width="8" x="50.3486" y="101.8975"/><line style="stroke:#181818;stroke-width:0.5;stroke-dasharray:5,5;" x1="54" x2="54" y1="101.8975" y2="729.2705"/></g></g><g class="participant-lifeline" data-entity-uid="part2" data-qualified-name="DB" data-source-line="5" id="part2-lifeline"><g><title>Transactional DB</title><rect fill="#000000" fill-opacity="0.00000" height="627.373" width="8" x="386.5049" y="101.8975"/><line style="stroke:#181818;stroke-width:0.5;stroke-dasharray:5,5;" x1="390.4854" x2="390.4854" y1="101.8975" y2="729.2705"/></g></g><g class="participant-lifeline" data-entity-uid="part3" data-qualified-name="Relay" data-source-line="6" id="part3-lifeline"><g><title>Outbox Relay</title><rect fill="#000000" fill-opacity="0.00000" height="627.373" width="8" x="670.624" y="101.8975"/><line style="stroke:#181818;stroke-width:0.5;stroke-dasharray:5,5;" x1="674.2725" x2="674.2725" y1="101.8975" y2="729.2705"/></g></g><g class="participant-lifeline" data-entity-uid="part4" data-qualified-name="Exchange" data-source-line="7" id="part4-lifeline"><g><title>ticketing.events</title><rect fill="#000000" fill-opacity="0.00000" height="627.373" width="8" x="868.7334" y="101.8975"/><line style="stroke:#181818;stroke-width:0.5;stroke-dasharray:5,5;" x1="872.3779" x2="872.3779" y1="101.8975" y2="729.2705"/></g></g><g class="participant-lifeline" data-entity-uid="part5" data-qualified-name="Queue" data-source-line="8" id="part5-lifeline"><g><title>ticketing.notifications</title><rect fill="#000000" fill-opacity="0.00000" height="627.373" width="8" x="1038.1436" y="101.8975"/><line style="stroke:#181818;stroke-width:0.5;stroke-dasharray:5,5;" x1="1041.7813" x2="1041.7813" y1="101.8975" y2="729.2705"/></g></g><g class="participant-lifeline" data-entity-uid="part6" data-qualified-name="Worker" data-source-line="9" id="part6-lifeline"><g><title>Notification Worker</title><rect fill="#000000" fill-opacity="0.00000" height="627.373" width="8" x="1310.6084" y="101.8975"/><line style="stroke:#181818;stroke-width:0.5;stroke-dasharray:5,5;" x1="1313.9277" x2="1313.9277" y1="101.8975" y2="729.2705"/></g></g><g class="participant-lifeline" data-entity-uid="part7" data-qualified-name="Provider" data-source-line="10" id="part7-lifeline"><g><title>Email . SMS Adapter</title><rect fill="#000000" fill-opacity="0.00000" height="627.373" width="8" x="1540.7451" y="101.8975"/><line style="stroke:#181818;stroke-width:0.5;stroke-dasharray:5,5;" x1="1544.0576" x2="1544.0576" y1="101.8975" y2="729.2705"/></g></g><g class="participant-lifeline" data-entity-uid="part8" data-qualified-name="DLX" data-source-line="11" id="part8-lifeline"><g><title>Dead-Letter Exchange</title><rect fill="#000000" fill-opacity="0.00000" height="627.373" width="8" x="1683.4707" y="101.8975"/><line style="stroke:#181818;stroke-width:0.5;stroke-dasharray:5,5;" x1="1687.4326" x2="1687.4326" y1="101.8975" y2="729.2705"/></g></g><g class="participant participant-head" data-entity-uid="part1" data-qualified-name="Domain" data-source-line="4" id="part1-head"><rect fill="#E2E2F0" height="27.7988" rx="5" ry="5" style="stroke:#181818;stroke-width:0.5;" width="98.6973" x="5" y="73.0986"/><text fill="#000000" font-family="DejaVu Sans" font-size="12" lengthAdjust="spacing" textLength="84.6973" x="12" y="91.3545">Domain Service</text></g><g class="participant participant-tail" data-entity-uid="part1" data-qualified-name="Domain" data-source-line="4" id="part1-tail"><rect fill="#E2E2F0" height="27.7988" rx="5" ry="5" style="stroke:#181818;stroke-width:0.5;" width="98.6973" x="5" y="728.2705"/><text fill="#000000" font-family="DejaVu Sans" font-size="12" lengthAdjust="spacing" textLength="84.6973" x="12" y="746.5264">Domain Service</text></g><g class="participant participant-head" data-entity-uid="part2" data-qualified-name="DB" data-source-line="5" id="part2-head"><text fill="#000000" font-family="DejaVu Sans" font-size="12" lengthAdjust="spacing" textLength="92.0391" x="341.4854" y="99.3545">Transactional DB</text><path d="M372.5049,52.0986 C372.5049,42.0986 390.5049,42.0986 390.5049,42.0986 C390.5049,42.0986 408.5049,42.0986 408.5049,52.0986 L408.5049,78.0986 C408.5049,88.0986 390.5049,88.0986 390.5049,88.0986 C390.5049,88.0986 372.5049,88.0986 372.5049,78.0986 L372.5049,52.0986" fill="#F5F3FF" style="stroke:#7C3AED;stroke-width:0.5;"/><path d="M372.5049,52.0986 C372.5049,62.0986 390.5049,62.0986 390.5049,62.0986 C390.5049,62.0986 408.5049,62.0986 408.5049,52.0986" fill="none" style="stroke:#7C3AED;stroke-width:0.5;"/></g><g class="participant participant-tail" data-entity-uid="part2" data-qualified-name="DB" data-source-line="5" id="part2-tail"><text fill="#000000" font-family="DejaVu Sans" font-size="12" lengthAdjust="spacing" textLength="92.0391" x="341.4854" y="739.5264">Transactional DB</text><path d="M372.5049,752.0693 C372.5049,742.0693 390.5049,742.0693 390.5049,742.0693 C390.5049,742.0693 408.5049,742.0693 408.5049,752.0693 L408.5049,778.0693 C408.5049,788.0693 390.5049,788.0693 390.5049,788.0693 C390.5049,788.0693 372.5049,788.0693 372.5049,778.0693 L372.5049,752.0693" fill="#F5F3FF" style="stroke:#7C3AED;stroke-width:0.5;"/><path d="M372.5049,752.0693 C372.5049,762.0693 390.5049,762.0693 390.5049,762.0693 C390.5049,762.0693 408.5049,762.0693 408.5049,752.0693" fill="none" style="stroke:#7C3AED;stroke-width:0.5;"/></g><g class="participant participant-head" data-entity-uid="part3" data-qualified-name="Relay" data-source-line="6" id="part3-head"><rect fill="#E2E2F0" height="27.7988" rx="5" ry="5" style="stroke:#181818;stroke-width:0.5;" width="86.7031" x="631.2725" y="73.0986"/><text fill="#000000" font-family="DejaVu Sans" font-size="12" lengthAdjust="spacing" textLength="72.7031" x="638.2725" y="91.3545">Outbox Relay</text></g><g class="participant participant-tail" data-entity-uid="part3" data-qualified-name="Relay" data-source-line="6" id="part3-tail"><rect fill="#E2E2F0" height="27.7988" rx="5" ry="5" style="stroke:#181818;stroke-width:0.5;" width="86.7031" x="631.2725" y="728.2705"/><text fill="#000000" font-family="DejaVu Sans" font-size="12" lengthAdjust="spacing" textLength="72.7031" x="638.2725" y="746.5264">Outbox Relay</text></g><g class="participant participant-head" data-entity-uid="part4" data-qualified-name="Exchange" data-source-line="7" id="part4-head"><path d="M826.3779,78.0986 L919.0889,78.0986 C924.0889,78.0986 924.0889,89.998 924.0889,89.998 C924.0889,89.998 924.0889,101.8975 919.0889,101.8975 L826.3779,101.8975 C821.3779,101.8975 821.3779,89.998 821.3779,89.998 C821.3779,89.998 821.3779,78.0986 826.3779,78.0986" fill="#FFF7ED" style="stroke:#C2410C;stroke-width:0.5;"/><path d="M919.0889,78.0986 C914.0889,78.0986 914.0889,89.998 914.0889,89.998 C914.0889,101.8975 919.0889,101.8975 919.0889,101.8975" fill="none" style="stroke:#C2410C;stroke-width:0.5;"/><text fill="#000000" font-family="DejaVu Sans" font-size="12" lengthAdjust="spacing" textLength="82.7109" x="826.3779" y="94.3545">ticketing.events</text></g><g class="participant participant-tail" data-entity-uid="part4" data-qualified-name="Exchange" data-source-line="7" id="part4-tail"><path d="M826.3779,728.2705 L919.0889,728.2705 C924.0889,728.2705 924.0889,740.1699 924.0889,740.1699 C924.0889,740.1699 924.0889,752.0693 919.0889,752.0693 L826.3779,752.0693 C821.3779,752.0693 821.3779,740.1699 821.3779,740.1699 C821.3779,740.1699 821.3779,728.2705 826.3779,728.2705" fill="#FFF7ED" style="stroke:#C2410C;stroke-width:0.5;"/><path d="M919.0889,728.2705 C914.0889,728.2705 914.0889,740.1699 914.0889,740.1699 C914.0889,752.0693 919.0889,752.0693 919.0889,752.0693" fill="none" style="stroke:#C2410C;stroke-width:0.5;"/><text fill="#000000" font-family="DejaVu Sans" font-size="12" lengthAdjust="spacing" textLength="82.7109" x="826.3779" y="744.5264">ticketing.events</text></g><g class="participant participant-head" data-entity-uid="part5" data-qualified-name="Queue" data-source-line="8" id="part5-head"><path d="M981.7813,78.0986 L1102.5059,78.0986 C1107.5059,78.0986 1107.5059,89.998 1107.5059,89.998 C1107.5059,89.998 1107.5059,101.8975 1102.5059,101.8975 L981.7813,101.8975 C976.7813,101.8975 976.7813,89.998 976.7813,89.998 C976.7813,89.998 976.7813,78.0986 981.7813,78.0986" fill="#FFF7ED" style="stroke:#C2410C;stroke-width:0.5;"/><path d="M1102.5059,78.0986 C1097.5059,78.0986 1097.5059,89.998 1097.5059,89.998 C1097.5059,101.8975 1102.5059,101.8975 1102.5059,101.8975" fill="none" style="stroke:#C2410C;stroke-width:0.5;"/><text fill="#000000" font-family="DejaVu Sans" font-size="12" lengthAdjust="spacing" textLength="110.7246" x="981.7813" y="94.3545">ticketing.notifications</text></g><g class="participant participant-tail" data-entity-uid="part5" data-qualified-name="Queue" data-source-line="8" id="part5-tail"><path d="M981.7813,728.2705 L1102.5059,728.2705 C1107.5059,728.2705 1107.5059,740.1699 1107.5059,740.1699 C1107.5059,740.1699 1107.5059,752.0693 1102.5059,752.0693 L981.7813,752.0693 C976.7813,752.0693 976.7813,740.1699 976.7813,740.1699 C976.7813,740.1699 976.7813,728.2705 981.7813,728.2705" fill="#FFF7ED" style="stroke:#C2410C;stroke-width:0.5;"/><path d="M1102.5059,728.2705 C1097.5059,728.2705 1097.5059,740.1699 1097.5059,740.1699 C1097.5059,752.0693 1102.5059,752.0693 1102.5059,752.0693" fill="none" style="stroke:#C2410C;stroke-width:0.5;"/><text fill="#000000" font-family="DejaVu Sans" font-size="12" lengthAdjust="spacing" textLength="110.7246" x="981.7813" y="744.5264">ticketing.notifications</text></g><g class="participant participant-head" data-entity-uid="part6" data-qualified-name="Worker" data-source-line="9" id="part6-head"><rect fill="#E2E2F0" height="27.7988" rx="5" ry="5" style="stroke:#181818;stroke-width:0.5;" width="115.3613" x="1256.9277" y="73.0986"/><text fill="#000000" font-family="DejaVu Sans" font-size="12" lengthAdjust="spacing" textLength="101.3613" x="1263.9277" y="91.3545">Notification Worker</text></g><g class="participant participant-tail" data-entity-uid="part6" data-qualified-name="Worker" data-source-line="9" id="part6-tail"><rect fill="#E2E2F0" height="27.7988" rx="5" ry="5" style="stroke:#181818;stroke-width:0.5;" width="115.3613" x="1256.9277" y="728.2705"/><text fill="#000000" font-family="DejaVu Sans" font-size="12" lengthAdjust="spacing" textLength="101.3613" x="1263.9277" y="746.5264">Notification Worker</text></g><g class="participant participant-head" data-entity-uid="part7" data-qualified-name="Provider" data-source-line="10" id="part7-head"><rect fill="#E2E2F0" height="27.7988" rx="5" ry="5" style="stroke:#181818;stroke-width:0.5;" width="125.375" x="1482.0576" y="73.0986"/><text fill="#000000" font-family="DejaVu Sans" font-size="12" lengthAdjust="spacing" textLength="111.375" x="1489.0576" y="91.3545">Email / SMS Adapter</text></g><g class="participant participant-tail" data-entity-uid="part7" data-qualified-name="Provider" data-source-line="10" id="part7-tail"><rect fill="#E2E2F0" height="27.7988" rx="5" ry="5" style="stroke:#181818;stroke-width:0.5;" width="125.375" x="1482.0576" y="728.2705"/><text fill="#000000" font-family="DejaVu Sans" font-size="12" lengthAdjust="spacing" textLength="111.375" x="1489.0576" y="746.5264">Email / SMS Adapter</text></g><g class="participant participant-head" data-entity-uid="part8" data-qualified-name="DLX" data-source-line="11" id="part8-head"><path d="M1622.4326,78.0986 L1752.5088,78.0986 C1757.5088,78.0986 1757.5088,89.998 1757.5088,89.998 C1757.5088,89.998 1757.5088,101.8975 1752.5088,101.8975 L1622.4326,101.8975 C1617.4326,101.8975 1617.4326,89.998 1617.4326,89.998 C1617.4326,89.998 1617.4326,78.0986 1622.4326,78.0986" fill="#FFF7ED" style="stroke:#C2410C;stroke-width:0.5;"/><path d="M1752.5088,78.0986 C1747.5088,78.0986 1747.5088,89.998 1747.5088,89.998 C1747.5088,101.8975 1752.5088,101.8975 1752.5088,101.8975" fill="none" style="stroke:#C2410C;stroke-width:0.5;"/><text fill="#000000" font-family="DejaVu Sans" font-size="12" lengthAdjust="spacing" textLength="120.0762" x="1622.4326" y="94.3545">Dead-Letter Exchange</text></g><g class="participant participant-tail" data-entity-uid="part8" data-qualified-name="DLX" data-source-line="11" id="part8-tail"><path d="M1622.4326,728.2705 L1752.5088,728.2705 C1757.5088,728.2705 1757.5088,740.1699 1757.5088,740.1699 C1757.5088,740.1699 1757.5088,752.0693 1752.5088,752.0693 L1622.4326,752.0693 C1617.4326,752.0693 1617.4326,740.1699 1617.4326,740.1699 C1617.4326,740.1699 1617.4326,728.2705 1622.4326,728.2705" fill="#FFF7ED" style="stroke:#C2410C;stroke-width:0.5;"/><path d="M1752.5088,728.2705 C1747.5088,728.2705 1747.5088,740.1699 1747.5088,740.1699 C1747.5088,752.0693 1752.5088,752.0693 1752.5088,752.0693" fill="none" style="stroke:#C2410C;stroke-width:0.5;"/><text fill="#000000" font-family="DejaVu Sans" font-size="12" lengthAdjust="spacing" textLength="120.0762" x="1622.4326" y="744.5264">Dead-Letter Exchange</text></g><g class="message" data-entity-1="part1" data-entity-2="part2" data-source-line="12" id="msg1"><polygon fill="#334155" points="378.5049,127.6963,388.5049,131.6963,378.5049,135.6963,382.5049,131.6963" style="stroke:#334155;stroke-width:1;stroke-linejoin:miter;stroke-miterlimit:10;"/><line style="stroke:#334155;stroke-width:1.2;" x1="54.3486" x2="384.5049" y1="131.6963" y2="131.6963"/><text fill="#000000" font-family="DejaVu Sans" font-size="12" font-weight="700" lengthAdjust="spacing" textLength="6.6738" x="61.3486" y="127.1533">1</text><text fill="#000000" font-family="DejaVu Sans" font-size="12" lengthAdjust="spacing" textLength="301.4824" x="72.0225" y="127.1533">BEGIN; update aggregate; insert outbox event; COMMIT</text></g><g class="message" data-entity-1="part3" data-entity-2="part2" data-source-line="13" id="msg2"><polygon fill="#334155" points="401.5049,155.4951,391.5049,159.4951,401.5049,163.4951,397.5049,159.4951" style="stroke:#334155;stroke-width:1;stroke-linejoin:miter;stroke-miterlimit:10;"/><line style="stroke:#334155;stroke-width:1.2;" x1="395.5049" x2="673.624" y1="159.4951" y2="159.4951"/><text fill="#000000" font-family="DejaVu Sans" font-size="12" font-weight="700" lengthAdjust="spacing" textLength="6.6738" x="407.5049" y="154.9521">2</text><text fill="#000000" font-family="DejaVu Sans" font-size="12" lengthAdjust="spacing" textLength="249.4453" x="418.1787" y="154.9521">claim unpublished outbox row (SKIP LOCKED)</text></g><g class="message" data-entity-1="part3" data-entity-2="part4" data-source-line="14" id="msg3"><polygon fill="#334155" points="860.7334,183.2939,870.7334,187.2939,860.7334,191.2939,864.7334,187.2939" style="stroke:#334155;stroke-width:1;stroke-linejoin:miter;stroke-miterlimit:10;"/><line style="stroke:#334155;stroke-width:1.2;" x1="674.624" x2="866.7334" y1="187.2939" y2="187.2939"/><text fill="#000000" font-family="DejaVu Sans" font-size="12" font-weight="700" lengthAdjust="spacing" textLength="6.6738" x="681.624" y="182.751">3</text><text fill="#000000" font-family="DejaVu Sans" font-size="12" lengthAdjust="spacing" textLength="163.4355" x="692.2979" y="182.751">publish(eventId, type, payload)</text></g><g class="message" data-entity-1="part4" data-entity-2="part5" data-source-line="15" id="msg4"><polygon fill="#334155" points="1030.1436,211.0928,1040.1436,215.0928,1030.1436,219.0928,1034.1436,215.0928" style="stroke:#334155;stroke-width:1;stroke-linejoin:miter;stroke-miterlimit:10;"/><line style="stroke:#334155;stroke-width:1.2;" x1="872.7334" x2="1036.1436" y1="215.0928" y2="215.0928"/><text fill="#000000" font-family="DejaVu Sans" font-size="12" font-weight="700" lengthAdjust="spacing" textLength="6.6738" x="879.7334" y="210.5498">4</text><text fill="#000000" font-family="DejaVu Sans" font-size="12" lengthAdjust="spacing" textLength="134.7363" x="890.4072" y="210.5498">route payment.# / ticket.#</text></g><g class="message" data-entity-1="part5" data-entity-2="part6" data-source-line="16" id="msg5"><polygon fill="#334155" points="1302.6084,238.8916,1312.6084,242.8916,1302.6084,246.8916,1306.6084,242.8916" style="stroke:#334155;stroke-width:1;stroke-linejoin:miter;stroke-miterlimit:10;"/><line style="stroke:#334155;stroke-width:1.2;" x1="1042.1436" x2="1308.6084" y1="242.8916" y2="242.8916"/><text fill="#000000" font-family="DejaVu Sans" font-size="12" font-weight="700" lengthAdjust="spacing" textLength="6.6738" x="1049.1436" y="238.3486">5</text><text fill="#000000" font-family="DejaVu Sans" font-size="12" lengthAdjust="spacing" textLength="96.709" x="1059.8174" y="238.3486">persistent delivery</text></g><g class="message" data-entity-1="part6" data-entity-2="part2" data-source-line="17" id="msg6"><polygon fill="#334155" points="401.5049,266.6904,391.5049,270.6904,401.5049,274.6904,397.5049,270.6904" style="stroke:#334155;stroke-width:1;stroke-linejoin:miter;stroke-miterlimit:10;"/><line style="stroke:#334155;stroke-width:1.2;" x1="395.5049" x2="1313.6084" y1="270.6904" y2="270.6904"/><text fill="#000000" font-family="DejaVu Sans" font-size="12" font-weight="700" lengthAdjust="spacing" textLength="6.6738" x="407.5049" y="266.1475">6</text><text fill="#000000" font-family="DejaVu Sans" font-size="12" lengthAdjust="spacing" textLength="110.7246" x="418.1787" y="266.1475">check inbox(eventId)</text></g><path d="M326.4854,285.6904 L380.4893,285.6904 L380.4893,291.4893 L370.4893,301.4893 L321.4854,301.4893 L321.4854,290.6904 A5,5 0 0 1 326.4854,285.6904" fill="#EEEEEE" style="stroke:#000000;stroke-width:1.5;"/><rect fill="none" height="426.5801" rx="5" ry="5" style="stroke:#64748B;stroke-width:1.5;" width="1456.0234" x="321.4854" y="285.6904"/><text fill="#000000" font-family="DejaVu Sans" font-size="12" font-weight="700" lengthAdjust="spacing" textLength="14.0039" x="336.4854" y="297.9463">alt</text><text fill="#000000" font-family="DejaVu Sans" font-size="12" font-weight="700" lengthAdjust="spacing" textLength="113.3848" x="395.4893" y="298.9463">[already processed]</text><g class="message" data-entity-1="part6" data-entity-2="part5" data-source-line="19" id="msg7"><polygon fill="#334155" points="1053.1436,317.2881,1043.1436,321.2881,1053.1436,325.2881,1049.1436,321.2881" style="stroke:#334155;stroke-width:1;stroke-linejoin:miter;stroke-miterlimit:10;"/><line style="stroke:#334155;stroke-width:1.2;" x1="1047.1436" x2="1313.6084" y1="321.2881" y2="321.2881"/><text fill="#000000" font-family="DejaVu Sans" font-size="12" font-weight="700" lengthAdjust="spacing" textLength="6.6738" x="1059.1436" y="316.7451">7</text><text fill="#000000" font-family="DejaVu Sans" font-size="12" lengthAdjust="spacing" textLength="76.043" x="1069.8174" y="316.7451">ACK duplicate</text></g><line style="stroke:#64748B;stroke-width:1;stroke-dasharray:2,2;" x1="321.4854" x2="1777.5088" y1="330.2881" y2="330.2881"/><text fill="#000000" font-family="DejaVu Sans" font-size="12" font-weight="700" lengthAdjust="spacing" textLength="66.0117" x="326.4854" y="341.5439">[new event]</text><g class="message" data-entity-1="part6" data-entity-2="part2" data-source-line="21" id="msg8"><polygon fill="#334155" points="401.5049,360.8857,391.5049,364.8857,401.5049,368.8857,397.5049,364.8857" style="stroke:#334155;stroke-width:1;stroke-linejoin:miter;stroke-miterlimit:10;"/><line style="stroke:#334155;stroke-width:1.2;" x1="395.5049" x2="1313.6084" y1="364.8857" y2="364.8857"/><text fill="#000000" font-family="DejaVu Sans" font-size="12" font-weight="700" lengthAdjust="spacing" textLength="6.6738" x="407.5049" y="360.3428">8</text><text fill="#000000" font-family="DejaVu Sans" font-size="12" lengthAdjust="spacing" textLength="173.0801" x="418.1787" y="360.3428">insert notification + inbox marker</text></g><g class="message" data-entity-1="part6" data-entity-2="part7" data-source-line="22" id="msg9"><polygon fill="#334155" points="1532.7451,388.6846,1542.7451,392.6846,1532.7451,396.6846,1536.7451,392.6846" style="stroke:#334155;stroke-width:1;stroke-linejoin:miter;stroke-miterlimit:10;"/><line style="stroke:#334155;stroke-width:1.2;" x1="1314.6084" x2="1538.7451" y1="392.6846" y2="392.6846"/><text fill="#000000" font-family="DejaVu Sans" font-size="12" font-weight="700" lengthAdjust="spacing" textLength="6.6738" x="1321.6084" y="388.1416">9</text><text fill="#000000" font-family="DejaVu Sans" font-size="12" lengthAdjust="spacing" textLength="144.75" x="1332.2822" y="388.1416">send(template, destination)</text></g><path d="M336.4854,407.6846 L390.4893,407.6846 L390.4893,413.4834 L380.4893,423.4834 L331.4854,423.4834 L331.4854,412.6846 A5,5 0 0 1 336.4854,407.6846" fill="#EEEEEE" style="stroke:#000000;stroke-width:1.5;"/><rect fill="none" height="297.5859" rx="5" ry="5" style="stroke:#64748B;stroke-width:1.5;" width="1436.0234" x="331.4854" y="407.6846"/><text fill="#000000" font-family="DejaVu Sans" font-size="12" font-weight="700" lengthAdjust="spacing" textLength="14.0039" x="346.4854" y="419.9404">alt</text><text fill="#000000" font-family="DejaVu Sans" font-size="12" font-weight="700" lengthAdjust="spacing" textLength="111.3633" x="405.4893" y="420.9404">[provider accepted]</text><g class="message" data-entity-1="part7" data-entity-2="part6" data-source-line="24" id="msg10"><polygon fill="#334155" points="1325.6084,439.2822,1315.6084,443.2822,1325.6084,447.2822,1321.6084,443.2822" style="stroke:#334155;stroke-width:1;stroke-linejoin:miter;stroke-miterlimit:10;"/><line style="stroke:#334155;stroke-width:1.2;stroke-dasharray:2,2;" x1="1319.6084" x2="1543.7451" y1="443.2822" y2="443.2822"/><text fill="#000000" font-family="DejaVu Sans" font-size="12" font-weight="700" lengthAdjust="spacing" textLength="13.3477" x="1331.6084" y="438.7393">10</text><text fill="#000000" font-family="DejaVu Sans" font-size="12" lengthAdjust="spacing" textLength="98.7188" x="1348.9561" y="438.7393">providerReference</text></g><g class="message" data-entity-1="part6" data-entity-2="part2" data-source-line="25" id="msg11"><polygon fill="#334155" points="401.5049,467.0811,391.5049,471.0811,401.5049,475.0811,397.5049,471.0811" style="stroke:#334155;stroke-width:1;stroke-linejoin:miter;stroke-miterlimit:10;"/><line style="stroke:#334155;stroke-width:1.2;" x1="395.5049" x2="1313.6084" y1="471.0811" y2="471.0811"/><text fill="#000000" font-family="DejaVu Sans" font-size="12" font-weight="700" lengthAdjust="spacing" textLength="13.3477" x="407.5049" y="466.5381">11</text><text fill="#000000" font-family="DejaVu Sans" font-size="12" lengthAdjust="spacing" textLength="109.6992" x="424.8525" y="466.5381">mark SENT + sentAt</text></g><g class="message" data-entity-1="part6" data-entity-2="part5" data-source-line="26" id="msg12"><polygon fill="#334155" points="1053.1436,494.8799,1043.1436,498.8799,1053.1436,502.8799,1049.1436,498.8799" style="stroke:#334155;stroke-width:1;stroke-linejoin:miter;stroke-miterlimit:10;"/><line style="stroke:#334155;stroke-width:1.2;" x1="1047.1436" x2="1313.6084" y1="498.8799" y2="498.8799"/><text fill="#000000" font-family="DejaVu Sans" font-size="12" font-weight="700" lengthAdjust="spacing" textLength="13.3477" x="1059.1436" y="494.3369">12</text><text fill="#000000" font-family="DejaVu Sans" font-size="12" lengthAdjust="spacing" textLength="24.6738" x="1076.4912" y="494.3369">ACK</text></g><line style="stroke:#64748B;stroke-width:1;stroke-dasharray:2,2;" x1="331.4854" x2="1767.5088" y1="507.8799" y2="507.8799"/><text fill="#000000" font-family="DejaVu Sans" font-size="12" font-weight="700" lengthAdjust="spacing" textLength="237.3867" x="336.4854" y="519.1357">[transient error and retry budget remains]</text><g class="message" data-entity-1="part7" data-entity-2="part6" data-source-line="28" id="msg13"><polygon fill="#334155" points="1325.6084,538.4775,1315.6084,542.4775,1325.6084,546.4775,1321.6084,542.4775" style="stroke:#334155;stroke-width:1;stroke-linejoin:miter;stroke-miterlimit:10;"/><line style="stroke:#334155;stroke-width:1.2;stroke-dasharray:2,2;" x1="1319.6084" x2="1543.7451" y1="542.4775" y2="542.4775"/><text fill="#000000" font-family="DejaVu Sans" font-size="12" font-weight="700" lengthAdjust="spacing" textLength="13.3477" x="1331.6084" y="537.9346">13</text><text fill="#000000" font-family="DejaVu Sans" font-size="12" lengthAdjust="spacing" textLength="98.0508" x="1348.9561" y="537.9346">429 / 5xx / timeout</text></g><g class="message" data-entity-1="part6" data-entity-2="part5" data-source-line="29" id="msg14"><polygon fill="#334155" points="1053.1436,566.2764,1043.1436,570.2764,1053.1436,574.2764,1049.1436,570.2764" style="stroke:#334155;stroke-width:1;stroke-linejoin:miter;stroke-miterlimit:10;"/><line style="stroke:#334155;stroke-width:1.2;" x1="1047.1436" x2="1313.6084" y1="570.2764" y2="570.2764"/><text fill="#000000" font-family="DejaVu Sans" font-size="12" font-weight="700" lengthAdjust="spacing" textLength="13.3477" x="1059.1436" y="565.7334">14</text><text fill="#000000" font-family="DejaVu Sans" font-size="12" lengthAdjust="spacing" textLength="231.1172" x="1076.4912" y="565.7334">NACK + delayed retry (exponential backoff)</text></g><line style="stroke:#64748B;stroke-width:1;stroke-dasharray:2,2;" x1="331.4854" x2="1767.5088" y1="579.2764" y2="579.2764"/><text fill="#000000" font-family="DejaVu Sans" font-size="12" font-weight="700" lengthAdjust="spacing" textLength="218.7363" x="336.4854" y="590.5322">[permanent error or retries exhausted]</text><g class="message" data-entity-1="part7" data-entity-2="part6" data-source-line="31" id="msg15"><polygon fill="#334155" points="1325.6084,609.874,1315.6084,613.874,1325.6084,617.874,1321.6084,613.874" style="stroke:#334155;stroke-width:1;stroke-linejoin:miter;stroke-miterlimit:10;"/><line style="stroke:#334155;stroke-width:1.2;stroke-dasharray:2,2;" x1="1319.6084" x2="1543.7451" y1="613.874" y2="613.874"/><text fill="#000000" font-family="DejaVu Sans" font-size="12" font-weight="700" lengthAdjust="spacing" textLength="13.3477" x="1331.6084" y="609.3311">15</text><text fill="#000000" font-family="DejaVu Sans" font-size="12" lengthAdjust="spacing" textLength="188.7891" x="1348.9561" y="609.3311">invalid destination / repeated failure</text></g><g class="message" data-entity-1="part6" data-entity-2="part2" data-source-line="32" id="msg16"><polygon fill="#334155" points="401.5049,637.6729,391.5049,641.6729,401.5049,645.6729,397.5049,641.6729" style="stroke:#334155;stroke-width:1;stroke-linejoin:miter;stroke-miterlimit:10;"/><line style="stroke:#334155;stroke-width:1.2;" x1="395.5049" x2="1313.6084" y1="641.6729" y2="641.6729"/><text fill="#000000" font-family="DejaVu Sans" font-size="12" font-weight="700" lengthAdjust="spacing" textLength="13.3477" x="407.5049" y="637.1299">16</text><text fill="#000000" font-family="DejaVu Sans" font-size="12" lengthAdjust="spacing" textLength="122.3789" x="424.8525" y="637.1299">mark FAILED + reason</text></g><g class="message" data-entity-1="part6" data-entity-2="part8" data-source-line="33" id="msg17"><polygon fill="#334155" points="1675.4707,665.4717,1685.4707,669.4717,1675.4707,673.4717,1679.4707,669.4717" style="stroke:#334155;stroke-width:1;stroke-linejoin:miter;stroke-miterlimit:10;"/><line style="stroke:#334155;stroke-width:1.2;" x1="1314.6084" x2="1681.4707" y1="669.4717" y2="669.4717"/><text fill="#000000" font-family="DejaVu Sans" font-size="12" font-weight="700" lengthAdjust="spacing" textLength="13.3477" x="1321.6084" y="664.9287">17</text><text fill="#000000" font-family="DejaVu Sans" font-size="12" lengthAdjust="spacing" textLength="151.4121" x="1338.9561" y="664.9287">dead-letter with correlationId</text></g><g class="message" data-entity-1="part6" data-entity-2="part5" data-source-line="34" id="msg18"><polygon fill="#334155" points="1053.1436,693.2705,1043.1436,697.2705,1053.1436,701.2705,1049.1436,697.2705" style="stroke:#334155;stroke-width:1;stroke-linejoin:miter;stroke-miterlimit:10;"/><line style="stroke:#334155;stroke-width:1.2;" x1="1047.1436" x2="1313.6084" y1="697.2705" y2="697.2705"/><text fill="#000000" font-family="DejaVu Sans" font-size="12" font-weight="700" lengthAdjust="spacing" textLength="13.3477" x="1059.1436" y="692.7275">18</text><text fill="#000000" font-family="DejaVu Sans" font-size="12" lengthAdjust="spacing" textLength="66.6973" x="1076.4912" y="692.7275">ACK original</text></g><?plantuml-src VLFRRXen47tVhvYcBw04AbNjGubKYGHQeH18GwJcTR07iF3QMry8-zQFw1VsIphUIu2qgRGhsRjdPiuvC_D66Q6Z90WRogclOgwpe88c6FhIY8spnaOFCnlKIWaCoXhu_VCN34DlIkX3Rsu4mOYqsf4h0Ota2qgOKWZab5bd68CrCL-IomfqGGbLe0bmDh8vAWCBSZibw0pGG_qfanXmYPxWxC6XyIXILTGmkgfHLwU9vZ4ixHxkIMDP0QfJzYDIv1ICsr9W8dtQaGc-GeptOeDcJN-3p97G6lijGKuhdhZntRejkGfQ7q-nOvQauHqiRXSmb5Y41dldx4v9HZSKackzshLdUhNSwMFMUDNxpE87S3N-EfbTGYpOA09Shnsj-NG9odXo0MnjIANt4gxdjxUJXwmofSqWDAeSeYdYKYk_8Td6EFi4dSNDv0wcy-kRyQXxY6j93Q29wbG59l82GbdG1HHOQekocxN855MvD-2yaQao8kUG_blsexQy_pQh40bQkyVfoNdb0mD1DdELrV-UwMz8R5ajCsv9T3FK0L0xjh64mbb1tfFC00wX3PVXzGt8MEZKGCf8yw0PUghjEi6dKesbnsC1vtLfoB5gzt58szK1U3Ao4oWlD5UvO2MUvwkAxt948biqM40XYESYaONd3D0xjgJvU4yhSiGRLq5FcIOsi1ZF7fWV5m_3y09qaCy_AjaXhPTAHfDprbNRwoZm7Y-ZN5FWIvex_pgn3-y_SIy_xlTLHtFYDl-xwYovVfuQYYMrLJgqBwpX-egtUubYQrUhRakEno17So37JufIv87s6up-luufiqEjvB7lJD5HGTmE2IjUokXUjV7BS38TZvWlZvEtvYLi-ZZWnBolkjxN9nKs8Anph2vLciXNhMSPQis4T99fPCRl7m00?></g></svg>