<svg xmlns="http://www.w3.org/2000/svg" xmlns:xlink="http://www.w3.org/1999/xlink" contentStyleType="text/css" data-diagram-type="SEQUENCE" height="357px" preserveAspectRatio="none" style="width:621px;height:357px;background:#FFFFFF;" version="1.1" viewBox="0 0 621 357" width="621px" zoomAndPan="magnify"><?plantuml $version$?><defs/><g><g class="participant-lifeline" data-entity-uid="part1" data-qualified-name="D" data-source-line="1" id="part1-lifeline"><g><title>Domain service</title><rect fill="#000000" fill-opacity="0.00000" height="222.6411" width="8" x="56.2378" y="67.0986"/><line style="stroke:#181818;stroke-width:0.5;stroke-dasharray:5,5;" x1="60" x2="60" y1="67.0986" y2="289.7397"/></g></g><g class="participant-lifeline" data-entity-uid="part2" data-qualified-name="RabbitMQ" data-source-line="2" id="part2-lifeline"><g><title>RabbitMQ</title><rect fill="#000000" fill-opacity="0.00000" height="222.6411" width="8" x="176.3604" y="67.0986"/><line style="stroke:#181818;stroke-width:0.5;stroke-dasharray:5,5;" x1="179.8501" x2="179.8501" y1="67.0986" y2="289.7397"/></g></g><g class="participant-lifeline" data-entity-uid="part3" data-qualified-name="N" data-source-line="3" id="part3-lifeline"><g><title>Notification worker</title><rect fill="#000000" fill-opacity="0.00000" height="222.6411" width="8" x="292.4463" y="67.0986"/><line style="stroke:#181818;stroke-width:0.5;stroke-dasharray:5,5;" x1="295.8706" x2="295.8706" y1="67.0986" y2="289.7397"/></g></g><g class="participant-lifeline" data-entity-uid="part4" data-qualified-name="PostgreSQL" data-source-line="4" id="part4-lifeline"><g><title>PostgreSQL</title><rect fill="#000000" fill-opacity="0.00000" height="222.6411" width="8" x="420.4971" y="67.0986"/><line style="stroke:#181818;stroke-width:0.5;stroke-dasharray:5,5;" x1="424.3662" x2="424.3662" y1="67.0986" y2="289.7397"/></g></g><g class="participant-lifeline" data-entity-uid="part5" data-qualified-name="E" data-source-line="5" id="part5-lifeline"><g><title>Email.SMS adapter</title><rect fill="#000000" fill-opacity="0.00000" height="222.6411" width="8" x="538.9312" y="67.0986"/><line style="stroke:#181818;stroke-width:0.5;stroke-dasharray:5,5;" x1="542.6279" x2="542.6279" y1="67.0986" y2="289.7397"/></g></g><g class="participant participant-head" data-entity-uid="part1" data-qualified-name="D" data-source-line="1" id="part1-head"><rect fill="#E2E2F0" height="30.0986" rx="2.5" ry="2.5" style="stroke:#181818;stroke-width:0.5;" width="110.4756" x="5" y="36"/><text fill="#000000" font-family="sans-serif" font-size="14" lengthAdjust="spacing" textLength="96.4756" x="12" y="56.1318">Domain service</text></g><g class="participant participant-tail" data-entity-uid="part1" data-qualified-name="D" data-source-line="1" id="part1-tail"><rect fill="#E2E2F0" height="30.0986" rx="2.5" ry="2.5" style="stroke:#181818;stroke-width:0.5;" width="110.4756" x="5" y="288.7397"/><text fill="#000000" font-family="sans-serif" font-size="14" lengthAdjust="spacing" textLength="96.4756" x="12" y="308.8716">Domain service</text></g><g class="participant participant-head" data-entity-uid="part2" data-qualified-name="RabbitMQ" data-source-line="2" id="part2-head"><path d="M143.8501,41 L216.8706,41 C221.8706,41 221.8706,54.0493 221.8706,54.0493 C221.8706,54.0493 221.8706,67.0986 216.8706,67.0986 L143.8501,67.0986 C138.8501,67.0986 138.8501,54.0493 138.8501,54.0493 C138.8501,54.0493 138.8501,41 143.8501,41" fill="#E2E2F0" style="stroke:#181818;stroke-width:0.5;"/><path d="M216.8706,41 C211.8706,41 211.8706,54.0493 211.8706,54.0493 C211.8706,67.0986 216.8706,67.0986 216.8706,67.0986" fill="none" style="stroke:#181818;stroke-width:0.5;"/><text fill="#000000" font-family="sans-serif" font-size="14" lengthAdjust="spacing" textLength="63.0205" x="143.8501" y="59.1318">RabbitMQ</text></g><g class="participant participant-tail" data-entity-uid="part2" data-qualified-name="RabbitMQ" data-source-line="2" id="part2-tail"><path d="M143.8501,288.7397 L216.8706,288.7397 C221.8706,288.7397 221.8706,301.7891 221.8706,301.7891 C221.8706,301.7891 221.8706,314.8384 216.8706,314.8384 L143.8501,314.8384 C138.8501,314.8384 138.8501,301.7891 138.8501,301.7891 C138.8501,301.7891 138.8501,288.7397 143.8501,288.7397" fill="#E2E2F0" style="stroke:#181818;stroke-width:0.5;"/><path d="M216.8706,288.7397 C211.8706,288.7397 211.8706,301.7891 211.8706,301.7891 C211.8706,314.8384 216.8706,314.8384 216.8706,314.8384" fill="none" style="stroke:#181818;stroke-width:0.5;"/><text fill="#000000" font-family="sans-serif" font-size="14" lengthAdjust="spacing" textLength="63.0205" x="143.8501" y="306.8716">RabbitMQ</text></g><g class="participant participant-head" data-entity-uid="part3" data-qualified-name="N" data-source-line="3" id="part3-head"><rect fill="#E2E2F0" height="30.0986" rx="2.5" ry="2.5" style="stroke:#181818;stroke-width:0.5;" width="129.1514" x="231.8706" y="36"/><text fill="#000000" font-family="sans-serif" font-size="14" lengthAdjust="spacing" textLength="115.1514" x="238.8706" y="56.1318">Notification worker</text></g><g class="participant participant-tail" data-entity-uid="part3" data-qualified-name="N" data-source-line="3" id="part3-tail"><rect fill="#E2E2F0" height="30.0986" rx="2.5" ry="2.5" style="stroke:#181818;stroke-width:0.5;" width="129.1514" x="231.8706" y="288.7397"/><text fill="#000000" font-family="sans-serif" font-size="14" lengthAdjust="spacing" textLength="115.1514" x="238.8706" y="308.8716">Notification worker</text></g><g class="participant participant-head" data-entity-uid="part4" data-qualified-name="PostgreSQL" data-source-line="4" id="part4-head"><text fill="#000000" font-family="sans-serif" font-size="14" lengthAdjust="spacing" textLength="76.2617" x="383.3662" y="64.1318">PostgreSQL</text><path d="M406.4971,15 C406.4971,5 424.4971,5 424.4971,5 C424.4971,5 442.4971,5 442.4971,15 L442.4971,41 C442.4971,51 424.4971,51 424.4971,51 C424.4971,51 406.4971,51 406.4971,41 L406.4971,15" fill="#E2E2F0" style="stroke:#181818;stroke-width:0.5;"/><path d="M406.4971,15 C406.4971,25 424.4971,25 424.4971,25 C424.4971,25 442.4971,25 442.4971,15" fill="none" style="stroke:#181818;stroke-width:0.5;"/></g><g class="participant participant-tail" data-entity-uid="part4" data-qualified-name="PostgreSQL" data-source-line="4" id="part4-tail"><text fill="#000000" font-family="sans-serif" font-size="14" lengthAdjust="spacing" textLength="76.2617" x="383.3662" y="301.8716">PostgreSQL</text><path d="M406.4971,314.8384 C406.4971,304.8384 424.4971,304.8384 424.4971,304.8384 C424.4971,304.8384 442.4971,304.8384 442.4971,314.8384 L442.4971,340.8384 C442.4971,350.8384 424.4971,350.8384 424.4971,350.8384 C424.4971,350.8384 406.4971,350.8384 406.4971,340.8384 L406.4971,314.8384" fill="#E2E2F0" style="stroke:#181818;stroke-width:0.5;"/><path d="M406.4971,314.8384 C406.4971,324.8384 424.4971,324.8384 424.4971,324.8384 C424.4971,324.8384 442.4971,324.8384 442.4971,314.8384" fill="none" style="stroke:#181818;stroke-width:0.5;"/></g><g class="participant participant-head" data-entity-uid="part5" data-qualified-name="E" data-source-line="5" id="part5-head"><rect fill="#E2E2F0" height="30.0986" rx="2.5" ry="2.5" style="stroke:#181818;stroke-width:0.5;" width="134.6064" x="475.6279" y="36"/><text fill="#000000" font-family="sans-serif" font-size="14" lengthAdjust="spacing" textLength="120.6064" x="482.6279" y="56.1318">Email/SMS adapter</text></g><g class="participant participant-tail" data-entity-uid="part5" data-qualified-name="E" data-source-line="5" id="part5-tail"><rect fill="#E2E2F0" height="30.0986" rx="2.5" ry="2.5" style="stroke:#181818;stroke-width:0.5;" width="134.6064" x="475.6279" y="288.7397"/><text fill="#000000" font-family="sans-serif" font-size="14" lengthAdjust="spacing" textLength="120.6064" x="482.6279" y="308.8716">Email/SMS adapter</text></g><g class="message" data-entity-1="part1" data-entity-2="part2" data-source-line="6" id="msg1"><polygon fill="#181818" points="168.3604,94.0474,178.3604,98.0474,168.3604,102.0474,172.3604,98.0474" style="stroke:#181818;stroke-width:1;stroke-linejoin:miter;stroke-miterlimit:10;"/><line style="stroke:#181818;stroke-width:1;" x1="60.2378" x2="174.3604" y1="98.0474" y2="98.0474"/><text fill="#000000" font-family="sans-serif" font-size="13" lengthAdjust="spacing" textLength="96.1226" x="67.2378" y="93.2925">integration event</text></g><g class="message" data-entity-1="part2" data-entity-2="part3" data-source-line="7" id="msg2"><polygon fill="#181818" points="284.4463,122.9961,294.4463,126.9961,284.4463,130.9961,288.4463,126.9961" style="stroke:#181818;stroke-width:1;stroke-linejoin:miter;stroke-miterlimit:10;"/><line style="stroke:#181818;stroke-width:1;" x1="180.3604" x2="290.4463" y1="126.9961" y2="126.9961"/><text fill="#000000" font-family="sans-serif" font-size="13" lengthAdjust="spacing" textLength="91.7744" x="187.3604" y="122.2412">durable delivery</text></g><g class="message" data-entity-1="part3" data-entity-2="part4" data-source-line="8" id="msg3"><polygon fill="#181818" points="412.4971,151.9448,422.4971,155.9448,412.4971,159.9448,416.4971,155.9448" style="stroke:#181818;stroke-width:1;stroke-linejoin:miter;stroke-miterlimit:10;"/><line style="stroke:#181818;stroke-width:1;" x1="296.4463" x2="418.4971" y1="155.9448" y2="155.9448"/><text fill="#000000" font-family="sans-serif" font-size="13" lengthAdjust="spacing" textLength="104.0508" x="303.4463" y="151.1899">persist notification</text></g><g class="message" data-entity-1="part3" data-entity-2="part5" data-source-line="9" id="msg4"><polygon fill="#181818" points="530.9312,180.8936,540.9312,184.8936,530.9312,188.8936,534.9312,184.8936" style="stroke:#181818;stroke-width:1;stroke-linejoin:miter;stroke-miterlimit:10;"/><line style="stroke:#181818;stroke-width:1;" x1="296.4463" x2="536.9312" y1="184.8936" y2="184.8936"/><text fill="#000000" font-family="sans-serif" font-size="13" lengthAdjust="spacing" textLength="87.439" x="303.4463" y="180.1387">simulated send</text></g><g class="message" data-entity-1="part5" data-entity-2="part3" data-source-line="10" id="msg5"><polygon fill="#181818" points="307.4463,209.8423,297.4463,213.8423,307.4463,217.8423,303.4463,213.8423" style="stroke:#181818;stroke-width:1;stroke-linejoin:miter;stroke-miterlimit:10;"/><line style="stroke:#181818;stroke-width:1;stroke-dasharray:2,2;" x1="301.4463" x2="541.9312" y1="213.8423" y2="213.8423"/><text fill="#000000" font-family="sans-serif" font-size="13" lengthAdjust="spacing" textLength="31.7891" x="313.4463" y="209.0874">result</text></g><g class="message" data-entity-1="part3" data-entity-2="part4" data-source-line="11" id="msg6"><polygon fill="#181818" points="412.4971,238.791,422.4971,242.791,412.4971,246.791,416.4971,242.791" style="stroke:#181818;stroke-width:1;stroke-linejoin:miter;stroke-miterlimit:10;"/><line style="stroke:#181818;stroke-width:1;" x1="296.4463" x2="418.4971" y1="242.791" y2="242.791"/><text fill="#000000" font-family="sans-serif" font-size="13" lengthAdjust="spacing" textLength="57.0718" x="303.4463" y="238.0361">mark sent</text></g><g class="message" data-entity-1="part3" data-entity-2="part2" data-source-line="12" id="msg7"><polygon fill="#181818" points="191.3604,267.7397,181.3604,271.7397,191.3604,275.7397,187.3604,271.7397" style="stroke:#181818;stroke-width:1;stroke-linejoin:miter;stroke-miterlimit:10;"/><line style="stroke:#181818;stroke-width:1;" x1="185.3604" x2="295.4463" y1="271.7397" y2="271.7397"/><text fill="#000000" font-family="sans-serif" font-size="13" lengthAdjust="spacing" textLength="20.23" x="197.3604" y="266.9849">ack</text></g><?plantuml-src PO-x3i8m34NtV8N5ZjWxCBKRL42_m6qCifecmN6A-7ievIdcUyyzTaHHxZYYLrYKOK3sa4X6xcW1cA0qvqoPu81joxhTc_WDr47vo1qg1m-N83t9WwgDHSKM4y4k93q9DVlDBrhTLMxLR1j0Yr6VO6LAMAxVjWBOAvra5j18Niqhctfr0JOBjex0akEHv6hgAVXO2uWaYPE2_pfsRbK591woGoLx_zfRKy5odXLAsUd_s83IJzLdz3aKk_u6?></g></svg>