<svg xmlns="http://www.w3.org/2000/svg" xmlns:xlink="http://www.w3.org/1999/xlink" contentStyleType="text/css" data-diagram-type="STATE" height="589px" preserveAspectRatio="none" style="width:806px;height:589px;background:#FFFFFF;" version="1.1" viewBox="0 0 806 589" width="806px" zoomAndPan="magnify"><?plantuml $version$?><defs/><g><g class="title" data-source-line="2"><text fill="#000000" font-family="DejaVu Sans" font-size="14" font-weight="700" lengthAdjust="spacing" textLength="385.0957" x="207.0885" y="23.1318">Payment Saga &#8212; Orchestration and Compensation States</text></g><g class="entity" data-qualified-name="PAYMENT_SUCCEEDED" data-source-line="10" id="ent0001"><rect fill="#F1F1F1" height="88.9941" rx="5" ry="5" style="stroke:#181818;stroke-width:0.5;" width="160.0273" x="7" y="403.4986"/><line style="stroke:#181818;stroke-width:0.5;" x1="7" x2="167.0273" y1="427.2975" y2="427.2975"/><text fill="#000000" font-family="DejaVu Sans" font-size="12" lengthAdjust="spacing" textLength="140.0273" x="17" y="419.7545">PAYMENT_SUCCEEDED</text><text fill="#000000" font-family="DejaVu Sans" font-size="12" lengthAdjust="spacing" textLength="102.0352" x="12" y="443.5533">confirm reservation</text><text fill="#000000" font-family="DejaVu Sans" font-size="12" lengthAdjust="spacing" textLength="58.0371" x="12" y="457.3521">book seats</text><text fill="#000000" font-family="DejaVu Sans" font-size="12" lengthAdjust="spacing" textLength="65.3555" x="12" y="471.151">issue tickets</text><text fill="#000000" font-family="DejaVu Sans" font-size="12" lengthAdjust="spacing" textLength="76.7168" x="12" y="484.9498">publish events</text></g><g class="entity" data-qualified-name="PAYMENT_FAILED" data-source-line="11" id="ent0002"><rect fill="#F1F1F1" height="75.1953" rx="5" ry="5" style="stroke:#181818;stroke-width:0.5;" width="126.6934" x="468.67" y="410.3986"/><line style="stroke:#181818;stroke-width:0.5;" x1="468.67" x2="595.3634" y1="434.1975" y2="434.1975"/><text fill="#000000" font-family="DejaVu Sans" font-size="12" lengthAdjust="spacing" textLength="106.6934" x="478.67" y="426.6545">PAYMENT_FAILED</text><text fill="#000000" font-family="DejaVu Sans" font-size="12" lengthAdjust="spacing" textLength="97.3828" x="473.67" y="450.4533">cancel reservation</text><text fill="#000000" font-family="DejaVu Sans" font-size="12" lengthAdjust="spacing" textLength="70.0313" x="473.67" y="464.2521">release locks</text><text fill="#000000" font-family="DejaVu Sans" font-size="12" lengthAdjust="spacing" textLength="74.0449" x="473.67" y="478.051">publish failure</text></g><g class="entity" data-qualified-name="PAYMENT_TIMEOUT" data-source-line="12" id="ent0003"><rect fill="#F1F1F1" height="75.1953" rx="5" ry="5" style="stroke:#181818;stroke-width:0.5;" width="182.75" x="201.64" y="410.3986"/><line style="stroke:#181818;stroke-width:0.5;" x1="201.64" x2="384.39" y1="434.1975" y2="434.1975"/><text fill="#000000" font-family="DejaVu Sans" font-size="12" lengthAdjust="spacing" textLength="118.6758" x="233.6771" y="426.6545">PAYMENT_TIMEOUT</text><text fill="#000000" font-family="DejaVu Sans" font-size="12" lengthAdjust="spacing" textLength="95.3789" x="206.64" y="450.4533">expire reservation</text><text fill="#000000" font-family="DejaVu Sans" font-size="12" lengthAdjust="spacing" textLength="70.0313" x="206.64" y="464.2521">release locks</text><text fill="#000000" font-family="DejaVu Sans" font-size="12" lengthAdjust="spacing" textLength="162.75" x="206.64" y="478.051">flag late-callback reconciliation</text></g><g class="start_entity" data-qualified-name=".start." data-source-line="3" id="ent0004"><ellipse cx="274.01" cy="53.0986" fill="#222222" rx="10" ry="10" style="stroke:#222222;stroke-width:1;"/></g><g class="entity" data-qualified-name="PAYMENT_PENDING" data-source-line="3" id="ent0005"><rect fill="#F1F1F1" height="50" rx="5" ry="5" style="stroke:#181818;stroke-width:0.5;" width="139.3555" x="204.34" y="152.0986"/><line style="stroke:#181818;stroke-width:0.5;" x1="204.34" x2="343.6955" y1="175.8975" y2="175.8975"/><text fill="#000000" font-family="DejaVu Sans" font-size="12" lengthAdjust="spacing" textLength="119.3555" x="214.34" y="168.3545">PAYMENT_PENDING</text></g><g class="entity" data-qualified-name="RECONCILING" data-source-line="4" id="ent0007"><rect fill="#F1F1F1" height="50" rx="5" ry="5" style="stroke:#181818;stroke-width:0.5;" width="103.3438" x="222.34" y="277.7986"/><line style="stroke:#181818;stroke-width:0.5;" x1="222.34" x2="325.6838" y1="301.5975" y2="301.5975"/><text fill="#000000" font-family="DejaVu Sans" font-size="12" lengthAdjust="spacing" textLength="83.3438" x="232.34" y="294.0545">RECONCILING</text></g><g class="end_entity" data-qualified-name=".end." data-source-line="13" id="ent0014"><ellipse cx="293.01" cy="564.4886" fill="none" rx="11" ry="11" style="stroke:#222222;stroke-width:1;"/><ellipse cx="293.01" cy="564.4886" fill="#222222" rx="6" ry="6" style="stroke:#222222;stroke-width:1;"/></g><g class="entity" data-qualified-name="GMN18" data-source-line="17" id="ent0019"><path d="M360.44,282.0986 L360.44,298.7986 L326.01,302.7986 L360.44,306.7986 L360.44,323.4951 A5,5 0 0 0 365.44,328.4951 L666.5845,328.4951 A5,5 0 0 0 671.5845,323.4951 L671.5845,287.0986 L661.5845,277.0986 L365.44,277.0986 A5,5 0 0 0 360.44,282.0986" fill="#FEFCE8" style="stroke:#CA8A04;stroke-width:0.5;"/><path d="M661.5845,277.0986 L661.5845,284.5986 A2.5,2.5 0 0 0 664.0845,287.0986 L671.5845,287.0986 L661.5845,277.0986" fill="#FEFCE8" style="stroke:#CA8A04;stroke-width:0.5;"/><text fill="#000000" font-family="DejaVu Sans" font-size="12" lengthAdjust="spacing" textLength="290.1445" x="366.44" y="293.3545">Never compensate an uncertain payment immediately.</text><text fill="#000000" font-family="DejaVu Sans" font-size="12" lengthAdjust="spacing" textLength="288.8027" x="366.44" y="307.1533">Query by provider idempotency/reference first to avoid</text><text fill="#000000" font-family="DejaVu Sans" font-size="12" lengthAdjust="spacing" textLength="276.8027" x="366.44" y="320.9521">charging a customer after their seats were released.</text></g><!--link *start* to PAYMENT_PENDING--><g class="link" data-entity-1="ent0004" data-entity-2="ent0005" data-link-type="dependency" data-source-line="3" id="lnk6"><path d="M274.01,63.2686 C274.01,81.8886 274.01,119.6586 274.01,146.8686" fill="none" id="*start*-to-PAYMENT_PENDING" style="stroke:#334155;stroke-width:1.2;"/><polygon fill="#334155" points="274.01,151.8686,278.01,142.8686,274.01,146.8686,270.01,142.8686,274.01,151.8686" style="stroke:#334155;stroke-width:1.2;stroke-linejoin:miter;stroke-miterlimit:10;"/><text fill="#000000" font-family="DejaVu Sans" font-size="12" lengthAdjust="spacing" textLength="105.4043" x="293.3498" y="105.3545">reservation pending</text><text fill="#000000" font-family="DejaVu Sans" font-size="12" lengthAdjust="spacing" textLength="142.084" x="275.01" y="119.1533">idempotency key accepted</text></g><!--link PAYMENT_PENDING to RECONCILING--><g class="link" data-entity-1="ent0005" data-entity-2="ent0007" data-link-type="dependency" data-source-line="4" id="lnk8"><path d="M274.01,202.5386 C274.01,224.2186 274.01,250.7386 274.01,272.4086" fill="none" id="PAYMENT_PENDING-to-RECONCILING" style="stroke:#334155;stroke-width:1.2;"/><polygon fill="#334155" points="274.01,277.4086,278.01,268.4086,274.01,272.4086,270.01,268.4086,274.01,277.4086" style="stroke:#334155;stroke-width:1.2;stroke-linejoin:miter;stroke-miterlimit:10;"/><text fill="#000000" font-family="DejaVu Sans" font-size="12" lengthAdjust="spacing" textLength="145.418" x="275.01" y="244.3545">gateway timeout / unknown</text></g><!--link PAYMENT_PENDING to PAYMENT_SUCCEEDED--><g class="link" data-entity-1="ent0005" data-entity-2="ent0001" data-link-type="dependency" data-source-line="5" id="lnk9"><path d="M203.85,191.4586 C156.29,204.5486 96.86,229.7486 67.01,277.0986 C43.26,314.7886 52.5156,361.9345 65.6556,398.4145" fill="none" id="PAYMENT_PENDING-to-PAYMENT_SUCCEEDED" style="stroke:#334155;stroke-width:1.2;"/><polygon fill="#334155" points="67.35,403.1186,68.0634,393.2956,65.6556,398.4145,60.5367,396.0067,67.35,403.1186" style="stroke:#334155;stroke-width:1.2;stroke-linejoin:miter;stroke-miterlimit:10;"/><text fill="#000000" font-family="DejaVu Sans" font-size="12" lengthAdjust="spacing" textLength="136.7285" x="68.01" y="307.5545">gateway confirms capture</text></g><!--link PAYMENT_PENDING to PAYMENT_FAILED--><g class="link" data-entity-1="ent0005" data-entity-2="ent0002" data-link-type="dependency" data-source-line="6" id="lnk10"><path d="M344.01,184.4986 C450.87,195.8686 646.79,223.6086 689.01,277.0986 C729.45,328.3186 659.6608,380.5404 600.1008,413.6304" fill="none" id="PAYMENT_PENDING-to-PAYMENT_FAILED" style="stroke:#334155;stroke-width:1.2;"/><polygon fill="#334155" points="595.73,416.0586,605.54,415.1843,600.1008,413.6304,601.6547,408.1911,595.73,416.0586" style="stroke:#334155;stroke-width:1.2;stroke-linejoin:miter;stroke-miterlimit:10;"/><text fill="#000000" font-family="DejaVu Sans" font-size="12" lengthAdjust="spacing" textLength="88.7227" x="701.55" y="307.5545">definitive decline</text></g><!--link RECONCILING to PAYMENT_SUCCEEDED--><g class="link" data-entity-1="ent0007" data-entity-2="ent0001" data-link-type="dependency" data-source-line="7" id="lnk11"><path d="M221.96,320.3386 C188.71,331.6686 149.42,346.7086 136.01,358.4986 C122.3,370.5586 113.8602,382.9386 106.0402,398.7186" fill="none" id="RECONCILING-to-PAYMENT_SUCCEEDED" style="stroke:#334155;stroke-width:1.2;"/><polygon fill="#334155" points="103.82,403.1986,111.4003,396.9107,106.0402,398.7186,104.2322,393.3584,103.82,403.1986" style="stroke:#334155;stroke-width:1.2;stroke-linejoin:miter;stroke-miterlimit:10;"/><text fill="#000000" font-family="DejaVu Sans" font-size="12" lengthAdjust="spacing" textLength="125.7422" x="137.01" y="370.7545">status query = captured</text></g><!--link RECONCILING to PAYMENT_FAILED--><g class="link" data-entity-1="ent0007" data-entity-2="ent0002" data-link-type="dependency" data-source-line="8" id="lnk12"><path d="M326.12,323.3586 C331.79,325.2086 337.5,326.9686 343.01,328.4986 C408.53,346.6686 440,315.9286 493.01,358.4986 C508.99,371.3186 517.0974,387.2466 522.7774,405.4066" fill="none" id="RECONCILING-to-PAYMENT_FAILED" style="stroke:#334155;stroke-width:1.2;"/><polygon fill="#334155" points="524.27,410.1786,525.401,400.3949,522.7774,405.4066,517.7658,402.783,524.27,410.1786" style="stroke:#334155;stroke-width:1.2;stroke-linejoin:miter;stroke-miterlimit:10;"/><text fill="#000000" font-family="DejaVu Sans" font-size="12" lengthAdjust="spacing" textLength="123.7441" x="506.5" y="370.7545">status query = declined</text></g><!--link RECONCILING to PAYMENT_TIMEOUT--><g class="link" data-entity-1="ent0007" data-entity-2="ent0003" data-link-type="dependency" data-source-line="9" id="lnk13"><path d="M272.38,328.2886 C271.83,337.7286 271.28,348.6086 271.01,358.4986 C270.83,365.1586 270.05,366.8986 271.01,373.4986 C272.79,385.6186 274.6622,393.7389 278.2122,405.2989" fill="none" id="RECONCILING-to-PAYMENT_TIMEOUT" style="stroke:#334155;stroke-width:1.2;"/><polygon fill="#334155" points="279.68,410.0786,280.8617,400.3009,278.2122,405.2989,273.2142,402.6494,279.68,410.0786" style="stroke:#334155;stroke-width:1.2;stroke-linejoin:miter;stroke-miterlimit:10;"/><text fill="#000000" font-family="DejaVu Sans" font-size="12" lengthAdjust="spacing" textLength="216.7793" x="272.01" y="370.7545">reservation TTL / retry budget exhausted</text></g><!--link PAYMENT_SUCCEEDED to *end*--><g class="link" data-entity-1="ent0001" data-entity-2="ent0014" data-link-type="dependency" data-source-line="13" id="lnk15"><path d="M166.07,492.9286 C211.23,518.0286 258.5198,544.3193 279.2798,555.8593" fill="none" id="PAYMENT_SUCCEEDED-to-*end*" style="stroke:#334155;stroke-width:1.2;"/><polygon fill="#334155" points="283.65,558.2886,277.7271,550.4198,279.2798,555.8593,273.8402,557.4121,283.65,558.2886" style="stroke:#334155;stroke-width:1.2;stroke-linejoin:miter;stroke-miterlimit:10;"/></g><!--link PAYMENT_FAILED to *end*--><g class="link" data-entity-1="ent0002" data-entity-2="ent0014" data-link-type="dependency" data-source-line="14" id="lnk16"><path d="M468.28,479.5286 C410.48,507.2186 334.7495,543.4989 307.2295,556.6789" fill="none" id="PAYMENT_FAILED-to-*end*" style="stroke:#334155;stroke-width:1.2;"/><polygon fill="#334155" points="302.72,558.8386,312.5649,558.5588,307.2295,556.6789,309.1093,551.3435,302.72,558.8386" style="stroke:#334155;stroke-width:1.2;stroke-linejoin:miter;stroke-miterlimit:10;"/></g><!--link PAYMENT_TIMEOUT to *end*--><g class="link" data-entity-1="ent0003" data-entity-2="ent0014" data-link-type="dependency" data-source-line="15" id="lnk17"><path d="M293.01,485.8486 C293.01,509.2486 293.01,532.8886 293.01,547.9986" fill="none" id="PAYMENT_TIMEOUT-to-*end*" style="stroke:#334155;stroke-width:1.2;"/><polygon fill="#334155" points="293.01,552.9986,297.01,543.9986,293.01,547.9986,289.01,543.9986,293.01,552.9986" style="stroke:#334155;stroke-width:1.2;stroke-linejoin:miter;stroke-miterlimit:10;"/></g><?plantuml-src VLFBZjD04BpxAvehKh9t991MYK6HiaaWsGDY4UhCjEsMnpDcffsiRtm4NyYNq7c12RjxiSQZgUhkggvNx8thB85KrD2OkyPbmk88LjWtv0NMM2By-l4Jbj5Kb2IYSF20ti8aD2tvTBfO2mgbxClhhp0QlOFLxUUxVB7vjieNqzdY0xo1I8dYxlHOOPPz-U3PKjC68MzwgAa7D8PQ8PjTum-Sd_B9SZ6PpKzyfTRROm_23OLEu0OwN_kmzqzYBtVh-yaapwVvTC1WWYyuDWaCjj95Uf7W_UriVaHRAjYpy8xqQ1nxoeODFbSqgKvTWkyTnHxUNahQPx5_wbq1ppMV1svcT_doVdEb_6OpLwKYYP9iErkI03rMsAMXwCD-p-8CIHxyDeGQ4g4ajJ2bJlU7JKs7txRREauLq4wt9sN_ZM7G6tB_qaLoX8d01LCFA0faDxJZxqJqs7Aa5qaAXoKuTNXaqBajcbgVwp267HyHJqnxa4yN-Bhfw-jB7vTxhmiCaSjA81J3BSq05gf3L17FII4DZkwfeIZ8ceDpoBXfo6fRvFgnWZuUFTxsqCQmquX46EJa9b91KKy4QamIa02u2smLQ2gCfGOB48nQ6Xg5OY7wrNnpF5a6UpfgTvJBZZFD8Xn6-0q0?></g></svg>