<svg xmlns="http://www.w3.org/2000/svg" xmlns:xlink="http://www.w3.org/1999/xlink" contentStyleType="text/css" data-diagram-type="ACTIVITY" height="440px" preserveAspectRatio="none" style="width:522px;height:440px;background:#FFFFFF;" version="1.1" viewBox="0 0 522 440" width="522px" zoomAndPan="magnify"><?plantuml $version$?><defs/><g><ellipse cx="313.199" cy="25" fill="#222222" rx="10" ry="10" style="stroke:#222222;stroke-width:1;"/><rect fill="#F1F1F1" height="33.7988" rx="12.5" ry="12.5" style="stroke:#181818;stroke-width:0.5;" width="198.793" x="213.8025" y="55"/><text fill="#000000" font-family="sans-serif" font-size="12" lengthAdjust="spacing" textLength="178.793" x="223.8025" y="76.2559">Login; :Search event; :Join queue</text><rect fill="#F1F1F1" height="33.7988" rx="12.5" ry="12.5" style="stroke:#181818;stroke-width:0.5;" width="208.7539" x="208.822" y="108.7988"/><text fill="#000000" font-family="sans-serif" font-size="12" lengthAdjust="spacing" textLength="188.7539" x="218.822" y="130.0547">Choose seats; :Acquire Redis locks</text><polygon fill="#F1F1F1" points="282.0117,162.5977,344.3862,162.5977,356.3862,174.5977,344.3862,186.5977,282.0117,186.5977,270.0117,174.5977,282.0117,162.5977" style="stroke:#181818;stroke-width:0.5;stroke-linejoin:miter;stroke-miterlimit:10;"/><text fill="#000000" font-family="sans-serif" font-size="11" lengthAdjust="spacing" textLength="62.3745" x="282.0117" y="178.5911">all acquired?</text><text fill="#000000" font-family="sans-serif" font-size="11" lengthAdjust="spacing" textLength="17.1177" x="252.894" y="172.2666">yes</text><text fill="#000000" font-family="sans-serif" font-size="11" lengthAdjust="spacing" textLength="12.2354" x="356.3862" y="172.2666">no</text><rect fill="#F1F1F1" height="33.7988" rx="12.5" ry="12.5" style="stroke:#181818;stroke-width:0.5;" width="70.6953" x="145.8823" y="196.5977"/><text fill="#000000" font-family="sans-serif" font-size="12" lengthAdjust="spacing" textLength="50.6953" x="155.8823" y="217.8535">Checkout</text><polygon fill="#F1F1F1" points="157.0762,250.3965,205.3838,250.3965,217.3838,262.3965,205.3838,274.3965,157.0762,274.3965,145.0762,262.3965,157.0762,250.3965" style="stroke:#181818;stroke-width:0.5;stroke-linejoin:miter;stroke-miterlimit:10;"/><text fill="#000000" font-family="sans-serif" font-size="11" lengthAdjust="spacing" textLength="48.3076" x="157.0762" y="266.3899">outcome?</text><text fill="#000000" font-family="sans-serif" font-size="11" lengthAdjust="spacing" textLength="39.7354" x="105.3408" y="260.0654">success</text><text fill="#000000" font-family="sans-serif" font-size="11" lengthAdjust="spacing" textLength="103.9414" x="217.3838" y="260.0654">failure/timeout/cancel</text><rect fill="#F1F1F1" height="33.7988" rx="12.5" ry="12.5" style="stroke:#181818;stroke-width:0.5;" width="149.3926" x="16" y="284.3965"/><text fill="#000000" font-family="sans-serif" font-size="12" lengthAdjust="spacing" textLength="129.3926" x="26" y="305.6523">Book seats; :Issue ticket</text><rect fill="#F1F1F1" height="33.7988" rx="12.5" ry="12.5" style="stroke:#181818;stroke-width:0.5;" width="172.7422" x="185.3926" y="284.3965"/><text fill="#000000" font-family="sans-serif" font-size="12" lengthAdjust="spacing" textLength="152.7422" x="195.3926" y="305.6523">Compensate; :Release locks</text><polygon fill="#F1F1F1" points="181.23,324.1953,193.23,336.1953,181.23,348.1953,169.23,336.1953,181.23,324.1953" style="stroke:#181818;stroke-width:0.5;stroke-linejoin:miter;stroke-miterlimit:10;"/><rect fill="#F1F1F1" height="33.7988" rx="12.5" ry="12.5" style="stroke:#181818;stroke-width:0.5;" width="114.0664" x="388.1348" y="196.5977"/><text fill="#000000" font-family="sans-serif" font-size="12" lengthAdjust="spacing" textLength="94.0664" x="398.1348" y="217.8535">Show unavailable</text><polygon fill="#F1F1F1" points="313.199,354.1953,325.199,366.1953,313.199,378.1953,301.199,366.1953,313.199,354.1953" style="stroke:#181818;stroke-width:0.5;stroke-linejoin:miter;stroke-miterlimit:10;"/><ellipse cx="313.199" cy="409.1953" fill="none" rx="11" ry="11" style="stroke:#222222;stroke-width:1;"/><ellipse cx="313.199" cy="409.1953" fill="#222222" rx="6" ry="6" style="stroke:#222222;stroke-width:1;"/><line style="stroke:#181818;stroke-width:1;" x1="313.199" x2="313.199" y1="35" y2="55"/><polygon fill="#181818" points="309.199,45,313.199,55,317.199,45,313.199,49" style="stroke:#181818;stroke-width:1;stroke-linejoin:miter;stroke-miterlimit:10;"/><line style="stroke:#181818;stroke-width:1;" x1="313.199" x2="313.199" y1="88.7988" y2="108.7988"/><polygon fill="#181818" points="309.199,98.7988,313.199,108.7988,317.199,98.7988,313.199,102.7988" style="stroke:#181818;stroke-width:1;stroke-linejoin:miter;stroke-miterlimit:10;"/><line style="stroke:#181818;stroke-width:1;" x1="145.0762" x2="90.6963" y1="262.3965" y2="262.3965"/><line style="stroke:#181818;stroke-width:1;" x1="90.6963" x2="90.6963" y1="262.3965" y2="284.3965"/><polygon fill="#181818" points="86.6963,274.3965,90.6963,284.3965,94.6963,274.3965,90.6963,278.3965" style="stroke:#181818;stroke-width:1;stroke-linejoin:miter;stroke-miterlimit:10;"/><line style="stroke:#181818;stroke-width:1;" x1="217.3838" x2="271.7637" y1="262.3965" y2="262.3965"/><line style="stroke:#181818;stroke-width:1;" x1="271.7637" x2="271.7637" y1="262.3965" y2="284.3965"/><polygon fill="#181818" points="267.7637,274.3965,271.7637,284.3965,275.7637,274.3965,271.7637,278.3965" style="stroke:#181818;stroke-width:1;stroke-linejoin:miter;stroke-miterlimit:10;"/><line style="stroke:#181818;stroke-width:1;" x1="90.6963" x2="90.6963" y1="318.1953" y2="336.1953"/><line style="stroke:#181818;stroke-width:1;" x1="90.6963" x2="169.23" y1="336.1953" y2="336.1953"/><polygon fill="#181818" points="159.23,332.1953,169.23,336.1953,159.23,340.1953,163.23,336.1953" style="stroke:#181818;stroke-width:1;stroke-linejoin:miter;stroke-miterlimit:10;"/><line style="stroke:#181818;stroke-width:1;" x1="271.7637" x2="271.7637" y1="318.1953" y2="336.1953"/><line style="stroke:#181818;stroke-width:1;" x1="271.7637" x2="193.23" y1="336.1953" y2="336.1953"/><polygon fill="#181818" points="203.23,332.1953,193.23,336.1953,203.23,340.1953,199.23,336.1953" style="stroke:#181818;stroke-width:1;stroke-linejoin:miter;stroke-miterlimit:10;"/><line style="stroke:#181818;stroke-width:1;" x1="181.23" x2="181.23" y1="230.3965" y2="250.3965"/><polygon fill="#181818" points="177.23,240.3965,181.23,250.3965,185.23,240.3965,181.23,244.3965" style="stroke:#181818;stroke-width:1;stroke-linejoin:miter;stroke-miterlimit:10;"/><line style="stroke:#181818;stroke-width:1;" x1="270.0117" x2="181.23" y1="174.5977" y2="174.5977"/><line style="stroke:#181818;stroke-width:1;" x1="181.23" x2="181.23" y1="174.5977" y2="196.5977"/><polygon fill="#181818" points="177.23,186.5977,181.23,196.5977,185.23,186.5977,181.23,190.5977" style="stroke:#181818;stroke-width:1;stroke-linejoin:miter;stroke-miterlimit:10;"/><line style="stroke:#181818;stroke-width:1;" x1="356.3862" x2="445.168" y1="174.5977" y2="174.5977"/><line style="stroke:#181818;stroke-width:1;" x1="445.168" x2="445.168" y1="174.5977" y2="196.5977"/><polygon fill="#181818" points="441.168,186.5977,445.168,196.5977,449.168,186.5977,445.168,190.5977" style="stroke:#181818;stroke-width:1;stroke-linejoin:miter;stroke-miterlimit:10;"/><line style="stroke:#181818;stroke-width:1;" x1="181.23" x2="181.23" y1="348.1953" y2="366.1953"/><line style="stroke:#181818;stroke-width:1;" x1="181.23" x2="301.199" y1="366.1953" y2="366.1953"/><polygon fill="#181818" points="291.199,362.1953,301.199,366.1953,291.199,370.1953,295.199,366.1953" style="stroke:#181818;stroke-width:1;stroke-linejoin:miter;stroke-miterlimit:10;"/><line style="stroke:#181818;stroke-width:1;" x1="445.168" x2="445.168" y1="230.3965" y2="366.1953"/><line style="stroke:#181818;stroke-width:1;" x1="445.168" x2="325.199" y1="366.1953" y2="366.1953"/><polygon fill="#181818" points="335.199,362.1953,325.199,366.1953,335.199,370.1953,331.199,366.1953" style="stroke:#181818;stroke-width:1;stroke-linejoin:miter;stroke-miterlimit:10;"/><line style="stroke:#181818;stroke-width:1;" x1="313.199" x2="313.199" y1="142.5977" y2="162.5977"/><polygon fill="#181818" points="309.199,152.5977,313.199,162.5977,317.199,152.5977,313.199,156.5977" style="stroke:#181818;stroke-width:1;stroke-linejoin:miter;stroke-miterlimit:10;"/><line style="stroke:#181818;stroke-width:1;" x1="313.199" x2="313.199" y1="378.1953" y2="398.1953"/><polygon fill="#181818" points="309.199,388.1953,313.199,398.1953,317.199,388.1953,313.199,392.1953" style="stroke:#181818;stroke-width:1;stroke-linejoin:miter;stroke-miterlimit:10;"/><?plantuml-src FO-nSi9034Jx-mgLfgAt2oQX8fCAla2Sr_Z6vnDOEfZyVUGuGoVDxZwjr7Ynq7xBBPMEsWjuYIFXYMA-VaagzAYew49x74KKf61JrpxYewO5T4QVbBB4IRkG1ceuP-9Dx0yxiX65cX_eBf0p42UfrWLQhJv5cV5sQOqHkZgf_HIPtiTEgXLaAKvOiyXUf1auvRfWRsc6a_QHIqJ-2nzblgCe6pnyHWPxuByZeVHf21kZo5hhCigBQk6d4_cQ_TlDeoRtNm00?></g></svg>