<svg xmlns="http://www.w3.org/2000/svg" xmlns:xlink="http://www.w3.org/1999/xlink" contentStyleType="text/css" data-diagram-type="ACTIVITY" height="1439px" preserveAspectRatio="none" style="width:1042px;height:1439px;background:#FFFFFF;" version="1.1" viewBox="0 0 1042 1439" width="1042px" zoomAndPan="magnify"><?plantuml $version$?><defs/><g><g class="title" data-source-line="2"><text fill="#000000" font-family="DejaVu Sans" font-size="14" font-weight="700" lengthAdjust="spacing" textLength="322.8818" x="358.7808" y="33.1318">Customer Purchase Journey &#8212; Activity Diagram</text></g><ellipse cx="519.2217" cy="62.0986" fill="#222222" rx="10" ry="10" style="stroke:#222222;stroke-width:1;"/><rect fill="#F1F1F1" height="33.7988" rx="5" ry="5" style="stroke:#181818;stroke-width:0.5;" width="116.709" x="460.8672" y="92.0986"/><text fill="#000000" font-family="DejaVu Sans" font-size="12" lengthAdjust="spacing" textLength="96.709" x="470.8672" y="113.3545">Register or sign in</text><rect fill="#F1F1F1" height="33.7988" rx="5" ry="5" style="stroke:#181818;stroke-width:0.5;" width="270.7988" x="383.8223" y="145.8975"/><text fill="#000000" font-family="DejaVu Sans" font-size="12" lengthAdjust="spacing" textLength="250.7988" x="393.8223" y="167.1533">Search/filter by genre, date, city and availability</text><rect fill="#F1F1F1" height="33.7988" rx="5" ry="5" style="stroke:#181818;stroke-width:0.5;" width="189.4473" x="424.498" y="199.6963"/><text fill="#000000" font-family="DejaVu Sans" font-size="12" lengthAdjust="spacing" textLength="169.4473" x="434.498" y="220.9521">Open event and live venue map</text><rect fill="#F1F1F1" height="33.7988" rx="5" ry="5" style="stroke:#181818;stroke-width:0.5;" width="148.7188" x="444.8623" y="253.4951"/><text fill="#000000" font-family="DejaVu Sans" font-size="12" lengthAdjust="spacing" textLength="128.7188" x="454.8623" y="274.751">Join virtual waiting room</text><rect fill="#F1F1F1" height="33.7988" rx="5" ry="5" style="stroke:#181818;stroke-width:0.5;" width="234.8047" x="401.8193" y="364.0498"/><text fill="#000000" font-family="DejaVu Sans" font-size="12" lengthAdjust="spacing" textLength="214.8047" x="411.8193" y="385.3057">Show queue position and estimated wait</text><polygon fill="#F1F1F1" points="484.2061,429.1475,554.2373,429.1475,566.2373,441.1475,554.2373,453.1475,484.2061,453.1475,472.2061,441.1475,484.2061,429.1475" style="stroke:#181818;stroke-width:0.5;stroke-linejoin:miter;stroke-miterlimit:10;"/><text fill="#000000" font-family="DejaVu Sans" font-size="12" lengthAdjust="spacing" textLength="70.0313" x="484.2061" y="445.5039">User leaves?</text><text fill="#000000" font-family="DejaVu Sans" font-size="12" lengthAdjust="spacing" textLength="18.6738" x="566.2373" y="438.6045">yes</text><ellipse cx="606.9111" cy="441.1475" fill="none" rx="11" ry="11" style="stroke:#222222;stroke-width:1;"/><ellipse cx="606.9111" cy="441.1475" fill="#222222" rx="6" ry="6" style="stroke:#222222;stroke-width:1;"/><polygon fill="#F1F1F1" points="492.207,307.2939,546.2363,307.2939,558.2363,319.2939,546.2363,331.2939,492.207,331.2939,480.207,319.2939,492.207,307.2939" style="stroke:#181818;stroke-width:0.5;stroke-linejoin:miter;stroke-miterlimit:10;"/><text fill="#000000" font-family="DejaVu Sans" font-size="12" lengthAdjust="spacing" textLength="13.3477" x="523.2217" y="342.5498">no</text><text fill="#000000" font-family="DejaVu Sans" font-size="12" lengthAdjust="spacing" textLength="54.0293" x="492.207" y="323.6504">Admitted?</text><text fill="#000000" font-family="DejaVu Sans" font-size="12" lengthAdjust="spacing" textLength="18.6738" x="461.5332" y="316.751">yes</text><rect fill="#F1F1F1" height="33.7988" rx="5" ry="5" style="stroke:#181818;stroke-width:0.5;" width="166.0918" x="436.1758" y="495.1475"/><text fill="#000000" font-family="DejaVu Sans" font-size="12" lengthAdjust="spacing" textLength="146.0918" x="446.1758" y="516.4033">Select 1..10 available seats</text><rect fill="#F1F1F1" height="33.7988" rx="5" ry="5" style="stroke:#181818;stroke-width:0.5;" width="216.1074" x="411.168" y="548.9463"/><text fill="#000000" font-family="DejaVu Sans" font-size="12" lengthAdjust="spacing" textLength="196.1074" x="421.168" y="570.2021">Submit admission token and seat set</text><polygon fill="#F1F1F1" points="460.5283,602.7451,577.915,602.7451,589.915,614.7451,577.915,626.7451,460.5283,626.7451,448.5283,614.7451,460.5283,602.7451" style="stroke:#181818;stroke-width:0.5;stroke-linejoin:miter;stroke-miterlimit:10;"/><text fill="#000000" font-family="DejaVu Sans" font-size="12" lengthAdjust="spacing" textLength="117.3867" x="460.5283" y="619.1016">Atomic lock acquired?</text><text fill="#000000" font-family="DejaVu Sans" font-size="12" lengthAdjust="spacing" textLength="13.3477" x="435.1807" y="612.2021">no</text><text fill="#000000" font-family="DejaVu Sans" font-size="12" lengthAdjust="spacing" textLength="18.6738" x="589.915" y="612.2021">yes</text><rect fill="#F1F1F1" height="33.7988" rx="5" ry="5" style="stroke:#181818;stroke-width:0.5;" width="135.3828" x="336.3066" y="636.7451"/><text fill="#000000" font-family="DejaVu Sans" font-size="12" lengthAdjust="spacing" textLength="115.3828" x="346.3066" y="658.001">Refresh live inventory</text><rect fill="#F1F1F1" height="33.7988" rx="5" ry="5" style="stroke:#181818;stroke-width:0.5;" width="148.0684" x="329.9639" y="690.5439"/><text fill="#000000" font-family="DejaVu Sans" font-size="12" lengthAdjust="spacing" textLength="128.0684" x="339.9639" y="711.7998">Explain conflicting seats</text><ellipse cx="403.998" cy="755.3428" fill="none" rx="11" ry="11" style="stroke:#222222;stroke-width:1;"/><ellipse cx="403.998" cy="755.3428" fill="#222222" rx="6" ry="6" style="stroke:#222222;stroke-width:1;"/><rect fill="#F1F1F1" height="33.7988" rx="5" ry="5" style="stroke:#181818;stroke-width:0.5;" width="272.8262" x="498.0322" y="636.7451"/><text fill="#000000" font-family="DejaVu Sans" font-size="12" lengthAdjust="spacing" textLength="252.8262" x="508.0322" y="658.001">Show 10-minute countdown and price snapshot</text><rect fill="#F1F1F1" height="33.7988" rx="5" ry="5" style="stroke:#181818;stroke-width:0.5;" width="150.7344" x="443.8545" y="835.2422"/><text fill="#000000" font-family="DejaVu Sans" font-size="12" lengthAdjust="spacing" textLength="130.7344" x="453.8545" y="856.498">Compensate reservation</text><rect fill="#F1F1F1" height="33.7988" rx="5" ry="5" style="stroke:#181818;stroke-width:0.5;" width="182.75" x="427.8467" y="889.041"/><text fill="#000000" font-family="DejaVu Sans" font-size="12" lengthAdjust="spacing" textLength="162.75" x="437.8467" y="910.2969">Release only owner-held locks</text><ellipse cx="519.2217" cy="953.8398" fill="none" rx="11" ry="11" style="stroke:#222222;stroke-width:1;"/><ellipse cx="519.2217" cy="953.8398" fill="#222222" rx="6" ry="6" style="stroke:#222222;stroke-width:1;"/><polygon fill="#F1F1F1" points="410.8379,786.3428,627.6055,786.3428,639.6055,798.3428,627.6055,810.3428,410.8379,810.3428,398.8379,798.3428,410.8379,786.3428" style="stroke:#181818;stroke-width:0.5;stroke-linejoin:miter;stroke-miterlimit:10;"/><text fill="#000000" font-family="DejaVu Sans" font-size="12" lengthAdjust="spacing" textLength="18.6738" x="523.2217" y="821.5986">yes</text><text fill="#000000" font-family="DejaVu Sans" font-size="12" lengthAdjust="spacing" textLength="216.7676" x="410.8379" y="802.6992">Cancel or timer expires before payment?</text><rect fill="#F1F1F1" height="33.7988" rx="5" ry="5" style="stroke:#181818;stroke-width:0.5;" width="157.4082" x="440.5176" y="1006.8398"/><text fill="#000000" font-family="DejaVu Sans" font-size="12" lengthAdjust="spacing" textLength="137.4082" x="450.5176" y="1028.0957">Start idempotent payment</text><polygon fill="#F1F1F1" points="97.3613,1060.6387,200.75,1060.6387,212.75,1072.6387,200.75,1084.6387,97.3613,1084.6387,85.3613,1072.6387,97.3613,1060.6387" style="stroke:#181818;stroke-width:0.5;stroke-linejoin:miter;stroke-miterlimit:10;"/><text fill="#000000" font-family="DejaVu Sans" font-size="12" lengthAdjust="spacing" textLength="43.3477" x="153.0557" y="1095.8945">success</text><text fill="#000000" font-family="DejaVu Sans" font-size="12" lengthAdjust="spacing" textLength="103.3887" x="97.3613" y="1076.9951">Gateway outcome?</text><rect fill="#F1F1F1" height="33.7988" rx="5" ry="5" style="stroke:#181818;stroke-width:0.5;" width="266.1113" x="16" y="1118.4375"/><text fill="#000000" font-family="DejaVu Sans" font-size="12" lengthAdjust="spacing" textLength="246.1113" x="26" y="1139.6934">Confirm reservation and book seats atomically</text><rect fill="#F1F1F1" height="33.7988" rx="5" ry="5" style="stroke:#181818;stroke-width:0.5;" width="212.1113" x="43" y="1186.0352"/><text fill="#000000" font-family="DejaVu Sans" font-size="12" lengthAdjust="spacing" textLength="192.1113" x="53" y="1207.291">Issue one signed-token QR per seat</text><rect fill="#F1F1F1" height="33.7988" rx="5" ry="5" style="stroke:#181818;stroke-width:0.5;" width="178.748" x="59.6816" y="1254.834"/><text fill="#000000" font-family="DejaVu Sans" font-size="12" lengthAdjust="spacing" textLength="158.748" x="69.6816" y="1276.0898">Publish payment/ticket events</text><rect fill="#F1F1F1" height="33.7988" rx="5" ry="5" style="stroke:#181818;stroke-width:0.5;" width="152.0527" x="73.0293" y="1323.6328"/><text fill="#000000" font-family="DejaVu Sans" font-size="12" lengthAdjust="spacing" textLength="132.0527" x="83.0293" y="1344.8887">Display and email tickets</text><polygon fill="#F1F1F1" points="403.8271,1060.6387,448.5283,1060.6387,460.5283,1072.6387,448.5283,1084.6387,403.8271,1084.6387,391.8271,1072.6387,403.8271,1060.6387" style="stroke:#181818;stroke-width:0.5;stroke-linejoin:miter;stroke-miterlimit:10;"/><text fill="#000000" font-family="DejaVu Sans" font-size="12" lengthAdjust="spacing" textLength="44.7012" x="403.8271" y="1076.9951">declined</text><text fill="#000000" font-family="DejaVu Sans" font-size="12" lengthAdjust="spacing" textLength="98.7188" x="460.5283" y="1070.0957">timeout / uncertain</text><rect fill="#F1F1F1" height="33.7988" rx="5" ry="5" style="stroke:#181818;stroke-width:0.5;" width="268.1328" x="292.1113" y="1104.6387"/><text fill="#000000" font-family="DejaVu Sans" font-size="12" lengthAdjust="spacing" textLength="248.1328" x="302.1113" y="1125.8945">Mark payment failed and reservation cancelled</text><rect fill="#F1F1F1" height="33.7988" rx="5" ry="5" style="stroke:#181818;stroke-width:0.5;" width="252.793" x="299.7813" y="1172.2363"/><text fill="#000000" font-family="DejaVu Sans" font-size="12" lengthAdjust="spacing" textLength="232.793" x="309.7813" y="1193.4922">Delete transient inventory and release locks</text><rect fill="#F1F1F1" height="33.7988" rx="5" ry="5" style="stroke:#181818;stroke-width:0.5;" width="103.3555" x="374.5" y="1241.0352"/><text fill="#000000" font-family="DejaVu Sans" font-size="12" lengthAdjust="spacing" textLength="83.3555" x="384.5" y="1262.291">Notify customer</text><rect fill="#F1F1F1" height="33.7988" rx="5" ry="5" style="stroke:#181818;stroke-width:0.5;" width="267.4707" x="671.2725" y="1116.9375"/><text fill="#000000" font-family="DejaVu Sans" font-size="12" lengthAdjust="spacing" textLength="247.4707" x="681.2725" y="1138.1934">Reconcile gateway status with bounded retries</text><polygon fill="#F1F1F1" points="760.9834,1184.5352,849.0322,1184.5352,861.0322,1196.5352,849.0322,1208.5352,760.9834,1208.5352,748.9834,1196.5352,760.9834,1184.5352" style="stroke:#181818;stroke-width:0.5;stroke-linejoin:miter;stroke-miterlimit:10;"/><text fill="#000000" font-family="DejaVu Sans" font-size="12" lengthAdjust="spacing" textLength="88.0488" x="760.9834" y="1200.8916">Confirmed paid?</text><text fill="#000000" font-family="DejaVu Sans" font-size="12" lengthAdjust="spacing" textLength="18.6738" x="730.3096" y="1193.9922">yes</text><text fill="#000000" font-family="DejaVu Sans" font-size="12" lengthAdjust="spacing" textLength="13.3477" x="861.0322" y="1193.9922">no</text><rect fill="#F1F1F1" height="33.7988" rx="5" ry="5" style="stroke:#181818;stroke-width:0.5;" width="203.4277" x="590.2441" y="1218.5352"/><text fill="#000000" font-family="DejaVu Sans" font-size="12" lengthAdjust="spacing" textLength="183.4277" x="600.2441" y="1239.791">Run idempotent success transition</text><rect fill="#F1F1F1" height="33.7988" rx="5" ry="5" style="stroke:#181818;stroke-width:0.5;" width="86.0234" x="648.9463" y="1287.334"/><text fill="#000000" font-family="DejaVu Sans" font-size="12" lengthAdjust="spacing" textLength="66.0234" x="658.9463" y="1308.5898">Issue tickets</text><rect fill="#F1F1F1" height="33.7988" rx="5" ry="5" style="stroke:#181818;stroke-width:0.5;" width="208.7715" x="813.6719" y="1218.5352"/><text fill="#000000" font-family="DejaVu Sans" font-size="12" lengthAdjust="spacing" textLength="188.7715" x="823.6719" y="1239.791">Expire and compensate reservation</text><polygon fill="#F1F1F1" points="805.0078,1327.1328,817.0078,1339.1328,805.0078,1351.1328,793.0078,1339.1328,805.0078,1327.1328" style="stroke:#181818;stroke-width:0.5;stroke-linejoin:miter;stroke-miterlimit:10;"/><ellipse cx="519.2217" cy="1408.4316" fill="none" rx="11" ry="11" style="stroke:#222222;stroke-width:1;"/><ellipse cx="519.2217" cy="1408.4316" fill="#222222" rx="6" ry="6" style="stroke:#222222;stroke-width:1;"/><line style="stroke:#334155;stroke-width:1.2;" x1="519.2217" x2="519.2217" y1="72.0986" y2="92.0986"/><polygon fill="#334155" points="515.2217,82.0986,519.2217,92.0986,523.2217,82.0986,519.2217,86.0986" style="stroke:#334155;stroke-width:1;stroke-linejoin:miter;stroke-miterlimit:10;"/><line style="stroke:#334155;stroke-width:1.2;" x1="519.2217" x2="519.2217" y1="125.8975" y2="145.8975"/><polygon fill="#334155" points="515.2217,135.8975,519.2217,145.8975,523.2217,135.8975,519.2217,139.8975" style="stroke:#334155;stroke-width:1;stroke-linejoin:miter;stroke-miterlimit:10;"/><line style="stroke:#334155;stroke-width:1.2;" x1="519.2217" x2="519.2217" y1="179.6963" y2="199.6963"/><polygon fill="#334155" points="515.2217,189.6963,519.2217,199.6963,523.2217,189.6963,519.2217,193.6963" style="stroke:#334155;stroke-width:1;stroke-linejoin:miter;stroke-miterlimit:10;"/><line style="stroke:#334155;stroke-width:1.2;" x1="519.2217" x2="519.2217" y1="233.4951" y2="253.4951"/><polygon fill="#334155" points="515.2217,243.4951,519.2217,253.4951,523.2217,243.4951,519.2217,247.4951" style="stroke:#334155;stroke-width:1;stroke-linejoin:miter;stroke-miterlimit:10;"/><line style="stroke:#334155;stroke-width:1.2;" x1="519.2217" x2="519.2217" y1="453.1475" y2="463.1475"/><line style="stroke:#334155;stroke-width:1.2;" x1="519.2217" x2="648.624" y1="463.1475" y2="463.1475"/><polygon fill="#334155" points="644.624,421.8486,648.624,411.8486,652.624,421.8486,648.624,417.8486" style="stroke:#334155;stroke-width:1.2;stroke-linejoin:miter;stroke-miterlimit:10;"/><line style="stroke:#334155;stroke-width:1.2;" x1="648.624" x2="648.624" y1="319.2939" y2="463.1475"/><line style="stroke:#334155;stroke-width:1.2;" x1="648.624" x2="558.2363" y1="319.2939" y2="319.2939"/><polygon fill="#334155" points="568.2363,315.2939,558.2363,319.2939,568.2363,323.2939,564.2363,319.2939" style="stroke:#334155;stroke-width:1;stroke-linejoin:miter;stroke-miterlimit:10;"/><line style="stroke:#334155;stroke-width:1.2;" x1="566.2373" x2="595.9111" y1="441.1475" y2="441.1475"/><polygon fill="#334155" points="585.9111,437.1475,595.9111,441.1475,585.9111,445.1475,589.9111,441.1475" style="stroke:#334155;stroke-width:1;stroke-linejoin:miter;stroke-miterlimit:10;"/><line style="stroke:#334155;stroke-width:1.2;" x1="519.2217" x2="519.2217" y1="397.8486" y2="429.1475"/><polygon fill="#334155" points="515.2217,419.1475,519.2217,429.1475,523.2217,419.1475,519.2217,423.1475" style="stroke:#334155;stroke-width:1;stroke-linejoin:miter;stroke-miterlimit:10;"/><line style="stroke:#334155;stroke-width:1.2;" x1="519.2217" x2="519.2217" y1="331.2939" y2="364.0498"/><polygon fill="#334155" points="515.2217,354.0498,519.2217,364.0498,523.2217,354.0498,519.2217,358.0498" style="stroke:#334155;stroke-width:1;stroke-linejoin:miter;stroke-miterlimit:10;"/><line style="stroke:#334155;stroke-width:1.2;" x1="480.207" x2="389.8193" y1="319.2939" y2="319.2939"/><polygon fill="#334155" points="385.8193,407.8486,389.8193,417.8486,393.8193,407.8486,389.8193,411.8486" style="stroke:#334155;stroke-width:1.2;stroke-linejoin:miter;stroke-miterlimit:10;"/><line style="stroke:#334155;stroke-width:1.2;" x1="389.8193" x2="389.8193" y1="319.2939" y2="475.1475"/><line style="stroke:#334155;stroke-width:1.2;" x1="389.8193" x2="519.2217" y1="475.1475" y2="475.1475"/><line style="stroke:#334155;stroke-width:1.2;" x1="519.2217" x2="519.2217" y1="475.1475" y2="495.1475"/><polygon fill="#334155" points="515.2217,485.1475,519.2217,495.1475,523.2217,485.1475,519.2217,489.1475" style="stroke:#334155;stroke-width:1;stroke-linejoin:miter;stroke-miterlimit:10;"/><line style="stroke:#334155;stroke-width:1.2;" x1="519.2217" x2="519.2217" y1="287.2939" y2="307.2939"/><polygon fill="#334155" points="515.2217,297.2939,519.2217,307.2939,523.2217,297.2939,519.2217,301.2939" style="stroke:#334155;stroke-width:1;stroke-linejoin:miter;stroke-miterlimit:10;"/><line style="stroke:#334155;stroke-width:1.2;" x1="519.2217" x2="519.2217" y1="528.9463" y2="548.9463"/><polygon fill="#334155" points="515.2217,538.9463,519.2217,548.9463,523.2217,538.9463,519.2217,542.9463" style="stroke:#334155;stroke-width:1;stroke-linejoin:miter;stroke-miterlimit:10;"/><line style="stroke:#334155;stroke-width:1.2;" x1="403.998" x2="403.998" y1="670.5439" y2="690.5439"/><polygon fill="#334155" points="399.998,680.5439,403.998,690.5439,407.998,680.5439,403.998,684.5439" style="stroke:#334155;stroke-width:1;stroke-linejoin:miter;stroke-miterlimit:10;"/><line style="stroke:#334155;stroke-width:1.2;" x1="403.998" x2="403.998" y1="724.3428" y2="744.3428"/><polygon fill="#334155" points="399.998,734.3428,403.998,744.3428,407.998,734.3428,403.998,738.3428" style="stroke:#334155;stroke-width:1;stroke-linejoin:miter;stroke-miterlimit:10;"/><line style="stroke:#334155;stroke-width:1.2;" x1="448.5283" x2="403.998" y1="614.7451" y2="614.7451"/><line style="stroke:#334155;stroke-width:1.2;" x1="403.998" x2="403.998" y1="614.7451" y2="636.7451"/><polygon fill="#334155" points="399.998,626.7451,403.998,636.7451,407.998,626.7451,403.998,630.7451" style="stroke:#334155;stroke-width:1;stroke-linejoin:miter;stroke-miterlimit:10;"/><line style="stroke:#334155;stroke-width:1.2;" x1="589.915" x2="634.4453" y1="614.7451" y2="614.7451"/><line style="stroke:#334155;stroke-width:1.2;" x1="634.4453" x2="634.4453" y1="614.7451" y2="636.7451"/><polygon fill="#334155" points="630.4453,626.7451,634.4453,636.7451,638.4453,626.7451,634.4453,630.7451" style="stroke:#334155;stroke-width:1;stroke-linejoin:miter;stroke-miterlimit:10;"/><line style="stroke:#334155;stroke-width:1.2;" x1="634.4453" x2="634.4453" y1="670.5439" y2="771.3428"/><line style="stroke:#334155;stroke-width:1.2;" x1="634.4453" x2="519.2217" y1="771.3428" y2="771.3428"/><line style="stroke:#334155;stroke-width:1.2;" x1="519.2217" x2="519.2217" y1="771.3428" y2="786.3428"/><polygon fill="#334155" points="515.2217,776.3428,519.2217,786.3428,523.2217,776.3428,519.2217,780.3428" style="stroke:#334155;stroke-width:1;stroke-linejoin:miter;stroke-miterlimit:10;"/><line style="stroke:#334155;stroke-width:1.2;" x1="519.2217" x2="519.2217" y1="582.7451" y2="602.7451"/><polygon fill="#334155" points="515.2217,592.7451,519.2217,602.7451,523.2217,592.7451,519.2217,596.7451" style="stroke:#334155;stroke-width:1;stroke-linejoin:miter;stroke-miterlimit:10;"/><line style="stroke:#334155;stroke-width:1.2;" x1="519.2217" x2="519.2217" y1="869.041" y2="889.041"/><polygon fill="#334155" points="515.2217,879.041,519.2217,889.041,523.2217,879.041,519.2217,883.041" style="stroke:#334155;stroke-width:1;stroke-linejoin:miter;stroke-miterlimit:10;"/><line style="stroke:#334155;stroke-width:1.2;" x1="519.2217" x2="519.2217" y1="922.8398" y2="942.8398"/><polygon fill="#334155" points="515.2217,932.8398,519.2217,942.8398,523.2217,932.8398,519.2217,936.8398" style="stroke:#334155;stroke-width:1;stroke-linejoin:miter;stroke-miterlimit:10;"/><line style="stroke:#334155;stroke-width:1.2;" x1="519.2217" x2="519.2217" y1="810.3428" y2="835.2422"/><polygon fill="#334155" points="515.2217,825.2422,519.2217,835.2422,523.2217,825.2422,519.2217,829.2422" style="stroke:#334155;stroke-width:1;stroke-linejoin:miter;stroke-miterlimit:10;"/><line style="stroke:#334155;stroke-width:1.2;" x1="639.6055" x2="651.6055" y1="798.3428" y2="798.3428"/><polygon fill="#334155" points="647.6055,887.041,651.6055,897.041,655.6055,887.041,651.6055,891.041" style="stroke:#334155;stroke-width:1.2;stroke-linejoin:miter;stroke-miterlimit:10;"/><line style="stroke:#334155;stroke-width:1.2;" x1="651.6055" x2="651.6055" y1="798.3428" y2="986.8398"/><line style="stroke:#334155;stroke-width:1.2;" x1="651.6055" x2="519.2217" y1="986.8398" y2="986.8398"/><line style="stroke:#334155;stroke-width:1.2;" x1="519.2217" x2="519.2217" y1="986.8398" y2="1006.8398"/><polygon fill="#334155" points="515.2217,996.8398,519.2217,1006.8398,523.2217,996.8398,519.2217,1000.8398" style="stroke:#334155;stroke-width:1;stroke-linejoin:miter;stroke-miterlimit:10;"/><line style="stroke:#334155;stroke-width:1.2;" x1="149.0557" x2="149.0557" y1="1152.2363" y2="1186.0352"/><polygon fill="#334155" points="145.0557,1176.0352,149.0557,1186.0352,153.0557,1176.0352,149.0557,1180.0352" style="stroke:#334155;stroke-width:1;stroke-linejoin:miter;stroke-miterlimit:10;"/><line style="stroke:#334155;stroke-width:1.2;" x1="149.0557" x2="149.0557" y1="1219.834" y2="1254.834"/><polygon fill="#334155" points="145.0557,1244.834,149.0557,1254.834,153.0557,1244.834,149.0557,1248.834" style="stroke:#334155;stroke-width:1;stroke-linejoin:miter;stroke-miterlimit:10;"/><line style="stroke:#334155;stroke-width:1.2;" x1="149.0557" x2="149.0557" y1="1288.6328" y2="1323.6328"/><polygon fill="#334155" points="145.0557,1313.6328,149.0557,1323.6328,153.0557,1313.6328,149.0557,1317.6328" style="stroke:#334155;stroke-width:1;stroke-linejoin:miter;stroke-miterlimit:10;"/><line style="stroke:#334155;stroke-width:1.2;" x1="426.1777" x2="426.1777" y1="1138.4375" y2="1172.2363"/><polygon fill="#334155" points="422.1777,1162.2363,426.1777,1172.2363,430.1777,1162.2363,426.1777,1166.2363" style="stroke:#334155;stroke-width:1;stroke-linejoin:miter;stroke-miterlimit:10;"/><line style="stroke:#334155;stroke-width:1.2;" x1="426.1777" x2="426.1777" y1="1206.0352" y2="1241.0352"/><polygon fill="#334155" points="422.1777,1231.0352,426.1777,1241.0352,430.1777,1231.0352,426.1777,1235.0352" style="stroke:#334155;stroke-width:1;stroke-linejoin:miter;stroke-miterlimit:10;"/><line style="stroke:#334155;stroke-width:1.2;" x1="691.958" x2="691.958" y1="1252.334" y2="1287.334"/><polygon fill="#334155" points="687.958,1277.334,691.958,1287.334,695.958,1277.334,691.958,1281.334" style="stroke:#334155;stroke-width:1;stroke-linejoin:miter;stroke-miterlimit:10;"/><line style="stroke:#334155;stroke-width:1.2;" x1="748.9834" x2="691.958" y1="1196.5352" y2="1196.5352"/><line style="stroke:#334155;stroke-width:1.2;" x1="691.958" x2="691.958" y1="1196.5352" y2="1218.5352"/><polygon fill="#334155" points="687.958,1208.5352,691.958,1218.5352,695.958,1208.5352,691.958,1212.5352" style="stroke:#334155;stroke-width:1;stroke-linejoin:miter;stroke-miterlimit:10;"/><line style="stroke:#334155;stroke-width:1.2;" x1="861.0322" x2="918.0576" y1="1196.5352" y2="1196.5352"/><line style="stroke:#334155;stroke-width:1.2;" x1="918.0576" x2="918.0576" y1="1196.5352" y2="1218.5352"/><polygon fill="#334155" points="914.0576,1208.5352,918.0576,1218.5352,922.0576,1208.5352,918.0576,1212.5352" style="stroke:#334155;stroke-width:1;stroke-linejoin:miter;stroke-miterlimit:10;"/><line style="stroke:#334155;stroke-width:1.2;" x1="691.958" x2="691.958" y1="1321.1328" y2="1339.1328"/><line style="stroke:#334155;stroke-width:1.2;" x1="691.958" x2="793.0078" y1="1339.1328" y2="1339.1328"/><polygon fill="#334155" points="783.0078,1335.1328,793.0078,1339.1328,783.0078,1343.1328,787.0078,1339.1328" style="stroke:#334155;stroke-width:1;stroke-linejoin:miter;stroke-miterlimit:10;"/><line style="stroke:#334155;stroke-width:1.2;" x1="918.0576" x2="918.0576" y1="1252.334" y2="1339.1328"/><line style="stroke:#334155;stroke-width:1.2;" x1="918.0576" x2="817.0078" y1="1339.1328" y2="1339.1328"/><polygon fill="#334155" points="827.0078,1335.1328,817.0078,1339.1328,827.0078,1343.1328,823.0078,1339.1328" style="stroke:#334155;stroke-width:1;stroke-linejoin:miter;stroke-miterlimit:10;"/><line style="stroke:#334155;stroke-width:1.2;" x1="805.0078" x2="805.0078" y1="1150.7363" y2="1184.5352"/><polygon fill="#334155" points="801.0078,1174.5352,805.0078,1184.5352,809.0078,1174.5352,805.0078,1178.5352" style="stroke:#334155;stroke-width:1;stroke-linejoin:miter;stroke-miterlimit:10;"/><line style="stroke:#334155;stroke-width:1.2;" x1="149.0557" x2="149.0557" y1="1084.6387" y2="1118.4375"/><polygon fill="#334155" points="145.0557,1108.4375,149.0557,1118.4375,153.0557,1108.4375,149.0557,1112.4375" style="stroke:#334155;stroke-width:1;stroke-linejoin:miter;stroke-miterlimit:10;"/><line style="stroke:#334155;stroke-width:1.2;" x1="149.0557" x2="149.0557" y1="1357.4316" y2="1377.4316"/><polygon fill="#334155" points="145.0557,1367.4316,149.0557,1377.4316,153.0557,1367.4316,149.0557,1371.4316" style="stroke:#334155;stroke-width:1;stroke-linejoin:miter;stroke-miterlimit:10;"/><line style="stroke:#334155;stroke-width:1.2;" x1="426.1777" x2="426.1777" y1="1084.6387" y2="1104.6387"/><polygon fill="#334155" points="422.1777,1094.6387,426.1777,1104.6387,430.1777,1094.6387,426.1777,1098.6387" style="stroke:#334155;stroke-width:1;stroke-linejoin:miter;stroke-miterlimit:10;"/><line style="stroke:#334155;stroke-width:1.2;" x1="426.1777" x2="426.1777" y1="1274.834" y2="1377.4316"/><polygon fill="#334155" points="422.1777,1367.4316,426.1777,1377.4316,430.1777,1367.4316,426.1777,1371.4316" style="stroke:#334155;stroke-width:1;stroke-linejoin:miter;stroke-miterlimit:10;"/><line style="stroke:#334155;stroke-width:1.2;" x1="212.75" x2="391.8271" y1="1072.6387" y2="1072.6387"/><polygon fill="#334155" points="381.8271,1068.6387,391.8271,1072.6387,381.8271,1076.6387,385.8271,1072.6387" style="stroke:#334155;stroke-width:1;stroke-linejoin:miter;stroke-miterlimit:10;"/><line style="stroke:#334155;stroke-width:1.2;" x1="519.2217" x2="519.2217" y1="1040.6387" y2="1045.6387"/><line style="stroke:#334155;stroke-width:1.2;" x1="519.2217" x2="149.0557" y1="1045.6387" y2="1045.6387"/><line style="stroke:#334155;stroke-width:1.2;" x1="149.0557" x2="149.0557" y1="1045.6387" y2="1060.6387"/><polygon fill="#334155" points="145.0557,1050.6387,149.0557,1060.6387,153.0557,1050.6387,149.0557,1054.6387" style="stroke:#334155;stroke-width:1;stroke-linejoin:miter;stroke-miterlimit:10;"/><line style="stroke:#334155;stroke-width:1.2;" x1="460.5283" x2="805.0078" y1="1072.6387" y2="1072.6387"/><line style="stroke:#334155;stroke-width:1.2;" x1="805.0078" x2="805.0078" y1="1072.6387" y2="1116.9375"/><polygon fill="#334155" points="801.0078,1106.9375,805.0078,1116.9375,809.0078,1106.9375,805.0078,1110.9375" style="stroke:#334155;stroke-width:1;stroke-linejoin:miter;stroke-miterlimit:10;"/><line style="stroke:#334155;stroke-width:1.2;" x1="805.0078" x2="805.0078" y1="1351.1328" y2="1377.4316"/><polygon fill="#334155" points="801.0078,1367.4316,805.0078,1377.4316,809.0078,1367.4316,805.0078,1371.4316" style="stroke:#334155;stroke-width:1;stroke-linejoin:miter;stroke-miterlimit:10;"/><line style="stroke:#334155;stroke-width:1.2;" x1="149.0557" x2="805.0078" y1="1377.4316" y2="1377.4316"/><line style="stroke:#334155;stroke-width:1.2;" x1="519.2217" x2="519.2217" y1="1377.4316" y2="1397.4316"/><polygon fill="#334155" points="515.2217,1387.4316,519.2217,1397.4316,523.2217,1387.4316,519.2217,1391.4316" style="stroke:#334155;stroke-width:1;stroke-linejoin:miter;stroke-miterlimit:10;"/><?plantuml-src TLJDRXCn4BxdAOPRAj6qlMuEg6eHeX9GKl40ZdSsEuhNtledwTvu29wG9-6plOaY41ShoNZ6tz_adLXjKiiKUnvu9MamYoZHC3sa4Dt0dfwJrxqAJ4ykUSiJ_VxvY-vrb8F4YHv5xRmQ5Y4g7nVDXdSI8hgSfo0xIsBNY-Q55MRST69oQJlHZgtdzzIgY5FdESgsf0vAZDgAmG_e-ZQo9JwmZQLgvC24RubfK2FgJqui7SJ7f0mTbKInE_BE3Ul5iHTGMDwtWyJ8xOShaa1BwwuMHCrBxuxqcXY3HXVGvcnvW4EK0OZQCcoDgzBHyaS0PCFgm05Z89EbvSGXJoA2H2C-i6sbM-2Storri3Qi8zsjLdUt9swe1bOnP57I5kX80MC86KDqUwv8yXKSm90HtCC7qMIStfFIhqbyOLIXp9mst7aEVHL9R1RD-IbpQ3w-ZKP1AUriPqGNbMOCCm4sWS-agZntjzU3s1GPRSd6rXqhij6B1WMhnj0xuAlCCye7PJMRx3jKX6JyDW9ee2rtpaDfDGq0zRU4pOCRO7E0x8JRx0yg-x6kd20xa3bh9W80zjSzcxO8SG6-86XUSlv8MXv65tDavWUhX9ym_wWm9KMDK9zHXAGrXnCIsuaVBc4KobldzbKmKiK9PKnLzdC8ASFZ4dLkhwk3tpSqGe3SKguzfwqHU3CZkecYznnhiWkFvb42FAfBm0E2GlKEgjcRpA1bRGHl5AXVbD-Vnb67-yXixhs4heiVgDGNe2KaZbxP8Bdhd96viKfzbhRvwg9q4-dvNs0zXoHx2n7fXXB6-uXWpVb3l7GE_swM6dy8CGKwIkmXOR8jvsUY5mwdrPeLHs5KqlwxNSqcsKjBPxTc5gUSd8quQuQ5B63hRjGLG1OBK_tVl9sN66TErXy0?></g></svg>