<svg xmlns="http://www.w3.org/2000/svg" xmlns:xlink="http://www.w3.org/1999/xlink" contentStyleType="text/css" data-diagram-type="STATE" height="469px" preserveAspectRatio="none" style="width:872px;height:469px;background:#FFFFFF;" version="1.1" viewBox="0 0 872 469" width="872px" zoomAndPan="magnify"><?plantuml $version$?><defs/><g><g class="title" data-source-line="2"><text fill="#000000" font-family="DejaVu Sans" font-size="14" font-weight="700" lengthAdjust="spacing" textLength="269.1855" x="298.047" y="23.1318">Reservation Aggregate &#8212; State Machine</text></g><g class="entity" data-qualified-name="PENDING" data-source-line="4" id="ent0001"><rect fill="#F1F1F1" height="50" rx="5" ry="5" style="stroke:#181818;stroke-width:0.5;" width="192.084" x="328.85" y="159.6886"/><line style="stroke:#181818;stroke-width:0.5;" x1="328.85" x2="520.934" y1="183.4875" y2="183.4875"/><text fill="#000000" font-family="DejaVu Sans" font-size="12" lengthAdjust="spacing" textLength="54.6738" x="397.5551" y="175.9445">PENDING</text><text fill="#000000" font-family="DejaVu Sans" font-size="12" lengthAdjust="spacing" textLength="172.084" x="333.85" y="199.7433">entry / expiresAt = now + 10 min</text></g><g class="entity" data-qualified-name="CONFIRMED" data-source-line="8" id="ent0002"><rect fill="#F1F1F1" height="50" rx="5" ry="5" style="stroke:#181818;stroke-width:0.5;" width="218.7383" x="38.53" y="306.2886"/><line style="stroke:#181818;stroke-width:0.5;" x1="38.53" x2="257.2683" y1="330.0875" y2="330.0875"/><text fill="#000000" font-family="DejaVu Sans" font-size="12" lengthAdjust="spacing" textLength="72.6621" x="111.5681" y="322.5445">CONFIRMED</text><text fill="#000000" font-family="DejaVu Sans" font-size="12" lengthAdjust="spacing" textLength="198.7383" x="43.53" y="346.3433">entry / seats BOOKED; tickets issued</text></g><g class="entity" data-qualified-name="CANCELLED" data-source-line="9" id="ent0003"><rect fill="#F1F1F1" height="50" rx="5" ry="5" style="stroke:#181818;stroke-width:0.5;" width="264.7695" x="292.51" y="306.2886"/><line style="stroke:#181818;stroke-width:0.5;" x1="292.51" x2="557.2795" y1="330.0875" y2="330.0875"/><text fill="#000000" font-family="DejaVu Sans" font-size="12" lengthAdjust="spacing" textLength="72.0234" x="388.883" y="322.5445">CANCELLED</text><text fill="#000000" font-family="DejaVu Sans" font-size="12" lengthAdjust="spacing" textLength="244.7695" x="297.51" y="346.3433">entry / transient rows removed; locks released</text></g><g class="entity" data-qualified-name="EXPIRED" data-source-line="10" id="ent0004"><rect fill="#F1F1F1" height="50" rx="5" ry="5" style="stroke:#181818;stroke-width:0.5;" width="264.7695" x="592.51" y="306.2886"/><line style="stroke:#181818;stroke-width:0.5;" x1="592.51" x2="857.2795" y1="330.0875" y2="330.0875"/><text fill="#000000" font-family="DejaVu Sans" font-size="12" lengthAdjust="spacing" textLength="52.6816" x="698.5539" y="322.5445">EXPIRED</text><text fill="#000000" font-family="DejaVu Sans" font-size="12" lengthAdjust="spacing" textLength="244.7695" x="597.51" y="346.3433">entry / transient rows removed; locks released</text></g><g class="start_entity" data-qualified-name=".start." data-source-line="3" id="ent0005"><ellipse cx="424.9" cy="53.0986" fill="#222222" rx="10" ry="10" style="stroke:#222222;stroke-width:1;"/></g><g class="end_entity" data-qualified-name=".end." data-source-line="11" id="ent0010"><ellipse cx="424.9" cy="436.0886" fill="none" rx="11" ry="11" style="stroke:#222222;stroke-width:1;"/><ellipse cx="424.9" cy="436.0886" fill="#222222" rx="6" ry="6" style="stroke:#222222;stroke-width:1;"/></g><g class="entity" data-qualified-name="GMN14" data-source-line="15" id="ent0015"><path d="M556.35,157.0986 L556.35,180.6886 L521.24,184.6886 L556.35,188.6886 L556.35,212.2939 A5,5 0 0 0 561.35,217.2939 L774.4457,217.2939 A5,5 0 0 0 779.4457,212.2939 L779.4457,162.0986 L769.4457,152.0986 L561.35,152.0986 A5,5 0 0 0 556.35,157.0986" fill="#FEFCE8" style="stroke:#CA8A04;stroke-width:0.5;"/><path d="M769.4457,152.0986 L769.4457,159.5986 A2.5,2.5 0 0 0 771.9457,162.0986 L779.4457,162.0986 L769.4457,152.0986" fill="#FEFCE8" style="stroke:#CA8A04;stroke-width:0.5;"/><text fill="#000000" font-family="DejaVu Sans" font-size="12" lengthAdjust="spacing" textLength="42.6855" x="562.35" y="168.3545">Guards:</text><text fill="#000000" font-family="DejaVu Sans" font-size="12" lengthAdjust="spacing" textLength="202.0957" x="562.35" y="182.1533">- admission token matches user/event</text><text fill="#000000" font-family="DejaVu Sans" font-size="12" lengthAdjust="spacing" textLength="168.0527" x="562.35" y="195.9521">- Redis multi-key lock succeeds</text><text fill="#000000" font-family="DejaVu Sans" font-size="12" lengthAdjust="spacing" textLength="160.7168" x="562.35" y="209.751">- DB UNIQUE(eventId, seatId)</text></g><g class="entity" data-qualified-name="GMN17" data-source-line="21" id="ent0018"><path d="M6,422.2886 L6,449.8863 A5,5 0 0 0 11,454.8863 L284.793,454.8863 A5,5 0 0 0 289.793,449.8863 L289.793,427.2886 L279.793,417.2886 L151.9,417.2886 L147.9,356.6486 L143.9,417.2886 L11,417.2886 A5,5 0 0 0 6,422.2886" fill="#FEFCE8" style="stroke:#CA8A04;stroke-width:0.5;"/><path d="M279.793,417.2886 L279.793,424.7886 A2.5,2.5 0 0 0 282.293,427.2886 L289.793,427.2886 L279.793,417.2886" fill="#FEFCE8" style="stroke:#CA8A04;stroke-width:0.5;"/><text fill="#000000" font-family="DejaVu Sans" font-size="12" lengthAdjust="spacing" textLength="191.4199" x="12" y="433.5445">Terminal transitions are idempotent.</text><text fill="#000000" font-family="DejaVu Sans" font-size="12" lengthAdjust="spacing" textLength="262.793" x="12" y="447.3433">A late duplicate callback returns the same tickets.</text></g><!--link *start* to PENDING--><g class="link" data-entity-1="ent0005" data-entity-2="ent0001" data-link-type="dependency" data-source-line="3" id="lnk6"><path d="M424.9,63.4186 C424.9,83.2686 424.9,125.2586 424.9,154.2886" fill="none" id="*start*-to-PENDING" style="stroke:#334155;stroke-width:1.2;"/><polygon fill="#334155" points="424.9,159.2886,428.9,150.2886,424.9,154.2886,420.9,150.2886,424.9,159.2886" style="stroke:#334155;stroke-width:1.2;stroke-linejoin:miter;stroke-miterlimit:10;"/><text fill="#000000" font-family="DejaVu Sans" font-size="12" lengthAdjust="spacing" textLength="115.3828" x="425.9" y="105.3545">atomic locks acquired</text><text fill="#000000" font-family="DejaVu Sans" font-size="12" lengthAdjust="spacing" textLength="111.3867" x="427.898" y="119.1533">reservation persisted</text></g><!--link PENDING to CONFIRMED--><g class="link" data-entity-1="ent0001" data-entity-2="ent0002" data-link-type="dependency" data-source-line="5" id="lnk7"><path d="M378.22,210.0586 C327.19,236.6986 250.3024,276.8349 199.1924,303.5149" fill="none" id="PENDING-to-CONFIRMED" style="stroke:#334155;stroke-width:1.2;"/><polygon fill="#334155" points="194.76,305.8286,204.5894,305.2098,199.1924,303.5149,200.8874,298.1179,194.76,305.8286" style="stroke:#334155;stroke-width:1.2;stroke-linejoin:miter;stroke-miterlimit:10;"/><text fill="#000000" font-family="DejaVu Sans" font-size="12" lengthAdjust="spacing" textLength="107.4023" x="303.98" y="259.5445">payment.succeeded</text><text fill="#000000" font-family="DejaVu Sans" font-size="12" lengthAdjust="spacing" textLength="76.0371" x="319.6626" y="273.3433">[before expiry]</text></g><!--link PENDING to CANCELLED--><g class="link" data-entity-1="ent0001" data-entity-2="ent0003" data-link-type="dependency" data-source-line="6" id="lnk8"><path d="M424.9,209.8986 C424.9,236.5886 424.9,274.2886 424.9,301.0086" fill="none" id="PENDING-to-CANCELLED" style="stroke:#334155;stroke-width:1.2;"/><polygon fill="#334155" points="424.9,306.0086,428.9,297.0086,424.9,301.0086,420.9,297.0086,424.9,306.0086" style="stroke:#334155;stroke-width:1.2;stroke-linejoin:miter;stroke-miterlimit:10;"/><text fill="#000000" font-family="DejaVu Sans" font-size="12" lengthAdjust="spacing" textLength="164.0977" x="425.9" y="266.5445">user.cancel / gateway.declined</text></g><!--link PENDING to EXPIRED--><g class="link" data-entity-1="ent0001" data-entity-2="ent0004" data-link-type="dependency" data-source-line="7" id="lnk9"><path d="M506.7,210.0986 C536.39,220.1286 569.77,232.8086 598.9,247.2886 C632.44,263.9686 663.77,284.9765 688.48,302.8665" fill="none" id="PENDING-to-EXPIRED" style="stroke:#334155;stroke-width:1.2;"/><polygon fill="#334155" points="692.53,305.7986,687.5858,297.2807,688.48,302.8665,682.8943,303.7607,692.53,305.7986" style="stroke:#334155;stroke-width:1.2;stroke-linejoin:miter;stroke-miterlimit:10;"/><text fill="#000000" font-family="DejaVu Sans" font-size="12" lengthAdjust="spacing" textLength="165.416" x="650.15" y="266.5445">TTL elapsed / payment.timeout</text></g><!--link CONFIRMED to *end*--><g class="link" data-entity-1="ent0002" data-entity-2="ent0010" data-link-type="dependency" data-source-line="11" id="lnk11"><path d="M213.89,356.7786 C282.06,382.0786 378.1827,417.7481 410.1227,429.6081" fill="none" id="CONFIRMED-to-*end*" style="stroke:#334155;stroke-width:1.2;"/><polygon fill="#334155" points="414.81,431.3486,407.7653,424.4659,410.1227,429.6081,404.9805,431.9656,414.81,431.3486" style="stroke:#334155;stroke-width:1.2;stroke-linejoin:miter;stroke-miterlimit:10;"/></g><!--link CANCELLED to *end*--><g class="link" data-entity-1="ent0003" data-entity-2="ent0010" data-link-type="dependency" data-source-line="12" id="lnk12"><path d="M424.9,356.6486 C424.9,378.2686 424.9,403.7886 424.9,419.6386" fill="none" id="CANCELLED-to-*end*" style="stroke:#334155;stroke-width:1.2;"/><polygon fill="#334155" points="424.9,424.6386,428.9,415.6386,424.9,419.6386,420.9,415.6386,424.9,424.6386" style="stroke:#334155;stroke-width:1.2;stroke-linejoin:miter;stroke-miterlimit:10;"/></g><!--link EXPIRED to *end*--><g class="link" data-entity-1="ent0004" data-entity-2="ent0010" data-link-type="dependency" data-source-line="13" id="lnk13"><path d="M653.42,356.7786 C579.24,382.1986 474.1199,418.2175 440.0699,429.8875" fill="none" id="EXPIRED-to-*end*" style="stroke:#334155;stroke-width:1.2;"/><polygon fill="#334155" points="435.34,431.5086,445.1507,432.3746,440.0699,429.8875,442.557,424.8067,435.34,431.5086" style="stroke:#334155;stroke-width:1.2;stroke-linejoin:miter;stroke-miterlimit:10;"/></g><?plantuml-src bPFDRjim3CVlVWhkjg-usxN51gIDLnXBdIvBWG5T3uh49aBquKbKCj_w47l2FSaeDqxIuswYmH_v9__qA-saIGg1rcYnrCcQWZGPX3b635j1sZiOhrO1Lu8G_ZxzWU-KNpT2hhN3ulxj0un6d-6sQYPrSmtd8CXRBS5ukOaWvA-a0wgVBfmKR3547GbLSSJGKUZW3F1toq0S4tm2vtVm3Zv-0AlT8JLtkverN-hvJJLXi1MTPRYCIKf4bNlTB_7H1tokrJsyHCVDLJMTzcXYIQKKJgBXpdd2dUXAXTBmQEe5LlsuhUSzj5XC0Ore8og6XkwaBVf4nQcoOQI8WY9SpcPVgya5a9ORv5Z7cBZ9gPu1e21Sr1n1yBi80QtVehhOxpIWGS7TYwEc_mIF8lDeRE69Yk7BK7o8dMVNWrwj2VpZO7S1S9r4KF6SNoCGol9KsM7o6tHW1SarndxFPxXbNNtQ79MEO9CXFTfWrwk3lNsnpvXSmbrJVxkhNlTKhTxtIwpLcmATWgpbMT3I4vzRLdIOYGiiCF352BFVHxuvFaK-2AtGjionOPms1fDFMQNMQ9bVKXYp52mc8AN03FyM48N5mRJoqFuV?></g></svg>