<svg xmlns="http://www.w3.org/2000/svg" xmlns:xlink="http://www.w3.org/1999/xlink" contentStyleType="text/css" data-diagram-type="DESCRIPTION" height="480px" preserveAspectRatio="none" style="width:353px;height:480px;background:#FFFFFF;" version="1.1" viewBox="0 0 353 480" width="353px" zoomAndPan="magnify"><?plantuml $version$?><defs/><g><!--cluster Platform--><g class="cluster" data-qualified-name="Platform" data-source-line="5" id="ent0004"><rect fill="none" height="457" rx="2.5" ry="2.5" style="stroke:#181818;stroke-width:1;" width="227.88" x="111.47" y="7"/><text fill="#000000" font-family="sans-serif" font-size="14" font-weight="700" lengthAdjust="spacing" textLength="56.7861" x="197.0169" y="22.1318">Platform</text></g><!--entity UC1--><g class="entity" data-qualified-name="Platform.UC1" data-source-line="6" id="ent0005"><ellipse cx="225.4117" cy="129.0043" fill="#F1F1F1" rx="79.4217" ry="18.2843" style="stroke:#181818;stroke-width:0.5;"/><text fill="#000000" font-family="sans-serif" font-size="14" lengthAdjust="spacing" textLength="129.9307" x="160.4464" y="133.5537">Discover/filter events</text></g><!--entity UC2--><g class="entity" data-qualified-name="Platform.UC2" data-source-line="7" id="ent0006"><ellipse cx="225.4147" cy="59.0049" fill="#F1F1F1" rx="70.7247" ry="16.5449" style="stroke:#181818;stroke-width:0.5;"/><text fill="#000000" font-family="sans-serif" font-size="14" lengthAdjust="spacing" textLength="108.9375" x="170.9459" y="63.5543">Join waiting room</text></g><!--entity UC3--><g class="entity" data-qualified-name="Platform.UC3" data-source-line="8" id="ent0007"><ellipse cx="225.4096" cy="278.9959" fill="#F1F1F1" rx="80.4296" ry="18.4859" style="stroke:#181818;stroke-width:0.5;"/><text fill="#000000" font-family="sans-serif" font-size="14" lengthAdjust="spacing" textLength="132.2959" x="159.2616" y="283.5452">Select and lock seats</text></g><!--entity UC4--><g class="entity" data-qualified-name="Platform.UC4" data-source-line="9" id="ent0008"><ellipse cx="225.4118" cy="203.9984" fill="#F1F1F1" rx="97.9418" ry="21.9884" style="stroke:#181818;stroke-width:0.5;"/><text fill="#000000" font-family="sans-serif" font-size="14" lengthAdjust="spacing" textLength="171.9785" x="139.4225" y="208.5477">Checkout and receive ticket</text></g><!--entity UC5--><g class="entity" data-qualified-name="Platform.UC5" data-source-line="10" id="ent0009"><ellipse cx="225.4052" cy="429.001" fill="#F1F1F1" rx="81.1052" ry="18.621" style="stroke:#181818;stroke-width:0.5;"/><text fill="#000000" font-family="sans-serif" font-size="14" lengthAdjust="spacing" textLength="133.875" x="158.4677" y="433.5503">Manage venue layout</text></g><!--entity UC6--><g class="entity" data-qualified-name="Platform.UC6" data-source-line="11" id="ent0010"><ellipse cx="225.4132" cy="353.9986" fill="#F1F1F1" rx="96.1932" ry="21.6386" style="stroke:#181818;stroke-width:0.5;"/><text fill="#000000" font-family="sans-serif" font-size="14" lengthAdjust="spacing" textLength="168.1094" x="141.3585" y="358.548">Manage events and pricing</text></g><!--entity Customer--><g class="entity" data-qualified-name="Customer" data-source-line="2" id="ent0001"><ellipse cx="36.7313" cy="137.45" fill="#F1F1F1" rx="8" ry="8" style="stroke:#181818;stroke-width:0.5;"/><path d="M36.7313,145.45 L36.7313,172.45 M23.7313,153.45 L49.7313,153.45 M36.7313,172.45 L23.7313,187.45 M36.7313,172.45 L49.7313,187.45" fill="none" style="stroke:#181818;stroke-width:0.5;"/><text fill="#000000" font-family="sans-serif" font-size="14" lengthAdjust="spacing" textLength="60.6826" x="6.39" y="202.0818">Customer</text></g><!--entity Organizer--><g class="entity" data-qualified-name="Organizer" data-source-line="3" id="ent0002"><ellipse cx="36.7344" cy="288.45" fill="#F1F1F1" rx="8" ry="8" style="stroke:#181818;stroke-width:0.5;"/><path d="M36.7344,296.45 L36.7344,323.45 M23.7344,304.45 L49.7344,304.45 M36.7344,323.45 L23.7344,338.45 M36.7344,323.45 L49.7344,338.45" fill="none" style="stroke:#181818;stroke-width:0.5;"/><text fill="#000000" font-family="sans-serif" font-size="14" lengthAdjust="spacing" textLength="61.4688" x="6" y="353.0818">Organizer</text></g><!--entity Admin--><g class="entity" data-qualified-name="Admin" data-source-line="4" id="ent0003"><ellipse cx="36.7313" cy="399.45" fill="#F1F1F1" rx="8" ry="8" style="stroke:#181818;stroke-width:0.5;"/><path d="M36.7313,407.45 L36.7313,434.45 M23.7313,415.45 L49.7313,415.45 M36.7313,434.45 L23.7313,449.45 M36.7313,434.45 L49.7313,449.45" fill="none" style="stroke:#181818;stroke-width:0.5;"/><text fill="#000000" font-family="sans-serif" font-size="14" lengthAdjust="spacing" textLength="39.6826" x="16.89" y="464.0818">Admin</text></g><!--link Customer to UC1--><g class="link" data-entity-1="ent0001" data-entity-2="ent0005" data-link-type="dependency" data-source-line="13" id="lnk11"><path d="M67.31,160.98 C93.43,155.66 127.3904,148.7468 159.9304,142.1268" fill="none" id="Customer-to-UC1" style="stroke:#181818;stroke-width:1;"/><polygon fill="#181818" points="164.83,141.13,155.2132,139.0045,159.9304,142.1268,156.8081,146.8439,164.83,141.13" style="stroke:#181818;stroke-width:1;stroke-linejoin:miter;stroke-miterlimit:10;"/></g><!--link Customer to UC2--><g class="link" data-entity-1="ent0001" data-entity-2="ent0006" data-link-type="dependency" data-source-line="14" id="lnk12"><path d="M64.67,128.59 C75.42,115.67 88.76,102.21 103.47,93 C122.23,81.25 140.2744,74.6729 161.0744,69.5629" fill="none" id="Customer-to-UC2" style="stroke:#181818;stroke-width:1;"/><polygon fill="#181818" points="165.93,68.37,156.2356,66.6327,161.0744,69.5629,158.1442,74.4017,165.93,68.37" style="stroke:#181818;stroke-width:1;stroke-linejoin:miter;stroke-miterlimit:10;"/></g><!--link Customer to UC3--><g class="link" data-entity-1="ent0001" data-entity-2="ent0007" data-link-type="dependency" data-source-line="15" id="lnk13"><path d="M63.93,205.54 C74.79,219.04 88.38,233.25 103.47,243 C120.86,254.23 137.0711,260.7463 156.6911,266.1763" fill="none" id="Customer-to-UC3" style="stroke:#181818;stroke-width:1;"/><polygon fill="#181818" points="161.51,267.51,153.903,261.2543,156.6911,266.1763,151.7691,268.9645,161.51,267.51" style="stroke:#181818;stroke-width:1;stroke-linejoin:miter;stroke-miterlimit:10;"/></g><!--link Customer to UC4--><g class="link" data-entity-1="ent0001" data-entity-2="ent0008" data-link-type="dependency" data-source-line="16" id="lnk14"><path d="M67.31,172.86 C89.73,177.3 116.6252,182.6388 145.7652,188.4088" fill="none" id="Customer-to-UC4" style="stroke:#181818;stroke-width:1;"/><polygon fill="#181818" points="150.67,189.38,142.6184,183.708,145.7652,188.4088,141.0645,191.5557,150.67,189.38" style="stroke:#181818;stroke-width:1;stroke-linejoin:miter;stroke-miterlimit:10;"/></g><!--link Organizer to UC6--><g class="link" data-entity-1="ent0002" data-entity-2="ent0010" data-link-type="dependency" data-source-line="17" id="lnk15"><path d="M67.73,323.78 C90.3,328.14 117.3207,333.3418 146.4707,338.9718" fill="none" id="Organizer-to-UC6" style="stroke:#181818;stroke-width:1;"/><polygon fill="#181818" points="151.38,339.92,143.3018,334.2859,146.4707,338.9718,141.7848,342.1407,151.38,339.92" style="stroke:#181818;stroke-width:1;stroke-linejoin:miter;stroke-miterlimit:10;"/></g><!--link Admin to UC5--><g class="link" data-entity-1="ent0003" data-entity-2="ent0009" data-link-type="dependency" data-source-line="18" id="lnk16"><path d="M57.01,429 C77.69,429 106.91,429 139.04,429" fill="none" id="Admin-to-UC5" style="stroke:#181818;stroke-width:1;"/><polygon fill="#181818" points="144.04,429,135.04,425,139.04,429,135.04,433,144.04,429" style="stroke:#181818;stroke-width:1;stroke-linejoin:miter;stroke-miterlimit:10;"/></g><!--link Admin to UC6--><g class="link" data-entity-1="ent0003" data-entity-2="ent0010" data-link-type="dependency" data-source-line="19" id="lnk17"><path d="M56.81,417.3 C69.68,409.72 87.21,400 103.47,393 C122.72,384.71 139.5714,378.7134 159.1414,372.5434" fill="none" id="Admin-to-UC6" style="stroke:#181818;stroke-width:1;"/><polygon fill="#181818" points="163.91,371.04,154.1237,369.9313,159.1414,372.5434,156.5293,377.5611,163.91,371.04" style="stroke:#181818;stroke-width:1;stroke-linejoin:miter;stroke-miterlimit:10;"/></g><?plantuml-src PP3TIiH038Nlvod2tY_Y_lHIa7ebY0lY0uHfEXiwdSXCsaN5TtViZgNMotFuafmSJws22aHsPuM68rbb2GQjIeHwI2eznIAVeyF07xE-RteEvcS4W_C49u_QIkpXqy2Go68Ys3nmiZ9Il6dPAqMWaOAc3M22r_fs0JuA1xWWAmS7KQGlp6x1l93Frm130rvi1ubmthLVSFMPR2V3bSm1YKS2PTkH5lgme9yme2F8mGO2Z-zvi537_zGr_xJuBRBDOGjRcI_pMnXijtVJUojZjpRsQ-DWvfQBKvcfvwAEVrJr3G00?></g></svg>