<svg xmlns="http://www.w3.org/2000/svg" xmlns:xlink="http://www.w3.org/1999/xlink" contentStyleType="text/css" data-diagram-type="DESCRIPTION" height="1464px" preserveAspectRatio="none" style="width:1291px;height:1464px;background:#FFFFFF;" version="1.1" viewBox="0 0 1291 1464" width="1291px" zoomAndPan="magnify"><?plantuml $version$?><defs/><g><g class="title" data-source-line="2"><text fill="#000000" font-family="DejaVu Sans" font-size="14" font-weight="700" lengthAdjust="spacing" textLength="308.875" x="488.0425" y="23.1318">Event Ticketing Platform &#8212; Use Case Diagram</text></g><!--cluster Event Ticketing Platform--><g class="cluster" data-qualified-name="Event Ticketing Platform" data-source-line="10" id="ent0007"><rect fill="#F8FAFC" height="847" rx="5" ry="5" style="stroke:#64748B;stroke-width:1;" width="1110.93" x="167.03" y="308.8886"/><text fill="#000000" font-family="DejaVu Sans" font-size="12" font-weight="700" lengthAdjust="spacing" textLength="140.6953" x="652.1473" y="322.1445">Event Ticketing Platform</text></g><!--entity Auth--><g class="entity" data-qualified-name="Event Ticketing Platform.Auth" data-source-line="11" id="ent0008"><ellipse cx="273.2029" cy="1125.8892" fill="#EFF6FF" rx="59.4529" ry="14.2906" style="stroke:#2563EB;stroke-width:0.5;"/><text fill="#000000" font-family="DejaVu Sans" font-size="12" lengthAdjust="spacing" textLength="89.373" x="228.5164" y="1129.2886">Register / sign in</text></g><!--entity Discover--><g class="entity" data-qualified-name="Event Ticketing Platform.Discover" data-source-line="12" id="ent0009"><ellipse cx="273.2018" cy="853.885" fill="#EFF6FF" rx="78.6818" ry="18.1364" style="stroke:#2563EB;stroke-width:0.5;"/><text fill="#000000" font-family="DejaVu Sans" font-size="12" lengthAdjust="spacing" textLength="134.7246" x="205.8394" y="857.2844">Discover and filter events</text></g><!--entity SeatMap--><g class="entity" data-qualified-name="Event Ticketing Platform.SeatMap" data-source-line="13" id="ent0010"><ellipse cx="273.2034" cy="921.8913" fill="#EFF6FF" rx="63.7634" ry="15.1527" style="stroke:#2563EB;stroke-width:0.5;"/><text fill="#000000" font-family="DejaVu Sans" font-size="12" lengthAdjust="spacing" textLength="100.043" x="223.182" y="925.2907">View live seat map</text></g><!--entity Queue--><g class="entity" data-qualified-name="Event Ticketing Platform.Queue" data-source-line="14" id="ent0011"><ellipse cx="916.7518" cy="1119.893" fill="#EFF6FF" rx="76.0218" ry="17.6044" style="stroke:#2563EB;stroke-width:0.5;"/><text fill="#000000" font-family="DejaVu Sans" font-size="12" lengthAdjust="spacing" textLength="128.7188" x="852.3924" y="1123.2924">Join virtual waiting room</text></g><!--entity Admission--><g class="entity" data-qualified-name="Event Ticketing Platform.Admission" data-source-line="15" id="ent0012"><ellipse cx="1183.873" cy="1077.8872" fill="#EFF6FF" rx="78.093" ry="18.0186" style="stroke:#2563EB;stroke-width:0.5;"/><text fill="#000000" font-family="DejaVu Sans" font-size="12" lengthAdjust="spacing" textLength="133.4004" x="1117.1728" y="1081.2867">Receive admission token</text></g><!--entity Lock--><g class="entity" data-qualified-name="Event Ticketing Platform.Lock" data-source-line="16" id="ent0013"><ellipse cx="916.7454" cy="1049.8837" fill="#EFF6FF" rx="72.2254" ry="16.8451" style="stroke:#2563EB;stroke-width:0.5;"/><text fill="#000000" font-family="DejaVu Sans" font-size="12" lengthAdjust="spacing" textLength="120.0352" x="856.7278" y="1053.2831">Temporarily lock seats</text></g><!--entity Cancel--><g class="entity" data-qualified-name="Event Ticketing Platform.Cancel" data-source-line="17" id="ent0014"><ellipse cx="273.2037" cy="991.8874" fill="#EFF6FF" rx="89.5437" ry="20.3087" style="stroke:#2563EB;stroke-width:0.5;"/><text fill="#000000" font-family="DejaVu Sans" font-size="12" lengthAdjust="spacing" textLength="158.7422" x="193.8326" y="995.2868">Cancel / let reservation expire</text></g><!--entity Pay--><g class="entity" data-qualified-name="Event Ticketing Platform.Pay" data-source-line="18" id="ent0015"><ellipse cx="644.5486" cy="880.8923" fill="#EFF6FF" rx="60.5186" ry="14.5037" style="stroke:#2563EB;stroke-width:0.5;"/><text fill="#000000" font-family="DejaVu Sans" font-size="12" lengthAdjust="spacing" textLength="92.0508" x="598.5232" y="884.2918">Pay idempotently</text></g><!--entity Compensate--><g class="entity" data-qualified-name="Event Ticketing Platform.Compensate" data-source-line="19" id="ent0016"><ellipse cx="273.2006" cy="636.8888" fill="#EFF6FF" rx="86.2006" ry="19.6401" style="stroke:#2563EB;stroke-width:0.5;"/><text fill="#000000" font-family="DejaVu Sans" font-size="12" lengthAdjust="spacing" textLength="151.4238" x="197.4887" y="640.2882">Compensate failed checkout</text></g><!--entity Ticket--><g class="entity" data-qualified-name="Event Ticketing Platform.Ticket" data-source-line="20" id="ent0017"><ellipse cx="273.2024" cy="1061.8931" fill="#EFF6FF" rx="62.1224" ry="14.8245" style="stroke:#2563EB;stroke-width:0.5;"/><text fill="#000000" font-family="DejaVu Sans" font-size="12" lengthAdjust="spacing" textLength="96.0293" x="225.1877" y="1065.2925">Receive QR ticket</text></g><!--entity Verify--><g class="entity" data-qualified-name="Event Ticketing Platform.Verify" data-source-line="21" id="ent0018"><ellipse cx="273.2005" cy="783.8887" fill="#EFF6FF" rx="70.5005" ry="16.5001" style="stroke:#2563EB;stroke-width:0.5;"/><text fill="#000000" font-family="DejaVu Sans" font-size="12" lengthAdjust="spacing" textLength="116.0391" x="215.1809" y="787.2881">Verify / check in ticket</text></g><!--entity Venue--><g class="entity" data-qualified-name="Event Ticketing Platform.Venue" data-source-line="22" id="ent0019"><ellipse cx="273.196" cy="494.8878" fill="#EFF6FF" rx="73.696" ry="17.1392" style="stroke:#2563EB;stroke-width:0.5;"/><text fill="#000000" font-family="DejaVu Sans" font-size="12" lengthAdjust="spacing" textLength="123.416" x="211.488" y="498.2872">Configure venue layout</text></g><!--entity Event--><g class="entity" data-qualified-name="Event Ticketing Platform.Event" data-source-line="23" id="ent0020"><ellipse cx="644.5539" cy="359.8854" fill="#EFF6FF" rx="83.1839" ry="19.0368" style="stroke:#2563EB;stroke-width:0.5;"/><text fill="#000000" font-family="DejaVu Sans" font-size="12" lengthAdjust="spacing" textLength="144.7676" x="572.1701" y="363.2848">Schedule event and pricing</text></g><!--entity Publish--><g class="entity" data-qualified-name="Event Ticketing Platform.Publish" data-source-line="24" id="ent0021"><ellipse cx="273.1951" cy="424.8916" fill="#EFF6FF" rx="74.8651" ry="17.373" style="stroke:#2563EB;stroke-width:0.5;"/><text fill="#000000" font-family="DejaVu Sans" font-size="12" lengthAdjust="spacing" textLength="126.0879" x="210.1511" y="428.2911">Publish or update event</text></g><!--entity Analytics--><g class="entity" data-qualified-name="Event Ticketing Platform.Analytics" data-source-line="25" id="ent0022"><ellipse cx="273.197" cy="356.892" fill="#EFF6FF" rx="66.817" ry="15.7634" style="stroke:#2563EB;stroke-width:0.5;"/><text fill="#000000" font-family="DejaVu Sans" font-size="12" lengthAdjust="spacing" textLength="107.3789" x="219.5075" y="360.2914">View sales analytics</text></g><!--entity Users--><g class="entity" data-qualified-name="Event Ticketing Platform.Users" data-source-line="26" id="ent0023"><ellipse cx="273.2021" cy="564.885" fill="#EFF6FF" rx="76.0321" ry="17.6064" style="stroke:#2563EB;stroke-width:0.5;"/><text fill="#000000" font-family="DejaVu Sans" font-size="12" lengthAdjust="spacing" textLength="128.7422" x="208.831" y="568.2845">Manage users and roles</text></g><!--entity Notify--><g class="entity" data-qualified-name="Event Ticketing Platform.Notify" data-source-line="27" id="ent0024"><ellipse cx="273.1975" cy="711.8921" fill="#EFF6FF" rx="90.1675" ry="20.4335" style="stroke:#2563EB;stroke-width:0.5;"/><text fill="#000000" font-family="DejaVu Sans" font-size="12" lengthAdjust="spacing" textLength="160.1016" x="193.1467" y="715.2915">Send transactional notification</text></g><!--entity Customer--><g class="entity" data-qualified-name="Customer" data-source-line="4" id="ent0001"><ellipse cx="63.0168" cy="1070.4886" fill="#F1F1F1" rx="8" ry="8" style="stroke:#0F766E;stroke-width:0.5;"/><path d="M63.0168,1078.4886 L63.0168,1105.4886 M50.0168,1086.4886 L76.0168,1086.4886 M63.0168,1105.4886 L50.0168,1120.4886 M63.0168,1105.4886 L76.0168,1120.4886" fill="none" style="stroke:#0F766E;stroke-width:0.5;"/><text fill="#134E4A" font-family="DejaVu Sans" font-size="12" lengthAdjust="spacing" textLength="52.0137" x="37.01" y="1133.2445">Customer</text></g><!--entity Organizer--><g class="entity" data-qualified-name="Organizer" data-source-line="5" id="ent0002"><ellipse cx="63.0138" cy="343.4886" fill="#F1F1F1" rx="8" ry="8" style="stroke:#0F766E;stroke-width:0.5;"/><path d="M63.0138,351.4886 L63.0138,378.4886 M50.0138,359.4886 L76.0138,359.4886 M63.0138,378.4886 L50.0138,393.4886 M63.0138,378.4886 L76.0138,393.4886" fill="none" style="stroke:#0F766E;stroke-width:0.5;"/><text fill="#134E4A" font-family="DejaVu Sans" font-size="12" lengthAdjust="spacing" textLength="52.6875" x="36.67" y="406.2445">Organizer</text></g><!--entity Admin--><g class="entity" data-qualified-name="Admin" data-source-line="6" id="ent0003"><ellipse cx="63.0146" cy="466.4886" fill="#F1F1F1" rx="8" ry="8" style="stroke:#0F766E;stroke-width:0.5;"/><path d="M63.0146,474.4886 L63.0146,501.4886 M50.0146,482.4886 L76.0146,482.4886 M63.0146,501.4886 L50.0146,516.4886 M63.0146,501.4886 L76.0146,516.4886" fill="none" style="stroke:#0F766E;stroke-width:0.5;"/><text fill="#134E4A" font-family="DejaVu Sans" font-size="12" lengthAdjust="spacing" textLength="114.0293" x="6" y="529.2445">System Administrator</text></g><!--entity Gateway--><g class="entity" data-qualified-name="Gateway" data-source-line="7" id="ent0004"><ellipse cx="273.1925" cy="227.4886" fill="#F1F1F1" rx="8" ry="8" style="stroke:#0F766E;stroke-width:0.5;"/><path d="M273.1925,235.4886 L273.1925,262.4886 M260.1925,243.4886 L286.1925,243.4886 M273.1925,262.4886 L260.1925,277.4886 M273.1925,262.4886 L286.1925,277.4886" fill="none" style="stroke:#0F766E;stroke-width:0.5;"/><text fill="#134E4A" font-family="DejaVu Sans" font-size="12" lengthAdjust="spacing" textLength="98.0449" x="224.17" y="290.2445">Payment Gateway</text></g><!--entity Provider--><g class="entity" data-qualified-name="Provider" data-source-line="8" id="ent0005"><ellipse cx="63.0146" cy="669.4886" fill="#F1F1F1" rx="8" ry="8" style="stroke:#0F766E;stroke-width:0.5;"/><path d="M63.0146,677.4886 L63.0146,704.4886 M50.0146,685.4886 L76.0146,685.4886 M63.0146,704.4886 L50.0146,719.4886 M63.0146,704.4886 L76.0146,719.4886" fill="none" style="stroke:#0F766E;stroke-width:0.5;"/><text fill="#134E4A" font-family="DejaVu Sans" font-size="12" lengthAdjust="spacing" textLength="114.0293" x="6" y="732.2445">Email / SMS Provider</text></g><!--entity Operator--><g class="entity" data-qualified-name="Operator" data-source-line="9" id="ent0006"><ellipse cx="63.0194" cy="778.4886" fill="#F1F1F1" rx="8" ry="8" style="stroke:#0F766E;stroke-width:0.5;"/><path d="M63.0194,786.4886 L63.0194,813.4886 M50.0194,794.4886 L76.0194,794.4886 M63.0194,813.4886 L50.0194,828.4886 M63.0194,813.4886 L76.0194,828.4886" fill="none" style="stroke:#0F766E;stroke-width:0.5;"/><text fill="#134E4A" font-family="DejaVu Sans" font-size="12" lengthAdjust="spacing" textLength="98.7188" x="13.66" y="841.2445">Entrance Operator</text></g><!--link Customer to Auth--><g class="link" data-entity-1="ent0001" data-entity-2="ent0008" data-link-type="dependency" data-source-line="29" id="lnk25"><path d="M89.13,1102.1486 C121.46,1106.3386 173.5014,1113.0963 215.3414,1118.5163" fill="none" id="Customer-to-Auth" style="stroke:#334155;stroke-width:1.2;"/><polygon fill="#334155" points="220.3,1119.1586,211.8884,1114.0356,215.3414,1118.5163,210.8607,1121.9693,220.3,1119.1586" style="stroke:#334155;stroke-width:1.2;stroke-linejoin:miter;stroke-miterlimit:10;"/></g><!--link Customer to Discover--><g class="link" data-entity-1="ent0001" data-entity-2="ent0009" data-link-type="dependency" data-source-line="30" id="lnk26"><path d="M71.04,1061.8286 C81.83,1014.9586 106.97,934.8286 159.03,888.8886 C172.45,877.0586 185.025,870.669 202.115,865.489" fill="none" id="Customer-to-Discover" style="stroke:#334155;stroke-width:1.2;"/><polygon fill="#334155" points="206.9,864.0386,197.1267,862.8212,202.115,865.489,199.4472,870.4773,206.9,864.0386" style="stroke:#334155;stroke-width:1.2;stroke-linejoin:miter;stroke-miterlimit:10;"/></g><!--link Customer to SeatMap--><g class="link" data-entity-1="ent0001" data-entity-2="ent0010" data-link-type="dependency" data-source-line="31" id="lnk27"><path d="M79.3,1061.5586 C94.7,1028.5186 121.54,981.4086 159.03,953.8886 C175.82,941.5686 192.3255,935.1447 211.9755,930.4747" fill="none" id="Customer-to-SeatMap" style="stroke:#334155;stroke-width:1.2;"/><polygon fill="#334155" points="216.84,929.3186,207.159,927.508,211.9755,930.4747,209.0088,935.2912,216.84,929.3186" style="stroke:#334155;stroke-width:1.2;stroke-linejoin:miter;stroke-miterlimit:10;"/></g><!--link Customer to Queue--><g class="link" data-entity-1="ent0001" data-entity-2="ent0011" data-link-type="dependency" data-source-line="32" id="lnk28"><path d="M68.75,1136.1186 C76.73,1181.3886 97.5,1255.9386 150.03,1289.8886 C396.64,1449.2986 554.27,1432.9086 810.73,1289.8886 C870.27,1256.6886 898.8686,1179.0953 909.6086,1142.5953" fill="none" id="Customer-to-Queue" style="stroke:#334155;stroke-width:1.2;"/><polygon fill="#334155" points="911.02,1137.7986,904.6422,1145.3035,909.6086,1142.5953,912.3168,1147.5617,911.02,1137.7986" style="stroke:#334155;stroke-width:1.2;stroke-linejoin:miter;stroke-miterlimit:10;"/></g><!--link Customer to Lock--><g class="link" data-entity-1="ent0001" data-entity-2="ent0013" data-link-type="dependency" data-source-line="33" id="lnk29"><path d="M89.46,1132.7586 C106.63,1152.6586 131.19,1175.9786 159.03,1186.8886 C243.58,1220.0286 273.03,1196.1986 363.36,1186.8886 C559.2,1166.7086 780.0875,1096.5621 870.4875,1065.7421" fill="none" id="Customer-to-Lock" style="stroke:#334155;stroke-width:1.2;"/><polygon fill="#334155" points="875.22,1064.1286,865.4107,1063.2468,870.4875,1065.7421,867.9922,1070.8189,875.22,1064.1286" style="stroke:#334155;stroke-width:1.2;stroke-linejoin:miter;stroke-miterlimit:10;"/></g><!--link Customer to Cancel--><g class="link" data-entity-1="ent0001" data-entity-2="ent0014" data-link-type="dependency" data-source-line="34" id="lnk30"><path d="M89.24,1077.2886 C107.62,1062.3786 133.66,1042.9686 159.03,1029.8886 C176.35,1020.9686 191.4444,1015.0129 209.6444,1009.1029" fill="none" id="Customer-to-Cancel" style="stroke:#334155;stroke-width:1.2;"/><polygon fill="#334155" points="214.4,1007.5586,204.6046,1006.5338,209.6444,1009.1029,207.0754,1014.1427,214.4,1007.5586" style="stroke:#334155;stroke-width:1.2;stroke-linejoin:miter;stroke-miterlimit:10;"/></g><!--link Customer to Pay--><g class="link" data-entity-1="ent0001" data-entity-2="ent0015" data-link-type="dependency" data-source-line="35" id="lnk31"><path d="M89.15,1119.9586 C107.29,1133.7286 133.07,1150.4886 159.03,1157.8886 C246.36,1182.7986 277.65,1187.8886 363.36,1157.8886 C502.82,1109.0886 603.9015,949.7638 632.8715,899.8138" fill="none" id="Customer-to-Pay" style="stroke:#334155;stroke-width:1.2;"/><polygon fill="#334155" points="635.38,895.4886,627.4045,901.2672,632.8715,899.8138,634.3248,905.2808,635.38,895.4886" style="stroke:#334155;stroke-width:1.2;stroke-linejoin:miter;stroke-miterlimit:10;"/></g><!--link Customer to Ticket--><g class="link" data-entity-1="ent0001" data-entity-2="ent0017" data-link-type="dependency" data-source-line="36" id="lnk32"><path d="M89.13,1094.4286 C122,1088.5886 175.4571,1079.083 217.4571,1071.623" fill="none" id="Customer-to-Ticket" style="stroke:#334155;stroke-width:1.2;"/><polygon fill="#334155" points="222.38,1070.7486,212.8192,1068.3842,217.4571,1071.623,214.2182,1076.2609,222.38,1070.7486" style="stroke:#334155;stroke-width:1.2;stroke-linejoin:miter;stroke-miterlimit:10;"/></g><!--link Organizer to Venue--><g class="link" data-entity-1="ent0002" data-entity-2="ent0019" data-link-type="dependency" data-source-line="37" id="lnk33"><path d="M89.62,401.6986 C107.39,420.7286 132.55,444.6086 159.03,459.8886 C176.93,470.2286 193.4084,476.4789 212.6584,481.9189" fill="none" id="Organizer-to-Venue" style="stroke:#334155;stroke-width:1.2;"/><polygon fill="#334155" points="217.47,483.2786,209.897,476.9819,212.6584,481.9189,207.7214,484.6804,217.47,483.2786" style="stroke:#334155;stroke-width:1.2;stroke-linejoin:miter;stroke-miterlimit:10;"/></g><!--link Organizer to Event--><g class="link" data-entity-1="ent0002" data-entity-2="ent0020" data-link-type="dependency" data-source-line="38" id="lnk34"><path d="M65.44,334.8086 C69.73,281.3486 86.38,184.1786 150.03,139.8886 C289.15,43.0986 386.84,51.3586 531.36,139.8886 C605.21,185.1286 631.4718,291.04 639.6418,335.78" fill="none" id="Organizer-to-Event" style="stroke:#334155;stroke-width:1.2;"/><polygon fill="#334155" points="640.54,340.6986,642.8582,331.1265,639.6418,335.78,634.9883,332.5636,640.54,340.6986" style="stroke:#334155;stroke-width:1.2;stroke-linejoin:miter;stroke-miterlimit:10;"/></g><!--link Organizer to Publish--><g class="link" data-entity-1="ent0002" data-entity-2="ent0021" data-link-type="dependency" data-source-line="39" id="lnk35"><path d="M89.54,378.3886 C122.22,386.7086 174.7647,400.0847 216.5047,410.7147" fill="none" id="Organizer-to-Publish" style="stroke:#334155;stroke-width:1.2;"/><polygon fill="#334155" points="221.35,411.9486,213.6156,405.8512,216.5047,410.7147,211.6412,413.6038,221.35,411.9486" style="stroke:#334155;stroke-width:1.2;stroke-linejoin:miter;stroke-miterlimit:10;"/></g><!--link Organizer to Analytics--><g class="link" data-entity-1="ent0002" data-entity-2="ent0022" data-link-type="dependency" data-source-line="40" id="lnk36"><path d="M89.54,370.0586 C119.07,367.9286 163.7929,364.708 203.9029,361.818" fill="none" id="Organizer-to-Analytics" style="stroke:#334155;stroke-width:1.2;"/><polygon fill="#334155" points="208.89,361.4586,199.6258,358.1158,203.9029,361.818,200.2007,366.0951,208.89,361.4586" style="stroke:#334155;stroke-width:1.2;stroke-linejoin:miter;stroke-miterlimit:10;"/></g><!--link Admin to Users--><g class="link" data-entity-1="ent0003" data-entity-2="ent0023" data-link-type="dependency" data-source-line="41" id="lnk37"><path d="M120.36,516.2086 C133.04,520.8486 146.46,525.6386 159.03,529.8886 C180.55,537.1786 199.7962,543.2442 220.1562,549.4342" fill="none" id="Admin-to-Users" style="stroke:#334155;stroke-width:1.2;"/><polygon fill="#334155" points="224.94,550.8886,217.4927,544.4437,220.1562,549.4342,215.1656,552.0977,224.94,550.8886" style="stroke:#334155;stroke-width:1.2;stroke-linejoin:miter;stroke-miterlimit:10;"/></g><!--link Admin to Venue--><g class="link" data-entity-1="ent0003" data-entity-2="ent0019" data-link-type="dependency" data-source-line="42" id="lnk38"><path d="M120.35,494.8886 C144.68,494.8886 168.44,494.8886 194.36,494.8886" fill="none" id="Admin-to-Venue" style="stroke:#334155;stroke-width:1.2;"/><polygon fill="#334155" points="199.36,494.8886,190.36,490.8886,194.36,494.8886,190.36,498.8886,199.36,494.8886" style="stroke:#334155;stroke-width:1.2;stroke-linejoin:miter;stroke-miterlimit:10;"/></g><!--link Admin to Event--><g class="link" data-entity-1="ent0003" data-entity-2="ent0020" data-link-type="dependency" data-source-line="43" id="lnk39"><path d="M99.79,457.8286 C107.53,448.0786 114.92,437.1286 120.03,425.8886 C161.89,333.9186 81.69,266.9286 159.03,201.8886 C305.97,78.3186 548.2045,274.4451 619.7345,338.0851" fill="none" id="Admin-to-Event" style="stroke:#334155;stroke-width:1.2;"/><polygon fill="#334155" points="623.47,341.4086,619.4048,332.4379,619.7345,338.0851,614.0872,338.4148,623.47,341.4086" style="stroke:#334155;stroke-width:1.2;stroke-linejoin:miter;stroke-miterlimit:10;"/></g><!--link Operator to Verify--><g class="link" data-entity-1="ent0006" data-entity-2="ent0018" data-link-type="dependency" data-source-line="44" id="lnk40"><path d="M112.82,801.4986 C141.43,798.3386 172.9103,794.8687 203.7203,791.4587" fill="none" id="Operator-to-Verify" style="stroke:#334155;stroke-width:1.2;"/><polygon fill="#334155" points="208.69,790.9086,199.3046,787.923,203.7203,791.4587,200.1846,795.8744,208.69,790.9086" style="stroke:#334155;stroke-width:1.2;stroke-linejoin:miter;stroke-miterlimit:10;"/></g><!--link Gateway to Pay--><g class="link" data-entity-1="ent0004" data-entity-2="ent0015" data-link-type="dependency" data-source-line="45" id="lnk41"><path d="M322.62,261.3786 C381.11,270.6786 478.23,295.0986 531.36,357.8886 C599.67,438.6186 634.773,784.6696 641.793,861.1596" fill="none" id="Gateway-to-Pay" style="stroke:#334155;stroke-width:1.2;"/><polygon fill="#334155" points="642.25,866.1386,645.4107,856.8107,641.793,861.1596,637.4442,857.5419,642.25,866.1386" style="stroke:#334155;stroke-width:1.2;stroke-linejoin:miter;stroke-miterlimit:10;"/></g><!--link Provider to Notify--><g class="link" data-entity-1="ent0005" data-entity-2="ent0024" data-link-type="dependency" data-source-line="46" id="lnk42"><path d="M120.35,701.6786 C140.7,703.0486 159.1713,704.2931 181.4713,705.7931" fill="none" id="Provider-to-Notify" style="stroke:#334155;stroke-width:1.2;"/><polygon fill="#334155" points="186.46,706.1286,177.7487,701.5336,181.4713,705.7931,177.2118,709.5156,186.46,706.1286" style="stroke:#334155;stroke-width:1.2;stroke-linejoin:miter;stroke-miterlimit:10;"/></g><!--link Queue to Admission--><g class="link" data-entity-1="ent0011" data-entity-2="ent0012" data-link-type="dependency" data-source-line="47" id="lnk43"><path d="M980.58,1109.9386 C1022.23,1103.3386 1071.7815,1095.4907 1113.7115,1088.8507" fill="none" id="Queue-to-Admission" style="stroke:#334155;stroke-width:1.2;stroke-dasharray:7,7;"/><polygon fill="#334155" points="1118.65,1088.0686,1109.1351,1085.5256,1113.7115,1088.8507,1110.3864,1093.4271,1118.65,1088.0686" style="stroke:#334155;stroke-width:1.2;stroke-linejoin:miter;stroke-miterlimit:10;"/><text fill="#000000" font-family="DejaVu Sans" font-size="12" lengthAdjust="spacing" textLength="51.375" x="1023.78" y="1092.3845">&#171;include&#187;</text></g><!--link Lock to Admission--><g class="link" data-entity-1="ent0013" data-entity-2="ent0012" data-link-type="dependency" data-source-line="48" id="lnk44"><path d="M983.29,1056.8186 C1022.39,1060.9486 1067.0776,1065.664 1107.0776,1069.884" fill="none" id="Lock-to-Admission" style="stroke:#334155;stroke-width:1.2;stroke-dasharray:7,7;"/><polygon fill="#334155" points="1112.05,1070.4086,1103.5193,1065.4864,1107.0776,1069.884,1102.68,1073.4423,1112.05,1070.4086" style="stroke:#334155;stroke-width:1.2;stroke-linejoin:miter;stroke-miterlimit:10;"/><text fill="#000000" font-family="DejaVu Sans" font-size="12" lengthAdjust="spacing" textLength="51.375" x="1023.78" y="1058.6445">&#171;include&#187;</text></g><!--link Pay to Lock--><g class="link" data-entity-1="ent0015" data-entity-2="ent0013" data-link-type="dependency" data-source-line="49" id="lnk45"><path d="M667.66,894.7186 C717.32,925.7786 833.231,998.277 885.971,1031.267" fill="none" id="Pay-to-Lock" style="stroke:#334155;stroke-width:1.2;stroke-dasharray:7,7;"/><polygon fill="#334155" points="890.21,1033.9186,884.7011,1025.7546,885.971,1031.267,880.4585,1032.537,890.21,1033.9186" style="stroke:#334155;stroke-width:1.2;stroke-linejoin:miter;stroke-miterlimit:10;"/><text fill="#000000" font-family="DejaVu Sans" font-size="12" lengthAdjust="spacing" textLength="51.375" x="758.73" y="952.5345">&#171;include&#187;</text></g><!--link Compensate to Pay--><g class="link" data-entity-1="ent0016" data-entity-2="ent0015" data-link-type="dependency" data-source-line="50" id="lnk46"><path d="M342.33,649.0186 C397.47,661.4286 474.98,685.0086 531.36,726.8886 C583.67,765.7486 619.7119,831.5077 634.5519,861.8277" fill="none" id="Compensate-to-Pay" style="stroke:#334155;stroke-width:1.2;stroke-dasharray:7,7;"/><polygon fill="#334155" points="636.75,866.3186,636.3862,856.4765,634.5519,861.8277,629.2007,859.9934,636.75,866.3186" style="stroke:#334155;stroke-width:1.2;stroke-linejoin:miter;stroke-miterlimit:10;"/><text fill="#000000" font-family="DejaVu Sans" font-size="12" lengthAdjust="spacing" textLength="49.377" x="438.0387" y="647.2745">&#171;extend&#187;</text><text fill="#000000" font-family="DejaVu Sans" font-size="12" lengthAdjust="spacing" textLength="136.7344" x="394.36" y="661.0733">[gateway failure / timeout]</text></g><!--link Ticket to Pay--><g class="link" data-entity-1="ent0017" data-entity-2="ent0015" data-link-type="dependency" data-source-line="51" id="lnk47"><path d="M311.54,1049.8386 C327.69,1044.2786 346.67,1037.2786 363.36,1029.8886 C461.86,986.2986 569.0114,924.9356 616.1914,897.1556" fill="none" id="Ticket-to-Pay" style="stroke:#334155;stroke-width:1.2;stroke-dasharray:7,7;"/><polygon fill="#334155" points="620.5,894.6186,610.715,895.7382,616.1914,897.1556,614.7741,902.632,620.5,894.6186" style="stroke:#334155;stroke-width:1.2;stroke-linejoin:miter;stroke-miterlimit:10;"/><text fill="#000000" font-family="DejaVu Sans" font-size="12" lengthAdjust="spacing" textLength="49.377" x="437.7067" y="932.1845">&#171;extend&#187;</text><text fill="#000000" font-family="DejaVu Sans" font-size="12" lengthAdjust="spacing" textLength="114.0703" x="405.36" y="945.9833">[payment succeeded]</text></g><!--link Notify to Pay--><g class="link" data-entity-1="ent0024" data-entity-2="ent0015" data-link-type="dependency" data-source-line="52" id="lnk48"><path d="M317.41,729.9586 C332.05,736.1686 348.46,743.2386 363.36,749.8886 C456.76,791.6186 561.8023,841.6151 611.7423,865.5851" fill="none" id="Notify-to-Pay" style="stroke:#334155;stroke-width:1.2;stroke-dasharray:7,7;"/><polygon fill="#334155" points="616.25,867.7486,609.8671,860.2481,611.7423,865.5851,606.4054,867.4603,616.25,867.7486" style="stroke:#334155;stroke-width:1.2;stroke-linejoin:miter;stroke-miterlimit:10;"/><text fill="#000000" font-family="DejaVu Sans" font-size="12" lengthAdjust="spacing" textLength="49.377" x="437.7018" y="746.9145">&#171;extend&#187;</text><text fill="#000000" font-family="DejaVu Sans" font-size="12" lengthAdjust="spacing" textLength="88.0605" x="418.36" y="760.7133">[status changed]</text></g><!--link Publish to Event--><g class="link" data-entity-1="ent0021" data-entity-2="ent0020" data-link-type="dependency" data-source-line="53" id="lnk49"><path d="M333.95,414.3786 C400.71,402.6286 503.5556,384.525 572.7256,372.355" fill="none" id="Publish-to-Event" style="stroke:#334155;stroke-width:1.2;stroke-dasharray:7,7;"/><polygon fill="#334155" points="577.65,371.4886,568.093,369.1087,572.7256,372.355,569.4793,376.9877,577.65,371.4886" style="stroke:#334155;stroke-width:1.2;stroke-linejoin:miter;stroke-miterlimit:10;"/><text fill="#000000" font-family="DejaVu Sans" font-size="12" lengthAdjust="spacing" textLength="51.375" x="436.86" y="378.1745">&#171;include&#187;</text></g><?plantuml-src VLJBRjmm3BpxAzYz9xaNmG914XGeckQnIIvj3efCUucL9KEFJToYG3-YNzWlAINPNWjjUbaiHqE9vWpvZhHKeKRmM-pmc4AdAazU8LpkKNku9xb3Jxg56oLyOsm7lt_-WWU7S2xuvu94QqLNAMmyU0EMsgs7cYnAJqPNGdfZuJmuRpgqOtXjMw7fsnolDeFpsC5PtP4cvwrWT0N2PMHYtOYXYpLz41vVn908u_-9Sja9Kd02cwiDt5YpfnhpHLCm4pM_eYN2TO-7vwQWYkKBtN8RLc_rOGNVAu3WKCO-hEwmvShHykEEMWsaymS4lrtIBiX9isUQq3Kqf686nXTSea_7ovH7mXTGj4TmA3nqea_K3GTNebyoFnhIi2VhWr3m8YZLQutfKi9jm81boHBZjOARx1ohnGBkKC-DJzWouHwxtbXXIGsWZDobWdBXdpXSKizZSwCI2ZrOT6Zt8Xe2yBLdSwISp5bciSB0Al4hdbkYiiGC5ZURhaVjM7TeM6oiGMvHxapm-TBv-5-VUdi7FYcPk5dKejTegHcux7GdYxYavyEo5jrG6om2InWGb1YcEXuZiEHk-CewiAEIt4d_tf9aYH8_sQpeHNXMvBR0RWrz7Jyt9UQMvBE_NEA4GiTN2pLmtLcPiobQig-OqsAChKkbMCEPYVyGiQ9mvFCuBKwacMPlQUEf8PaKJKcV8p1KFwffqk7eQ9tDNo2plmjqid81PhiMK39PWOmMAh3ebm8OPPwtJWApFYMMDIYngTKbUcXgsb09ouqxnFc5GppUFgwOaP8SDIwnkVffMILWR6rg1nmVhm-Z2U_Xz7JSt-jr5RlpNqAShdYUYENHOgWY8p8Z0Lzv3klr-gl-qeurnfcBXZ_XoUYGtVvKvVw-bTYFMzi5AH5hh9-g_4bl9JWlV70yWRo08tiQX4ZFoxYe_Gy0?></g></svg>